<?xml version="1.0" encoding="utf-8"?>
<!-- Generator: Adobe Illustrator 18.0.0, SVG Export Plug-In . SVG Version: 6.00 Build 0)  -->
<!DOCTYPE svg PUBLIC "-//W3C//DTD SVG 1.1//EN" "http://www.w3.org/Graphics/SVG/1.1/DTD/svg11.dtd">
<svg version="1.1" id="Layer_1" xmlns="http://www.w3.org/2000/svg" xmlns:xlink="http://www.w3.org/1999/xlink" x="0px" y="0px"
	 viewBox="0 0 49 49" enable-background="new 0 0 49 49" fill ="white" xml:space="preserve">
<path d="M24.5,0C11,0,0,11,0,24.5C0,38,11,49,24.5,49C38,49,49,38,49,24.5C49,11,38,0,24.5,0z M38.4,22.3L25.5,35.2
	c-0.4,0.4-0.8,0.5-1.3,0.5s-0.9-0.2-1.3-0.5L10.1,22.3c-0.7-0.7-0.7-1.9,0-2.6c0.7-0.7,1.9-0.7,2.6,0l11.6,11.6l11.6-11.6
	c0.7-0.7,1.9-0.7,2.6,0C39.2,20.5,39.2,21.6,38.4,22.3z"/>
</svg>
