<?xml version="1.0" encoding="utf-8"?>
<!-- Generator: Adobe Illustrator 18.0.0, SVG Export Plug-In . SVG Version: 6.00 Build 0)  -->
<!DOCTYPE svg PUBLIC "-//W3C//DTD SVG 1.1//EN" "http://www.w3.org/Graphics/SVG/1.1/DTD/svg11.dtd">
<svg version="1.1" id="Layer_1" xmlns="http://www.w3.org/2000/svg" xmlns:xlink="http://www.w3.org/1999/xlink" x="0px" y="0px"
	 viewBox="0 0 886.3 314.6" enable-background="new 0 0 886.3 314.6" xml:space="preserve">
<g>
	<g>
		<path fill="#ABABB4" d="M146.1,256.4h-3.7v2.8h4.4v1.5h-6.4v-10h6.4v1.5h-4.4v2.5h3.7V256.4z"/>
		<path fill="#ABABB4" d="M156.3,260.8h-2l-4-6.7l0,0v6.7h-2v-10h2l4,6.7l0,0v-6.7h2V260.8z"/>
		<path fill="#ABABB4" d="M163.8,256.4h-3.7v2.8h4.4v1.5h-6.4v-10h6.4v1.5h-4.4v2.5h3.7V256.4z"/>
	</g>
	<g opacity="0.33">
		<path fill="#ABABB4" d="M8.1,199.5L8.1,199.5c1,0,1.8,0.3,2.4,0.9s0.8,1.5,0.8,2.6c0,1.1-0.4,2-1.1,2.7c-0.7,0.7-1.6,1-2.8,1H5.6
			c-1.1,0-2-0.3-2.8-1c-0.7-0.7-1.1-1.5-1.1-2.6c0-1.1,0.3-2,0.8-2.6s1.3-0.9,2.3-0.9l0,0v1.8c-0.6,0-1,0.1-1.3,0.4
			c-0.3,0.3-0.4,0.7-0.4,1.3c0,0.6,0.2,1,0.7,1.3c0.4,0.3,1,0.5,1.7,0.5h1.8c0.7,0,1.3-0.2,1.7-0.5c0.4-0.3,0.7-0.8,0.7-1.4
			c0-0.6-0.1-1-0.4-1.2c-0.3-0.3-0.7-0.4-1.3-0.4V199.5z"/>
		<path fill="#ABABB4" d="M9.1,193.3v3l2,0.6v1.9l-9.2-3.1v-1.9l9.2-3.1v1.9L9.1,193.3z M7.7,195.8v-2.1l-3.3,1v0L7.7,195.8z"/>
		<path fill="#ABABB4" d="M11.1,182.4v1.9L4.9,188l0,0h6.2v1.9H1.9V188l6.2-3.7l0,0H1.9v-1.9H11.1z"/>
		<path fill="#ABABB4" d="M3.3,174.4v2.6h7.8v1.9H3.3v2.6H1.9v-7.1H3.3z"/>
		<path fill="#ABABB4" d="M11.1,171.4v1.9H1.9v-1.9H11.1z"/>
		<path fill="#ABABB4" d="M11.1,169.6H1.9v-3.2c0-1.1,0.4-2.1,1.1-2.8c0.7-0.7,1.6-1.1,2.8-1.1h1.5c1.1,0,2.1,0.4,2.8,1.1
			c0.7,0.7,1.1,1.7,1.1,2.8V169.6z M3.3,167.7h6.4v-1.4c0-0.6-0.2-1.1-0.7-1.5c-0.5-0.4-1-0.6-1.7-0.6H5.7c-0.7,0-1.3,0.2-1.7,0.6
			s-0.7,0.9-0.7,1.5V167.7z"/>
		<path fill="#ABABB4" d="M9.1,156.3v3l2,0.6v1.9l-9.2-3.1v-1.9l9.2-3.1v1.9L9.1,156.3z M7.7,158.8v-2.1l-3.3,1v0L7.7,158.8z"/>
		<path fill="#ABABB4" d="M11.1,152.8H1.9v-3.2c0-1.1,0.4-2.1,1.1-2.8c0.7-0.7,1.6-1.1,2.8-1.1h1.5c1.1,0,2.1,0.4,2.8,1.1
			c0.7,0.7,1.1,1.7,1.1,2.8V152.8z M3.3,151h6.4v-1.4c0-0.6-0.2-1.1-0.7-1.5c-0.5-0.4-1-0.6-1.7-0.6H5.7c-0.7,0-1.3,0.2-1.7,0.6
			s-0.7,0.9-0.7,1.5V151z"/>
		<path fill="#ABABB4" d="M11.1,141H1.9v-3.2c0-1.1,0.4-2.1,1.1-2.8c0.7-0.7,1.6-1.1,2.8-1.1h1.5c1.1,0,2.1,0.4,2.8,1.1
			c0.7,0.7,1.1,1.7,1.1,2.8V141z M3.3,139.2h6.4v-1.4c0-0.6-0.2-1.1-0.7-1.5c-0.5-0.4-1-0.6-1.7-0.6H5.7c-0.7,0-1.3,0.2-1.7,0.6
			s-0.7,0.9-0.7,1.5V139.2z"/>
		<path fill="#ABABB4" d="M7.1,127.1v3.4h2.6v-4.1h1.4v5.9H1.9v-5.9h1.4v4.1h2.3v-3.4H7.1z"/>
		<path fill="#ABABB4" d="M7.8,120.1h3.4v1.9H1.9v-3.5c0-1.1,0.3-1.9,0.8-2.5s1.3-0.9,2.1-0.9s1.6,0.3,2.1,0.9s0.8,1.4,0.8,2.5
			V120.1z M6.3,120.1v-1.7c0-0.5-0.1-0.9-0.4-1.2c-0.3-0.3-0.6-0.4-1.1-0.4c-0.4,0-0.8,0.1-1.1,0.4c-0.3,0.3-0.4,0.7-0.4,1.2v1.7
			H6.3z"/>
		<path fill="#ABABB4" d="M9.1,110v3l2,0.6v1.9l-9.2-3.1v-1.9l9.2-3.1v1.9L9.1,110z M7.7,112.5v-2.1l-3.3,1v0L7.7,112.5z"/>
		<path fill="#ABABB4" d="M8.7,101.7c-0.4,0-0.6,0.1-0.9,0.4c-0.2,0.2-0.4,0.7-0.6,1.3c-0.3,1.1-0.7,1.9-1.1,2.4
			c-0.4,0.6-1,0.8-1.8,0.8c-0.8,0-1.4-0.3-1.9-0.9c-0.5-0.6-0.7-1.4-0.7-2.4c0-1,0.3-1.8,0.8-2.5c0.5-0.6,1.2-0.9,2-0.9l0,0v1.8
			c-0.5,0-0.8,0.1-1.1,0.4c-0.2,0.3-0.4,0.7-0.4,1.2c0,0.5,0.1,0.8,0.3,1.1s0.5,0.4,0.8,0.4c0.3,0,0.6-0.1,0.8-0.4
			c0.2-0.3,0.4-0.7,0.6-1.4c0.3-1,0.7-1.8,1.1-2.3c0.5-0.5,1.1-0.8,1.8-0.8c0.8,0,1.4,0.3,1.9,0.9s0.7,1.4,0.7,2.5
			c0,1-0.2,1.8-0.7,2.6c-0.5,0.7-1.2,1.1-2.2,1l0,0V105c0.5,0,0.9-0.2,1.2-0.5s0.4-0.8,0.4-1.3c0-0.5-0.1-0.9-0.3-1.1
			C9.3,101.8,9.1,101.7,8.7,101.7z"/>
		<path fill="#ABABB4" d="M9.1,93.7v3l2,0.6v1.9l-9.2-3.1v-1.9l9.2-3.1V93L9.1,93.7z M7.7,96.2v-2.1l-3.3,1v0L7.7,96.2z"/>
		<path fill="#ABABB4" d="M1.9,86.5v-1.8h6.4c0.9,0,1.6,0.3,2.2,0.8c0.5,0.6,0.8,1.3,0.8,2.2c0,1-0.2,1.8-0.7,2.3s-1.2,0.8-2.1,0.8
			l0,0V89c0.5,0,0.9-0.1,1.1-0.4c0.2-0.2,0.4-0.6,0.4-1c0-0.3-0.1-0.6-0.4-0.8c-0.3-0.2-0.7-0.3-1.2-0.3H1.9z"/>
		<path fill="#ABABB4" d="M7.1,77.7v3.4h2.6v-4.1h1.4V83H1.9v-5.9h1.4v4.1h2.3v-3.4H7.1z"/>
		<path fill="#ABABB4" d="M7.4,73.9h3.7v1.9H1.9v-3.2c0-1.1,0.2-1.9,0.7-2.5c0.5-0.6,1.1-0.9,2-0.9c0.5,0,0.9,0.1,1.2,0.4
			c0.3,0.3,0.6,0.6,0.8,1.1c0.2-0.5,0.4-0.9,0.8-1.2c0.4-0.2,0.8-0.4,1.4-0.4h0.7c0.3,0,0.5,0,0.8-0.1c0.3-0.1,0.5-0.2,0.6-0.4h0.1
			v1.9c-0.1,0.2-0.4,0.3-0.7,0.3C10.1,71,9.8,71,9.5,71H8.9c-0.5,0-0.8,0.1-1.1,0.4c-0.3,0.3-0.4,0.6-0.4,1.1V73.9z M6,73.9v-1.3
			c0-0.5-0.1-0.9-0.3-1.2S5.1,71,4.7,71c-0.4,0-0.8,0.1-1,0.4c-0.2,0.3-0.4,0.6-0.4,1.1v1.3H6z"/>
		<path fill="#ABABB4" d="M7.3,60c1.1,0,2.1,0.4,2.8,1.1c0.7,0.7,1.1,1.6,1.1,2.8c0,1.1-0.4,2.1-1.1,2.8s-1.7,1.1-2.8,1.1H5.7
			c-1.1,0-2.1-0.4-2.8-1.1c-0.7-0.7-1.1-1.6-1.1-2.8c0-1.1,0.4-2.1,1.1-2.8C3.6,60.4,4.5,60,5.7,60H7.3z M5.7,61.8
			c-0.7,0-1.3,0.2-1.8,0.5s-0.7,0.9-0.7,1.5c0,0.6,0.2,1.1,0.7,1.5c0.5,0.3,1.1,0.5,1.8,0.5h1.7c0.7,0,1.3-0.2,1.8-0.5
			s0.7-0.8,0.7-1.5c0-0.6-0.2-1.1-0.7-1.5s-1.1-0.5-1.8-0.5H5.7z"/>
		<path fill="#ABABB4" d="M8.7,53.7c-0.4,0-0.6,0.1-0.9,0.4c-0.2,0.2-0.4,0.7-0.6,1.3c-0.3,1.1-0.7,1.9-1.1,2.4
			c-0.4,0.6-1,0.8-1.8,0.8c-0.8,0-1.4-0.3-1.9-0.9c-0.5-0.6-0.7-1.4-0.7-2.4c0-1,0.3-1.8,0.8-2.5c0.5-0.6,1.2-0.9,2-0.9l0,0v1.8
			c-0.5,0-0.8,0.1-1.1,0.4c-0.2,0.3-0.4,0.7-0.4,1.2c0,0.5,0.1,0.8,0.3,1.1s0.5,0.4,0.8,0.4c0.3,0,0.6-0.1,0.8-0.4
			c0.2-0.3,0.4-0.7,0.6-1.4c0.3-1,0.7-1.8,1.1-2.3c0.5-0.5,1.1-0.8,1.8-0.8c0.8,0,1.4,0.3,1.9,0.9s0.7,1.4,0.7,2.5
			c0,1-0.2,1.8-0.7,2.6c-0.5,0.7-1.2,1.1-2.2,1l0,0V57c0.5,0,0.9-0.2,1.2-0.5s0.4-0.8,0.4-1.3c0-0.5-0.1-0.9-0.3-1.1
			C9.3,53.8,9.1,53.7,8.7,53.7z"/>
	</g>
	<g opacity="0.33">
		<path fill="#ABABB4" d="M51.6,38.8h-2v-8.2h-2.1v-1.5l4-0.4V38.8z"/>
		<path fill="#ABABB4" d="M57.1,38.8h-2v-1.8h2V38.8z"/>
		<path fill="#ABABB4" d="M64.8,35.1h1.1v1.5h-1.1v2.2h-2v-2.2h-4.1l-0.1-1.2l4.1-6.6h2V35.1z M60.4,35.1h2.3v-3.6l0,0l-0.2,0.4
			L60.4,35.1z"/>
		<path fill="#ABABB4" d="M73.6,35.2c0,1.2-0.3,2.1-0.9,2.7s-1.4,1-2.4,1c-1,0-1.8-0.3-2.5-1s-0.9-1.6-0.9-2.7v-2.7
			c0-1.2,0.3-2.1,0.9-2.7s1.4-1,2.4-1c1,0,1.8,0.3,2.4,1s0.9,1.6,0.9,2.7V35.2z M71.7,32.3c0-0.6-0.1-1.1-0.4-1.5s-0.6-0.5-1-0.5
			c-0.4,0-0.8,0.2-1,0.5s-0.4,0.8-0.4,1.5v3.1c0,0.7,0.1,1.2,0.4,1.5s0.6,0.5,1,0.5c0.4,0,0.8-0.2,1-0.5s0.4-0.8,0.4-1.5V32.3z"/>
		<path fill="#ABABB4" d="M81.7,35.2c0,1.2-0.3,2.1-0.9,2.7s-1.4,1-2.4,1c-1,0-1.8-0.3-2.5-1s-0.9-1.6-0.9-2.7v-2.7
			c0-1.2,0.3-2.1,0.9-2.7s1.4-1,2.4-1c1,0,1.8,0.3,2.4,1s0.9,1.6,0.9,2.7V35.2z M79.7,32.3c0-0.6-0.1-1.1-0.4-1.5s-0.6-0.5-1-0.5
			c-0.4,0-0.8,0.2-1,0.5s-0.4,0.8-0.4,1.5v3.1c0,0.7,0.1,1.2,0.4,1.5s0.6,0.5,1,0.5c0.4,0,0.8-0.2,1-0.5s0.4-0.8,0.4-1.5V32.3z"/>
		<path fill="#ABABB4" d="M85.3,38.8h-2v-1.8h2V38.8z"/>
		<path fill="#ABABB4" d="M93.8,35.2c0,1.2-0.3,2.1-0.9,2.7s-1.4,1-2.4,1c-1,0-1.8-0.3-2.5-1S87,36.4,87,35.2v-2.7
			c0-1.2,0.3-2.1,0.9-2.7s1.4-1,2.4-1c1,0,1.8,0.3,2.4,1s0.9,1.6,0.9,2.7V35.2z M91.8,32.3c0-0.6-0.1-1.1-0.4-1.5s-0.6-0.5-1-0.5
			c-0.4,0-0.8,0.2-1,0.5S89,31.6,89,32.3v3.1c0,0.7,0.1,1.2,0.4,1.5s0.6,0.5,1,0.5c0.4,0,0.8-0.2,1-0.5s0.4-0.8,0.4-1.5V32.3z"/>
		<path fill="#ABABB4" d="M101.8,35.2c0,1.2-0.3,2.1-0.9,2.7s-1.4,1-2.4,1c-1,0-1.8-0.3-2.5-1s-0.9-1.6-0.9-2.7v-2.7
			c0-1.2,0.3-2.1,0.9-2.7s1.4-1,2.4-1c1,0,1.8,0.3,2.4,1s0.9,1.6,0.9,2.7V35.2z M99.8,32.3c0-0.6-0.1-1.1-0.4-1.5s-0.6-0.5-1-0.5
			c-0.4,0-0.8,0.2-1,0.5s-0.4,0.8-0.4,1.5v3.1c0,0.7,0.1,1.2,0.4,1.5s0.6,0.5,1,0.5c0.4,0,0.8-0.2,1-0.5s0.4-0.8,0.4-1.5V32.3z"/>
		<path fill="#ABABB4" d="M109.8,35.2c0,1.2-0.3,2.1-0.9,2.7s-1.4,1-2.4,1c-1,0-1.8-0.3-2.5-1s-0.9-1.6-0.9-2.7v-2.7
			c0-1.2,0.3-2.1,0.9-2.7s1.4-1,2.4-1c1,0,1.8,0.3,2.4,1s0.9,1.6,0.9,2.7V35.2z M107.9,32.3c0-0.6-0.1-1.1-0.4-1.5s-0.6-0.5-1-0.5
			c-0.4,0-0.8,0.2-1,0.5s-0.4,0.8-0.4,1.5v3.1c0,0.7,0.1,1.2,0.4,1.5s0.6,0.5,1,0.5c0.4,0,0.8-0.2,1-0.5s0.4-0.8,0.4-1.5V32.3z"/>
		<path fill="#ABABB4" d="M51.6,105.8h-2v-8.2h-2.1v-1.5l4-0.4V105.8z"/>
		<path fill="#ABABB4" d="M57.1,105.8h-2v-1.8h2V105.8z"/>
		<path fill="#ABABB4" d="M65.6,102.2c0,1.2-0.3,2.1-0.9,2.7s-1.4,1-2.4,1c-1,0-1.8-0.3-2.5-1s-0.9-1.6-0.9-2.7v-2.7
			c0-1.2,0.3-2.1,0.9-2.7s1.4-1,2.4-1c1,0,1.8,0.3,2.4,1s0.9,1.6,0.9,2.7V102.2z M63.6,99.3c0-0.6-0.1-1.1-0.4-1.5s-0.6-0.5-1-0.5
			c-0.4,0-0.8,0.2-1,0.5s-0.4,0.8-0.4,1.5v3.1c0,0.7,0.1,1.2,0.4,1.5s0.6,0.5,1,0.5c0.4,0,0.8-0.2,1-0.5s0.4-0.8,0.4-1.5V99.3z"/>
		<path fill="#ABABB4" d="M73.6,102.2c0,1.2-0.3,2.1-0.9,2.7s-1.4,1-2.4,1c-1,0-1.8-0.3-2.5-1s-0.9-1.6-0.9-2.7v-2.7
			c0-1.2,0.3-2.1,0.9-2.7s1.4-1,2.4-1c1,0,1.8,0.3,2.4,1s0.9,1.6,0.9,2.7V102.2z M71.7,99.3c0-0.6-0.1-1.1-0.4-1.5s-0.6-0.5-1-0.5
			c-0.4,0-0.8,0.2-1,0.5s-0.4,0.8-0.4,1.5v3.1c0,0.7,0.1,1.2,0.4,1.5s0.6,0.5,1,0.5c0.4,0,0.8-0.2,1-0.5s0.4-0.8,0.4-1.5V99.3z"/>
		<path fill="#ABABB4" d="M81.7,102.2c0,1.2-0.3,2.1-0.9,2.7s-1.4,1-2.4,1c-1,0-1.8-0.3-2.5-1s-0.9-1.6-0.9-2.7v-2.7
			c0-1.2,0.3-2.1,0.9-2.7s1.4-1,2.4-1c1,0,1.8,0.3,2.4,1s0.9,1.6,0.9,2.7V102.2z M79.7,99.3c0-0.6-0.1-1.1-0.4-1.5s-0.6-0.5-1-0.5
			c-0.4,0-0.8,0.2-1,0.5s-0.4,0.8-0.4,1.5v3.1c0,0.7,0.1,1.2,0.4,1.5s0.6,0.5,1,0.5c0.4,0,0.8-0.2,1-0.5s0.4-0.8,0.4-1.5V99.3z"/>
		<path fill="#ABABB4" d="M85.3,105.8h-2v-1.8h2V105.8z"/>
		<path fill="#ABABB4" d="M93.8,102.2c0,1.2-0.3,2.1-0.9,2.7s-1.4,1-2.4,1c-1,0-1.8-0.3-2.5-1s-0.9-1.6-0.9-2.7v-2.7
			c0-1.2,0.3-2.1,0.9-2.7s1.4-1,2.4-1c1,0,1.8,0.3,2.4,1s0.9,1.6,0.9,2.7V102.2z M91.8,99.3c0-0.6-0.1-1.1-0.4-1.5s-0.6-0.5-1-0.5
			c-0.4,0-0.8,0.2-1,0.5S89,98.6,89,99.3v3.1c0,0.7,0.1,1.2,0.4,1.5s0.6,0.5,1,0.5c0.4,0,0.8-0.2,1-0.5s0.4-0.8,0.4-1.5V99.3z"/>
		<path fill="#ABABB4" d="M101.8,102.2c0,1.2-0.3,2.1-0.9,2.7s-1.4,1-2.4,1c-1,0-1.8-0.3-2.5-1s-0.9-1.6-0.9-2.7v-2.7
			c0-1.2,0.3-2.1,0.9-2.7s1.4-1,2.4-1c1,0,1.8,0.3,2.4,1s0.9,1.6,0.9,2.7V102.2z M99.8,99.3c0-0.6-0.1-1.1-0.4-1.5s-0.6-0.5-1-0.5
			c-0.4,0-0.8,0.2-1,0.5s-0.4,0.8-0.4,1.5v3.1c0,0.7,0.1,1.2,0.4,1.5s0.6,0.5,1,0.5c0.4,0,0.8-0.2,1-0.5s0.4-0.8,0.4-1.5V99.3z"/>
		<path fill="#ABABB4" d="M109.8,102.2c0,1.2-0.3,2.1-0.9,2.7s-1.4,1-2.4,1c-1,0-1.8-0.3-2.5-1s-0.9-1.6-0.9-2.7v-2.7
			c0-1.2,0.3-2.1,0.9-2.7s1.4-1,2.4-1c1,0,1.8,0.3,2.4,1s0.9,1.6,0.9,2.7V102.2z M107.9,99.3c0-0.6-0.1-1.1-0.4-1.5s-0.6-0.5-1-0.5
			c-0.4,0-0.8,0.2-1,0.5s-0.4,0.8-0.4,1.5v3.1c0,0.7,0.1,1.2,0.4,1.5s0.6,0.5,1,0.5c0.4,0,0.8-0.2,1-0.5s0.4-0.8,0.4-1.5V99.3z"/>
		<path fill="#ABABB4" d="M64.8,169.1h1.1v1.5h-1.1v2.2h-2v-2.2h-4.1l-0.1-1.2l4.1-6.6h2V169.1z M60.4,169.1h2.3v-3.6l0,0l-0.2,0.4
			L60.4,169.1z"/>
		<path fill="#ABABB4" d="M73.6,169.2c0,1.2-0.3,2.1-0.9,2.7c-0.6,0.7-1.4,1-2.4,1c-1,0-1.8-0.3-2.5-1c-0.6-0.7-0.9-1.6-0.9-2.7
			v-2.7c0-1.2,0.3-2.1,0.9-2.7s1.4-1,2.4-1c1,0,1.8,0.3,2.4,1s0.9,1.6,0.9,2.7V169.2z M71.7,166.3c0-0.6-0.1-1.1-0.4-1.5
			c-0.2-0.4-0.6-0.5-1-0.5c-0.4,0-0.8,0.2-1,0.5c-0.2,0.4-0.4,0.8-0.4,1.5v3.1c0,0.7,0.1,1.2,0.4,1.5s0.6,0.5,1,0.5
			c0.4,0,0.8-0.2,1-0.5s0.4-0.8,0.4-1.5V166.3z"/>
		<path fill="#ABABB4" d="M81.7,169.2c0,1.2-0.3,2.1-0.9,2.7c-0.6,0.7-1.4,1-2.4,1c-1,0-1.8-0.3-2.5-1c-0.6-0.7-0.9-1.6-0.9-2.7
			v-2.7c0-1.2,0.3-2.1,0.9-2.7s1.4-1,2.4-1c1,0,1.8,0.3,2.4,1s0.9,1.6,0.9,2.7V169.2z M79.7,166.3c0-0.6-0.1-1.1-0.4-1.5
			c-0.2-0.4-0.6-0.5-1-0.5c-0.4,0-0.8,0.2-1,0.5c-0.2,0.4-0.4,0.8-0.4,1.5v3.1c0,0.7,0.1,1.2,0.4,1.5s0.6,0.5,1,0.5
			c0.4,0,0.8-0.2,1-0.5s0.4-0.8,0.4-1.5V166.3z"/>
		<path fill="#ABABB4" d="M85.3,172.8h-2v-1.8h2V172.8z"/>
		<path fill="#ABABB4" d="M93.8,169.2c0,1.2-0.3,2.1-0.9,2.7c-0.6,0.7-1.4,1-2.4,1c-1,0-1.8-0.3-2.5-1c-0.6-0.7-0.9-1.6-0.9-2.7
			v-2.7c0-1.2,0.3-2.1,0.9-2.7s1.4-1,2.4-1c1,0,1.8,0.3,2.4,1s0.9,1.6,0.9,2.7V169.2z M91.8,166.3c0-0.6-0.1-1.1-0.4-1.5
			c-0.2-0.4-0.6-0.5-1-0.5c-0.4,0-0.8,0.2-1,0.5c-0.2,0.4-0.4,0.8-0.4,1.5v3.1c0,0.7,0.1,1.2,0.4,1.5s0.6,0.5,1,0.5
			c0.4,0,0.8-0.2,1-0.5s0.4-0.8,0.4-1.5V166.3z"/>
		<path fill="#ABABB4" d="M101.8,169.2c0,1.2-0.3,2.1-0.9,2.7c-0.6,0.7-1.4,1-2.4,1c-1,0-1.8-0.3-2.5-1c-0.6-0.7-0.9-1.6-0.9-2.7
			v-2.7c0-1.2,0.3-2.1,0.9-2.7s1.4-1,2.4-1c1,0,1.8,0.3,2.4,1s0.9,1.6,0.9,2.7V169.2z M99.8,166.3c0-0.6-0.1-1.1-0.4-1.5
			c-0.2-0.4-0.6-0.5-1-0.5c-0.4,0-0.8,0.2-1,0.5c-0.2,0.4-0.4,0.8-0.4,1.5v3.1c0,0.7,0.1,1.2,0.4,1.5s0.6,0.5,1,0.5
			c0.4,0,0.8-0.2,1-0.5s0.4-0.8,0.4-1.5V166.3z"/>
		<path fill="#ABABB4" d="M109.8,169.2c0,1.2-0.3,2.1-0.9,2.7c-0.6,0.7-1.4,1-2.4,1c-1,0-1.8-0.3-2.5-1c-0.6-0.7-0.9-1.6-0.9-2.7
			v-2.7c0-1.2,0.3-2.1,0.9-2.7s1.4-1,2.4-1c1,0,1.8,0.3,2.4,1s0.9,1.6,0.9,2.7V169.2z M107.9,166.3c0-0.6-0.1-1.1-0.4-1.5
			c-0.2-0.4-0.6-0.5-1-0.5c-0.4,0-0.8,0.2-1,0.5c-0.2,0.4-0.4,0.8-0.4,1.5v3.1c0,0.7,0.1,1.2,0.4,1.5s0.6,0.5,1,0.5
			c0.4,0,0.8-0.2,1-0.5s0.4-0.8,0.4-1.5V166.3z"/>
		<path fill="#ABABB4" d="M109.8,236.2c0,1.2-0.3,2.1-0.9,2.7c-0.6,0.7-1.4,1-2.4,1c-1,0-1.8-0.3-2.5-1c-0.6-0.7-0.9-1.6-0.9-2.7
			v-2.7c0-1.2,0.3-2.1,0.9-2.7s1.4-1,2.4-1c1,0,1.8,0.3,2.4,1s0.9,1.6,0.9,2.7V236.2z M107.9,233.3c0-0.6-0.1-1.1-0.4-1.5
			c-0.2-0.4-0.6-0.5-1-0.5c-0.4,0-0.8,0.2-1,0.5c-0.2,0.4-0.4,0.8-0.4,1.5v3.1c0,0.7,0.1,1.2,0.4,1.5s0.6,0.5,1,0.5
			c0.4,0,0.8-0.2,1-0.5s0.4-0.8,0.4-1.5V233.3z"/>
	</g>
	<g>
		<path fill="#ABABB4" d="M211.7,256.7h-3.8v4.1h-2v-10h6.5v1.5h-4.5v2.7h3.8V256.7z"/>
		<path fill="#ABABB4" d="M219.4,256.4h-3.7v2.8h4.4v1.5h-6.4v-10h6.4v1.5h-4.4v2.5h3.7V256.4z"/>
		<path fill="#ABABB4" d="M221.5,260.8v-10h3.3c1.2,0,2.1,0.2,2.7,0.7s1,1.1,1,2c0,0.5-0.1,0.9-0.4,1.2c-0.2,0.4-0.6,0.6-1,0.8
			c0.6,0.1,1.1,0.4,1.4,0.8s0.5,0.9,0.5,1.5c0,1-0.3,1.7-0.9,2.2s-1.5,0.7-2.7,0.7H221.5z M223.5,255h1.3c0.5,0,0.9-0.1,1.2-0.3
			s0.4-0.5,0.4-1c0-0.5-0.1-0.8-0.4-1s-0.7-0.3-1.3-0.3h-1.3V255z M223.5,256.4v2.9h1.9c0.5,0,0.9-0.1,1.2-0.3s0.4-0.6,0.4-1
			c0-0.5-0.1-0.9-0.4-1.1s-0.7-0.4-1.2-0.4H223.5z"/>
	</g>
	<g>
		<path fill="#ABABB4" d="M276.2,258.2L276.2,258.2l2.6-7.3h2.6v10h-2V254l0,0l-2.5,6.8h-1.4l-2.5-6.8l0,0v6.8h-2v-10h2.6
			L276.2,258.2z"/>
		<path fill="#ABABB4" d="M288.6,258.7h-3.2l-0.7,2.1h-2.1l3.4-10h2l3.3,10h-2.1L288.6,258.7z M285.8,257.1h2.2l-1.1-3.5h0
			L285.8,257.1z"/>
		<path fill="#ABABB4" d="M294.3,256.8v4h-2v-10h3.4c1.1,0,2,0.3,2.7,0.8s1,1.2,1,2.2c0,0.5-0.1,1-0.4,1.3s-0.7,0.7-1.2,0.9
			c0.6,0.2,1,0.5,1.3,0.9c0.3,0.4,0.4,0.9,0.4,1.5v0.7c0,0.3,0,0.6,0.1,0.9s0.2,0.5,0.4,0.7v0.1h-2.1c-0.2-0.1-0.3-0.4-0.4-0.7
			c-0.1-0.3-0.1-0.7-0.1-1v-0.7c0-0.5-0.1-0.9-0.4-1.2s-0.7-0.4-1.2-0.4H294.3z M294.3,255.3h1.4c0.6,0,1-0.1,1.3-0.4
			c0.3-0.2,0.4-0.6,0.4-1.1c0-0.5-0.1-0.8-0.4-1.1c-0.3-0.3-0.7-0.4-1.2-0.4h-1.4V255.3z"/>
	</g>
	<g>
		<path fill="#ABABB4" d="M340,258.7h-3.2l-0.7,2.1H334l3.4-10h2l3.3,10h-2.1L340,258.7z M337.2,257.1h2.2l-1.1-3.5h0L337.2,257.1z"
			/>
		<path fill="#ABABB4" d="M343.7,260.8v-10h3.3c1.2,0,2.1,0.2,2.7,0.7s1,1.1,1,2c0,0.5-0.1,0.9-0.4,1.2c-0.2,0.4-0.6,0.6-1,0.8
			c0.6,0.1,1.1,0.4,1.4,0.8s0.5,0.9,0.5,1.5c0,1-0.3,1.7-0.9,2.2s-1.5,0.7-2.7,0.7H343.7z M345.7,255h1.3c0.5,0,0.9-0.1,1.2-0.3
			s0.4-0.5,0.4-1c0-0.5-0.1-0.8-0.4-1s-0.7-0.3-1.3-0.3h-1.3V255z M345.7,256.4v2.9h1.9c0.5,0,0.9-0.1,1.2-0.3s0.4-0.6,0.4-1
			c0-0.5-0.1-0.9-0.4-1.1s-0.7-0.4-1.2-0.4H345.7z"/>
		<path fill="#ABABB4" d="M354.6,256.8v4h-2v-10h3.4c1.1,0,2,0.3,2.7,0.8s1,1.2,1,2.2c0,0.5-0.1,1-0.4,1.3s-0.7,0.7-1.2,0.9
			c0.6,0.2,1,0.5,1.3,0.9c0.3,0.4,0.4,0.9,0.4,1.5v0.7c0,0.3,0,0.6,0.1,0.9s0.2,0.5,0.4,0.7v0.1h-2.1c-0.2-0.1-0.3-0.4-0.4-0.7
			c-0.1-0.3-0.1-0.7-0.1-1v-0.7c0-0.5-0.1-0.9-0.4-1.2s-0.7-0.4-1.2-0.4H354.6z M354.6,255.3h1.4c0.6,0,1-0.1,1.3-0.4
			c0.3-0.2,0.4-0.6,0.4-1.1c0-0.5-0.1-0.8-0.4-1.1c-0.3-0.3-0.7-0.4-1.2-0.4h-1.4V255.3z"/>
	</g>
	<g>
		<path fill="#ABABB4" d="M403.9,258.2L403.9,258.2l2.6-7.3h2.6v10h-2V254l0,0l-2.5,6.8h-1.4l-2.5-6.8l0,0v6.8h-2v-10h2.6
			L403.9,258.2z"/>
		<path fill="#ABABB4" d="M416.2,258.7H413l-0.7,2.1h-2.1l3.4-10h2l3.3,10h-2.1L416.2,258.7z M413.5,257.1h2.2l-1.1-3.5h0
			L413.5,257.1z"/>
		<path fill="#ABABB4" d="M422.2,255.4L422.2,255.4l2.2-4.6h2.2l-3.4,6.5v3.5h-2v-3.6l-3.4-6.3h2.2L422.2,255.4z"/>
	</g>
	<g>
		<path fill="#ABABB4" d="M468.5,250.8h2v6.9c0,1-0.3,1.8-0.9,2.4c-0.6,0.6-1.4,0.9-2.3,0.9c-1.1,0-1.9-0.3-2.5-0.8
			s-0.9-1.3-0.9-2.3l0,0h1.9c0,0.5,0.1,0.9,0.4,1.2s0.6,0.4,1,0.4c0.4,0,0.7-0.2,0.9-0.5s0.3-0.7,0.3-1.2V250.8z"/>
		<path fill="#ABABB4" d="M480.2,250.8v6.5c0,1.1-0.4,2-1.1,2.6c-0.7,0.6-1.7,0.9-2.9,0.9c-1.2,0-2.1-0.3-2.9-0.9
			c-0.7-0.6-1.1-1.5-1.1-2.6v-6.5h2v6.5c0,0.7,0.2,1.2,0.5,1.5c0.4,0.4,0.8,0.5,1.4,0.5c0.6,0,1.1-0.2,1.5-0.5
			c0.4-0.4,0.5-0.9,0.5-1.5v-6.5H480.2z"/>
		<path fill="#ABABB4" d="M490,260.8h-2l-4-6.7l0,0v6.7h-2v-10h2l4,6.7l0,0v-6.7h2V260.8z"/>
	</g>
	<g>
		<path fill="#ABABB4" d="M534.5,250.8h2v6.9c0,1-0.3,1.8-0.9,2.4c-0.6,0.6-1.4,0.9-2.3,0.9c-1.1,0-1.9-0.3-2.5-0.8
			s-0.9-1.3-0.9-2.3l0,0h1.9c0,0.5,0.1,0.9,0.4,1.2s0.6,0.4,1,0.4c0.4,0,0.7-0.2,0.9-0.5s0.3-0.7,0.3-1.2V250.8z"/>
		<path fill="#ABABB4" d="M546.2,250.8v6.5c0,1.1-0.4,2-1.1,2.6c-0.7,0.6-1.7,0.9-2.9,0.9c-1.2,0-2.1-0.3-2.9-0.9
			c-0.7-0.6-1.1-1.5-1.1-2.6v-6.5h2v6.5c0,0.7,0.2,1.2,0.5,1.5c0.4,0.4,0.8,0.5,1.4,0.5c0.6,0,1.1-0.2,1.5-0.5
			c0.4-0.4,0.5-0.9,0.5-1.5v-6.5H546.2z"/>
		<path fill="#ABABB4" d="M550,259.3h4.5v1.5H548v-10h2V259.3z"/>
	</g>
	<g>
		<path fill="#ABABB4" d="M599.4,258.7h-3.2l-0.7,2.1h-2.1l3.4-10h2l3.3,10h-2.1L599.4,258.7z M596.7,257.1h2.2l-1.1-3.5h0
			L596.7,257.1z"/>
		<path fill="#ABABB4" d="M610.7,259.4c-0.3,0.4-0.8,0.8-1.4,1.1s-1.4,0.4-2.4,0.4c-1.2,0-2.2-0.4-3-1.1c-0.8-0.8-1.1-1.7-1.1-2.9
			v-2.1c0-1.2,0.4-2.2,1.1-2.9s1.7-1.1,2.9-1.1c1.2,0,2.1,0.3,2.8,0.9s1,1.3,0.9,2.3l0,0h-1.9c0-0.5-0.2-0.9-0.5-1.2
			s-0.7-0.4-1.3-0.4c-0.6,0-1.1,0.2-1.5,0.7s-0.6,1.1-0.6,1.8v2.1c0,0.8,0.2,1.4,0.6,1.8c0.4,0.5,0.9,0.7,1.5,0.7
			c0.5,0,0.8,0,1.1-0.1c0.3-0.1,0.5-0.2,0.6-0.4V257h-1.9v-1.4h3.9V259.4z"/>
		<path fill="#ABABB4" d="M620.5,256.7c0,1.2-0.4,2.2-1.2,3s-1.8,1.2-3,1.2c-1.2,0-2.2-0.4-3-1.2c-0.8-0.8-1.1-1.8-1.1-3v-1.8
			c0-1.2,0.4-2.2,1.1-3c0.8-0.8,1.8-1.2,3-1.2c1.2,0,2.2,0.4,3,1.2s1.2,1.8,1.2,3V256.7z M618.5,254.9c0-0.8-0.2-1.4-0.6-1.9
			c-0.4-0.5-0.9-0.7-1.6-0.7c-0.7,0-1.2,0.2-1.6,0.7c-0.4,0.5-0.6,1.1-0.6,1.9v1.8c0,0.8,0.2,1.4,0.6,1.9c0.4,0.5,0.9,0.7,1.6,0.7
			c0.7,0,1.2-0.2,1.6-0.7c0.4-0.5,0.6-1.1,0.6-1.9V254.9z"/>
	</g>
	<g>
		<path fill="#ABABB4" d="M665.7,258.2c0-0.4-0.1-0.7-0.4-0.9s-0.7-0.5-1.4-0.7c-1.1-0.3-2-0.8-2.6-1.2c-0.6-0.5-0.9-1.1-0.9-1.9
			c0-0.8,0.3-1.5,1-2s1.5-0.8,2.6-0.8c1.1,0,2,0.3,2.7,0.8c0.7,0.6,1,1.3,1,2.2l0,0h-1.9c0-0.5-0.2-0.9-0.5-1.1s-0.7-0.4-1.3-0.4
			c-0.5,0-0.9,0.1-1.1,0.4c-0.3,0.2-0.4,0.5-0.4,0.9c0,0.3,0.1,0.6,0.4,0.8c0.3,0.2,0.8,0.4,1.5,0.7c1.1,0.3,1.9,0.7,2.5,1.2
			s0.9,1.2,0.9,2c0,0.9-0.3,1.5-1,2c-0.7,0.5-1.5,0.7-2.6,0.7c-1.1,0-2-0.3-2.8-0.8s-1.1-1.3-1.1-2.4l0,0h1.9c0,0.6,0.2,1,0.5,1.3
			c0.3,0.3,0.8,0.4,1.4,0.4c0.5,0,0.9-0.1,1.2-0.3C665.5,258.9,665.7,258.6,665.7,258.2z"/>
		<path fill="#ABABB4" d="M674.8,256.4h-3.7v2.8h4.4v1.5h-6.4v-10h6.4v1.5h-4.4v2.5h3.7V256.4z"/>
		<path fill="#ABABB4" d="M678.9,257.2v3.6h-2v-10h3.8c1.1,0,2,0.3,2.7,0.9c0.7,0.6,1,1.4,1,2.3c0,1-0.3,1.7-1,2.3
			c-0.7,0.6-1.6,0.9-2.7,0.9H678.9z M678.9,255.7h1.8c0.6,0,1-0.2,1.3-0.5s0.4-0.7,0.4-1.2c0-0.5-0.1-0.9-0.4-1.2s-0.7-0.5-1.3-0.5
			h-1.8V255.7z"/>
	</g>
	<g>
		<path fill="#ABABB4" d="M733,256.7c0,1.2-0.4,2.2-1.2,3c-0.8,0.8-1.8,1.2-3,1.2c-1.2,0-2.2-0.4-3-1.2c-0.8-0.8-1.1-1.8-1.1-3v-1.8
			c0-1.2,0.4-2.2,1.1-3s1.8-1.2,3-1.2c1.2,0,2.2,0.4,3,1.2c0.8,0.8,1.2,1.8,1.2,3V256.7z M731,254.9c0-0.8-0.2-1.4-0.6-1.9
			c-0.4-0.5-0.9-0.7-1.6-0.7c-0.7,0-1.2,0.2-1.6,0.7c-0.4,0.5-0.6,1.1-0.6,1.9v1.8c0,0.8,0.2,1.4,0.6,1.9c0.4,0.5,0.9,0.7,1.6,0.7
			c0.7,0,1.2-0.2,1.6-0.7c0.4-0.5,0.6-1.1,0.6-1.9V254.9z"/>
		<path fill="#ABABB4" d="M742.1,257.5L742.1,257.5c0,1.1-0.3,1.9-1,2.5c-0.7,0.6-1.6,0.9-2.8,0.9c-1.2,0-2.2-0.4-2.9-1.2
			c-0.7-0.8-1.1-1.8-1.1-3v-2c0-1.2,0.4-2.2,1.1-3c0.7-0.8,1.7-1.2,2.8-1.2c1.2,0,2.2,0.3,2.8,0.9c0.7,0.6,1,1.4,1,2.5l0,0h-1.9
			c0-0.6-0.2-1.1-0.5-1.4s-0.8-0.5-1.4-0.5c-0.6,0-1.1,0.2-1.4,0.7s-0.5,1.1-0.5,1.9v2c0,0.8,0.2,1.4,0.5,1.9
			c0.4,0.5,0.8,0.7,1.5,0.7c0.6,0,1-0.2,1.3-0.5s0.4-0.8,0.4-1.4H742.1z"/>
		<path fill="#ABABB4" d="M750.2,252.4h-2.8v8.4h-2v-8.4h-2.8v-1.5h7.6V252.4z"/>
	</g>
	<g>
		<path fill="#ABABB4" d="M797.1,260.8h-2l-4-6.7l0,0v6.7h-2v-10h2l4,6.7l0,0v-6.7h2V260.8z"/>
		<path fill="#ABABB4" d="M806.9,256.7c0,1.2-0.4,2.2-1.2,3s-1.8,1.2-3,1.2c-1.2,0-2.2-0.4-3-1.2c-0.8-0.8-1.1-1.8-1.1-3v-1.8
			c0-1.2,0.4-2.2,1.1-3c0.8-0.8,1.8-1.2,3-1.2c1.2,0,2.2,0.4,3,1.2s1.2,1.8,1.2,3V256.7z M805,254.9c0-0.8-0.2-1.4-0.6-1.9
			c-0.4-0.5-0.9-0.7-1.6-0.7c-0.7,0-1.2,0.2-1.6,0.7c-0.4,0.5-0.6,1.1-0.6,1.9v1.8c0,0.8,0.2,1.4,0.6,1.9c0.4,0.5,0.9,0.7,1.6,0.7
			c0.7,0,1.2-0.2,1.6-0.7c0.4-0.5,0.6-1.1,0.6-1.9V254.9z"/>
		<path fill="#ABABB4" d="M811.8,258.1l0.1,0.5h0l0.1-0.5l2.2-7.3h2.1l-3.4,10h-2.1l-3.4-10h2.1L811.8,258.1z"/>
	</g>
	<g>
		<path fill="#ABABB4" d="M857,260.8v-10h3.5c1.2,0,2.2,0.4,3,1.2s1.2,1.8,1.2,3v1.6c0,1.2-0.4,2.2-1.2,3s-1.8,1.2-3,1.2H857z
			 M859,252.4v6.9h1.5c0.7,0,1.2-0.2,1.6-0.7s0.6-1.1,0.6-1.9V255c0-0.8-0.2-1.4-0.6-1.9c-0.4-0.5-0.9-0.7-1.6-0.7H859z"/>
		<path fill="#ABABB4" d="M868.4,260.8h-2v-10h2V260.8z"/>
		<path fill="#ABABB4" d="M877.8,257.5L877.8,257.5c0,1.1-0.3,1.9-1,2.5s-1.6,0.9-2.8,0.9c-1.2,0-2.2-0.4-2.9-1.2s-1.1-1.8-1.1-3v-2
			c0-1.2,0.4-2.2,1.1-3s1.7-1.2,2.8-1.2c1.2,0,2.2,0.3,2.8,0.9c0.7,0.6,1,1.4,1,2.5l0,0h-1.9c0-0.6-0.2-1.1-0.5-1.4
			c-0.3-0.3-0.8-0.5-1.4-0.5c-0.6,0-1.1,0.2-1.4,0.7c-0.3,0.5-0.5,1.1-0.5,1.9v2c0,0.8,0.2,1.4,0.5,1.9c0.4,0.5,0.8,0.7,1.5,0.7
			c0.6,0,1-0.2,1.3-0.5c0.3-0.3,0.4-0.8,0.4-1.4H877.8z"/>
	</g>
	
		<line opacity="0.23" fill="none" stroke="#FFFFFF" stroke-width="0.727" stroke-miterlimit="10" stroke-opacity="0.4" x1="132.9" y1="235.9" x2="883.8" y2="235.9"/>
	<g opacity="0.23">
		<g opacity="0.4">
			<line fill="none" stroke="#FFFFFF" stroke-miterlimit="10" x1="132" y1="33.1" x2="136" y2="33.1"/>
			<line fill="none" stroke="#FFFFFF" stroke-miterlimit="10" stroke-dasharray="8,8" x1="144" y1="33.1" x2="878" y2="33.1"/>
			<line fill="none" stroke="#FFFFFF" stroke-miterlimit="10" x1="882" y1="33.1" x2="886" y2="33.1"/>
		</g>
	</g>
	<g opacity="0.23">
		<g opacity="0.4">
			<line fill="none" stroke="#FFFFFF" stroke-miterlimit="10" x1="132" y1="101.1" x2="136" y2="101.1"/>
			<line fill="none" stroke="#FFFFFF" stroke-miterlimit="10" stroke-dasharray="8,8" x1="144" y1="101.1" x2="878" y2="101.1"/>
			<line fill="none" stroke="#FFFFFF" stroke-miterlimit="10" x1="882" y1="101.1" x2="886" y2="101.1"/>
		</g>
	</g>
	<g opacity="0.23">
		<g opacity="0.4">
			<line fill="none" stroke="#FFFFFF" stroke-miterlimit="10" x1="132" y1="168.1" x2="136" y2="168.1"/>
			<line fill="none" stroke="#FFFFFF" stroke-miterlimit="10" stroke-dasharray="8,8" x1="144" y1="168.1" x2="878" y2="168.1"/>
			<line fill="none" stroke="#FFFFFF" stroke-miterlimit="10" x1="882" y1="168.1" x2="886" y2="168.1"/>
		</g>
	</g>
	<circle fill="#009DDA" cx="158.4" cy="64.3" r="4.8"/>
	<circle fill="#FFFFFF" cx="158.4" cy="78.3" r="4.8"/>
	<circle fill="#666666" cx="158.4" cy="92.3" r="4.8"/>
	<circle fill="#666666" cx="862.4" cy="90.3" r="4.8"/>
	<circle fill="#FFFFFF" cx="862.4" cy="77.3" r="4.8"/>
	<g>
		<g>
			<g>
				<path fill="#FFFFFF" d="M438.4,310.8h-6.7v-1.3l3.1-3.5c0.5-0.5,0.8-1,1-1.4c0.2-0.4,0.3-0.7,0.3-1c0-0.4-0.1-0.7-0.3-1
					s-0.5-0.4-0.9-0.4c-0.4,0-0.8,0.2-1,0.5s-0.4,0.7-0.4,1.2h-1.9l0,0c0-0.9,0.3-1.6,0.9-2.2c0.6-0.6,1.4-0.9,2.4-0.9
					s1.8,0.3,2.4,0.8c0.6,0.5,0.8,1.2,0.8,2.1c0,0.6-0.2,1.1-0.5,1.6s-0.9,1.2-1.6,2l-1.6,2l0,0h4.1V310.8z"/>
				<path fill="#FFFFFF" d="M446.4,307.2c0,1.2-0.3,2.1-0.9,2.7s-1.4,1-2.4,1c-1,0-1.8-0.3-2.5-1s-0.9-1.6-0.9-2.7v-2.7
					c0-1.2,0.3-2.1,0.9-2.7s1.4-1,2.4-1c1,0,1.8,0.3,2.4,1s0.9,1.6,0.9,2.7V307.2z M444.4,304.3c0-0.6-0.1-1.1-0.4-1.5
					c-0.2-0.4-0.6-0.5-1-0.5c-0.4,0-0.8,0.2-1,0.5s-0.4,0.8-0.4,1.5v3.1c0,0.7,0.1,1.2,0.4,1.5c0.2,0.3,0.6,0.5,1,0.5
					c0.4,0,0.8-0.2,1-0.5c0.2-0.3,0.4-0.8,0.4-1.5V304.3z"/>
				<path fill="#FFFFFF" d="M452.5,310.8h-2v-8.2h-2.1v-1.5l4-0.4V310.8z"/>
				<path fill="#FFFFFF" d="M459.6,300.7c0.4,0,0.7,0,1.1,0.1c0.3,0.1,0.7,0.2,1,0.3l-0.4,1.5c-0.3-0.1-0.6-0.2-0.8-0.2
					c-0.2-0.1-0.5-0.1-0.9-0.1c-0.6,0-1.1,0.2-1.4,0.7s-0.5,1.1-0.5,1.9v0.3c0.3-0.3,0.6-0.5,0.9-0.6c0.4-0.1,0.8-0.2,1.2-0.2
					c0.9,0,1.5,0.3,2,0.9c0.5,0.6,0.7,1.4,0.7,2.4c0,1-0.3,1.8-0.9,2.4c-0.6,0.6-1.4,0.9-2.4,0.9c-1,0-1.9-0.4-2.5-1.1s-1-1.7-1-2.9
					v-2.1c0-1.3,0.4-2.3,1.1-3C457.6,301.1,458.5,300.7,459.6,300.7z M459.2,305.8c-0.4,0-0.7,0.1-0.9,0.2c-0.3,0.1-0.5,0.3-0.6,0.5
					v0.5c0,0.8,0.1,1.4,0.4,1.8s0.7,0.6,1.1,0.6c0.4,0,0.7-0.2,1-0.5c0.2-0.3,0.4-0.8,0.4-1.3c0-0.5-0.1-1-0.4-1.3
					C460,306,459.6,305.8,459.2,305.8z"/>
			</g>
			
				<line fill="none" stroke="#808080" stroke-width="5" stroke-linecap="round" stroke-linejoin="round" stroke-miterlimit="10" x1="422" y1="307.1" x2="403" y2="307.1"/>
		</g>
		<g>
			<g>
				<path fill="#FFFFFF" d="M514.2,310.8h-6.7v-1.3l3.1-3.5c0.5-0.5,0.8-1,1-1.4c0.2-0.4,0.3-0.7,0.3-1c0-0.4-0.1-0.7-0.3-1
					s-0.5-0.4-0.9-0.4c-0.4,0-0.8,0.2-1,0.5c-0.2,0.3-0.4,0.7-0.4,1.2h-1.9l0,0c0-0.9,0.3-1.6,0.9-2.2c0.6-0.6,1.4-0.9,2.4-0.9
					c1,0,1.8,0.3,2.4,0.8c0.6,0.5,0.8,1.2,0.8,2.1c0,0.6-0.2,1.1-0.5,1.6s-0.9,1.2-1.6,2l-1.6,2l0,0h4.1V310.8z"/>
				<path fill="#FFFFFF" d="M522.1,307.2c0,1.2-0.3,2.1-0.9,2.7s-1.4,1-2.4,1c-1,0-1.8-0.3-2.5-1s-0.9-1.6-0.9-2.7v-2.7
					c0-1.2,0.3-2.1,0.9-2.7s1.4-1,2.4-1c1,0,1.8,0.3,2.4,1s0.9,1.6,0.9,2.7V307.2z M520.2,304.3c0-0.6-0.1-1.1-0.4-1.5
					s-0.6-0.5-1-0.5c-0.4,0-0.8,0.2-1,0.5s-0.4,0.8-0.4,1.5v3.1c0,0.7,0.1,1.2,0.4,1.5c0.2,0.3,0.6,0.5,1,0.5c0.4,0,0.8-0.2,1-0.5
					c0.2-0.3,0.4-0.8,0.4-1.5V304.3z"/>
				<path fill="#FFFFFF" d="M528.2,310.8h-2v-8.2h-2.1v-1.5l4-0.4V310.8z"/>
				<path fill="#FFFFFF" d="M538.3,302.4c-1.1,1.3-1.9,2.5-2.3,3.6c-0.4,1.1-0.6,2.3-0.6,3.6v1.2h-2v-1.2c0-1.4,0.3-2.6,0.8-3.8
					c0.5-1.1,1.2-2.3,2.2-3.4h-5.1v-1.5h7V302.4z"/>
			</g>
			
				<line fill="none" stroke="#FFFFFF" stroke-width="5" stroke-linecap="round" stroke-linejoin="round" stroke-miterlimit="10" x1="499.4" y1="306.6" x2="480.4" y2="306.6"/>
		</g>
		<g>
			<path fill="#FFFFFF" d="M590.4,310.8h-6.7v-1.3l3.1-3.5c0.5-0.5,0.8-1,1-1.4c0.2-0.4,0.3-0.7,0.3-1c0-0.4-0.1-0.7-0.3-1
				s-0.5-0.4-0.9-0.4c-0.4,0-0.8,0.2-1,0.5c-0.2,0.3-0.4,0.7-0.4,1.2h-1.9l0,0c0-0.9,0.3-1.6,0.9-2.2c0.6-0.6,1.4-0.9,2.4-0.9
				c1,0,1.8,0.3,2.4,0.8c0.6,0.5,0.8,1.2,0.8,2.1c0,0.6-0.2,1.1-0.5,1.6s-0.9,1.2-1.6,2l-1.6,2l0,0h4.1V310.8z"/>
			<path fill="#FFFFFF" d="M598.4,307.2c0,1.2-0.3,2.1-0.9,2.7s-1.4,1-2.4,1c-1,0-1.8-0.3-2.5-1s-0.9-1.6-0.9-2.7v-2.7
				c0-1.2,0.3-2.1,0.9-2.7s1.4-1,2.4-1c1,0,1.8,0.3,2.4,1s0.9,1.6,0.9,2.7V307.2z M596.4,304.3c0-0.6-0.1-1.1-0.4-1.5
				s-0.6-0.5-1-0.5c-0.4,0-0.8,0.2-1,0.5s-0.4,0.8-0.4,1.5v3.1c0,0.7,0.1,1.2,0.4,1.5c0.2,0.3,0.6,0.5,1,0.5c0.4,0,0.8-0.2,1-0.5
				c0.2-0.3,0.4-0.8,0.4-1.5V304.3z"/>
			<path fill="#FFFFFF" d="M604.5,310.8h-2v-8.2h-2.1v-1.5l4-0.4V310.8z"/>
			<path fill="#FFFFFF" d="M614.3,303.4c0,0.5-0.1,0.9-0.4,1.3c-0.3,0.4-0.6,0.7-1.1,0.9c0.5,0.2,1,0.5,1.3,1
				c0.3,0.4,0.5,0.9,0.5,1.4c0,0.9-0.3,1.6-1,2.1c-0.6,0.5-1.5,0.8-2.5,0.8c-1,0-1.9-0.3-2.6-0.8c-0.7-0.5-1-1.2-1-2.1
				c0-0.5,0.2-1,0.5-1.4c0.3-0.4,0.8-0.7,1.3-1c-0.5-0.2-0.8-0.5-1.1-0.9c-0.3-0.4-0.4-0.8-0.4-1.3c0-0.9,0.3-1.5,0.9-2
				c0.6-0.5,1.4-0.7,2.3-0.7c0.9,0,1.7,0.2,2.2,0.7C614,301.9,614.3,302.6,614.3,303.4z M612.6,307.9c0-0.4-0.1-0.8-0.4-1.1
				c-0.3-0.3-0.6-0.4-1-0.4c-0.4,0-0.8,0.1-1.1,0.4c-0.3,0.3-0.4,0.6-0.4,1.1c0,0.5,0.1,0.8,0.4,1.1s0.7,0.4,1.1,0.4
				c0.4,0,0.7-0.1,1-0.4C612.5,308.7,612.6,308.4,612.6,307.9z M612.3,303.5c0-0.4-0.1-0.7-0.3-0.9c-0.2-0.2-0.5-0.3-0.8-0.3
				c-0.4,0-0.7,0.1-0.9,0.3c-0.2,0.2-0.3,0.5-0.3,0.9c0,0.4,0.1,0.7,0.3,1c0.2,0.2,0.5,0.4,0.9,0.4c0.3,0,0.6-0.1,0.8-0.4
				C612.2,304.3,612.3,303.9,612.3,303.5z"/>
		</g>
		
			<line fill="none" stroke="#009DDA" stroke-width="5" stroke-linecap="round" stroke-linejoin="round" stroke-miterlimit="10" x1="576.1" y1="307.1" x2="557.1" y2="307.1"/>
	</g>
	<path fill="none" stroke="#666666" stroke-width="5" stroke-linecap="round" stroke-linejoin="round" stroke-miterlimit="10" d="
		M159.4,93.2c0,0,52.1,10.3,60.4,10.3c8.2,0,67.3,2.7,67.3,2.7l61.3,20.7l66.5,3.3c0,0,57.6,4,59.8,4c2.2,0,72.4-41.7,72.4-41.7
		l56.2,4.3l65.8,4l64.3-12l62.8,4l66.5-3.3"/>
	<path fill="none" stroke="#009DDA" stroke-width="5" stroke-linecap="round" stroke-linejoin="round" stroke-miterlimit="10" d="
		M157.7,64.9l64.3,18l62.8-14c0,0,56.1,19.3,63.5,19.3s61.3,6.7,61.3,6.7l65,6l71.7-60l65,5"/>
	<path fill="none" stroke="#FFFFFF" stroke-width="5" stroke-linecap="round" stroke-linejoin="round" stroke-miterlimit="10" d="
		M156.9,78.2l64.3,17.3l65.8-4l60.6,12c0,0,62.1,0.7,65,1.3c3,0.7,62.8,8.7,62.8,8.7l70.6-43l58.7,3l64.3,2l65.8-3.3l65.8-1.3
		l59.8,6.7"/>
	<line fill="none" stroke="#FFFFFF" stroke-width="0.5" stroke-miterlimit="10" x1="546" y1="45.6" x2="546" y2="18.6"/>
	<g>
		<g>
			<path fill="#009DDA" d="M359.9,13.7H358V4.1h-2.4V2.6l4.3-0.4V13.7z"/>
			<path fill="#009DDA" d="M366.2,13.7h-1.9v-1.8h1.9V13.7z"/>
			<path fill="#009DDA" d="M372.2,7.1c0.6,0,1.1-0.2,1.3-0.5c0.3-0.3,0.4-0.7,0.4-1.3c0-0.5-0.1-0.9-0.4-1.2
				c-0.3-0.3-0.7-0.5-1.3-0.5c-0.5,0-0.9,0.2-1.3,0.5c-0.3,0.3-0.5,0.7-0.5,1.1h-1.8l0,0c0-0.9,0.3-1.6,1-2.2
				c0.7-0.6,1.6-0.9,2.6-0.9c1.1,0,2,0.3,2.6,0.8c0.6,0.5,1,1.3,1,2.4c0,0.5-0.1,1-0.4,1.4c-0.3,0.4-0.7,0.8-1.2,1
				c0.6,0.2,1,0.6,1.3,1c0.3,0.5,0.5,1,0.5,1.7c0,1-0.4,1.9-1.1,2.5s-1.6,0.9-2.7,0.9c-1,0-1.9-0.3-2.6-0.8
				c-0.8-0.6-1.1-1.3-1.1-2.3l0,0h1.8c0,0.5,0.2,0.9,0.5,1.2c0.4,0.3,0.8,0.5,1.4,0.5c0.6,0,1-0.2,1.4-0.5c0.3-0.3,0.5-0.8,0.5-1.3
				c0-0.6-0.2-1.1-0.5-1.4c-0.3-0.3-0.8-0.5-1.4-0.5h-1.3V7.1H372.2z"/>
			<path fill="#009DDA" d="M378,8.7l0.7-6.3h6V4h-4.4l-0.3,2.9c0.2-0.2,0.5-0.3,0.8-0.4c0.3-0.1,0.7-0.2,1-0.2c1.1,0,1.9,0.3,2.5,1
				c0.6,0.7,0.9,1.6,0.9,2.8c0,1.1-0.3,2-0.9,2.7c-0.6,0.7-1.5,1.1-2.8,1.1c-1,0-1.8-0.3-2.5-0.8c-0.7-0.5-1-1.3-1-2.3l0,0l1.8-0.1
				c0,0.5,0.2,0.9,0.5,1.2c0.3,0.3,0.7,0.4,1.3,0.4c0.6,0,1-0.2,1.4-0.6c0.3-0.4,0.5-1,0.5-1.7c0-0.7-0.2-1.2-0.5-1.6
				c-0.3-0.4-0.8-0.6-1.4-0.6c-0.5,0-0.9,0.1-1.2,0.2c-0.3,0.2-0.4,0.4-0.6,0.7L378,8.7z"/>
			<path fill="#009DDA" d="M393,9.6h1.4v1.5H393v2.5h-1.9v-2.5h-4.8l0-1.2l4.8-7.7h1.9V9.6z M388.2,9.6h3V5l0,0l-0.2,0.4L388.2,9.6z
				"/>
			<path fill="#009DDA" d="M398,13.7h-1.9v-1.8h1.9V13.7z"/>
			<path fill="#009DDA" d="M407.6,9.6c0,1.3-0.3,2.3-1,3.1c-0.7,0.8-1.6,1.1-2.7,1.1c-1.1,0-2-0.4-2.7-1.1c-0.7-0.8-1-1.8-1-3.1V6.4
				c0-1.3,0.3-2.3,1-3.1c0.7-0.8,1.6-1.1,2.7-1.1c1.1,0,2,0.4,2.7,1.1c0.7,0.8,1,1.8,1,3.1V9.6z M405.7,6.1c0-0.8-0.2-1.4-0.5-1.8
				c-0.3-0.4-0.8-0.6-1.4-0.6c-0.6,0-1,0.2-1.4,0.6c-0.3,0.4-0.5,1-0.5,1.8v3.8c0,0.8,0.2,1.4,0.5,1.8c0.3,0.4,0.8,0.6,1.4,0.6
				c0.6,0,1-0.2,1.3-0.6c0.3-0.4,0.5-1,0.5-1.8V6.1z"/>
			<path fill="#009DDA" d="M413,7.1c0.6,0,1.1-0.2,1.3-0.5c0.3-0.3,0.4-0.7,0.4-1.3c0-0.5-0.1-0.9-0.4-1.2c-0.3-0.3-0.7-0.5-1.3-0.5
				c-0.5,0-0.9,0.2-1.3,0.5c-0.3,0.3-0.5,0.7-0.5,1.1h-1.8l0,0c0-0.9,0.3-1.6,1-2.2c0.7-0.6,1.6-0.9,2.6-0.9c1.1,0,2,0.3,2.6,0.8
				c0.6,0.5,1,1.3,1,2.4c0,0.5-0.1,1-0.4,1.4c-0.3,0.4-0.7,0.8-1.2,1c0.6,0.2,1,0.6,1.3,1c0.3,0.5,0.5,1,0.5,1.7
				c0,1-0.4,1.9-1.1,2.5s-1.6,0.9-2.7,0.9c-1,0-1.9-0.3-2.6-0.8c-0.8-0.6-1.1-1.3-1.1-2.3l0,0h1.8c0,0.5,0.2,0.9,0.5,1.2
				c0.4,0.3,0.8,0.5,1.4,0.5c0.6,0,1-0.2,1.4-0.5c0.3-0.3,0.5-0.8,0.5-1.3c0-0.6-0.2-1.1-0.5-1.4c-0.3-0.3-0.8-0.5-1.4-0.5h-1.3V7.1
				H413z"/>
			<path fill="#009DDA" d="M421.6,12.3c0.7,0,1.2-0.2,1.6-0.7c0.4-0.5,0.6-1.1,0.6-2V8.9c-0.2,0.3-0.6,0.6-0.9,0.8
				c-0.4,0.2-0.8,0.3-1.2,0.3c-1.1,0-1.9-0.3-2.5-1c-0.6-0.7-0.9-1.6-0.9-2.8c0-1.1,0.3-2.1,1-2.8c0.7-0.7,1.5-1.1,2.6-1.1
				c1.1,0,2.1,0.4,2.8,1.1c0.7,0.7,1.1,1.8,1.1,3.1v3.2c0,1.3-0.4,2.4-1.2,3.1c-0.8,0.8-1.8,1.1-3,1.1c-0.4,0-0.8,0-1.2-0.1
				c-0.4-0.1-0.8-0.2-1.2-0.4l0.3-1.4c0.3,0.2,0.7,0.3,1,0.3C420.8,12.3,421.2,12.3,421.6,12.3z M421.9,8.4c0.5,0,0.8-0.1,1.2-0.3
				c0.3-0.2,0.6-0.4,0.7-0.7V6.1c0-0.8-0.2-1.4-0.5-1.8s-0.8-0.6-1.4-0.6c-0.5,0-0.9,0.2-1.3,0.7c-0.3,0.5-0.5,1-0.5,1.7
				c0,0.7,0.1,1.3,0.4,1.7C420.9,8.2,421.3,8.4,421.9,8.4z"/>
			<path fill="#009DDA" d="M433.7,9v4.7h-1.9V2.3h3.9c1.3,0,2.2,0.3,2.9,0.9c0.7,0.6,1,1.4,1,2.5c0,0.6-0.2,1.1-0.5,1.5
				c-0.3,0.4-0.7,0.8-1.3,1c0.6,0.2,1.1,0.5,1.4,1c0.3,0.5,0.4,1,0.4,1.7v0.9c0,0.3,0,0.7,0.1,1c0.1,0.3,0.2,0.6,0.4,0.7v0.2h-2
				c-0.2-0.2-0.3-0.4-0.4-0.8c-0.1-0.4-0.1-0.7-0.1-1.1v-0.9c0-0.6-0.2-1-0.5-1.4S436.6,9,436,9H433.7z M433.7,7.4h1.9
				c0.8,0,1.3-0.1,1.7-0.4c0.3-0.3,0.5-0.7,0.5-1.3c0-0.6-0.2-1-0.5-1.3c-0.3-0.3-0.9-0.5-1.6-0.5h-2V7.4z"/>
			<path fill="#009DDA" d="M445.4,13.9c-1.2,0-2.2-0.4-2.9-1.2c-0.7-0.8-1-1.8-1-3V9.3c0-1.2,0.3-2.3,1-3.1s1.6-1.2,2.7-1.2
				c1.1,0,2,0.4,2.6,1.1c0.6,0.7,0.9,1.6,0.9,2.8v1h-5.2l0,0c0,0.7,0.2,1.3,0.5,1.7c0.3,0.4,0.9,0.6,1.6,0.6c0.5,0,1-0.1,1.3-0.2
				c0.4-0.1,0.7-0.3,1.1-0.5l0.6,1.2c-0.3,0.3-0.8,0.5-1.3,0.7S446.1,13.9,445.4,13.9z M445.2,6.6c-0.5,0-0.9,0.2-1.2,0.5
				c-0.3,0.4-0.5,0.8-0.6,1.4l0,0h3.3V8.4c0-0.5-0.1-1-0.4-1.3C446.1,6.8,445.7,6.6,445.2,6.6z M445.6,1.6h2.1l0,0l-2.1,2h-1.5
				L445.6,1.6z"/>
			<path fill="#009DDA" d="M453.6,12.3c0.4,0,0.8-0.1,1.1-0.4c0.3-0.3,0.4-0.6,0.4-1h1.7l0,0c0,0.8-0.3,1.5-0.9,2
				c-0.6,0.6-1.4,0.9-2.3,0.9c-1.2,0-2.2-0.4-2.8-1.2c-0.7-0.8-1-1.8-1-3V9.3c0-1.2,0.3-2.2,1-3c0.7-0.8,1.6-1.2,2.8-1.2
				c1,0,1.8,0.3,2.4,0.9c0.6,0.6,0.9,1.3,0.9,2.3l0,0h-1.7c0-0.5-0.1-0.9-0.4-1.2c-0.3-0.3-0.7-0.5-1.1-0.5c-0.7,0-1.2,0.3-1.5,0.8
				s-0.4,1.2-0.4,1.9v0.3c0,0.8,0.1,1.4,0.4,2C452.5,12.1,453,12.3,453.6,12.3z"/>
			<path fill="#009DDA" d="M458.2,9.4c0-1.3,0.3-2.3,1-3.1c0.7-0.8,1.6-1.2,2.8-1.2c1.2,0,2.2,0.4,2.9,1.2c0.7,0.8,1,1.8,1,3.1v0.2
				c0,1.3-0.3,2.3-1,3.1c-0.7,0.8-1.6,1.2-2.8,1.2c-1.2,0-2.2-0.4-2.8-1.2c-0.7-0.8-1-1.8-1-3.1V9.4z M460.1,9.5
				c0,0.8,0.2,1.5,0.5,2c0.3,0.5,0.8,0.8,1.5,0.8c0.7,0,1.2-0.3,1.5-0.8c0.3-0.5,0.5-1.2,0.5-2V9.4c0-0.8-0.2-1.5-0.5-2
				c-0.3-0.5-0.8-0.8-1.5-0.8c-0.7,0-1.2,0.3-1.5,0.8c-0.3,0.5-0.5,1.2-0.5,2V9.5z"/>
			<path fill="#009DDA" d="M471.8,6.9l-0.8,0c-0.4,0-0.7,0.1-0.9,0.2c-0.2,0.2-0.4,0.4-0.6,0.7v5.9h-1.9V5.2h1.7l0.1,1.2
				c0.2-0.4,0.5-0.8,0.8-1c0.3-0.2,0.7-0.4,1.2-0.4c0.1,0,0.2,0,0.3,0c0.1,0,0.2,0,0.3,0.1L471.8,6.9z"/>
			<path fill="#009DDA" d="M472.7,9.6c0-1.3,0.3-2.4,0.9-3.3c0.6-0.8,1.4-1.2,2.4-1.2c0.5,0,0.9,0.1,1.2,0.3
				c0.4,0.2,0.7,0.4,0.9,0.8V1.5h1.9v12.2h-1.5l-0.2-1.1c-0.3,0.4-0.6,0.7-1,0.9c-0.4,0.2-0.8,0.3-1.3,0.3c-1,0-1.8-0.4-2.4-1.1
				c-0.6-0.8-0.9-1.7-0.9-3V9.6z M474.6,9.7c0,0.8,0.1,1.4,0.4,1.9c0.3,0.5,0.8,0.7,1.4,0.7c0.4,0,0.7-0.1,1-0.3
				c0.3-0.2,0.5-0.4,0.7-0.7V7.6c-0.2-0.3-0.4-0.6-0.7-0.7c-0.3-0.2-0.6-0.3-1-0.3c-0.6,0-1.1,0.3-1.4,0.8c-0.3,0.5-0.5,1.3-0.5,2.1
				V9.7z"/>
			<path fill="#009DDA" d="M488,6.3c0.3-0.4,0.6-0.7,1-0.9c0.4-0.2,0.8-0.3,1.3-0.3c0.9,0,1.6,0.3,2.1,0.8c0.5,0.6,0.8,1.4,0.8,2.6
				v5.1h-1.9V8.5c0-0.7-0.1-1.1-0.4-1.4c-0.3-0.3-0.6-0.4-1.2-0.4c-0.4,0-0.8,0.1-1.1,0.2c-0.3,0.1-0.5,0.3-0.7,0.6v6.2h-1.9V1.5
				h1.9V6.3z"/>
			<path fill="#009DDA" d="M497.2,3.2h-1.9V1.5h1.9V3.2z M497.2,13.7h-1.9V5.2h1.9V13.7z"/>
			<path fill="#009DDA" d="M504.1,11.4c0-0.3-0.1-0.5-0.4-0.7c-0.2-0.2-0.7-0.4-1.4-0.5c-1-0.2-1.8-0.5-2.3-0.9
				c-0.5-0.4-0.8-0.9-0.8-1.6c0-0.7,0.3-1.3,0.9-1.8c0.6-0.5,1.4-0.8,2.4-0.8c1,0,1.8,0.3,2.4,0.8c0.6,0.5,0.9,1.1,0.9,1.9l0,0H504
				c0-0.3-0.1-0.6-0.4-0.9c-0.3-0.3-0.6-0.4-1.1-0.4c-0.5,0-0.8,0.1-1,0.3c-0.2,0.2-0.4,0.5-0.4,0.8c0,0.3,0.1,0.5,0.3,0.7
				c0.2,0.2,0.7,0.3,1.4,0.5c1,0.2,1.8,0.5,2.3,0.9c0.5,0.4,0.8,0.9,0.8,1.6c0,0.8-0.3,1.4-0.9,1.9c-0.6,0.5-1.5,0.7-2.5,0.7
				c-1.1,0-2-0.3-2.6-0.8c-0.6-0.6-0.9-1.2-0.9-1.9l0,0h1.8c0,0.5,0.2,0.8,0.5,1.1c0.3,0.2,0.7,0.3,1.2,0.3c0.5,0,0.9-0.1,1.1-0.3
				C503.9,11.9,504.1,11.7,504.1,11.4z"/>
			<path fill="#009DDA" d="M510.1,3.2v2.1h1.5v1.4h-1.5v4.7c0,0.3,0.1,0.6,0.2,0.7c0.2,0.1,0.4,0.2,0.6,0.2c0.1,0,0.2,0,0.3,0
				c0.1,0,0.2,0,0.3-0.1l0.2,1.4c-0.2,0.1-0.4,0.2-0.6,0.2c-0.2,0-0.5,0.1-0.7,0.1c-0.7,0-1.2-0.2-1.6-0.6c-0.4-0.4-0.6-1.1-0.6-1.9
				V6.6h-1.3V5.2h1.3V3.2H510.1z"/>
			<path fill="#009DDA" d="M512.7,9.4c0-1.3,0.3-2.3,1-3.1c0.7-0.8,1.6-1.2,2.8-1.2c1.2,0,2.2,0.4,2.9,1.2c0.7,0.8,1,1.8,1,3.1v0.2
				c0,1.3-0.3,2.3-1,3.1c-0.7,0.8-1.6,1.2-2.8,1.2c-1.2,0-2.2-0.4-2.8-1.2c-0.7-0.8-1-1.8-1-3.1V9.4z M514.6,9.5
				c0,0.8,0.2,1.5,0.5,2c0.3,0.5,0.8,0.8,1.5,0.8c0.7,0,1.2-0.3,1.5-0.8c0.3-0.5,0.5-1.2,0.5-2V9.4c0-0.8-0.2-1.5-0.5-2
				c-0.3-0.5-0.8-0.8-1.5-0.8c-0.7,0-1.2,0.3-1.5,0.8c-0.3,0.5-0.5,1.2-0.5,2V9.5z M517.2,1.6h2.1l0,0l-2.1,2h-1.5L517.2,1.6z"/>
			<path fill="#009DDA" d="M526.4,6.9l-0.8,0c-0.4,0-0.7,0.1-0.9,0.2c-0.2,0.2-0.4,0.4-0.6,0.7v5.9h-1.9V5.2h1.7l0.1,1.2
				c0.2-0.4,0.5-0.8,0.8-1c0.3-0.2,0.7-0.4,1.2-0.4c0.1,0,0.2,0,0.3,0c0.1,0,0.2,0,0.3,0.1L526.4,6.9z"/>
			<path fill="#009DDA" d="M529.8,3.2h-1.9V1.5h1.9V3.2z M529.8,13.7h-1.9V5.2h1.9V13.7z"/>
			<path fill="#009DDA" d="M535.4,12.3c0.4,0,0.8-0.1,1.1-0.4c0.3-0.3,0.4-0.6,0.4-1h1.7l0,0c0,0.8-0.3,1.5-0.9,2
				c-0.6,0.6-1.4,0.9-2.3,0.9c-1.2,0-2.2-0.4-2.8-1.2c-0.7-0.8-1-1.8-1-3V9.3c0-1.2,0.3-2.2,1-3c0.7-0.8,1.6-1.2,2.8-1.2
				c1,0,1.8,0.3,2.4,0.9c0.6,0.6,0.9,1.3,0.9,2.3l0,0h-1.7c0-0.5-0.1-0.9-0.4-1.2c-0.3-0.3-0.7-0.5-1.1-0.5c-0.7,0-1.2,0.3-1.5,0.8
				s-0.4,1.2-0.4,1.9v0.3c0,0.8,0.1,1.4,0.4,2C534.2,12.1,534.7,12.3,535.4,12.3z"/>
			<path fill="#009DDA" d="M539.9,9.4c0-1.3,0.3-2.3,1-3.1c0.7-0.8,1.6-1.2,2.8-1.2c1.2,0,2.2,0.4,2.9,1.2c0.7,0.8,1,1.8,1,3.1v0.2
				c0,1.3-0.3,2.3-1,3.1c-0.7,0.8-1.6,1.2-2.8,1.2c-1.2,0-2.2-0.4-2.8-1.2c-0.7-0.8-1-1.8-1-3.1V9.4z M541.8,9.5
				c0,0.8,0.2,1.5,0.5,2c0.3,0.5,0.8,0.8,1.5,0.8c0.7,0,1.2-0.3,1.5-0.8c0.3-0.5,0.5-1.2,0.5-2V9.4c0-0.8-0.2-1.5-0.5-2
				c-0.3-0.5-0.8-0.8-1.5-0.8c-0.7,0-1.2,0.3-1.5,0.8c-0.3,0.5-0.5,1.2-0.5,2V9.5z"/>
		</g>
	</g>
	<circle fill="#009DDA" cx="546.4" cy="41.3" r="4.8"/>
	<circle fill="#009DDA" cx="679.5" cy="57.1" r="4.8"/>
	
		<line fill="none" stroke="#009DDA" stroke-width="5" stroke-linecap="round" stroke-linejoin="round" stroke-miterlimit="10" x1="611.5" y1="46.1" x2="679.7" y2="58.2"/>
</g>
</svg>
