<?xml version="1.0" encoding="utf-8"?>
<!-- Generator: Adobe Illustrator 18.0.0, SVG Export Plug-In . SVG Version: 6.00 Build 0)  -->
<!DOCTYPE svg PUBLIC "-//W3C//DTD SVG 1.1//EN" "http://www.w3.org/Graphics/SVG/1.1/DTD/svg11.dtd">
<svg version="1.1" id="Layer_1" xmlns="http://www.w3.org/2000/svg" xmlns:xlink="http://www.w3.org/1999/xlink" x="0px" y="0px"
	 viewBox="0 0 384.3 353.1" enable-background="new 0 0 384.3 353.1" xml:space="preserve">
<g>
	<g>
		<g>
			<path fill="#ABABB4" d="M6.9,95.8c0.3,0,0.6,0.3,0.8,0.7S8,97.4,8,97.9v1.7l4.4,2.8c0.1,0,0.1,0.1,0.1,0.2l-0.2,1.1
				c0,0,0,0.1-0.1,0.1c0,0,0,0,0,0c-0.1,0-0.1,0-0.2,0l-4-1.2v2.7l1.3,0.7c0.1,0,0.1,0.1,0.1,0.2l0,1c0,0.1,0,0.1-0.1,0.2l0,0
				c-0.1,0-0.1,0.1-0.2,0.1l-2.3-0.3l-2.3,0.3c-0.1,0-0.1,0-0.2,0c0,0-0.1-0.1-0.1-0.2l0-1c0-0.1,0-0.1,0.1-0.2c0,0,0,0,0,0l1.3-0.7
				v-2.7l-4,1.2c-0.1,0-0.1,0-0.2,0c-0.1,0-0.1-0.1-0.1-0.2v-1.3c0-0.1,0-0.2,0.1-0.2l4.2-2.6v-1.6c0-0.5,0.1-1,0.3-1.4
				C6.3,96,6.6,95.8,6.9,95.8z"/>
		</g>
	</g>
	<g>
		<path fill="#ABABB4" d="M88.3,337.6h-3.7v2.8H89v1.5h-6.4v-10H89v1.5h-4.4v2.5h3.7V337.6z"/>
	</g>
	<g>
		<path fill="#ABABB4" d="M114.9,337.8H111v4.1h-2v-10h6.5v1.5H111v2.7h3.8V337.8z"/>
	</g>
	<g>
		<path fill="#ABABB4" d="M139.4,339.3L139.4,339.3l2.6-7.3h2.6v10h-2v-6.8l0,0l-2.5,6.8h-1.4l-2.5-6.8l0,0v6.8h-2v-10h2.6
			L139.4,339.3z"/>
	</g>
	<g>
		<path fill="#ABABB4" d="M166.5,339.8h-3.2l-0.7,2.1h-2.1l3.4-10h2l3.3,10h-2.1L166.5,339.8z M163.7,338.2h2.2l-1.1-3.5h0
			L163.7,338.2z"/>
	</g>
	<g>
		<path fill="#ABABB4" d="M192.2,339.3L192.2,339.3l2.6-7.3h2.6v10h-2v-6.8l0,0l-2.5,6.8h-1.4l-2.5-6.8l0,0v6.8h-2v-10h2.6
			L192.2,339.3z"/>
	</g>
	<g>
		<path fill="#ABABB4" d="M218.6,332h2v6.9c0,1-0.3,1.8-0.9,2.4c-0.6,0.6-1.4,0.9-2.3,0.9c-1.1,0-1.9-0.3-2.5-0.8s-0.9-1.3-0.9-2.3
			l0,0h1.9c0,0.5,0.1,0.9,0.4,1.2s0.6,0.4,1,0.4c0.4,0,0.7-0.2,0.9-0.5c0.2-0.3,0.3-0.7,0.3-1.2V332z"/>
	</g>
	<g>
		<path fill="#ABABB4" d="M245,332h2v6.9c0,1-0.3,1.8-0.9,2.4c-0.6,0.6-1.4,0.9-2.3,0.9c-1.1,0-1.9-0.3-2.5-0.8s-0.9-1.3-0.9-2.3
			l0,0h1.9c0,0.5,0.1,0.9,0.4,1.2s0.6,0.4,1,0.4c0.4,0,0.7-0.2,0.9-0.5c0.2-0.3,0.3-0.7,0.3-1.2V332z"/>
	</g>
	<g>
		<path fill="#ABABB4" d="M272,339.8h-3.2l-0.7,2.1h-2.1l3.4-10h2l3.3,10h-2.1L272,339.8z M269.3,338.2h2.2l-1.1-3.5h0L269.3,338.2z
			"/>
	</g>
	<g>
		<path fill="#ABABB4" d="M298.6,339.3c0-0.4-0.1-0.7-0.4-0.9s-0.7-0.5-1.4-0.7c-1.1-0.3-2-0.8-2.6-1.2c-0.6-0.5-0.9-1.1-0.9-1.9
			c0-0.8,0.3-1.5,1-2c0.7-0.5,1.5-0.8,2.6-0.8c1.1,0,2,0.3,2.7,0.8c0.7,0.6,1,1.3,1,2.2l0,0h-1.9c0-0.5-0.2-0.9-0.5-1.1
			s-0.7-0.4-1.3-0.4c-0.5,0-0.9,0.1-1.1,0.4c-0.3,0.2-0.4,0.5-0.4,0.9c0,0.3,0.1,0.6,0.4,0.8c0.3,0.2,0.8,0.4,1.5,0.7
			c1.1,0.3,1.9,0.7,2.5,1.2s0.9,1.2,0.9,2c0,0.9-0.3,1.5-1,2c-0.7,0.5-1.5,0.7-2.6,0.7c-1.1,0-2-0.3-2.8-0.8s-1.1-1.3-1.1-2.4l0,0
			h1.9c0,0.6,0.2,1,0.5,1.3c0.3,0.3,0.8,0.4,1.4,0.4c0.5,0,0.9-0.1,1.2-0.3C298.4,340,298.6,339.7,298.6,339.3z"/>
	</g>
	<g>
		<path fill="#ABABB4" d="M327.3,337.9c0,1.2-0.4,2.2-1.2,3c-0.8,0.8-1.8,1.2-3,1.2c-1.2,0-2.2-0.4-3-1.2c-0.8-0.8-1.1-1.8-1.1-3
			v-1.8c0-1.2,0.4-2.2,1.1-3c0.8-0.8,1.8-1.2,3-1.2c1.2,0,2.2,0.4,3,1.2s1.2,1.8,1.2,3V337.9z M325.3,336.1c0-0.8-0.2-1.4-0.6-1.9
			c-0.4-0.5-0.9-0.7-1.6-0.7c-0.7,0-1.2,0.2-1.6,0.7c-0.4,0.5-0.6,1.1-0.6,1.9v1.8c0,0.8,0.2,1.4,0.6,1.9c0.4,0.5,0.9,0.7,1.6,0.7
			c0.7,0,1.2-0.2,1.6-0.7c0.4-0.5,0.6-1.1,0.6-1.9V336.1z"/>
	</g>
	<g>
		<path fill="#ABABB4" d="M353.6,341.9h-2l-4-6.7l0,0v6.7h-2v-10h2l4,6.7l0,0V332h2V341.9z"/>
	</g>
	<g>
		<path fill="#ABABB4" d="M372.3,341.9v-10h3.5c1.2,0,2.2,0.4,3,1.2c0.8,0.8,1.2,1.8,1.2,3v1.6c0,1.2-0.4,2.2-1.2,3s-1.8,1.2-3,1.2
			H372.3z M374.2,333.5v6.9h1.5c0.7,0,1.2-0.2,1.6-0.7c0.4-0.5,0.6-1.1,0.6-1.9v-1.7c0-0.8-0.2-1.4-0.6-1.9
			c-0.4-0.5-0.9-0.7-1.6-0.7H374.2z"/>
	</g>
	<g opacity="0.17">
		<path fill="#ABABB4" d="M22.6,44.5h-1.8v-7.6h-1.9v-1.4l3.8-0.3V44.5z"/>
		<path fill="#ABABB4" d="M27.8,44.5h-1.9v-1.6h1.9V44.5z"/>
		<path fill="#ABABB4" d="M34.9,41.1h1v1.4h-1v2H33v-2h-3.8l-0.1-1.1l3.8-6.1h1.9V41.1z M30.8,41.1H33v-3.4l0,0l-0.2,0.4L30.8,41.1z
			"/>
		<path fill="#ABABB4" d="M43.1,41.2c0,1.1-0.3,1.9-0.9,2.6c-0.6,0.6-1.3,0.9-2.3,0.9c-0.9,0-1.7-0.3-2.3-0.9s-0.9-1.5-0.9-2.6v-2.5
			c0-1.1,0.3-1.9,0.9-2.6c0.6-0.6,1.3-0.9,2.3-0.9c0.9,0,1.7,0.3,2.3,0.9c0.6,0.6,0.9,1.5,0.9,2.6V41.2z M41.3,38.4
			c0-0.6-0.1-1.1-0.3-1.4c-0.2-0.3-0.5-0.5-0.9-0.5c-0.4,0-0.7,0.2-0.9,0.5c-0.2,0.3-0.3,0.8-0.3,1.4v2.9c0,0.6,0.1,1.1,0.3,1.4
			c0.2,0.3,0.5,0.5,1,0.5c0.4,0,0.7-0.2,0.9-0.5c0.2-0.3,0.3-0.8,0.3-1.4V38.4z"/>
		<path fill="#ABABB4" d="M50.6,41.2c0,1.1-0.3,1.9-0.9,2.6c-0.6,0.6-1.3,0.9-2.3,0.9c-0.9,0-1.7-0.3-2.3-0.9s-0.9-1.5-0.9-2.6v-2.5
			c0-1.1,0.3-1.9,0.9-2.6c0.6-0.6,1.3-0.9,2.3-0.9c0.9,0,1.7,0.3,2.3,0.9c0.6,0.6,0.9,1.5,0.9,2.6V41.2z M48.7,38.4
			c0-0.6-0.1-1.1-0.3-1.4c-0.2-0.3-0.5-0.5-0.9-0.5c-0.4,0-0.7,0.2-0.9,0.5c-0.2,0.3-0.3,0.8-0.3,1.4v2.9c0,0.6,0.1,1.1,0.3,1.4
			c0.2,0.3,0.5,0.5,1,0.5c0.4,0,0.7-0.2,0.9-0.5c0.2-0.3,0.3-0.8,0.3-1.4V38.4z"/>
		<path fill="#ABABB4" d="M53.9,44.5h-1.9v-1.6h1.9V44.5z"/>
		<path fill="#ABABB4" d="M61.8,41.2c0,1.1-0.3,1.9-0.9,2.6c-0.6,0.6-1.3,0.9-2.3,0.9c-0.9,0-1.7-0.3-2.3-0.9s-0.9-1.5-0.9-2.6v-2.5
			c0-1.1,0.3-1.9,0.9-2.6c0.6-0.6,1.3-0.9,2.3-0.9c0.9,0,1.7,0.3,2.3,0.9c0.6,0.6,0.9,1.5,0.9,2.6V41.2z M60,38.4
			c0-0.6-0.1-1.1-0.3-1.4c-0.2-0.3-0.5-0.5-0.9-0.5c-0.4,0-0.7,0.2-0.9,0.5c-0.2,0.3-0.3,0.8-0.3,1.4v2.9c0,0.6,0.1,1.1,0.3,1.4
			c0.2,0.3,0.5,0.5,1,0.5c0.4,0,0.7-0.2,0.9-0.5c0.2-0.3,0.3-0.8,0.3-1.4V38.4z"/>
		<path fill="#ABABB4" d="M69.3,41.2c0,1.1-0.3,1.9-0.9,2.6c-0.6,0.6-1.3,0.9-2.3,0.9c-0.9,0-1.7-0.3-2.3-0.9S63,42.3,63,41.2v-2.5
			c0-1.1,0.3-1.9,0.9-2.6c0.6-0.6,1.3-0.9,2.3-0.9c0.9,0,1.7,0.3,2.3,0.9c0.6,0.6,0.9,1.5,0.9,2.6V41.2z M67.4,38.4
			c0-0.6-0.1-1.1-0.3-1.4c-0.2-0.3-0.5-0.5-0.9-0.5c-0.4,0-0.7,0.2-0.9,0.5c-0.2,0.3-0.3,0.8-0.3,1.4v2.9c0,0.6,0.1,1.1,0.3,1.4
			c0.2,0.3,0.5,0.5,1,0.5c0.4,0,0.7-0.2,0.9-0.5c0.2-0.3,0.3-0.8,0.3-1.4V38.4z"/>
	</g>
	<g opacity="0.17">
		<path fill="#ABABB4" d="M8.1,239.5L8.1,239.5c1,0,1.8,0.3,2.4,0.9s0.8,1.5,0.8,2.6c0,1.1-0.4,2-1.1,2.7c-0.7,0.7-1.6,1-2.8,1H5.6
			c-1.1,0-2-0.3-2.8-1c-0.7-0.7-1.1-1.5-1.1-2.6c0-1.1,0.3-2,0.8-2.6s1.3-0.9,2.3-0.9l0,0v1.8c-0.6,0-1,0.1-1.3,0.4
			c-0.3,0.3-0.4,0.7-0.4,1.3c0,0.6,0.2,1,0.7,1.3c0.4,0.3,1,0.5,1.7,0.5h1.8c0.7,0,1.3-0.2,1.7-0.5c0.4-0.3,0.7-0.8,0.7-1.4
			c0-0.6-0.1-1-0.4-1.2c-0.3-0.3-0.7-0.4-1.3-0.4V239.5z"/>
		<path fill="#ABABB4" d="M9.1,233.3v3l2,0.6v1.9l-9.2-3.1v-1.9l9.2-3.1v1.9L9.1,233.3z M7.7,235.8v-2.1l-3.3,1v0L7.7,235.8z"/>
		<path fill="#ABABB4" d="M11.1,222.4v1.9L4.9,228l0,0h6.2v1.9H1.9V228l6.2-3.7l0,0H1.9v-1.9H11.1z"/>
		<path fill="#ABABB4" d="M3.3,214.4v2.6h7.8v1.9H3.3v2.6H1.9v-7.1H3.3z"/>
		<path fill="#ABABB4" d="M11.1,211.4v1.9H1.9v-1.9H11.1z"/>
		<path fill="#ABABB4" d="M11.1,209.6H1.9v-3.2c0-1.1,0.4-2.1,1.1-2.8c0.7-0.7,1.6-1.1,2.8-1.1h1.5c1.1,0,2.1,0.4,2.8,1.1
			c0.7,0.7,1.1,1.7,1.1,2.8V209.6z M3.3,207.7h6.4v-1.4c0-0.6-0.2-1.1-0.7-1.5c-0.5-0.4-1-0.6-1.7-0.6H5.7c-0.7,0-1.3,0.2-1.7,0.6
			s-0.7,0.9-0.7,1.5V207.7z"/>
		<path fill="#ABABB4" d="M9.1,196.3v3l2,0.6v1.9l-9.2-3.1v-1.9l9.2-3.1v1.9L9.1,196.3z M7.7,198.8v-2.1l-3.3,1v0L7.7,198.8z"/>
		<path fill="#ABABB4" d="M11.1,192.8H1.9v-3.2c0-1.1,0.4-2.1,1.1-2.8c0.7-0.7,1.6-1.1,2.8-1.1h1.5c1.1,0,2.1,0.4,2.8,1.1
			c0.7,0.7,1.1,1.7,1.1,2.8V192.8z M3.3,191h6.4v-1.4c0-0.6-0.2-1.1-0.7-1.5c-0.5-0.4-1-0.6-1.7-0.6H5.7c-0.7,0-1.3,0.2-1.7,0.6
			c-0.5,0.4-0.7,0.9-0.7,1.5V191z"/>
		<path fill="#ABABB4" d="M11.1,181H1.9v-3.2c0-1.1,0.4-2.1,1.1-2.8c0.7-0.7,1.6-1.1,2.8-1.1h1.5c1.1,0,2.1,0.4,2.8,1.1
			c0.7,0.7,1.1,1.7,1.1,2.8V181z M3.3,179.1h6.4v-1.4c0-0.6-0.2-1.1-0.7-1.5c-0.5-0.4-1-0.6-1.7-0.6H5.7c-0.7,0-1.3,0.2-1.7,0.6
			s-0.7,0.9-0.7,1.5V179.1z"/>
		<path fill="#ABABB4" d="M7.1,167.1v3.4h2.6v-4.1h1.4v5.9H1.9v-5.9h1.4v4.1h2.3v-3.4H7.1z"/>
		<path fill="#ABABB4" d="M8.6,158.8l0.5-0.1v0l-0.5-0.1l-6.8-2v-2l9.2,3.1v1.9l-9.2,3.1v-2L8.6,158.8z"/>
		<path fill="#ABABB4" d="M1.9,146.3h6c1,0,1.9,0.3,2.4,1s0.9,1.6,0.9,2.7c0,1.1-0.3,2-0.9,2.7c-0.6,0.7-1.4,1-2.4,1h-6v-1.9h6
			c0.6,0,1.1-0.2,1.4-0.5s0.5-0.8,0.5-1.3c0-0.6-0.2-1-0.5-1.4s-0.8-0.5-1.4-0.5h-6V146.3z"/>
		<path fill="#ABABB4" d="M7.1,139.5v3.4h2.6v-4.1h1.4v5.9H1.9v-5.9h1.4v4.1h2.3v-3.4H7.1z"/>
		<path fill="#ABABB4" d="M9.7,135.6v-4.1h1.4v6H1.9v-1.9H9.7z"/>
		<path fill="#ABABB4" d="M7.3,123c1.1,0,2.1,0.4,2.8,1.1c0.7,0.7,1.1,1.6,1.1,2.8c0,1.1-0.4,2.1-1.1,2.8s-1.7,1.1-2.8,1.1H5.7
			c-1.1,0-2.1-0.4-2.8-1.1c-0.7-0.7-1.1-1.6-1.1-2.8c0-1.1,0.4-2.1,1.1-2.8c0.7-0.7,1.7-1.1,2.8-1.1H7.3z M5.7,124.8
			c-0.7,0-1.3,0.2-1.8,0.5s-0.7,0.9-0.7,1.5c0,0.6,0.2,1.1,0.7,1.5c0.5,0.3,1.1,0.5,1.8,0.5h1.7c0.7,0,1.3-0.2,1.8-0.5
			s0.7-0.8,0.7-1.5c0-0.6-0.2-1.1-0.7-1.5s-1.1-0.5-1.8-0.5H5.7z"/>
		<path fill="#ABABB4" d="M8.7,116.7c-0.4,0-0.6,0.1-0.9,0.4c-0.2,0.2-0.4,0.7-0.6,1.3c-0.3,1.1-0.7,1.9-1.1,2.4
			c-0.4,0.6-1,0.8-1.8,0.8c-0.8,0-1.4-0.3-1.9-0.9c-0.5-0.6-0.7-1.4-0.7-2.4c0-1,0.3-1.8,0.8-2.5c0.5-0.6,1.2-0.9,2-0.9l0,0v1.8
			c-0.5,0-0.8,0.1-1.1,0.4c-0.2,0.3-0.4,0.7-0.4,1.2c0,0.5,0.1,0.8,0.3,1.1s0.5,0.4,0.8,0.4c0.3,0,0.6-0.1,0.8-0.4
			c0.2-0.3,0.4-0.7,0.6-1.4c0.3-1,0.7-1.8,1.1-2.3c0.5-0.5,1.1-0.8,1.8-0.8c0.8,0,1.4,0.3,1.9,0.9s0.7,1.4,0.7,2.5
			c0,1-0.2,1.8-0.7,2.6c-0.5,0.7-1.2,1.1-2.2,1l0,0V120c0.5,0,0.9-0.2,1.2-0.5s0.4-0.8,0.4-1.3c0-0.5-0.1-0.9-0.3-1.1
			C9.3,116.8,9.1,116.7,8.7,116.7z"/>
	</g>
	<g opacity="0.17">
		<path fill="#ABABB4" d="M22.6,137.6h-1.8v-7.6h-1.9v-1.4l3.8-0.3V137.6z"/>
		<path fill="#ABABB4" d="M27.8,137.6h-1.9v-1.6h1.9V137.6z"/>
		<path fill="#ABABB4" d="M35.7,134.2c0,1.1-0.3,1.9-0.9,2.6c-0.6,0.6-1.3,0.9-2.3,0.9c-0.9,0-1.7-0.3-2.3-0.9s-0.9-1.5-0.9-2.6
			v-2.5c0-1.1,0.3-1.9,0.9-2.6c0.6-0.6,1.3-0.9,2.3-0.9c0.9,0,1.7,0.3,2.3,0.9c0.6,0.6,0.9,1.5,0.9,2.6V134.2z M33.8,131.5
			c0-0.6-0.1-1.1-0.3-1.4c-0.2-0.3-0.5-0.5-0.9-0.5c-0.4,0-0.7,0.2-0.9,0.5c-0.2,0.3-0.3,0.8-0.3,1.4v2.9c0,0.6,0.1,1.1,0.3,1.4
			c0.2,0.3,0.5,0.5,1,0.5c0.4,0,0.7-0.2,0.9-0.5c0.2-0.3,0.3-0.8,0.3-1.4V131.5z"/>
		<path fill="#ABABB4" d="M43.1,134.2c0,1.1-0.3,1.9-0.9,2.6c-0.6,0.6-1.3,0.9-2.3,0.9c-0.9,0-1.7-0.3-2.3-0.9s-0.9-1.5-0.9-2.6
			v-2.5c0-1.1,0.3-1.9,0.9-2.6c0.6-0.6,1.3-0.9,2.3-0.9c0.9,0,1.7,0.3,2.3,0.9c0.6,0.6,0.9,1.5,0.9,2.6V134.2z M41.3,131.5
			c0-0.6-0.1-1.1-0.3-1.4c-0.2-0.3-0.5-0.5-0.9-0.5c-0.4,0-0.7,0.2-0.9,0.5c-0.2,0.3-0.3,0.8-0.3,1.4v2.9c0,0.6,0.1,1.1,0.3,1.4
			c0.2,0.3,0.5,0.5,1,0.5c0.4,0,0.7-0.2,0.9-0.5c0.2-0.3,0.3-0.8,0.3-1.4V131.5z"/>
		<path fill="#ABABB4" d="M50.6,134.2c0,1.1-0.3,1.9-0.9,2.6c-0.6,0.6-1.3,0.9-2.3,0.9c-0.9,0-1.7-0.3-2.3-0.9s-0.9-1.5-0.9-2.6
			v-2.5c0-1.1,0.3-1.9,0.9-2.6c0.6-0.6,1.3-0.9,2.3-0.9c0.9,0,1.7,0.3,2.3,0.9c0.6,0.6,0.9,1.5,0.9,2.6V134.2z M48.7,131.5
			c0-0.6-0.1-1.1-0.3-1.4c-0.2-0.3-0.5-0.5-0.9-0.5c-0.4,0-0.7,0.2-0.9,0.5c-0.2,0.3-0.3,0.8-0.3,1.4v2.9c0,0.6,0.1,1.1,0.3,1.4
			c0.2,0.3,0.5,0.5,1,0.5c0.4,0,0.7-0.2,0.9-0.5c0.2-0.3,0.3-0.8,0.3-1.4V131.5z"/>
		<path fill="#ABABB4" d="M53.9,137.6h-1.9v-1.6h1.9V137.6z"/>
		<path fill="#ABABB4" d="M61.8,134.2c0,1.1-0.3,1.9-0.9,2.6c-0.6,0.6-1.3,0.9-2.3,0.9c-0.9,0-1.7-0.3-2.3-0.9s-0.9-1.5-0.9-2.6
			v-2.5c0-1.1,0.3-1.9,0.9-2.6c0.6-0.6,1.3-0.9,2.3-0.9c0.9,0,1.7,0.3,2.3,0.9c0.6,0.6,0.9,1.5,0.9,2.6V134.2z M60,131.5
			c0-0.6-0.1-1.1-0.3-1.4c-0.2-0.3-0.5-0.5-0.9-0.5c-0.4,0-0.7,0.2-0.9,0.5c-0.2,0.3-0.3,0.8-0.3,1.4v2.9c0,0.6,0.1,1.1,0.3,1.4
			c0.2,0.3,0.5,0.5,1,0.5c0.4,0,0.7-0.2,0.9-0.5c0.2-0.3,0.3-0.8,0.3-1.4V131.5z"/>
		<path fill="#ABABB4" d="M69.3,134.2c0,1.1-0.3,1.9-0.9,2.6c-0.6,0.6-1.3,0.9-2.3,0.9c-0.9,0-1.7-0.3-2.3-0.9s-0.9-1.5-0.9-2.6
			v-2.5c0-1.1,0.3-1.9,0.9-2.6c0.6-0.6,1.3-0.9,2.3-0.9c0.9,0,1.7,0.3,2.3,0.9c0.6,0.6,0.9,1.5,0.9,2.6V134.2z M67.4,131.5
			c0-0.6-0.1-1.1-0.3-1.4c-0.2-0.3-0.5-0.5-0.9-0.5c-0.4,0-0.7,0.2-0.9,0.5c-0.2,0.3-0.3,0.8-0.3,1.4v2.9c0,0.6,0.1,1.1,0.3,1.4
			c0.2,0.3,0.5,0.5,1,0.5c0.4,0,0.7-0.2,0.9-0.5c0.2-0.3,0.3-0.8,0.3-1.4V131.5z"/>
	</g>
	<g opacity="0.17">
		<path fill="#ABABB4" d="M34.9,227.9h1v1.4h-1v2H33v-2h-3.8l-0.1-1.1l3.8-6.1h1.9V227.9z M30.8,227.9H33v-3.4l0,0l-0.2,0.4
			L30.8,227.9z"/>
		<path fill="#ABABB4" d="M43.1,228c0,1.1-0.3,1.9-0.9,2.6c-0.6,0.6-1.3,0.9-2.3,0.9c-0.9,0-1.7-0.3-2.3-0.9
			c-0.6-0.6-0.9-1.5-0.9-2.6v-2.5c0-1.1,0.3-1.9,0.9-2.6c0.6-0.6,1.3-0.9,2.3-0.9c0.9,0,1.7,0.3,2.3,0.9c0.6,0.6,0.9,1.5,0.9,2.6
			V228z M41.3,225.2c0-0.6-0.1-1.1-0.3-1.4c-0.2-0.3-0.5-0.5-0.9-0.5c-0.4,0-0.7,0.2-0.9,0.5c-0.2,0.3-0.3,0.8-0.3,1.4v2.9
			c0,0.6,0.1,1.1,0.3,1.4c0.2,0.3,0.5,0.5,1,0.5c0.4,0,0.7-0.2,0.9-0.5c0.2-0.3,0.3-0.8,0.3-1.4V225.2z"/>
		<path fill="#ABABB4" d="M50.6,228c0,1.1-0.3,1.9-0.9,2.6c-0.6,0.6-1.3,0.9-2.3,0.9c-0.9,0-1.7-0.3-2.3-0.9
			c-0.6-0.6-0.9-1.5-0.9-2.6v-2.5c0-1.1,0.3-1.9,0.9-2.6c0.6-0.6,1.3-0.9,2.3-0.9c0.9,0,1.7,0.3,2.3,0.9c0.6,0.6,0.9,1.5,0.9,2.6
			V228z M48.7,225.2c0-0.6-0.1-1.1-0.3-1.4c-0.2-0.3-0.5-0.5-0.9-0.5c-0.4,0-0.7,0.2-0.9,0.5c-0.2,0.3-0.3,0.8-0.3,1.4v2.9
			c0,0.6,0.1,1.1,0.3,1.4c0.2,0.3,0.5,0.5,1,0.5c0.4,0,0.7-0.2,0.9-0.5c0.2-0.3,0.3-0.8,0.3-1.4V225.2z"/>
		<path fill="#ABABB4" d="M53.9,231.3h-1.9v-1.6h1.9V231.3z"/>
		<path fill="#ABABB4" d="M61.8,228c0,1.1-0.3,1.9-0.9,2.6c-0.6,0.6-1.3,0.9-2.3,0.9c-0.9,0-1.7-0.3-2.3-0.9
			c-0.6-0.6-0.9-1.5-0.9-2.6v-2.5c0-1.1,0.3-1.9,0.9-2.6c0.6-0.6,1.3-0.9,2.3-0.9c0.9,0,1.7,0.3,2.3,0.9c0.6,0.6,0.9,1.5,0.9,2.6
			V228z M60,225.2c0-0.6-0.1-1.1-0.3-1.4c-0.2-0.3-0.5-0.5-0.9-0.5c-0.4,0-0.7,0.2-0.9,0.5c-0.2,0.3-0.3,0.8-0.3,1.4v2.9
			c0,0.6,0.1,1.1,0.3,1.4c0.2,0.3,0.5,0.5,1,0.5c0.4,0,0.7-0.2,0.9-0.5c0.2-0.3,0.3-0.8,0.3-1.4V225.2z"/>
		<path fill="#ABABB4" d="M69.3,228c0,1.1-0.3,1.9-0.9,2.6c-0.6,0.6-1.3,0.9-2.3,0.9c-0.9,0-1.7-0.3-2.3-0.9
			c-0.6-0.6-0.9-1.5-0.9-2.6v-2.5c0-1.1,0.3-1.9,0.9-2.6c0.6-0.6,1.3-0.9,2.3-0.9c0.9,0,1.7,0.3,2.3,0.9c0.6,0.6,0.9,1.5,0.9,2.6
			V228z M67.4,225.2c0-0.6-0.1-1.1-0.3-1.4c-0.2-0.3-0.5-0.5-0.9-0.5c-0.4,0-0.7,0.2-0.9,0.5c-0.2,0.3-0.3,0.8-0.3,1.4v2.9
			c0,0.6,0.1,1.1,0.3,1.4c0.2,0.3,0.5,0.5,1,0.5c0.4,0,0.7-0.2,0.9-0.5c0.2-0.3,0.3-0.8,0.3-1.4V225.2z"/>
	</g>
	<g opacity="0.17">
		<path fill="#ABABB4" d="M69.3,317.5c0,1.1-0.3,1.9-0.9,2.6c-0.6,0.6-1.3,0.9-2.3,0.9c-0.9,0-1.7-0.3-2.3-0.9s-0.9-1.5-0.9-2.6V315
			c0-1.1,0.3-1.9,0.9-2.6c0.6-0.6,1.3-0.9,2.3-0.9c0.9,0,1.7,0.3,2.3,0.9c0.6,0.6,0.9,1.5,0.9,2.6V317.5z M67.4,314.8
			c0-0.6-0.1-1.1-0.3-1.4c-0.2-0.3-0.5-0.5-0.9-0.5c-0.4,0-0.7,0.2-0.9,0.5c-0.2,0.3-0.3,0.8-0.3,1.4v2.9c0,0.6,0.1,1.1,0.3,1.4
			s0.5,0.5,1,0.5c0.4,0,0.7-0.2,0.9-0.5c0.2-0.3,0.3-0.8,0.3-1.4V314.8z"/>
	</g>
	
		<line opacity="0.23" fill="none" stroke="#FFFFFF" stroke-width="0.727" stroke-miterlimit="10" stroke-opacity="0.4" x1="79.6" y1="320.4" x2="381.6" y2="320.4"/>
	<g opacity="0.23">
		<g opacity="0.4">
			<line fill="none" stroke="#FFFFFF" stroke-miterlimit="10" x1="79.1" y1="227.6" x2="83.1" y2="227.6"/>
			<line fill="none" stroke="#FFFFFF" stroke-miterlimit="10" stroke-dasharray="9,9" x1="92.1" y1="227.6" x2="375.1" y2="227.6"/>
			<line fill="none" stroke="#FFFFFF" stroke-miterlimit="10" x1="379.1" y1="227.6" x2="384.1" y2="227.6"/>
		</g>
	</g>
	<g opacity="0.23">
		<g opacity="0.4">
			<line fill="none" stroke="#FFFFFF" stroke-miterlimit="10" x1="79.1" y1="133.6" x2="83.1" y2="133.6"/>
			<line fill="none" stroke="#FFFFFF" stroke-miterlimit="10" stroke-dasharray="9,9" x1="92.1" y1="133.6" x2="375.1" y2="133.6"/>
			<line fill="none" stroke="#FFFFFF" stroke-miterlimit="10" x1="379.1" y1="133.6" x2="384.1" y2="133.6"/>
		</g>
	</g>
	<g opacity="0.23">
		<g opacity="0.4">
			<line fill="none" stroke="#FFFFFF" stroke-miterlimit="10" x1="79.1" y1="40.6" x2="83.1" y2="40.6"/>
			<line fill="none" stroke="#FFFFFF" stroke-miterlimit="10" stroke-dasharray="9,9" x1="92.1" y1="40.6" x2="375.1" y2="40.6"/>
			<line fill="none" stroke="#FFFFFF" stroke-miterlimit="10" x1="379.1" y1="40.6" x2="384.1" y2="40.6"/>
		</g>
	</g>
	
		<line fill="none" stroke="#FFFFFF" stroke-width="0.8246" stroke-miterlimit="10" stroke-opacity="0.4" x1="247.4" y1="57" x2="247.4" y2="32.6"/>
	
		<path fill="none" stroke="#666666" stroke-width="3.7886" stroke-linecap="round" stroke-linejoin="round" stroke-miterlimit="10" d="
		M88.6,121.9c0,0,21.7,14.3,25.1,14.3c3.4,0,27.9,3.7,27.9,3.7l25.5,28.6l27.6,4.6c0,0,23.9,5.5,24.8,5.5c0.9,0,30.1-57.6,30.1-57.6
		l23.4,6l27.3,5.5l26.7-16.6l26.1,5.5l27.6-4.6"/>
	
		<path fill="none" stroke="#009DDA" stroke-width="3.7886" stroke-linecap="round" stroke-linejoin="round" stroke-miterlimit="10" d="
		M87.9,82.8l26.7,24.9l26.1-19.4c0,0,23.3,26.7,26.4,26.7s25.5,9.2,25.5,9.2l27,8.3l28.3-79.1l24.8,5.1c2,1.5,23.5,17.5,23.5,17.5"
		/>
	
		<path fill="none" stroke="#FFFFFF" stroke-width="3.7886" stroke-linecap="round" stroke-linejoin="round" stroke-miterlimit="10" d="
		M87.6,101.2l26.7,24l27.3-5.5l25.2,16.6c0,0,25.8,0.9,27,1.8c1.2,0.9,26.1,12,26.1,12l29.3-59.4l24.4,4.1l26.7,2.8l27.3-4.6
		l27.3-1.8l24.8,9.2"/>
	<circle fill="#FFFFFF" cx="87.6" cy="101.1" r="4.8"/>
	<circle fill="#666666" cx="87.6" cy="122.1" r="4.8"/>
	<circle fill="#FFFFFF" cx="379.6" cy="100.1" r="4.8"/>
	<circle fill="#666666" cx="379.6" cy="116.1" r="4.8"/>
	<g>
		
			<image overflow="visible" opacity="0.3" width="41" height="40" xlink:href="5828413683E60624.png"  transform="matrix(1 0 0 1 228.1099 33.6426)">
		</image>
		<g>
			<circle fill="#009DDA" cx="248.6" cy="53.6" r="4.8"/>
		</g>
	</g>
	<g>
		
			<image overflow="visible" opacity="0.3" width="41" height="40" xlink:href="5828413683E60625.png"  transform="matrix(1 0 0 1 276.1099 55.6426)">
		</image>
		<g>
			<path fill="#009DDA" d="M301.5,74.8c0.5,3.2-2.2,5.9-5.4,5.4c-2-0.3-3.6-1.9-3.9-3.9c-0.5-3.2,2.2-5.9,5.4-5.4
				C299.5,71.2,301.2,72.8,301.5,74.8z"/>
		</g>
	</g>
	<circle fill="#009DDA" cx="87.1" cy="82.1" r="4.8"/>
	<g>
		<g>
			<path fill="#009DDA" d="M249.4,12h-1.7V3.6h-2.1V2.2l3.8-0.4V12z"/>
			<path fill="#009DDA" d="M254.9,12h-1.7v-1.6h1.7V12z"/>
			<path fill="#009DDA" d="M260.1,6.2c0.5,0,0.9-0.1,1.2-0.4c0.2-0.3,0.4-0.6,0.4-1.1c0-0.4-0.1-0.8-0.4-1.1
				c-0.3-0.3-0.6-0.4-1.1-0.4c-0.4,0-0.8,0.1-1.1,0.4c-0.3,0.3-0.4,0.6-0.4,1h-1.6l0,0c0-0.8,0.3-1.4,0.9-1.9s1.4-0.8,2.3-0.8
				c1,0,1.7,0.2,2.3,0.7s0.8,1.2,0.8,2.1c0,0.5-0.1,0.9-0.4,1.3s-0.6,0.7-1,0.9c0.5,0.2,0.9,0.5,1.2,0.9c0.3,0.4,0.4,0.9,0.4,1.5
				c0,0.9-0.3,1.6-0.9,2.2s-1.4,0.8-2.4,0.8c-0.9,0-1.6-0.2-2.3-0.7c-0.7-0.5-1-1.2-1-2l0,0h1.6c0,0.4,0.2,0.8,0.5,1.1
				s0.7,0.4,1.2,0.4c0.5,0,0.9-0.1,1.2-0.4c0.3-0.3,0.4-0.7,0.4-1.2c0-0.6-0.1-1-0.4-1.3s-0.7-0.4-1.3-0.4h-1.1V6.2H260.1z"/>
			<path fill="#009DDA" d="M265.1,7.6l0.6-5.6h5.2v1.4h-3.9L266.8,6c0.2-0.1,0.4-0.3,0.7-0.4s0.6-0.1,0.9-0.2c0.9,0,1.6,0.3,2.2,0.9
				c0.5,0.6,0.8,1.4,0.8,2.4c0,1-0.3,1.8-0.8,2.4c-0.5,0.6-1.4,0.9-2.4,0.9c-0.9,0-1.6-0.2-2.2-0.7s-0.9-1.1-0.9-2l0,0l1.6,0
				c0,0.5,0.1,0.8,0.4,1.1s0.6,0.4,1.1,0.4c0.5,0,0.9-0.2,1.2-0.5c0.3-0.4,0.4-0.8,0.4-1.5c0-0.6-0.1-1.1-0.4-1.4
				C269,7,268.6,6.8,268,6.8c-0.5,0-0.8,0.1-1,0.2s-0.4,0.4-0.5,0.6L265.1,7.6z"/>
			<path fill="#009DDA" d="M278.3,8.4h1.3v1.3h-1.3V12h-1.7V9.8h-4.2l0-1l4.2-6.7h1.7V8.4z M274.1,8.4h2.6V4.4l0,0l-0.2,0.4
				L274.1,8.4z"/>
			<path fill="#009DDA" d="M282.7,12H281v-1.6h1.7V12z"/>
			<path fill="#009DDA" d="M291.1,8.4c0,1.1-0.3,2.1-0.9,2.7s-1.4,1-2.4,1c-1,0-1.8-0.3-2.4-1c-0.6-0.7-0.9-1.6-0.9-2.7V5.6
				c0-1.1,0.3-2,0.9-2.7c0.6-0.7,1.4-1,2.4-1c1,0,1.8,0.3,2.4,1s0.9,1.6,0.9,2.7V8.4z M289.4,5.3c0-0.7-0.1-1.2-0.4-1.6
				c-0.3-0.4-0.7-0.6-1.2-0.6c-0.5,0-0.9,0.2-1.2,0.6c-0.3,0.4-0.4,0.9-0.4,1.6v3.3c0,0.7,0.1,1.2,0.4,1.6c0.3,0.4,0.7,0.6,1.2,0.6
				c0.5,0,0.9-0.2,1.2-0.6s0.4-0.9,0.4-1.6V5.3z"/>
			<path fill="#009DDA" d="M295.8,6.2c0.5,0,0.9-0.1,1.2-0.4c0.2-0.3,0.4-0.6,0.4-1.1c0-0.4-0.1-0.8-0.4-1.1
				c-0.3-0.3-0.6-0.4-1.1-0.4c-0.4,0-0.8,0.1-1.1,0.4c-0.3,0.3-0.4,0.6-0.4,1h-1.6l0,0c0-0.8,0.3-1.4,0.9-1.9s1.4-0.8,2.3-0.8
				c1,0,1.7,0.2,2.3,0.7s0.8,1.2,0.8,2.1c0,0.5-0.1,0.9-0.4,1.3s-0.6,0.7-1,0.9c0.5,0.2,0.9,0.5,1.2,0.9c0.3,0.4,0.4,0.9,0.4,1.5
				c0,0.9-0.3,1.6-0.9,2.2s-1.4,0.8-2.4,0.8c-0.9,0-1.6-0.2-2.3-0.7c-0.7-0.5-1-1.2-1-2l0,0h1.6c0,0.4,0.2,0.8,0.5,1.1
				s0.7,0.4,1.2,0.4c0.5,0,0.9-0.1,1.2-0.4c0.3-0.3,0.4-0.7,0.4-1.2c0-0.6-0.1-1-0.4-1.3s-0.7-0.4-1.3-0.4h-1.1V6.2H295.8z"/>
			<path fill="#009DDA" d="M303.3,10.8c0.6,0,1-0.2,1.4-0.6s0.5-1,0.5-1.7V7.8c-0.2,0.3-0.5,0.5-0.8,0.7s-0.7,0.2-1,0.2
				c-0.9,0-1.7-0.3-2.2-0.9s-0.8-1.4-0.8-2.5c0-1,0.3-1.8,0.9-2.5s1.4-1,2.3-1c1,0,1.8,0.3,2.4,1s0.9,1.6,0.9,2.7v2.8
				c0,1.2-0.3,2.1-1,2.7s-1.5,1-2.6,1c-0.4,0-0.7,0-1.1-0.1s-0.7-0.2-1-0.3l0.3-1.3c0.3,0.1,0.6,0.2,0.9,0.3
				C302.6,10.8,302.9,10.8,303.3,10.8z M303.6,7.4c0.4,0,0.7-0.1,1-0.2c0.3-0.2,0.5-0.4,0.7-0.7V5.3c0-0.7-0.1-1.2-0.4-1.5
				s-0.7-0.5-1.2-0.5c-0.4,0-0.8,0.2-1.1,0.6S302,4.7,302,5.3c0,0.6,0.1,1.1,0.4,1.5S303.1,7.4,303.6,7.4z"/>
			<path fill="#009DDA" d="M246.9,22.8V27h-1.7V17h3.4c1.1,0,2,0.3,2.6,0.8c0.6,0.5,0.9,1.2,0.9,2.1c0,0.5-0.1,1-0.4,1.3
				s-0.7,0.7-1.2,0.9c0.6,0.2,1,0.5,1.2,0.9s0.4,0.9,0.4,1.5v0.8c0,0.3,0,0.6,0.1,0.9c0.1,0.3,0.2,0.5,0.4,0.6V27H251
				c-0.2-0.2-0.3-0.4-0.3-0.7c-0.1-0.3-0.1-0.6-0.1-1v-0.8c0-0.5-0.1-0.9-0.4-1.2s-0.7-0.5-1.2-0.5H246.9z M246.9,21.5h1.7
				c0.7,0,1.2-0.1,1.5-0.4c0.3-0.3,0.5-0.6,0.5-1.2c0-0.5-0.2-0.9-0.5-1.2s-0.8-0.4-1.4-0.4h-1.8V21.5z"/>
			<path fill="#009DDA" d="M257.1,27.1c-1.1,0-1.9-0.3-2.5-1s-0.9-1.6-0.9-2.6v-0.3c0-1.1,0.3-2,0.9-2.7s1.4-1.1,2.4-1
				c1,0,1.7,0.3,2.3,0.9c0.5,0.6,0.8,1.4,0.8,2.5v0.9h-4.6l0,0c0,0.6,0.2,1.1,0.5,1.5s0.8,0.6,1.4,0.6c0.5,0,0.8-0.1,1.2-0.2
				s0.6-0.3,0.9-0.5l0.5,1.1c-0.3,0.2-0.7,0.5-1.1,0.6S257.7,27.1,257.1,27.1z M257,20.8c-0.4,0-0.8,0.2-1,0.5s-0.4,0.7-0.5,1.2l0,0
				h2.9v-0.1c0-0.5-0.1-0.9-0.3-1.2S257.4,20.8,257,20.8z M257.3,16.4h1.9l0,0l-1.9,1.8H256L257.3,16.4z"/>
			<path fill="#009DDA" d="M264.3,25.8c0.4,0,0.7-0.1,1-0.4s0.4-0.5,0.4-0.9h1.5l0,0c0,0.7-0.3,1.3-0.8,1.8s-1.2,0.8-2,0.8
				c-1.1,0-1.9-0.4-2.5-1.1c-0.6-0.7-0.9-1.6-0.9-2.7v-0.2c0-1.1,0.3-2,0.9-2.7c0.6-0.7,1.4-1.1,2.5-1.1c0.9,0,1.6,0.3,2.1,0.8
				c0.5,0.5,0.8,1.2,0.8,2l0,0h-1.5c0-0.4-0.1-0.7-0.4-1c-0.2-0.3-0.6-0.4-1-0.4c-0.6,0-1,0.2-1.3,0.7s-0.4,1-0.4,1.7v0.2
				c0,0.7,0.1,1.3,0.4,1.7S263.7,25.8,264.3,25.8z"/>
			<path fill="#009DDA" d="M268.3,23.2c0-1.1,0.3-2,0.9-2.7s1.4-1.1,2.5-1.1c1.1,0,1.9,0.4,2.5,1.1s0.9,1.6,0.9,2.7v0.1
				c0,1.1-0.3,2-0.9,2.7s-1.4,1-2.5,1c-1.1,0-1.9-0.4-2.5-1.1s-0.9-1.6-0.9-2.7V23.2z M270,23.4c0,0.7,0.1,1.3,0.4,1.8
				c0.3,0.5,0.7,0.7,1.3,0.7c0.6,0,1-0.2,1.3-0.7s0.4-1,0.4-1.8v-0.1c0-0.7-0.1-1.3-0.4-1.7s-0.7-0.7-1.3-0.7c-0.6,0-1,0.2-1.3,0.7
				s-0.4,1-0.4,1.7V23.4z"/>
			<path fill="#009DDA" d="M280.2,21.1l-0.7,0c-0.3,0-0.6,0.1-0.8,0.2s-0.4,0.3-0.5,0.6V27h-1.7v-7.4h1.5l0.1,1.1
				c0.2-0.4,0.4-0.7,0.7-0.9s0.6-0.3,1-0.3c0.1,0,0.2,0,0.3,0c0.1,0,0.2,0,0.2,0.1L280.2,21.1z"/>
			<path fill="#009DDA" d="M281,23.4c0-1.2,0.3-2.1,0.8-2.9s1.2-1.1,2.1-1.1c0.4,0,0.8,0.1,1.1,0.2s0.6,0.4,0.8,0.7v-4.1h1.7V27
				h-1.3l-0.2-0.9c-0.2,0.4-0.5,0.6-0.9,0.8c-0.3,0.2-0.7,0.3-1.2,0.3c-0.9,0-1.6-0.3-2.1-1s-0.8-1.5-0.8-2.6V23.4z M282.7,23.5
				c0,0.7,0.1,1.2,0.4,1.6s0.7,0.6,1.2,0.6c0.4,0,0.6-0.1,0.9-0.2s0.4-0.4,0.6-0.6v-3.2c-0.2-0.3-0.4-0.5-0.6-0.6s-0.5-0.2-0.9-0.2
				c-0.6,0-1,0.2-1.3,0.7c-0.3,0.5-0.4,1.1-0.4,1.9V23.5z"/>
			<path fill="#009DDA" d="M294.4,20.5c0.2-0.3,0.5-0.6,0.9-0.8s0.7-0.3,1.2-0.3c0.8,0,1.4,0.2,1.8,0.7s0.7,1.3,0.7,2.3V27h-1.7
				v-4.5c0-0.6-0.1-1-0.3-1.3s-0.6-0.4-1-0.4c-0.4,0-0.7,0.1-0.9,0.2s-0.5,0.3-0.6,0.5V27h-1.7V16.3h1.7V20.5z"/>
			<path fill="#009DDA" d="M302.4,17.8h-1.7v-1.5h1.7V17.8z M302.4,27h-1.7v-7.4h1.7V27z"/>
			<path fill="#009DDA" d="M308.5,25c0-0.3-0.1-0.5-0.3-0.6s-0.6-0.3-1.2-0.4c-0.9-0.2-1.5-0.4-2-0.8c-0.5-0.3-0.7-0.8-0.7-1.4
				c0-0.6,0.3-1.1,0.8-1.6c0.5-0.4,1.2-0.7,2.1-0.7c0.9,0,1.6,0.2,2.1,0.7s0.8,1,0.8,1.6l0,0h-1.6c0-0.3-0.1-0.6-0.4-0.8
				c-0.2-0.2-0.6-0.3-1-0.3c-0.4,0-0.7,0.1-0.9,0.3c-0.2,0.2-0.3,0.4-0.3,0.7c0,0.3,0.1,0.5,0.3,0.6c0.2,0.2,0.6,0.3,1.2,0.4
				c0.9,0.2,1.6,0.5,2.1,0.8c0.5,0.4,0.7,0.8,0.7,1.4c0,0.7-0.3,1.2-0.8,1.6s-1.3,0.6-2.2,0.6c-1,0-1.7-0.2-2.3-0.7
				c-0.6-0.5-0.8-1.1-0.8-1.7l0,0h1.5c0,0.4,0.2,0.7,0.5,0.9c0.3,0.2,0.6,0.3,1.1,0.3c0.4,0,0.8-0.1,1-0.3S308.5,25.2,308.5,25z"/>
			<path fill="#009DDA" d="M313.7,17.8v1.8h1.3v1.2h-1.3v4.1c0,0.3,0.1,0.5,0.2,0.7c0.1,0.1,0.3,0.2,0.5,0.2c0.1,0,0.2,0,0.3,0
				c0.1,0,0.2,0,0.2-0.1l0.2,1.2c-0.1,0.1-0.3,0.1-0.5,0.2s-0.4,0.1-0.6,0.1c-0.6,0-1.1-0.2-1.4-0.5s-0.5-0.9-0.5-1.7v-4.1h-1.1
				v-1.2h1.1v-1.8H313.7z"/>
			<path fill="#009DDA" d="M316.1,23.2c0-1.1,0.3-2,0.9-2.7s1.4-1.1,2.5-1.1c1.1,0,1.9,0.4,2.5,1.1s0.9,1.6,0.9,2.7v0.1
				c0,1.1-0.3,2-0.9,2.7s-1.4,1-2.5,1c-1.1,0-1.9-0.4-2.5-1.1s-0.9-1.6-0.9-2.7V23.2z M317.7,23.4c0,0.7,0.1,1.3,0.4,1.8
				c0.3,0.5,0.7,0.7,1.3,0.7c0.6,0,1-0.2,1.3-0.7s0.4-1,0.4-1.8v-0.1c0-0.7-0.1-1.3-0.4-1.7s-0.7-0.7-1.3-0.7c-0.6,0-1,0.2-1.3,0.7
				s-0.4,1-0.4,1.7V23.4z M320,16.4h1.9l0,0l-1.9,1.8h-1.3L320,16.4z"/>
			<path fill="#009DDA" d="M328,21.1l-0.7,0c-0.3,0-0.6,0.1-0.8,0.2s-0.4,0.3-0.5,0.6V27h-1.7v-7.4h1.5l0.1,1.1
				c0.2-0.4,0.4-0.7,0.7-0.9s0.6-0.3,1-0.3c0.1,0,0.2,0,0.3,0c0.1,0,0.2,0,0.2,0.1L328,21.1z"/>
			<path fill="#009DDA" d="M331,17.8h-1.7v-1.5h1.7V17.8z M331,27h-1.7v-7.4h1.7V27z"/>
			<path fill="#009DDA" d="M335.9,25.8c0.4,0,0.7-0.1,1-0.4s0.4-0.5,0.4-0.9h1.5l0,0c0,0.7-0.3,1.3-0.8,1.8s-1.2,0.8-2,0.8
				c-1.1,0-1.9-0.4-2.5-1.1c-0.6-0.7-0.9-1.6-0.9-2.7v-0.2c0-1.1,0.3-2,0.9-2.7c0.6-0.7,1.4-1.1,2.5-1.1c0.9,0,1.6,0.3,2.1,0.8
				c0.5,0.5,0.8,1.2,0.8,2l0,0h-1.5c0-0.4-0.1-0.7-0.4-1c-0.2-0.3-0.6-0.4-1-0.4c-0.6,0-1,0.2-1.3,0.7s-0.4,1-0.4,1.7v0.2
				c0,0.7,0.1,1.3,0.4,1.7S335.3,25.8,335.9,25.8z"/>
			<path fill="#009DDA" d="M339.8,23.2c0-1.1,0.3-2,0.9-2.7s1.4-1.1,2.5-1.1c1.1,0,1.9,0.4,2.5,1.1s0.9,1.6,0.9,2.7v0.1
				c0,1.1-0.3,2-0.9,2.7s-1.4,1-2.5,1c-1.1,0-1.9-0.4-2.5-1.1s-0.9-1.6-0.9-2.7V23.2z M341.5,23.4c0,0.7,0.1,1.3,0.4,1.8
				c0.3,0.5,0.7,0.7,1.3,0.7c0.6,0,1-0.2,1.3-0.7s0.4-1,0.4-1.8v-0.1c0-0.7-0.1-1.3-0.4-1.7s-0.7-0.7-1.3-0.7c-0.6,0-1,0.2-1.3,0.7
				s-0.4,1-0.4,1.7V23.4z"/>
		</g>
	</g>
</g>
</svg>
