<?xml version="1.0" encoding="utf-8"?>
<!-- Generator: Adobe Illustrator 18.0.0, SVG Export Plug-In . SVG Version: 6.00 Build 0)  -->
<!DOCTYPE svg PUBLIC "-//W3C//DTD SVG 1.1//EN" "http://www.w3.org/Graphics/SVG/1.1/DTD/svg11.dtd">
<svg version="1.1" id="Layer_1" xmlns="http://www.w3.org/2000/svg" xmlns:xlink="http://www.w3.org/1999/xlink" x="0px" y="0px"
	 viewBox="0 0 258.7 47.6" enable-background="new 0 0 258.7 47.6" xml:space="preserve">
<g>
	<g>
		<path fill="#0D93D1" d="M40.3,19h5c3,0,4.9,1.7,4.9,4.3v0c0,2.9-2.3,4.4-5.1,4.4h-2.5v4.1h-2.2V19z M45.1,25.6
			c1.7,0,2.8-0.9,2.8-2.3v0c0-1.5-1.1-2.3-2.8-2.3h-2.6v4.6H45.1z"/>
		<path fill="#0D93D1" d="M52,22.1h2.2v2.2c0.6-1.4,1.7-2.4,3.4-2.4v2.3h-0.1c-1.9,0-3.3,1.3-3.3,3.8v3.7H52V22.1z"/>
		<path fill="#0D93D1" d="M58.8,27L58.8,27c0-2.8,2-5.1,4.7-5.1c3.1,0,4.6,2.4,4.6,5.2c0,0.2,0,0.4,0,0.6H61
			c0.2,1.6,1.3,2.4,2.8,2.4c1.1,0,1.8-0.4,2.6-1.1l1.3,1.1c-0.9,1.1-2.2,1.8-3.9,1.8C61,32,58.8,29.9,58.8,27z M66,26.2
			c-0.1-1.4-1-2.5-2.4-2.5c-1.3,0-2.3,1-2.5,2.5H66z"/>
		<path fill="#0D93D1" d="M69.4,30.5l1-1.5c1,0.8,2.2,1.2,3.2,1.2c0.9,0,1.5-0.4,1.5-1v0c0-0.7-1-1-2.2-1.3c-1.4-0.4-3-1-3-2.8v0
			c0-1.8,1.5-2.9,3.4-2.9c1.2,0,2.5,0.4,3.5,1.1L76,24.6c-0.9-0.6-1.9-0.9-2.7-0.9c-0.9,0-1.3,0.4-1.3,1v0c0,0.7,1,1,2.2,1.3
			c1.4,0.4,3,1.1,3,2.8v0c0,2-1.6,3-3.6,3C72.1,31.9,70.6,31.4,69.4,30.5z"/>
		<path fill="#0D93D1" d="M79.2,18.5h2.4v2.1h-2.4V18.5z M79.3,22.1h2.2v9.6h-2.2V22.1z"/>
		<path fill="#0D93D1" d="M83.7,26.9L83.7,26.9c0-3.2,2.2-5,4.5-5c1.6,0,2.6,0.8,3.3,1.7v-5.2h2.2v13.3h-2.2v-1.6
			c-0.7,1-1.7,1.8-3.3,1.8C85.9,31.9,83.7,30.1,83.7,26.9z M91.5,26.9L91.5,26.9c0-1.9-1.3-3.1-2.8-3.1c-1.5,0-2.8,1.2-2.8,3.1v0
			c0,1.9,1.3,3.1,2.8,3.1C90.2,30,91.5,28.8,91.5,26.9z"/>
		<path fill="#0D93D1" d="M95.7,27L95.7,27c0-2.8,2-5.1,4.7-5.1c3.1,0,4.6,2.4,4.6,5.2c0,0.2,0,0.4,0,0.6h-7.1
			c0.2,1.6,1.3,2.4,2.8,2.4c1.1,0,1.8-0.4,2.6-1.1l1.3,1.1c-0.9,1.1-2.2,1.8-3.9,1.8C97.8,32,95.7,29.9,95.7,27z M102.8,26.2
			c-0.1-1.4-1-2.5-2.4-2.5c-1.3,0-2.3,1-2.5,2.5H102.8z"/>
		<path fill="#0D93D1" d="M107,22.1h2.2v1.5c0.6-0.9,1.5-1.7,3-1.7c2.2,0,3.4,1.5,3.4,3.7v6.1h-2.2v-5.5c0-1.5-0.7-2.4-2.1-2.4
			c-1.3,0-2.2,0.9-2.2,2.4v5.4H107V22.1z"/>
		<path fill="#0D93D1" d="M117.6,27L117.6,27c0-2.8,2.1-5.1,5-5.1c1.8,0,3,0.7,3.8,1.7l-1.4,1.5c-0.7-0.7-1.4-1.2-2.5-1.2
			c-1.6,0-2.8,1.4-2.8,3.1v0c0,1.7,1.2,3.1,2.9,3.1c1,0,1.8-0.5,2.5-1.2l1.3,1.3c-0.9,1.1-2.1,1.8-3.9,1.8
			C119.8,32,117.6,29.7,117.6,27z"/>
		<path fill="#0D93D1" d="M128.4,18.5h2.4v2.1h-2.4V18.5z M128.5,22.1h2.2v9.6h-2.2V22.1z"/>
		<path fill="#0D93D1" d="M139.3,31.7v-1.2c-0.7,0.8-1.7,1.4-3.1,1.4c-1.8,0-3.4-1-3.4-3v0c0-2.1,1.7-3.2,3.9-3.2
			c1.2,0,1.9,0.2,2.7,0.4V26c0-1.3-0.8-2.1-2.4-2.1c-1.1,0-1.9,0.2-2.8,0.6l-0.6-1.8c1.1-0.5,2.1-0.8,3.7-0.8c2.8,0,4.2,1.5,4.2,4.1
			v5.7H139.3z M139.4,27.7c-0.6-0.2-1.3-0.4-2.2-0.4c-1.4,0-2.2,0.6-2.2,1.5v0c0,0.9,0.8,1.4,1.9,1.4c1.5,0,2.6-0.8,2.6-2V27.7z"/>
		<path fill="#0D93D1" d="M148.7,26.9L148.7,26.9c0-3.2,2.2-5,4.5-5c1.6,0,2.6,0.8,3.3,1.7v-5.2h2.2v13.3h-2.2v-1.6
			c-0.7,1-1.7,1.8-3.3,1.8C151,31.9,148.7,30.1,148.7,26.9z M156.5,26.9L156.5,26.9c0-1.9-1.3-3.1-2.8-3.1c-1.5,0-2.8,1.2-2.8,3.1v0
			c0,1.9,1.3,3.1,2.8,3.1C155.2,30,156.5,28.8,156.5,26.9z"/>
		<path fill="#0D93D1" d="M160.7,27L160.7,27c0-2.8,2-5.1,4.7-5.1c3.1,0,4.6,2.4,4.6,5.2c0,0.2,0,0.4,0,0.6H163
			c0.2,1.6,1.3,2.4,2.8,2.4c1.1,0,1.8-0.4,2.6-1.1l1.3,1.1c-0.9,1.1-2.2,1.8-3.9,1.8C162.9,32,160.7,29.9,160.7,27z M167.9,26.2
			c-0.1-1.4-1-2.5-2.4-2.5c-1.3,0-2.3,1-2.5,2.5H167.9z"/>
		<path fill="#0D93D1" d="M177.5,18.4h2.2v13.3h-2.2V18.4z"/>
		<path fill="#0D93D1" d="M188.3,31.7v-1.2c-0.7,0.8-1.7,1.4-3.1,1.4c-1.8,0-3.4-1-3.4-3v0c0-2.1,1.7-3.2,3.9-3.2
			c1.2,0,1.9,0.2,2.7,0.4V26c0-1.3-0.8-2.1-2.4-2.1c-1.1,0-1.9,0.2-2.8,0.6l-0.6-1.8c1.1-0.5,2.1-0.8,3.7-0.8c2.8,0,4.2,1.5,4.2,4.1
			v5.7H188.3z M188.4,27.7c-0.6-0.2-1.3-0.4-2.2-0.4c-1.4,0-2.2,0.6-2.2,1.5v0c0,0.9,0.8,1.4,1.9,1.4c1.5,0,2.6-0.8,2.6-2V27.7z"/>
		<path fill="#0D93D1" d="M198.5,19h2.1l6.8,8.8V19h2.2v12.8h-1.9l-7-9.1v9.1h-2.2V19z"/>
		<path fill="#0D93D1" d="M218.4,31.7v-1.2c-0.7,0.8-1.7,1.4-3.1,1.4c-1.8,0-3.4-1-3.4-3v0c0-2.1,1.7-3.2,3.9-3.2
			c1.2,0,1.9,0.2,2.7,0.4V26c0-1.3-0.8-2.1-2.4-2.1c-1.1,0-1.9,0.2-2.8,0.6l-0.6-1.8c1.1-0.5,2.1-0.8,3.7-0.8c2.8,0,4.2,1.5,4.2,4.1
			v5.7H218.4z M218.4,27.7c-0.6-0.2-1.3-0.4-2.2-0.4c-1.4,0-2.2,0.6-2.2,1.5v0c0,0.9,0.8,1.4,1.9,1.4c1.5,0,2.6-0.8,2.6-2V27.7z"/>
		<path fill="#0D93D1" d="M222.5,27L222.5,27c0-2.8,2.1-5.1,5-5.1c1.8,0,3,0.7,3.8,1.7l-1.4,1.5c-0.7-0.7-1.4-1.2-2.5-1.2
			c-1.6,0-2.8,1.4-2.8,3.1v0c0,1.7,1.2,3.1,2.9,3.1c1,0,1.8-0.5,2.5-1.2l1.3,1.3c-0.9,1.1-2.1,1.8-3.9,1.8
			C224.6,32,222.5,29.7,222.5,27z"/>
		<path fill="#0D93D1" d="M233.3,18.5h2.4v2.1h-2.4V18.5z M233.4,22.1h2.2v9.6h-2.2V22.1z"/>
		<path fill="#0D93D1" d="M237.7,27L237.7,27c0-2.8,2.2-5.1,5.1-5.1c3,0,5.1,2.2,5.1,5v0c0,2.7-2.2,5-5.2,5
			C239.9,32,237.7,29.7,237.7,27z M245.8,27L245.8,27c0-1.7-1.2-3.1-3-3.1c-1.8,0-2.9,1.4-2.9,3.1v0c0,1.7,1.2,3.1,2.9,3.1
			C244.7,30,245.8,28.6,245.8,27z M243.9,17.9l2,0.9l-2.2,2.1H242L243.9,17.9z"/>
		<path fill="#0D93D1" d="M250.1,22.1h2.2v1.5c0.6-0.9,1.5-1.7,3-1.7c2.2,0,3.4,1.5,3.4,3.7v6.1h-2.2v-5.5c0-1.5-0.7-2.4-2.1-2.4
			c-1.3,0-2.2,0.9-2.2,2.4v5.4h-2.2V22.1z"/>
	</g>
	<g>
		<g>
			<path fill="#0D93D1" d="M14.6,23.1h-2.7c-0.6,0-0.9-0.2-1.1-0.4c-0.1-0.2-0.2-0.4-0.3-0.7c0,0,0,0,0-0.1c0-0.2,0-0.5,0-0.8
				c0.3-1.7,1-2.9,1.6-3.6c-0.1,0-0.1,0-0.2-0.1c-0.4-0.2-0.5-0.6-0.5-1.1c0.1-0.6,0.6-1.2,0.7-1.3c0.9-1.1,2.3-1.1,2.4-1.1
				c0.2,0,2-0.1,3,1.8c1.2,2.2,1.4,4.1,1.6,5.6l0,0.1c0,0.3,0,0.5,0,0.7c0,0,0,0,0,0.1c-0.1,0.2-0.2,0.4-0.3,0.5
				c-0.2,0.3-0.6,0.4-1,0.5c-0.2,0-0.4,0-0.5,0c-0.1,0-0.1,0-0.1,0h-0.8l0,0c0,0,0,0,0,0h-1.3v3.8h11.9c0-2.2-0.3-4.3-1-6.3
				c-0.6-1.9-1.5-3.7-2.6-5.2c-1.1-1.5-2.4-2.7-3.9-3.5c-1.5-0.8-3.1-1.3-4.7-1.3c-1.6,0-3.2,0.4-4.7,1.3c-1.5,0.8-2.8,2-3.9,3.5
				c-1.1,1.5-2,3.2-2.6,5.2c-0.6,2-1,4.1-1,6.3h11.9V23.1z"/>
		</g>
		<g>
			<path fill="#FFFFFF" d="M2.7,26.8c0,1.7,0.2,3.3,0.6,4.9c5.3-0.6,8.5-1.2,9.4-1.9c0.7-0.5,1.2-0.7,1.9-0.7v-2.3H2.7z"/>
			<path fill="#FFFFFF" d="M15.4,29.2c0.5,0.1,0.8,0.2,1.2,0.4c0,0,0.1,0,0.1,0c0.7,0,1.3,0.2,2.1,0.5c0.2,0.1,0.5,0.2,0.7,0.3
				c0.1,0,3.9,1.2,7.2,1.4c0.4-1.6,0.6-3.2,0.6-4.9H15.4V29.2z"/>
		</g>
		<polygon fill="#221F1F" points="14.2,8.5 14.2,8.5 14.2,8.5 		"/>
		<polygon fill="#221F1F" points="11.7,8.9 11.7,8.9 11.7,8.9 		"/>
		<polygon fill="#221F1F" points="11.7,8.9 11.7,8.9 11.7,8.9 		"/>
		<path fill="#FFFFFF" d="M20.2,34.4c0,0.1-0.1,0.2-0.2,0.3c-0.2,0.2-0.5,0.3-0.8,0.3c0,0.1-0.1,0.2-0.2,0.3c-0.2,0.2-0.5,0.4-1,0.4
			c0,0.1-0.1,0.2-0.2,0.3c-0.3,0.3-0.6,0.4-1,0.3c-0.1,0.1-0.2,0.2-0.4,0.2c-0.2,0.1-0.5,0.2-1,0.1v3.1c0,0.2-0.2,0.4-0.4,0.4
			c-0.2,0-0.4-0.2-0.4-0.4v-3c-0.2,0.1-0.3,0.1-0.5,0.1c-0.1,0-0.1,0-0.2,0c-0.2,0-0.4-0.2-0.6-0.3c-0.3,0-0.7,0.1-1.1-0.2
			c-0.1-0.1-0.2-0.2-0.3-0.4c-0.1,0-0.2,0-0.4-0.1c-0.3-0.1-0.6-0.3-0.7-0.6c-0.1,0-0.2,0-0.3,0c-0.3,0-0.7-0.2-0.8-0.5
			c0-0.1-0.1-0.1-0.1-0.2c-1.7,0.9-3.6,1.7-4.5,2.1c0.3,0.6,0.7,1.1,1.1,1.6c1.1,1.5,2.4,2.7,3.9,3.5c0.7,0.4,1.4,0.7,2.1,0.9
			c0.1-0.1,0.2-0.2,0.3-0.3c0.7-0.4,2-0.1,2.3,0c0.4-0.1,1.7-0.4,2.3,0c0.1,0.1,0.2,0.2,0.3,0.3c0.7-0.2,1.4-0.5,2.1-0.9
			c1.5-0.8,2.8-2,3.9-3.5c0.4-0.5,0.7-1,1-1.5C23.7,36.4,21.6,35.5,20.2,34.4z"/>
		<g>
			<path fill="#0D93D1" d="M16.1,45.2c0-0.1,0-0.2,0-0.3c0-0.1,0-0.2,0-0.2c0.4-0.1,1-0.3,1.4-0.7c0.2-0.3,0.3-0.6,0.3-0.9
				c0-0.3-0.2-0.5-0.4-0.7c-0.7-0.4-2-0.1-2.3,0c-0.4-0.1-1.7-0.4-2.3,0c-0.2,0.2-0.4,0.4-0.4,0.7c0,0.3,0,0.6,0.3,0.9
				c0.4,0.4,1,0.6,1.4,0.7c0,0.1,0,0.2,0,0.2c0,0.1,0,0.2,0,0.3c-0.3,0.3-1.2,1.1-2.6,1.3l0,0c0,0.1,0.2,0.3,0.4,0.5
				c1.2-0.2,2.1-0.9,2.4-1.2c0,0,0.1,0.1,0.1,0.1c-0.1,0.3-0.4,1.2-1.9,1.6c0.2,0.1,0.5,0.2,0.9,0.3c1-0.5,1.4-1.2,1.5-1.6
				c0.1,0,0.1,0,0.2,0c0.1,0,0.1,0,0.2,0c0.1,0.4,0.5,1.1,1.5,1.6c0.3-0.1,0.6-0.1,0.9-0.3c-1.5-0.4-1.8-1.2-1.9-1.5
				c0,0,0.1-0.1,0.1-0.1c0.4,0.4,1.2,1,2.4,1.2c0.2-0.2,0.4-0.4,0.4-0.5C17.3,46.3,16.4,45.5,16.1,45.2z"/>
			<g>
				<g>
					<path fill="#FFFFFF" d="M17,42.8c0.1,0.1,0.2,0.2,0.2,0.3c0,0.2,0,0.4-0.1,0.5c-0.2,0.2-0.4,0.3-0.7,0.4
						c0.1-0.3,0.1-0.5,0.1-0.8c-0.1-0.3-0.2-0.4-0.4-0.6C16.4,42.6,16.8,42.6,17,42.8z"/>
					<path fill="#FFFFFF" d="M14,43.4c0.2-0.5,0.9-0.5,1-0.5h0c0,0,0.2,0,0.4,0.1c0.3,0.1,0.5,0.2,0.5,0.5c0.1,0.2-0.1,0.5-0.2,0.6
						c-0.2-0.2-0.5-0.3-0.7-0.3c-0.3,0-0.5,0.1-0.7,0.3C14.1,43.9,13.9,43.7,14,43.4z"/>
					<path fill="#FFFFFF" d="M13.6,44c-0.3-0.1-0.5-0.2-0.7-0.4c-0.1-0.1-0.2-0.3-0.1-0.5c0-0.1,0.1-0.2,0.2-0.3
						c0.2-0.1,0.4-0.1,0.7-0.1c0.1,0,0.2,0,0.3,0c-0.2,0.1-0.3,0.3-0.4,0.6C13.4,43.5,13.5,43.8,13.6,44z"/>
					<circle fill="#FFFFFF" cx="15" cy="44.9" r="0.6"/>
				</g>
				<path fill="#FFFFFF" d="M18.2,46.9c-1.2-0.2-2-0.9-2.4-1.2c0,0-0.1,0.1-0.1,0.1c0.1,0.3,0.5,1.2,1.9,1.5
					C17.9,47.2,18.1,47,18.2,46.9z"/>
				<path fill="#FFFFFF" d="M14.2,45.6c-0.4,0.4-1.2,1-2.4,1.2c0.2,0.1,0.4,0.3,0.7,0.4c1.5-0.4,1.8-1.2,1.9-1.6
					C14.2,45.7,14.2,45.7,14.2,45.6z"/>
			</g>
		</g>
		<path fill="#221F1F" d="M29.8,30c0-0.1,0-0.2-0.1-0.2c0,0-0.1-0.1-0.2-0.1c0.1-0.1,0.1-0.2,0.1-0.3c0.2-0.5,0.3-1.1,0.3-1.7
			c0-0.1,0-0.2-0.1-0.2c-0.1,0-0.1,0-0.2,0c0-0.1,0.1-0.2,0.1-0.3c0.1-0.5,0.2-1.1,0.1-1.7c0-0.1-0.1-0.2-0.1-0.2
			c-0.1,0-0.1,0-0.2,0c0-0.1,0.1-0.3,0.1-0.4c0.1-0.5,0.1-1.1-0.1-1.7c0-0.1-0.1-0.2-0.2-0.2c0,0-0.1,0-0.1,0c0-0.1,0-0.2,0-0.3
			c0.1-0.5,0-1.1-0.1-1.7c0-0.1-0.1-0.2-0.2-0.2c-0.1,0-0.2,0-0.2,0l0,0c0-0.1,0-0.3,0-0.4c0-0.5-0.1-1.1-0.4-1.7
			c0-0.1-0.1-0.1-0.2-0.2c-0.1,0-0.1,0-0.2,0c0-0.1,0-0.3,0-0.4c-0.1-0.5-0.3-1.1-0.6-1.7c0-0.1-0.1-0.1-0.2-0.1
			c-0.1,0-0.1,0-0.2,0.1c0-0.1,0-0.2-0.1-0.4c-0.1-0.5-0.4-1.1-0.7-1.6c0-0.1-0.1-0.1-0.2-0.1c-0.1,0-0.2,0-0.2,0.1
			c0-0.1-0.1-0.3-0.2-0.4c-0.2-0.5-0.5-1-1-1.4c-0.1-0.1-0.2-0.1-0.2-0.1c-0.1,0-0.1,0-0.2,0.1c-0.1-0.1-0.1-0.3-0.2-0.4
			c-0.3-0.4-0.7-0.9-1.2-1.3c-0.1-0.1-0.2-0.1-0.2,0c-0.1,0-0.1,0.1-0.1,0.1c-0.3-0.4-0.8-0.8-1.4-1c0.1,0,0.2,0,0.3,0
			c0.7,0,1.2-0.1,1.2-0.1c0.1,0,0.2-0.2,0.2-0.3c0-0.2-0.1-0.3-0.3-0.3c-0.8,0-1.1-0.2-1.4-0.4c-0.1,0-0.1-0.1-0.2-0.1l1.8-0.3
			c0.2,0,0.3-0.2,0.3-0.3c0-0.2-0.1-0.3-0.3-0.3L21,7.5c0.2-0.1,0.4-0.1,0.7-0.2c0.7-0.2,1.1-0.6,1.1-0.6c0.1-0.1,0.2-0.3,0.1-0.4
			c-0.1-0.1-0.2-0.2-0.4-0.1c-0.7,0.3-1.1,0.2-1.5,0.2c-0.1,0-0.2,0-0.2,0l1.6-0.9c0.1-0.1,0.2-0.3,0.1-0.4
			c-0.1-0.1-0.2-0.2-0.4-0.2l-1.8,0.4c0.2-0.1,0.4-0.3,0.6-0.5c0.5-0.5,0.8-0.9,0.8-0.9c0.1-0.1,0-0.3-0.1-0.4
			c-0.1-0.1-0.3-0.1-0.4,0C20.6,4,20.3,4,19.9,4.2c-0.1,0-0.2,0-0.2,0.1l1.1-1.5c0.1-0.1,0.1-0.3,0-0.4c-0.1-0.1-0.3-0.1-0.4,0
			l-1.5,1.1C18.9,3.2,19,3,19.2,2.8c0.3-0.6,0.4-1.1,0.4-1.2c0-0.2-0.1-0.3-0.2-0.3c-0.2,0-0.3,0-0.4,0.2c-0.3,0.7-0.6,0.9-0.9,1.2
			c-0.1,0-0.1,0.1-0.2,0.2L18.3,1c0-0.2,0-0.3-0.2-0.4c-0.1-0.1-0.3,0-0.4,0.1l-0.9,1.6c0-0.2,0.1-0.5,0.1-0.7
			c0-0.7-0.1-1.2-0.1-1.2c0-0.1-0.2-0.2-0.3-0.2c-0.2,0-0.3,0.1-0.3,0.3c0,0.8-0.2,1.1-0.4,1.4c0,0.1-0.1,0.1-0.1,0.2l-0.3-1.8
			C15.3,0.1,15.1,0,15,0h0c-0.2,0-0.3,0.1-0.3,0.3l-0.3,1.8c-0.1-0.2-0.1-0.4-0.2-0.7c-0.2-0.7-0.6-1.1-0.6-1.1
			c-0.1-0.1-0.3-0.2-0.4-0.1c-0.1,0.1-0.2,0.2-0.1,0.4c0.3,0.7,0.2,1.1,0.2,1.5c0,0.1,0,0.2,0,0.2l-0.9-1.6
			c-0.1-0.1-0.3-0.2-0.4-0.1c-0.1,0.1-0.2,0.2-0.2,0.4l0.4,1.7c-0.1-0.2-0.3-0.4-0.5-0.6c-0.5-0.5-0.9-0.8-0.9-0.8
			c-0.1-0.1-0.3,0-0.4,0.1c-0.1,0.1-0.1,0.3,0,0.4c0.5,0.6,0.6,0.9,0.7,1.3c0,0.1,0,0.2,0.1,0.2L9.7,2.3c-0.1-0.1-0.3-0.1-0.4,0
			c-0.1,0.1-0.1,0.3,0,0.4l1.1,1.5C10.2,4.1,9.9,4,9.7,3.9C9.1,3.6,8.5,3.5,8.5,3.5c-0.2,0-0.3,0.1-0.3,0.2c0,0.2,0,0.3,0.2,0.4
			C9.1,4.5,9.3,4.7,9.5,5c0,0.1,0.1,0.1,0.2,0.2L7.9,4.8c-0.2,0-0.3,0-0.4,0.2c-0.1,0.1,0,0.3,0.1,0.4l1.6,0.9
			C9,6.3,8.8,6.3,8.5,6.2c-0.7,0-1.2,0.1-1.2,0.1C7.1,6.4,7,6.5,7.1,6.7C7.1,6.9,7.2,7,7.4,7c0.8,0,1.1,0.2,1.4,0.4
			c0.1,0,0.1,0.1,0.2,0.1L7.2,7.7C7,7.8,6.9,7.9,6.9,8.1c0,0.2,0.1,0.3,0.3,0.3L9,8.6C8.8,8.7,8.5,8.8,8.3,8.9
			C7.6,9.1,7.2,9.4,7.2,9.4C7.1,9.5,7.1,9.7,7.1,9.8C7.2,10,7.4,10,7.5,10c0.4-0.2,0.7-0.2,1-0.2c-0.4,0.3-0.7,0.6-0.8,0.8
			c-0.1,0.1-0.1,0.2-0.2,0.3c0,0-0.1-0.1-0.1-0.1c-0.1,0-0.2,0-0.2,0c-0.5,0.4-0.9,0.8-1.2,1.3c-0.1,0.1-0.2,0.3-0.2,0.4
			c0-0.1-0.1-0.1-0.2-0.1c-0.1,0-0.2,0-0.2,0.1c-0.4,0.5-0.8,1-1,1.4c-0.1,0.1-0.1,0.3-0.1,0.4c0,0-0.1-0.1-0.2-0.1
			c-0.1,0-0.2,0-0.2,0.1c-0.4,0.5-0.7,1-0.8,1.6c0,0.1-0.1,0.3-0.1,0.4c-0.1-0.1-0.1-0.1-0.2-0.1c-0.1,0-0.2,0.1-0.2,0.1
			c-0.3,0.6-0.5,1.1-0.6,1.7c0,0.1,0,0.3,0,0.4c-0.1,0-0.1-0.1-0.2-0.1c-0.1,0-0.2,0.1-0.2,0.2c-0.2,0.6-0.3,1.2-0.4,1.7
			c0,0.1,0,0.3,0,0.4c-0.1,0-0.1,0-0.2,0c-0.1,0-0.1,0.1-0.2,0.2c-0.1,0.6-0.2,1.2-0.1,1.7c0,0.1,0,0.2,0,0.3c0,0-0.1,0-0.1,0
			c-0.1,0-0.1,0.1-0.2,0.2c-0.1,0.6-0.1,1.2-0.1,1.7c0,0.1,0,0.3,0.1,0.4c0,0-0.1,0-0.1,0c-0.1,0-0.1,0.1-0.1,0.2
			c-0.1,0.6-0.1,1.2,0.1,1.7c0,0.1,0.1,0.2,0.1,0.3c-0.1,0-0.1,0-0.2,0C0,27.5,0,27.6,0,27.7c0,0.6,0.1,1.2,0.2,1.7
			c0,0.1,0.1,0.3,0.2,0.4c0,0,0,0,0,0c-0.1,0-0.2,0-0.2,0.1c-0.1,0.1-0.1,0.1-0.1,0.2c0.1,0.6,0.3,1.2,0.5,1.7
			c0,0.1,0.1,0.2,0.2,0.3c0,0-0.1,0-0.1,0.1c-0.1,0.1-0.1,0.1-0.1,0.2C0.7,33,1,33.5,1.2,34c0.1,0.1,0.1,0.2,0.2,0.3
			c-0.1,0-0.1,0-0.2,0.1c-0.1,0.1-0.1,0.2,0,0.2c0.2,0.6,0.5,1.1,0.8,1.5c0.1,0.1,0.2,0.2,0.2,0.3c-0.1,0-0.1,0.1-0.1,0.1
			c0,0.1,0,0.2,0,0.2c0.3,0.6,0.6,1.1,1,1.4c0.1,0.1,0.2,0.2,0.3,0.2c-0.1,0-0.1,0.1-0.1,0.1c0,0.1,0,0.2,0,0.2
			c0.3,0.5,0.7,1,1.2,1.3c0.1,0.1,0.3,0.2,0.4,0.3c0,0,0,0-0.1,0c-0.1,0-0.1,0.1-0.2,0.2c0,0.1,0,0.2,0.1,0.2
			c0.4,0.5,0.9,0.8,1.4,1.1c0.4,0.2,0.7,0.4,1.1,0.4c0.3,0.1,0.6,0.1,0.9,0c0,0,0,0,0.1,0c0.8,0.6,1.6,1,2.5,1.4
			c0.7,0.3,1.5,0.5,2.2,0.7c0.2,0,0.3,0.1,0.4,0.1c-0.3-0.1-0.6-0.3-0.8-0.6c0,0-0.1-0.1-0.1-0.1c-0.5-0.1-1-0.3-1.5-0.5
			c-0.8-0.3-1.6-0.8-2.4-1.3c0,0,0,0,0,0c0-0.3,0-0.5-0.1-0.8c0.5,0.4,1,0.8,1.6,1.1c0.7,0.4,1.5,0.7,2.2,0.9c0,0,0-0.1,0-0.1
			c0-0.1,0.1-0.2,0.1-0.4c-0.7-0.2-1.4-0.5-2.1-0.9c-1.5-0.8-2.8-2-3.9-3.5c-0.4-0.5-0.8-1.1-1.1-1.6c0.9-0.4,2.8-1.3,4.5-2.1
			c0,0.1,0,0.1,0.1,0.2c0.1,0.3,0.5,0.5,0.8,0.5c0.1,0,0.2,0,0.3,0c0.1,0.3,0.3,0.5,0.7,0.6c0.1,0,0.3,0.1,0.4,0.1
			c0.1,0.2,0.2,0.3,0.3,0.4c0.3,0.2,0.8,0.2,1.1,0.2c0.1,0.2,0.3,0.3,0.6,0.3c0.1,0,0.1,0,0.2,0c0.2,0,0.4,0,0.5-0.1v3
			c0,0.2,0.2,0.4,0.4,0.4s0.4-0.2,0.4-0.4v-3.1c0.4,0.1,0.7,0,1-0.1c0.2-0.1,0.3-0.2,0.4-0.2c0.4,0.1,0.7,0,1-0.3
			c0.1-0.1,0.2-0.2,0.2-0.3c0.5,0,0.9-0.2,1-0.4c0.1-0.1,0.2-0.2,0.2-0.3c0.3,0,0.6-0.1,0.8-0.3c0.1-0.1,0.2-0.2,0.2-0.3
			c1.4,1.1,3.5,2,4.4,2.4c-0.3,0.5-0.7,1.1-1,1.5c-1.1,1.5-2.4,2.7-3.9,3.5c-0.7,0.4-1.4,0.7-2.1,0.9c0.1,0.1,0.1,0.2,0.1,0.4
			c0,0,0,0.1,0,0.1c0.8-0.2,1.5-0.5,2.3-0.9c0.6-0.3,1.1-0.7,1.6-1.1c-0.1,0.3-0.1,0.5-0.1,0.8c0,0,0,0,0,0
			c-0.2,0.2-0.9,0.6-1.8,1.1c-0.7,0.3-1.4,0.6-2.1,0.8c0,0-0.1,0-0.1,0c0,0-0.1,0.1-0.1,0.1c-0.2,0.3-0.6,0.4-0.9,0.6
			c0.4-0.1,0.8-0.1,1.2-0.2c0.7-0.2,1.5-0.5,2.2-0.8c0.9-0.5,1.6-0.9,1.8-1.1c0,0,0,0,0,0c0.3,0.1,0.6,0.1,0.9,0
			c0.4-0.1,0.7-0.2,1.1-0.4c0.5-0.3,0.9-0.6,1.4-1.1c0.1-0.1,0.1-0.2,0.1-0.2c0-0.1-0.1-0.2-0.2-0.2c0,0,0,0,0,0
			c0.1-0.1,0.3-0.2,0.4-0.3c0.4-0.3,0.8-0.8,1.2-1.3c0-0.1,0.1-0.2,0-0.2c0-0.1-0.1-0.1-0.1-0.1c0.1-0.1,0.2-0.1,0.3-0.2
			c0.4-0.4,0.7-0.9,1-1.4c0-0.1,0-0.2,0-0.2c0-0.1-0.1-0.1-0.2-0.1c0.1-0.1,0.2-0.2,0.3-0.3c0.3-0.4,0.6-0.9,0.8-1.5
			c0-0.1,0-0.2,0-0.2c0-0.1-0.1-0.1-0.2-0.1l0,0c0.1-0.1,0.1-0.2,0.2-0.3c0.3-0.4,0.5-1,0.7-1.6c0-0.1,0-0.2-0.1-0.2
			C29.3,32,29.2,32,29.1,32c0.1-0.1,0.1-0.2,0.2-0.3C29.6,31.2,29.7,30.6,29.8,30z M29.5,28C29.5,28,29.5,28,29.5,28
			c0,0.4-0.1,0.9-0.2,1.2c-0.1,0.4-0.3,0.7-0.5,0.9c-0.3,0.3-0.5,0.5-0.6,0.5c0,0,0,0,0,0c0,0,0,0,0,0c-0.4-0.5-0.5-1.1-0.5-1.7
			c0-0.2,0-0.4,0.1-0.7c0,0,0,0,0,0c0,0,0,0,0,0c0.3,0.4,0.5,0.9,0.5,0.9c0,0.1,0.1,0.1,0.2,0.1c0.1,0,0.1,0,0.2-0.1
			C28.8,28.6,29.2,28.2,29.5,28C29.5,28,29.5,28,29.5,28z M29.5,25.7C29.5,25.7,29.5,25.7,29.5,25.7C29.5,25.7,29.5,25.7,29.5,25.7
			c0,0.4,0,0.9-0.1,1.2c-0.1,0.4-0.2,0.7-0.4,1c-0.2,0.3-0.5,0.5-0.6,0.6c0,0,0,0,0,0s0,0,0,0c-0.6-0.7-0.7-1.7-0.7-2.3c0,0,0,0,0,0
			c0,0,0,0,0,0c0.3,0.4,0.6,0.8,0.6,0.8c0,0.1,0.1,0.1,0.2,0.1c0.1,0,0.1-0.1,0.2-0.1C28.8,26.4,29.2,26,29.5,25.7z M29.2,23.4
			C29.2,23.4,29.2,23.4,29.2,23.4C29.2,23.4,29.2,23.4,29.2,23.4c0.1,0.4,0.1,0.9,0,1.2c-0.1,0.4-0.2,0.7-0.3,1
			c-0.2,0.4-0.4,0.6-0.5,0.6c0,0,0,0,0,0s0,0,0,0c-0.6-0.5-0.8-1.6-0.9-2.2c0,0,0,0,0,0c0,0,0,0,0,0c0.4,0.3,0.6,0.7,0.6,0.7
			c0,0.1,0.1,0.1,0.2,0.1c0.1,0,0.1-0.1,0.2-0.1C28.7,24.1,29,23.7,29.2,23.4z M28.9,21.2C28.9,21.2,28.9,21.2,28.9,21.2
			C28.9,21.2,28.9,21.2,28.9,21.2c0.1,0.4,0.1,0.8,0.1,1.2c0,0.4-0.1,0.7-0.3,1c-0.2,0.4-0.4,0.6-0.5,0.7c0,0,0,0,0,0c0,0,0,0,0,0
			c-0.5-0.4-0.8-1.1-0.9-1.5c-0.1-0.2-0.1-0.4-0.1-0.6c0,0,0,0,0,0c0,0,0,0,0,0c0.4,0.3,0.7,0.7,0.7,0.7c0,0.1,0.1,0.1,0.2,0.1
			c0.1,0,0.1-0.1,0.1-0.1C28.3,21.9,28.6,21.5,28.9,21.2z M11.3,21.4C11.3,21.3,11.3,21.3,11.3,21.4c0.3-1.6,0.9-2.6,1.4-3.2
			c0.3-0.4,0.6-0.7,0.8-0.9c0,0,0.1-0.1,0.1-0.1c0.1-0.1,0.2-0.3,0.1-0.5c-0.1-0.2-0.3-0.2-0.5-0.1c0,0-0.1,0-0.2,0.1
			c-0.3,0.2-0.5,0.2-0.6,0.1c-0.1-0.1-0.2-0.2-0.1-0.4c0.1-0.3,0.4-0.8,0.6-0.9c0,0,0,0,0,0c0.7-0.9,1.9-0.9,1.9-0.9c0,0,0,0,0,0
			c0,0,0.4,0,0.8,0.1c0.6,0.2,1.1,0.6,1.5,1.3c0.5,0.9,0.8,1.8,1.1,2.8c-0.7-0.2-1.2-0.7-1.2-0.7c-0.2-0.1-0.4-0.1-0.5,0
			c-0.1,0.1-0.1,0.2-0.1,0.3c0,0.1,0.1,0.2,0.1,0.2c0,0,0.9,0.7,1.8,0.9c0.1,0.3,0.1,0.7,0.2,1.1c-0.3-0.2-0.7-0.3-1-0.3
			c-0.2-0.1-0.4-0.1-0.6-0.2c-0.7-0.3-1.3-0.7-1.3-0.7c-0.2-0.1-0.4-0.1-0.5,0.1c-0.1,0.2-0.1,0.4,0.1,0.5c0,0,0.7,0.5,1.4,0.8
			c0.2,0.1,0.4,0.1,0.6,0.2c0.9,0.2,1.2,0.4,1.3,0.8c0,0.1-0.1,0.1-0.1,0.2c-0.3,0.3-0.9,0.3-1.1,0.3c0,0,0,0,0,0h-0.8
			c-0.2,0-1,0-1.7-0.5C13.1,20.7,12.3,20.9,11.3,21.4z M14.4,22.4h-2.5c-0.3,0-0.4-0.1-0.5-0.2c0,0,0-0.1-0.1-0.1
			C12.4,21.6,12.9,21.5,14.4,22.4z M15.4,26.8v-3.8h1.3c0,0,0,0,0,0l0,0h0.8c0,0,0.1,0,0.1,0c0.1,0,0.3,0,0.5,0
			c0.5-0.1,0.8-0.2,1-0.5c0.1-0.1,0.2-0.3,0.3-0.5c0,0,0,0,0-0.1c0-0.2,0.1-0.4,0-0.7l0-0.1c-0.2-1.5-0.5-3.3-1.6-5.6
			c-1-1.9-2.8-1.8-3-1.8c-0.2,0-1.5,0.1-2.4,1.1c-0.1,0.1-0.6,0.7-0.7,1.3c-0.1,0.5,0.1,0.9,0.5,1.1c0.1,0,0.1,0.1,0.2,0.1
			c-0.6,0.7-1.3,1.9-1.6,3.6c-0.1,0.3-0.1,0.6,0,0.8c0,0,0,0,0,0.1c0,0.3,0.1,0.5,0.3,0.7c0.2,0.2,0.5,0.4,1.1,0.4h2.7v3.8v2.3
			c-0.7,0-1.2,0.2-1.9,0.7c-0.9,0.6-4.1,1.3-9.4,1.9c-0.4-1.6-0.6-3.2-0.6-4.9c0-2.2,0.3-4.3,1-6.3c0.6-1.9,1.5-3.7,2.6-5.2
			c1.1-1.5,2.4-2.7,3.9-3.5c1.5-0.8,3.1-1.3,4.7-1.3c1.6,0,3.2,0.4,4.7,1.3c1.5,0.8,2.8,2,3.9,3.5c1.1,1.5,2,3.2,2.6,5.2
			c0.6,2,1,4.1,1,6.3c0,1.7-0.2,3.3-0.6,4.9c-3.2-0.2-7-1.4-7.2-1.4c-0.3-0.1-0.5-0.2-0.7-0.3c-0.8-0.3-1.4-0.5-2.1-0.5
			c0,0-0.1,0-0.1,0c-0.4-0.2-0.7-0.3-1.2-0.4V26.8z M20.4,9.9c-0.2,0.1-0.5,0.2-0.8,0.2c-0.2,0-0.4,0.1-0.6,0.1
			c-0.5,0-0.9-0.1-1.2-0.3c0,0,0,0,0,0c0,0,0,0,0,0c0.1-0.1,0.4-0.2,0.7-0.3c0.3-0.1,0.7-0.1,1,0C19.8,9.6,20.1,9.7,20.4,9.9
			C20.4,9.9,20.4,9.9,20.4,9.9C20.4,9.9,20.4,9.9,20.4,9.9z M20.9,11.2C20.9,11.2,20.9,11.2,20.9,11.2
			C20.9,11.2,20.9,11.2,20.9,11.2c-0.1,0.1-0.4,0.1-0.6,0.1c0,0-0.1,0-0.1,0c-0.5,0-1.1-0.2-1.6-0.6c0,0,0,0,0,0c0,0,0,0,0,0
			c0.2-0.1,0.5-0.1,0.7-0.1C19.9,10.5,20.4,10.7,20.9,11.2z M18.3,9.2c-0.2,0.1-0.6,0.2-1.2,0.3c-0.1,0-0.1,0.1-0.2,0.1
			c0,0.1,0,0.2,0.1,0.2c0,0,0.4,0.3,0.8,0.7c0,0,0,0,0,0c0,0,0,0,0,0h0c-0.5,0-1.5-0.2-2.2-1c0,0,0,0,0,0c0.1-0.1,0.3-0.3,0.6-0.4
			C16.8,8.9,17.5,8.9,18.3,9.2C18.3,9.1,18.3,9.1,18.3,9.2C18.3,9.1,18.3,9.1,18.3,9.2z M16,8.8c-0.2,0.1-0.5,0.4-1.1,0.5
			c-0.1,0-0.1,0.1-0.1,0.2c0,0.1,0,0.2,0.1,0.2c0,0,0.5,0.2,0.9,0.5c0,0,0,0,0,0c0,0,0,0,0,0c-0.1,0-0.3,0-0.5,0
			c-0.6,0-1.3-0.1-1.9-0.5c0,0,0,0,0,0c0.1-0.1,0.2-0.3,0.5-0.5C14.4,8.8,15.1,8.7,16,8.8C15.9,8.7,16,8.7,16,8.8
			C16,8.8,16,8.8,16,8.8z M13.5,8.8c-0.1,0.2-0.4,0.5-1,0.7c-0.1,0-0.1,0.1-0.1,0.2c0,0.1,0.1,0.1,0.2,0.2c0,0,0.5,0.1,0.9,0.3
			c0,0,0,0,0,0c0,0,0,0,0,0c-0.2,0.1-0.4,0.1-0.6,0.2c-0.2,0-0.4,0.1-0.7,0.1c-0.4,0-0.8-0.1-1.1-0.2c0,0,0,0,0,0
			c0.1-0.1,0.2-0.4,0.4-0.6C11.9,9.2,12.6,8.9,13.5,8.8C13.5,8.8,13.5,8.8,13.5,8.8C13.5,8.8,13.5,8.8,13.5,8.8z M10.4,10.3
			c-0.1,0.1-0.1,0.1-0.1,0.2c0,0.1,0.1,0.1,0.2,0.1h0c0,0,0.2,0,0.5,0c0.2,0,0.4,0.1,0.5,0.1c0,0,0,0,0,0c0,0,0,0,0,0
			c-0.2,0.1-0.4,0.2-0.6,0.3c-0.4,0.2-0.8,0.2-1.1,0.2c-0.3,0-0.5,0-0.7-0.1c0,0,0,0,0,0c0.1-0.4,0.5-1.4,2.1-2c0,0,0,0,0,0
			c0,0,0,0,0,0C11.1,9.5,10.9,9.9,10.4,10.3z M27.7,20.4c0-0.7,0.3-1.2,0.5-1.5c0,0,0,0,0,0c0,0,0,0,0,0c0.1,0.4,0.2,0.8,0.2,1.2
			c0,0.4,0,0.7-0.1,1.1c-0.1,0.4-0.3,0.6-0.4,0.7c0,0,0,0,0,0s0,0,0,0c-0.5-0.3-0.8-0.8-1.1-1.4c-0.1-0.2-0.1-0.4-0.2-0.6
			c0,0,0,0,0,0c0,0,0,0,0,0c0.4,0.3,0.8,0.6,0.8,0.6c0.1,0.1,0.1,0.1,0.2,0.1C27.6,20.6,27.7,20.5,27.7,20.4z M26.9,18.3
			c0-0.7,0.2-1.2,0.3-1.5c0,0,0,0,0,0c0,0,0,0,0,0c0.2,0.4,0.3,0.8,0.3,1.2c0.1,0.4,0,0.7,0,1.1c-0.1,0.4-0.2,0.7-0.3,0.8
			c0,0,0,0,0,0c0,0,0,0,0,0c-0.5-0.2-0.9-0.7-1.2-1.3c-0.1-0.2-0.2-0.4-0.3-0.6c0,0,0,0,0,0c0,0,0,0,0,0c0.4,0.2,0.8,0.5,0.8,0.6
			c0.1,0.1,0.1,0.1,0.2,0h0C26.9,18.5,26.9,18.4,26.9,18.3z M25.9,16.6L25.9,16.6c0.1,0,0.1-0.1,0.1-0.2c-0.1-0.7,0-1.2,0.1-1.5
			c0,0,0,0,0,0c0,0,0,0,0,0c0.2,0.4,0.4,0.8,0.5,1.1c0.1,0.4,0.1,0.7,0.1,1.1c0,0.4-0.2,0.7-0.2,0.8c0,0,0,0,0,0c0,0,0,0,0,0
			c-0.6-0.2-1.1-0.6-1.4-1.2c-0.1-0.2-0.2-0.4-0.3-0.6c0,0,0,0,0,0c0,0,0,0,0,0c0.5,0.1,0.9,0.5,0.9,0.5
			C25.7,16.6,25.8,16.6,25.9,16.6z M24.5,14.7c0.1,0,0.2,0,0.2,0c0.1,0,0.1-0.1,0.1-0.2c-0.2-0.6-0.2-1.1-0.1-1.5c0,0,0,0,0,0
			c0,0,0,0,0,0c0.3,0.3,0.5,0.7,0.6,1c0.2,0.3,0.2,0.7,0.3,1c0,0.4,0,0.7-0.1,0.8c0,0,0,0,0,0l0,0c-0.6-0.1-1.1-0.4-1.6-0.9
			c-0.2-0.2-0.3-0.4-0.4-0.5c0,0,0,0,0,0c0,0,0,0,0,0C24,14.4,24.4,14.7,24.5,14.7z M23,13.1c0.1,0,0.2,0,0.2,0
			c0.1-0.1,0.1-0.1,0-0.2c-0.3-0.6-0.4-1.1-0.4-1.5c0,0,0,0,0,0c0,0,0,0,0,0c0.3,0.3,0.6,0.6,0.8,0.9c0.2,0.3,0.4,0.7,0.4,1
			c0.1,0.4,0.1,0.7,0.1,0.8c0,0,0,0,0,0c0,0,0,0,0,0c-0.6,0-1.2-0.3-1.6-0.6c-0.2-0.1-0.4-0.3-0.5-0.5c0,0,0,0,0,0c0,0,0,0,0,0
			c0,0,0.1,0,0.1,0C22.6,12.9,23,13.1,23,13.1z M22.5,11.6c0.1,0.4,0.2,0.7,0.2,0.9c0,0,0,0,0,0c0,0-0.1,0-0.1,0
			c-0.8,0-1.7-0.5-2.2-0.8c0,0,0,0,0,0c0,0,0,0,0,0c0.5-0.1,1,0,1,0c0.1,0,0.2,0,0.2-0.1c0-0.1,0-0.2,0-0.2
			c-0.3-0.4-0.5-0.8-0.6-1.1c0,0,0,0,0,0c0,0,0,0,0,0C21.7,10.5,22.2,11,22.5,11.6z M8.3,9.3c0,0,0.1,0,0.1,0C8.9,9.1,9.3,9,9.6,9
			c0.5-0.1,0.9-0.3,0.9-0.3c0,0,0.1-0.1,0.1-0.1c0-0.1-0.1-0.1-0.1-0.1L8.1,8.1l2.2-0.3c0.1,0,0.1-0.1,0.1-0.1c0-0.1,0-0.1-0.1-0.1
			c0,0-0.5-0.1-1-0.3C9.2,7.1,9.1,7,9,7C8.8,6.9,8.6,6.8,8.4,6.7c0,0,0.1,0,0.1,0c0.5,0,0.9,0.1,1.2,0.1c0.5,0.1,0.9,0,0.9,0
			c0.1,0,0.1-0.1,0.1-0.1c0-0.1,0-0.1-0.1-0.1l-2-1.2L10.9,6C10.9,6,11,6,11,5.9c0-0.1,0-0.1-0.1-0.2c0,0-0.4-0.3-0.8-0.7
			C10,5,10,4.9,9.9,4.8C9.7,4.6,9.6,4.4,9.4,4.2c0,0,0.1,0,0.1,0.1c0.4,0.2,0.8,0.4,1,0.6c0.4,0.3,0.8,0.4,0.9,0.4
			c0.1,0,0.1,0,0.1-0.1c0,0,0-0.1,0-0.1l-1.4-1.8L12,4.6c0.1,0,0.1,0,0.2,0c0,0,0.1-0.1,0-0.2c0,0-0.3-0.4-0.5-0.9
			c-0.1-0.2-0.1-0.3-0.1-0.4c-0.1-0.2-0.1-0.4-0.2-0.7c0,0,0.1,0.1,0.1,0.1c0.3,0.4,0.6,0.7,0.7,0.9c0.3,0.4,0.6,0.7,0.7,0.7
			c0,0,0.1,0,0.1,0c0,0,0.1-0.1,0.1-0.1l-0.6-2.2l1.2,1.9c0,0.1,0.1,0.1,0.2,0.1c0.1,0,0.1-0.1,0.1-0.2c0,0-0.1-0.5-0.1-1
			c0-0.2,0-0.3,0-0.4c0-0.2,0-0.4,0-0.7c0,0,0,0.1,0,0.1C13.9,2,14,2.4,14.1,2.6c0.1,0.5,0.3,0.8,0.3,0.9c0,0,0.1,0.1,0.1,0.1
			c0.1,0,0.1-0.1,0.1-0.1L15,1.2l0.3,2.2c0,0.1,0.1,0.1,0.1,0.1c0.1,0,0.1,0,0.1-0.1c0,0,0.1-0.5,0.3-1c0.1-0.1,0.1-0.3,0.2-0.4
			c0.1-0.2,0.2-0.4,0.3-0.6c0,0,0,0.1,0,0.1c0,0.5-0.1,0.9-0.1,1.2c-0.1,0.5,0,0.9,0,0.9c0,0.1,0.1,0.1,0.1,0.1c0.1,0,0.1,0,0.1-0.1
			l1.2-1.9l-0.6,2.2c0,0.1,0,0.1,0.1,0.2c0.1,0,0.1,0,0.2-0.1c0,0,0.3-0.4,0.7-0.8c0.1-0.1,0.2-0.2,0.3-0.3c0.2-0.1,0.3-0.3,0.5-0.5
			c0,0,0,0.1-0.1,0.1c-0.2,0.4-0.4,0.8-0.6,1c-0.3,0.4-0.4,0.8-0.4,0.9c0,0.1,0,0.1,0.1,0.1c0,0,0.1,0,0.1,0l1.8-1.4L18.5,5
			c0,0.1,0,0.1,0,0.2c0,0,0.1,0.1,0.2,0c0,0,0.4-0.3,0.9-0.5c0.1-0.1,0.3-0.1,0.4-0.1c0.2-0.1,0.4-0.1,0.7-0.2c0,0-0.1,0.1-0.1,0.1
			c-0.4,0.3-0.7,0.6-0.9,0.7C19.2,5.4,19,5.8,19,5.8c0,0,0,0.1,0,0.1C19,6,19.1,6,19.1,6l2.2-0.6l-1.9,1.2c-0.1,0-0.1,0.1-0.1,0.2
			c0,0.1,0.1,0.1,0.2,0.1c0.1,0,0.5-0.1,1-0.1c0.2,0,0.3,0,0.4,0c0.2,0,0.4,0,0.7,0c0,0-0.1,0-0.1,0c-0.5,0.2-0.9,0.3-1.1,0.3
			c-0.5,0.1-0.9,0.3-0.9,0.3c0,0-0.1,0.1-0.1,0.1c0,0.1,0.1,0.1,0.1,0.1l2.2,0.3l-2.2,0.3c-0.1,0-0.1,0.1-0.1,0.1
			c0,0.1,0,0.1,0.1,0.1c0.1,0,0.5,0.1,1,0.3C20.7,9,20.9,9.1,21,9.2c0.2,0.1,0.4,0.2,0.6,0.3c0,0-0.1,0-0.1,0
			c-0.5,0-0.9-0.1-1.2-0.1l-0.1,0C19.9,9.1,19.5,9,19,9c0,0,0,0,0,0c0-0.1-0.1-0.2-0.2-0.2c-0.6-0.2-1.2-0.3-1.7-0.3
			c-0.2,0-0.4,0-0.5,0c0,0,0,0,0-0.1c0-0.1-0.1-0.1-0.2-0.1c-0.6-0.1-1.2-0.1-1.7,0c-0.2,0-0.4,0.1-0.6,0.2c0-0.1,0-0.1-0.1-0.1
			c-0.1-0.1-0.1-0.1-0.2-0.1c-0.6,0.1-1.2,0.2-1.7,0.4c-0.1,0.1-0.2,0.1-0.4,0.2c0-0.1,0-0.1-0.1-0.2c-0.1-0.1-0.2-0.1-0.2,0
			c-0.6,0.2-1.2,0.4-1.6,0.7l0,0c-0.1,0-0.2,0-0.3,0c-0.1,0-0.4,0-0.4,0C8.8,9.3,8.6,9.3,8.3,9.3z M8.9,10C8.9,10,8.9,10,8.9,10
			C9,10,9,10,8.9,10c0,0.4-0.1,0.9-0.5,1.5c0,0.1,0,0.1,0,0.2c0,0.1,0.1,0.1,0.2,0.1c0,0,0.5-0.1,1-0.1c0,0,0,0,0,0c0,0,0,0,0,0
			c-0.4,0.3-1.3,0.9-2.1,0.9c0,0-0.1,0-0.1,0c0,0,0,0,0,0C7.4,12.1,7.5,11,8.9,10z M5.8,13.3c0.1-0.3,0.2-0.7,0.4-1
			c0.2-0.3,0.5-0.6,0.8-0.9c0,0,0,0,0,0c0,0,0,0,0,0c0,0.3,0,0.9-0.4,1.5c0,0.1,0,0.2,0,0.2c0.1,0.1,0.1,0.1,0.2,0.1
			c0,0,0.5-0.2,1-0.2c0,0,0,0,0,0c0,0,0,0,0,0c-0.2,0.2-0.4,0.3-0.6,0.5c-0.4,0.3-1,0.6-1.5,0.6c0,0,0,0-0.1,0c0,0,0,0,0,0
			C5.8,14,5.8,13.7,5.8,13.3z M5.3,13C5.4,13,5.4,13,5.3,13C5.4,13,5.4,13,5.3,13c0.1,0.3,0.1,0.9-0.1,1.5c0,0.1,0,0.2,0.1,0.2
			c0.1,0,0.2,0.1,0.2,0c0,0,0.4-0.3,0.9-0.3c0,0,0,0,0,0c0,0,0,0,0,0c-0.3,0.5-1.1,1.3-2,1.5l0,0c0,0,0,0,0,0
			C4.4,15.5,4.2,14.4,5.3,13z M3.4,16c0.1-0.4,0.3-0.7,0.5-1.1c0,0,0,0,0,0c0,0,0,0,0,0C4,15.2,4.1,15.7,4,16.4c0,0.1,0,0.2,0.1,0.2
			c0.1,0,0.2,0,0.2,0c0,0,0.4-0.4,0.9-0.5c0,0,0,0,0,0c0,0,0,0,0,0c-0.1,0.2-0.2,0.4-0.4,0.6c-0.4,0.6-0.9,0.9-1.4,1.1c0,0,0,0,0,0
			s0,0,0,0c0-0.1-0.2-0.4-0.2-0.8C3.2,16.7,3.3,16.3,3.4,16z M2.3,18c0.1-0.4,0.2-0.8,0.4-1.2c0,0,0,0,0,0h0c0,0,0,0,0,0
			C2.8,17.1,3,17.7,3,18.3c0,0.1,0,0.1,0.1,0.2c0.1,0,0.1,0,0.2,0c0,0,0.4-0.4,0.9-0.6c0,0,0,0,0,0c0,0,0,0,0,0
			c0,0.2-0.1,0.4-0.2,0.6c-0.3,0.6-0.7,1-1.4,1.3c0,0,0,0,0,0c0,0,0,0,0,0c-0.1-0.1-0.2-0.4-0.3-0.8C2.3,18.7,2.2,18.4,2.3,18z
			 M1.7,19C1.7,19,1.7,19,1.7,19C1.7,19,1.7,19,1.7,19c0.2,0.3,0.5,0.8,0.5,1.4c0,0.1,0.1,0.1,0.1,0.2c0.1,0,0.2,0,0.2-0.1
			c0,0,0.3-0.4,0.8-0.7c0,0,0,0,0,0c0,0,0,0,0,0c0,0.2-0.1,0.4-0.1,0.6c-0.2,0.6-0.6,1.1-1.2,1.5c0,0,0,0,0,0c0,0,0,0,0,0
			c-0.1-0.1-0.3-0.3-0.4-0.7c-0.1-0.3-0.2-0.7-0.2-1.1C1.5,19.8,1.6,19.4,1.7,19z M1.1,21.2C1.1,21.2,1.1,21.2,1.1,21.2
			C1.1,21.2,1.1,21.2,1.1,21.2c0.3,0.3,0.6,0.7,0.7,1.4c0,0.1,0.1,0.1,0.1,0.1c0.1,0,0.2,0,0.2-0.1c0,0,0.3-0.4,0.7-0.7c0,0,0,0,0,0
			c0,0,0,0,0,0c0,0.2,0,0.4-0.1,0.6c-0.1,0.6-0.5,1.2-0.9,1.6c0,0,0,0,0,0s0,0,0,0c-0.1-0.1-0.3-0.3-0.5-0.7c-0.2-0.3-0.2-0.7-0.3-1
			C1,22,1,21.6,1.1,21.2z M0.7,23.4C0.7,23.4,0.7,23.4,0.7,23.4C0.7,23.4,0.8,23.4,0.7,23.4c0.3,0.2,0.6,0.7,0.8,1.3
			c0,0.1,0.1,0.1,0.2,0.1c0.1,0,0.2,0,0.2-0.1c0,0,0.2-0.4,0.6-0.8c0,0,0,0,0,0c0,0,0,0,0,0c0,0.2,0,0.5-0.1,0.7
			c-0.1,0.7-0.4,1.2-0.8,1.6c0,0,0,0,0,0c0,0,0,0,0,0c-0.1-0.1-0.3-0.3-0.5-0.6c-0.2-0.3-0.3-0.6-0.3-1C0.7,24.3,0.7,23.9,0.7,23.4z
			 M0.5,25.8C0.5,25.8,0.6,25.8,0.5,25.8C0.6,25.7,0.6,25.7,0.5,25.8c0.1,0,0.1,0.1,0.2,0.1c0.2,0.2,0.5,0.6,0.7,1.2
			c0,0.1,0.1,0.1,0.2,0.1c0.1,0,0.2-0.1,0.2-0.2v0c0,0,0.1-0.5,0.5-0.8c0,0,0,0,0,0c0,0,0,0,0,0c0,0.3,0.1,0.7,0,1.1
			c-0.1,0.5-0.3,1-0.7,1.3c0,0,0,0,0,0c0,0,0,0,0,0C1.2,28.3,0.4,27.5,0.5,25.8z M0.5,28C0.5,28,0.5,28,0.5,28
			c0.1,0,0.1,0.1,0.2,0.1c0.2,0.2,0.6,0.5,0.8,1.1c0,0.1,0.1,0.1,0.2,0.1c0,0,0,0,0,0h0c0.1,0,0.1,0,0.2-0.1c0,0,0.2-0.5,0.5-0.9
			c0,0,0,0,0,0c0,0,0,0,0,0c0.1,0.5,0.2,1.4-0.5,2.4c0,0,0,0,0,0c0,0,0,0,0,0C1.4,30.5,0.5,29.8,0.5,28C0.4,28,0.5,28,0.5,28z
			 M0.6,30.4C0.6,30.4,0.6,30.4,0.6,30.4C0.6,30.4,0.6,30.4,0.6,30.4c0.3,0.1,0.8,0.4,1.2,1c0,0.1,0.1,0.1,0.2,0.1
			c0.1,0,0.1-0.1,0.1-0.1v0l0,0l0,0c0,0,0.1-0.6,0.4-1c0,0,0,0,0,0c0,0,0,0,0,0c0.1,0.2,0.2,0.4,0.2,0.6c0.1,0.6,0,1.3-0.3,1.9
			c0,0,0,0,0,0s0,0,0,0c-0.1,0-0.4-0.2-0.7-0.4c-0.3-0.2-0.5-0.5-0.7-0.8C0.8,31.2,0.7,30.8,0.6,30.4z M1.1,32.6
			C1.1,32.6,1.1,32.6,1.1,32.6C1.1,32.6,1.1,32.6,1.1,32.6c0.1,0,0.1,0,0.2,0.1c0.3,0.1,0.7,0.4,1,0.9c0,0.1,0.1,0.1,0.2,0.1
			c0.1,0,0.1-0.1,0.1-0.2c0,0,0.1-0.5,0.3-1c0,0,0,0,0,0h0c0,0,0,0,0,0c0.2,0.5,0.5,1.4,0.1,2.4c0,0,0,0,0,0s0,0,0,0
			C2.7,34.8,1.6,34.3,1.1,32.6z M2.4,35.9c-0.2-0.3-0.4-0.6-0.6-1c0,0,0,0,0,0c0,0,0,0,0,0c0.1,0,0.1,0,0.2,0.1
			c0.3,0.1,0.7,0.3,1.1,0.7c0.1,0.1,0.1,0.1,0.2,0c0.1,0,0.1-0.1,0.1-0.2c0,0,0-0.5,0.2-1c0,0,0,0,0,0c0,0,0,0,0,0
			c0.1,0.2,0.2,0.4,0.3,0.6c0.2,0.6,0.3,1.2,0.1,1.8c0,0,0,0,0,0l0,0c-0.1,0-0.4-0.1-0.8-0.3C2.9,36.4,2.7,36.1,2.4,35.9z M2.8,36.9
			C2.8,36.9,2.8,36.9,2.8,36.9C2.8,36.9,2.8,36.9,2.8,36.9c0.4,0,0.9,0.2,1.4,0.6c0.1,0,0.1,0.1,0.2,0c0.1,0,0.1-0.1,0.1-0.2
			c0,0-0.1-0.5,0-1c0,0,0,0,0,0c0,0,0,0,0,0c0.1,0.2,0.2,0.4,0.3,0.6c0.2,0.4,0.4,1.1,0.3,1.7c0,0,0,0,0,0h0c-0.1,0-0.4,0-0.8-0.2
			c-0.3-0.1-0.6-0.3-0.9-0.6C3.2,37.6,3,37.3,2.8,36.9z M7.1,40.7c0,0-0.2-0.5-0.2-1c0,0,0,0,0,0c0,0,0,0,0,0
			c0.4,0.4,1.2,1.1,1.1,2.2c0,0,0,0,0,0c-0.1,0-0.2,0-0.3,0c-0.1,0-0.3,0-0.5,0c-0.6-0.1-1.3-0.5-1.9-1.1c0,0,0,0,0,0c0,0,0,0,0,0
			c0.3,0,0.9,0,1.5,0.2c0.1,0,0.2,0,0.2,0C7.1,40.8,7.2,40.8,7.1,40.7z M5.4,39.3c0.1,0,0.1,0,0.2,0c0.1,0,0.1-0.1,0.1-0.2
			c0,0-0.1-0.5-0.1-1c0,0,0,0,0,0c0,0,0,0,0,0c0.4,0.4,1,1.3,0.9,2.2c0,0,0,0,0,0c0,0-0.1,0-0.1,0c-0.2,0-0.4,0-0.7-0.1
			c-0.3-0.1-0.6-0.3-0.9-0.5c-0.3-0.2-0.6-0.5-0.8-0.9c0,0,0,0,0,0c0,0,0,0,0,0C4.3,38.9,4.8,39,5.4,39.3z M12.8,34.4
			c-0.1,0-0.1,0.1-0.2,0.1c-0.4,0.3-0.7,0.6-0.7,0.9c-0.1,0-0.1,0-0.1,0c-0.3-0.1-0.3-0.3-0.3-0.3c0-0.2,0.1-0.3,0.3-0.5
			c0.3-0.3,0.5-0.4,0.7-0.4c0.1,0,0.1,0,0.2,0C12.7,34.2,12.8,34.2,12.8,34.4C12.8,34.3,12.8,34.3,12.8,34.4z M13.2,35.9
			c-0.1,0-0.5,0.1-0.6-0.1c0,0-0.1-0.1-0.1-0.2c0-0.3,0.3-0.5,0.5-0.7c0.3-0.2,0.5-0.4,0.7-0.4c0.1,0,0.2,0,0.2,0.1
			c0.1,0.1,0.1,0.1,0.1,0.2c0,0.1-0.1,0.2-0.2,0.3C13.5,35.4,13.3,35.6,13.2,35.9z M14.8,36c-0.1,0.1-0.5,0.4-0.8,0.3
			c0,0-0.1,0-0.2-0.1c0.1-0.3,0.4-0.5,0.7-0.6c0.4-0.2,0.5-0.1,0.5-0.1c0.1,0.1,0.1,0.2,0.1,0.2C15.1,35.7,14.9,35.9,14.8,36
			C14.8,36,14.8,36,14.8,36z M11.4,33.9c0,0-0.1,0.1-0.1,0.1c-0.2,0.2-0.4,0.4-0.5,0.7c0,0-0.1,0-0.1,0c-0.2,0-0.3-0.1-0.3-0.1
			c0,0-0.1-0.1,0.1-0.3c0.2-0.2,0.5-0.4,0.8-0.4c0,0,0,0,0.1,0c0,0,0,0,0,0C11.3,33.9,11.4,33.9,11.4,33.9z M19.6,34.3
			c-0.1,0.1-0.2,0.1-0.4,0.1c-0.3-0.4-1-1.2-1.8-1.6c-0.1,0-0.2,0-0.2,0c-0.1,0-0.1,0.1-0.2,0.2c0,0.1,0,0.2,0,0.2
			c0,0.1,0.1,0.1,0.2,0.2c0.7,0.4,1.3,1.1,1.6,1.4c0,0.1-0.1,0.1-0.1,0.1c-0.1,0.1-0.3,0.2-0.5,0.2c-0.1-0.2-0.2-0.4-0.4-0.6
			c-0.3-0.3-0.8-0.7-0.8-0.7c-0.1,0-0.2-0.1-0.2-0.1c-0.1,0-0.2,0.1-0.2,0.1c0,0.1-0.1,0.2-0.1,0.2c0,0.1,0.1,0.2,0.1,0.2
			c0.1,0.1,0.5,0.4,0.7,0.6c0.2,0.2,0.3,0.4,0.3,0.5c0,0.1-0.1,0.1-0.1,0.2c-0.1,0.1-0.3,0.2-0.4,0.1c-0.1-0.2-0.3-0.5-0.6-0.9
			c-0.1-0.1-0.3-0.1-0.4,0c-0.1,0.1-0.1,0.1-0.1,0.2c0,0.1,0,0.2,0.1,0.2c0.2,0.2,0.4,0.5,0.4,0.6c-0.1,0-0.1,0.1-0.2,0.1
			c-0.2,0.1-0.3,0.1-0.5,0.1c0.1-0.1,0.1-0.3,0.1-0.4c0-0.2,0-0.4-0.3-0.7c-0.1-0.1-0.4-0.3-0.8-0.2c0-0.2-0.1-0.4-0.3-0.5
			c-0.3-0.2-0.6-0.3-1-0.2l0,0c-0.1-0.1-0.2-0.3-0.5-0.5c-0.3-0.1-0.6-0.2-0.8-0.1c-0.3-0.2-0.6-0.3-0.7-0.3c-0.4-0.1-1,0.1-1.3,0.5
			c-1.8,1-4.1,2-5.1,2.4c-0.5-0.9-0.9-1.9-1.3-3c-0.1-0.3-0.2-0.6-0.3-0.9c2.7-0.3,4.8-0.6,6.3-0.9c1.6-0.3,2.7-0.7,3.2-1
			c0.6-0.4,1-0.7,1.6-0.6c0.1,0,0.3,0,0.4,0c-0.1,0-0.2,0.1-0.3,0.2c-0.2,0.2-0.4,0.3-0.5,0.4c-0.1,0.1-0.2,0.2-0.4,0.3
			c-0.1,0.1-0.3,0.2-0.4,0.2c-0.4,0.2-0.7,0.3-0.8,0.6c-0.1,0.3-0.1,0.5,0.1,0.8c0.3,0.4,0.7,0.4,1.1,0.4c0.4,0,0.9-0.2,1.3-0.4
			c0.1-0.1,0.2-0.2,0.4-0.2c0.2-0.1,0.3-0.2,0.4-0.2c0,0,0,0,0,0c0.3-0.1,0.7-0.1,1.1,0.1c0.4,0.1,0.8,0.4,1.1,0.6
			c0.8,0.5,1.4,1.3,1.6,1.5C19.7,34.1,19.7,34.2,19.6,34.3z M20.7,34c-0.3-0.2-0.5-0.4-0.5-0.5c0,0,0,0,0,0l0,0c0,0,0,0,0-0.1
			c-0.3-0.3-0.9-1-1.7-1.5c-0.6-0.4-1.7-1.1-2.7-0.8c-0.2,0-0.4,0.2-0.6,0.3c-0.1,0.1-0.2,0.1-0.3,0.2c-0.3,0.2-0.7,0.3-1,0.3
			c-0.3,0-0.5,0-0.6-0.1c-0.1-0.1-0.1-0.1-0.1-0.2c0.1-0.1,0.3-0.2,0.4-0.2c0.2-0.1,0.4-0.2,0.5-0.3c0.2-0.1,0.3-0.2,0.5-0.4
			c0.1-0.1,0.3-0.2,0.5-0.4c0.3-0.2,0.7-0.2,1.2-0.2l0,0c0.1,0,0.2,0,0.2,0c0.1,0,0.1,0,0.2,0c0.6,0,1.1,0.2,1.8,0.4
			c0.2,0.1,0.5,0.2,0.8,0.3c0,0,1.1,0.3,2.5,0.7c1.2,0.3,3,0.7,4.7,0.8c-0.1,0.3-0.2,0.5-0.2,0.8c-0.4,1.1-0.8,2.1-1.3,3.1
			C24.1,35.9,22.1,35,20.7,34z M24.6,40.8c-0.8,0.8-1.5,1-1.9,1.1c-0.2,0-0.3,0-0.5,0c-0.1,0-0.2,0-0.3,0c0,0,0,0,0,0
			c0-0.6,0.2-1.1,0.7-1.7c0.1-0.2,0.3-0.3,0.5-0.5c0,0,0,0,0,0c0,0,0,0,0,0c-0.1,0.5-0.2,0.9-0.2,0.9c0,0.1,0,0.2,0,0.2
			c0.1,0.1,0.1,0.1,0.2,0C23.7,40.7,24.3,40.7,24.6,40.8C24.6,40.7,24.6,40.7,24.6,40.8C24.6,40.8,24.6,40.8,24.6,40.8z M26.1,38.9
			c-0.3,0.4-0.5,0.7-0.8,0.9c-0.3,0.2-0.6,0.4-0.9,0.5c-0.3,0.1-0.6,0.1-0.7,0.1c0,0-0.1,0-0.1,0c0,0,0,0,0,0c0-0.6,0.1-1.1,0.5-1.7
			c0.1-0.2,0.2-0.4,0.4-0.5c0,0,0,0,0,0c0,0,0,0,0,0c0,0.5-0.1,1-0.1,1c0,0.1,0,0.2,0.1,0.2c0.1,0,0.1,0,0.2,0
			C25.2,39,25.7,38.9,26.1,38.9C26.1,38.8,26.1,38.8,26.1,38.9C26.1,38.8,26.1,38.9,26.1,38.9z M26.5,37.9c-0.3,0.3-0.6,0.5-0.9,0.6
			c-0.4,0.2-0.7,0.2-0.8,0.2h0c0,0,0,0,0,0c-0.1-0.6,0-1.1,0.3-1.8c0.1-0.2,0.2-0.4,0.3-0.6c0,0,0,0,0,0c0,0,0,0,0,0
			c0.1,0.5,0.1,1,0.1,1c0,0.1,0,0.1,0.1,0.2c0.1,0,0.1,0,0.2,0c0.5-0.4,1.1-0.6,1.4-0.6c0,0,0,0,0,0c0,0,0,0,0,0
			C27,37.3,26.8,37.6,26.5,37.9z M27.6,35.8c-0.2,0.3-0.5,0.5-0.8,0.7c-0.3,0.2-0.6,0.3-0.8,0.3c0,0,0,0,0,0s0,0,0,0
			c-0.2-0.6-0.1-1.2,0.1-1.8c0.1-0.2,0.2-0.4,0.3-0.6c0,0,0,0,0,0c0,0,0,0,0,0c0.2,0.5,0.2,1,0.2,1c0,0.1,0.1,0.1,0.1,0.2
			c0.1,0,0.2,0,0.2,0h0c0.4-0.5,0.8-0.7,1.1-0.8c0.1,0,0.1,0,0.2-0.1c0,0,0,0,0,0c0,0,0,0,0,0C28,35.2,27.8,35.5,27.6,35.8z
			 M28.4,33.7c-0.2,0.3-0.5,0.6-0.7,0.8c-0.3,0.2-0.6,0.3-0.7,0.4l0,0c0,0,0,0,0,0c-0.3-0.7-0.2-1.3-0.1-1.8
			c0.1-0.2,0.1-0.4,0.2-0.6c0,0,0,0,0,0h0c0,0,0,0,0,0c0.2,0.5,0.3,1,0.3,1c0,0.1,0.1,0.1,0.1,0.2c0.1,0,0.2,0,0.2-0.1
			c0.4-0.5,0.9-0.8,1.2-0.9c0,0,0,0,0,0c0,0,0,0,0,0C28.7,33,28.6,33.4,28.4,33.7z M28.9,31.5c-0.2,0.3-0.4,0.6-0.6,0.9
			c-0.3,0.3-0.6,0.4-0.7,0.5c0,0,0,0,0,0c0,0,0,0,0,0c-0.3-0.5-0.4-1.1-0.3-1.8c0-0.2,0.1-0.4,0.1-0.6c0,0,0,0,0,0c0,0,0,0,0,0
			c0.3,0.4,0.4,1,0.4,1c0,0.1,0.1,0.1,0.2,0.1c0.1,0,0.2,0,0.2-0.1c0.4-0.6,0.8-0.9,1.1-1.1c0,0,0,0,0,0c0,0,0,0,0,0
			C29.2,30.7,29.1,31.1,28.9,31.5z"/>
		<path fill="#FFC013" d="M19,9c0.4,0,0.8,0.1,1.2,0.3l0.1,0c0.2,0,0.7,0.1,1.2,0.1c0,0,0.1,0,0.1,0c-0.3-0.1-0.4-0.2-0.6-0.3
			C20.9,9.1,20.7,9,20.6,9c-0.5-0.2-0.9-0.3-1-0.3c-0.1,0-0.1-0.1-0.1-0.1c0-0.1,0-0.1,0.1-0.1l2.2-0.3l-2.2-0.3
			c-0.1,0-0.1,0-0.1-0.1c0-0.1,0-0.1,0.1-0.1c0,0,0.4-0.2,0.9-0.3c0.2,0,0.7-0.2,1.1-0.3c0,0,0.1,0,0.1,0c-0.3,0-0.5,0-0.7,0
			c-0.1,0-0.3,0-0.4,0c-0.5,0-1,0.1-1,0.1c-0.1,0-0.1,0-0.2-0.1c0-0.1,0-0.1,0.1-0.2l1.9-1.2L19.1,6C19.1,6,19,6,19,6
			c0,0,0-0.1,0-0.1c0,0,0.3-0.4,0.7-0.7c0.2-0.1,0.5-0.4,0.9-0.7c0,0,0.1-0.1,0.1-0.1c-0.2,0.1-0.4,0.2-0.7,0.2
			c-0.1,0-0.3,0.1-0.4,0.1c-0.5,0.2-0.9,0.5-0.9,0.5c-0.1,0-0.1,0-0.2,0c0,0-0.1-0.1,0-0.2l1.4-1.8L18,4.6c0,0-0.1,0-0.1,0
			c0,0-0.1-0.1-0.1-0.1c0,0,0.1-0.4,0.4-0.9c0.1-0.2,0.4-0.6,0.6-1c0,0,0-0.1,0.1-0.1c-0.2,0.2-0.3,0.3-0.5,0.5
			c-0.1,0.1-0.2,0.2-0.3,0.3C17.6,3.6,17.3,4,17.3,4c0,0.1-0.1,0.1-0.2,0.1c-0.1,0-0.1-0.1-0.1-0.2l0.6-2.2l-1.2,1.9
			c0,0-0.1,0.1-0.1,0.1c-0.1,0-0.1-0.1-0.1-0.1c0,0-0.1-0.4,0-0.9c0-0.2,0.1-0.7,0.1-1.2c0,0,0-0.1,0-0.1c-0.1,0.3-0.2,0.4-0.3,0.6
			c-0.1,0.1-0.1,0.2-0.2,0.4c-0.2,0.5-0.3,1-0.3,1c0,0.1-0.1,0.1-0.1,0.1c-0.1,0-0.1,0-0.1-0.1L15,1.2l-0.3,2.2c0,0.1,0,0.1-0.1,0.1
			c-0.1,0-0.1,0-0.1-0.1c0,0-0.2-0.4-0.3-0.9c0-0.2-0.2-0.7-0.3-1.1c0,0,0-0.1,0-0.1c0,0.3,0,0.5,0,0.7c0,0.1,0,0.3,0,0.4
			c0,0.5,0.1,1,0.1,1c0,0.1,0,0.1-0.1,0.2c-0.1,0-0.1,0-0.2-0.1l-1.2-1.9l0.6,2.2c0,0.1,0,0.1-0.1,0.1c0,0-0.1,0-0.1,0
			c0,0-0.4-0.3-0.7-0.7c-0.1-0.2-0.4-0.5-0.7-0.9c0,0-0.1-0.1-0.1-0.1c0.1,0.2,0.2,0.4,0.2,0.7c0,0.1,0.1,0.3,0.1,0.4
			c0.2,0.5,0.5,0.9,0.5,0.9c0,0.1,0,0.1,0,0.2c0,0-0.1,0.1-0.2,0l-1.8-1.4L11.5,5c0,0,0,0.1,0,0.1c0,0-0.1,0.1-0.1,0.1
			c0,0-0.4-0.1-0.9-0.4c-0.2-0.1-0.6-0.4-1-0.6c0,0-0.1,0-0.1-0.1c0.2,0.2,0.3,0.3,0.5,0.5C10,4.9,10,5,10.2,5.1
			C10.5,5.5,11,5.8,11,5.8C11,5.8,11,5.9,11,5.9C11,6,10.9,6,10.9,6L8.7,5.4l2,1.2c0,0,0.1,0.1,0.1,0.1c0,0.1-0.1,0.1-0.1,0.1
			c0,0-0.4,0.1-0.9,0C9.4,6.8,9,6.7,8.5,6.7c0,0-0.1,0-0.1,0C8.6,6.8,8.8,6.9,9,7C9.1,7,9.2,7.1,9.4,7.2c0.5,0.2,1,0.3,1,0.3
			c0.1,0,0.1,0.1,0.1,0.1c0,0.1,0,0.1-0.1,0.1L8.1,8.1l2.2,0.3c0.1,0,0.1,0,0.1,0.1c0,0.1,0,0.1-0.1,0.1c0,0-0.4,0.2-0.9,0.3
			C9.3,9,8.9,9.1,8.4,9.3c0,0-0.1,0-0.1,0c0.3,0,0.5,0,0.7,0c0,0,0.3,0,0.4,0c0.1,0,0.2,0,0.3,0l0,0c0.4-0.3,1-0.5,1.6-0.7
			c0.1,0,0.2,0,0.2,0c0.1,0,0.1,0.1,0.1,0.2c0.1-0.1,0.2-0.1,0.4-0.2c0.5-0.2,1-0.3,1.7-0.4c0.1,0,0.2,0,0.2,0.1
			c0,0,0.1,0.1,0.1,0.1c0.2-0.1,0.4-0.1,0.6-0.2c0.5-0.1,1.1-0.1,1.7,0c0.1,0,0.2,0.1,0.2,0.1c0,0,0,0,0,0.1c0.2,0,0.4,0,0.5,0
			c0.5,0,1.1,0.1,1.7,0.3C19,8.9,19,8.9,19,9C19,9,19,9,19,9z"/>
		<g>
			<path fill="#221F1F" d="M15.8,6.2c2.2-0.3,2.4,0.3,2.4,0.3s0.1,0.1,0.2,0.1c0,0,0.1,0,0.1-0.2c0,0-0.2-0.7-1.4-0.8
				c0,0-0.6-0.1-1.3,0c-0.2,0-0.2,0.5-0.2,0.5C15.6,6.2,15.8,6.2,15.8,6.2z"/>
			<path fill="#221F1F" d="M13.9,6.6C13.7,6.5,13,6.5,13,6.5c-1,0-1.2,0.6-1.2,0.6c-0.1,0.2,0.1,0.2,0.1,0.2
				c0.2,0.1,0.3-0.1,0.3-0.1s0.1-0.2,0.5-0.3c0,0.1,0,0.1,0,0.2c0,0.3,0.2,0.5,0.5,0.5c0.3,0,0.5-0.2,0.5-0.5c0-0.1,0-0.1,0-0.2
				c0.1,0.1,0.3,0.2,0.4,0.3c0,0.1,0.1,0.1,0.3,0.1c0.2,0,0.2-0.1,0.2-0.1C14.2,6.8,13.9,6.6,13.9,6.6z"/>
			<path fill="#221F1F" d="M15.7,7.4c0.2,0,0.3,0,0.3-0.1C16.1,7.1,16.3,7,16.4,7c0,0.1,0,0.1,0,0.2c0,0.3,0.2,0.5,0.5,0.5
				c0.3,0,0.5-0.2,0.5-0.5c0-0.1,0-0.1,0-0.2c0.4,0.1,0.5,0.3,0.5,0.3s0.1,0.2,0.3,0.1c0,0,0.2,0,0.1-0.2c0,0-0.3-0.6-1.2-0.6
				c0,0-0.6,0-0.9,0.1c0,0-0.3,0.2-0.4,0.7C15.6,7.3,15.5,7.4,15.7,7.4z"/>
			<path fill="#221F1F" d="M11.5,6.6c0.2,0,0.2-0.1,0.2-0.1s0.2-0.6,2.4-0.3c0,0,0.2,0,0.2-0.2c0,0-0.1-0.4-0.2-0.5
				c-0.7-0.1-1.3,0-1.3,0c-1.2,0.1-1.4,0.8-1.4,0.8C11.4,6.6,11.5,6.6,11.5,6.6z"/>
		</g>
		<g>
			<path fill="#2EA249" d="M24.6,40.7c-0.3,0-0.9,0-1.5,0.2c-0.1,0-0.2,0-0.2,0c-0.1-0.1-0.1-0.1,0-0.2c0,0,0.2-0.5,0.2-0.9
				c0,0,0,0,0,0c0,0,0,0,0,0c-0.2,0.1-0.3,0.3-0.5,0.5c-0.5,0.5-0.7,1.1-0.7,1.7c0,0,0,0,0,0c0.1,0,0.2,0,0.3,0c0.1,0,0.3,0,0.5,0
				C23.1,41.8,23.8,41.5,24.6,40.7C24.6,40.8,24.6,40.8,24.6,40.7C24.6,40.7,24.6,40.7,24.6,40.7z"/>
			<path fill="#2EA249" d="M6.9,39.7C6.9,39.7,6.9,39.7,6.9,39.7C6.9,39.7,6.9,39.7,6.9,39.7c0,0.5,0.2,1,0.2,1c0,0.1,0,0.2,0,0.2
				C7,41,6.9,41,6.9,40.9c-0.6-0.2-1.2-0.2-1.5-0.2c0,0,0,0,0,0c0,0,0,0,0,0c0.7,0.6,1.3,1,1.9,1.1c0.2,0,0.3,0,0.5,0
				c0.1,0,0.2,0,0.3,0c0,0,0,0,0,0C8.1,40.9,7.4,40.1,6.9,39.7z"/>
			<path fill="#2EA249" d="M26.1,38.8c-0.4,0-0.9,0.1-1.5,0.5c-0.1,0-0.1,0-0.2,0c-0.1,0-0.1-0.1-0.1-0.2c0,0,0.1-0.5,0.1-1
				c0,0,0,0,0,0c0,0,0,0,0,0c-0.1,0.2-0.3,0.3-0.4,0.5c-0.4,0.6-0.5,1.2-0.5,1.7c0,0,0,0,0,0c0,0,0.1,0,0.1,0c0.2,0,0.4,0,0.7-0.1
				c0.3-0.1,0.6-0.3,0.9-0.5C25.5,39.5,25.8,39.2,26.1,38.8C26.1,38.9,26.1,38.8,26.1,38.8C26.1,38.8,26.1,38.8,26.1,38.8z"/>
			<path fill="#2EA249" d="M27.2,36.9c-0.3,0.1-0.9,0.2-1.4,0.6c-0.1,0-0.1,0.1-0.2,0c-0.1,0-0.1-0.1-0.1-0.2c0,0,0-0.5-0.1-1
				c0,0,0,0,0,0c0,0,0,0,0,0c-0.1,0.2-0.2,0.4-0.3,0.6c-0.3,0.6-0.4,1.2-0.3,1.8c0,0,0,0,0,0h0c0.1,0,0.4,0,0.8-0.2
				c0.3-0.1,0.6-0.3,0.9-0.6C26.8,37.6,27,37.3,27.2,36.9C27.2,36.9,27.2,36.9,27.2,36.9C27.2,36.9,27.2,36.9,27.2,36.9z"/>
			<path fill="#2EA249" d="M28.2,34.7c-0.1,0-0.1,0-0.2,0.1c-0.3,0.1-0.7,0.3-1.1,0.8h0c-0.1,0.1-0.1,0.1-0.2,0
				c-0.1,0-0.1-0.1-0.1-0.2c0,0,0-0.5-0.2-1c0,0,0,0,0,0c0,0,0,0,0,0c-0.1,0.2-0.2,0.4-0.3,0.6c-0.2,0.6-0.3,1.2-0.1,1.8
				c0,0,0,0,0,0s0,0,0,0c0.1,0,0.4-0.1,0.8-0.3c0.3-0.2,0.6-0.4,0.8-0.7C27.8,35.5,28,35.2,28.2,34.7C28.2,34.7,28.2,34.7,28.2,34.7
				C28.2,34.7,28.2,34.7,28.2,34.7z"/>
			<path fill="#2EA249" d="M28.9,32.6c-0.3,0.1-0.8,0.4-1.2,0.9c0,0.1-0.1,0.1-0.2,0.1c-0.1,0-0.1-0.1-0.1-0.2c0,0-0.1-0.5-0.3-1
				c0,0,0,0,0,0h0c0,0,0,0,0,0c-0.1,0.2-0.2,0.4-0.2,0.6c-0.1,0.5-0.2,1.2,0.1,1.8c0,0,0,0,0,0l0,0c0.1,0,0.4-0.1,0.7-0.4
				c0.3-0.2,0.5-0.5,0.7-0.8C28.6,33.4,28.7,33,28.9,32.6C28.9,32.6,28.9,32.6,28.9,32.6C28.9,32.6,28.9,32.6,28.9,32.6z"/>
			<path fill="#2EA249" d="M29.3,30.3c-0.3,0.2-0.7,0.5-1.1,1.1c0,0.1-0.1,0.1-0.2,0.1c-0.1,0-0.1-0.1-0.2-0.1c0,0-0.1-0.5-0.4-1
				c0,0,0,0,0,0c0,0,0,0,0,0c-0.1,0.2-0.1,0.4-0.1,0.6c-0.1,0.7,0,1.3,0.3,1.8c0,0,0,0,0,0c0,0,0,0,0,0c0.1-0.1,0.4-0.2,0.7-0.5
				c0.3-0.2,0.5-0.5,0.6-0.9C29.1,31.1,29.2,30.7,29.3,30.3C29.3,30.3,29.3,30.3,29.3,30.3C29.3,30.3,29.3,30.3,29.3,30.3z"/>
			<path fill="#2EA249" d="M28.5,29.2c0,0.1-0.1,0.1-0.2,0.1c-0.1,0-0.1-0.1-0.2-0.1c0,0-0.2-0.5-0.5-0.9c0,0,0,0,0,0c0,0,0,0,0,0
				c0,0.2-0.1,0.4-0.1,0.7c0,0.7,0.2,1.3,0.5,1.7c0,0,0,0,0,0c0,0,0,0,0,0c0.1-0.1,0.4-0.2,0.6-0.5c0.2-0.3,0.4-0.6,0.5-0.9
				c0.1-0.4,0.2-0.8,0.2-1.2c0,0,0,0,0,0c0,0,0,0,0,0C29.2,28.2,28.8,28.6,28.5,29.2z"/>
			<path fill="#2EA249" d="M28.4,27.1c-0.1,0-0.1,0-0.2-0.1c0,0-0.2-0.4-0.6-0.8c0,0,0,0,0,0c0,0,0,0,0,0c0,0.6,0,1.6,0.7,2.3
				c0,0,0,0,0,0s0,0,0,0c0.1-0.1,0.3-0.3,0.6-0.6c0.2-0.3,0.3-0.6,0.4-1c0.1-0.4,0.1-0.8,0.1-1.2c0,0,0,0,0,0c0,0,0,0,0,0
				c-0.3,0.2-0.6,0.6-0.9,1.3C28.6,27.1,28.5,27.1,28.4,27.1z"/>
			<path fill="#2EA249" d="M28.3,24.9c-0.1,0-0.1,0-0.2-0.1c0,0-0.3-0.4-0.6-0.7c0,0,0,0,0,0c0,0,0,0,0,0c0.1,0.6,0.2,1.7,0.9,2.2
				c0,0,0,0,0,0s0,0,0,0c0.1-0.1,0.3-0.3,0.5-0.6c0.2-0.3,0.3-0.6,0.3-1c0.1-0.4,0.1-0.8,0-1.2c0,0,0,0,0,0c0,0,0,0,0,0
				c-0.2,0.3-0.6,0.7-0.7,1.3C28.5,24.8,28.4,24.9,28.3,24.9z"/>
			<path fill="#2EA249" d="M28,22.7c-0.1,0-0.2,0-0.2-0.1c0,0-0.3-0.4-0.7-0.7c0,0,0,0,0,0c0,0,0,0,0,0c0,0.2,0.1,0.4,0.1,0.6
				c0.1,0.5,0.4,1.1,0.9,1.5c0,0,0,0,0,0c0,0,0,0,0,0c0.1-0.1,0.3-0.3,0.5-0.7c0.2-0.3,0.2-0.7,0.3-1c0-0.4,0-0.8-0.1-1.2
				c0,0,0,0,0,0c0,0,0,0,0,0c-0.2,0.3-0.5,0.7-0.7,1.4C28.2,22.7,28.1,22.7,28,22.7z"/>
			<path fill="#2EA249" d="M27.6,20.6c-0.1,0-0.2,0-0.2-0.1c0,0-0.4-0.4-0.8-0.6c0,0,0,0,0,0c0,0,0,0,0,0c0,0.2,0.1,0.4,0.2,0.6
				c0.3,0.6,0.6,1.1,1.1,1.4c0,0,0,0,0,0s0,0,0,0c0.1-0.1,0.3-0.3,0.4-0.7c0.1-0.3,0.2-0.7,0.1-1.1c0-0.4-0.1-0.8-0.2-1.2
				c0,0,0,0,0,0c0,0,0,0,0,0c-0.2,0.3-0.4,0.8-0.5,1.5C27.7,20.5,27.6,20.6,27.6,20.6z"/>
			<path fill="#2EA249" d="M26.6,18.5c0,0-0.4-0.3-0.8-0.6c0,0,0,0,0,0c0,0,0,0,0,0c0.1,0.2,0.2,0.4,0.3,0.6c0.3,0.6,0.7,1,1.2,1.3
				c0,0,0,0,0,0c0,0,0,0,0,0c0.1-0.1,0.2-0.4,0.3-0.8c0.1-0.3,0.1-0.7,0-1.1c-0.1-0.4-0.2-0.8-0.3-1.2c0,0,0,0,0,0c0,0,0,0,0,0
				c-0.2,0.3-0.3,0.8-0.3,1.5c0,0.1,0,0.1-0.1,0.2h0C26.8,18.5,26.7,18.5,26.6,18.5z"/>
			<path fill="#2EA249" d="M24.7,16.1C24.7,16.1,24.7,16.1,24.7,16.1c0.1,0.2,0.2,0.4,0.3,0.6c0.4,0.6,0.9,1,1.4,1.2c0,0,0,0,0,0
				c0,0,0,0,0,0c0.1-0.1,0.2-0.4,0.2-0.8c0-0.3,0-0.7-0.1-1.1c-0.1-0.4-0.3-0.7-0.5-1.1c0,0,0,0,0,0c0,0,0,0,0,0
				c-0.1,0.3-0.2,0.9-0.1,1.5c0,0.1,0,0.2-0.1,0.2h0c-0.1,0-0.2,0-0.2,0C25.7,16.5,25.2,16.2,24.7,16.1
				C24.7,16.1,24.7,16.1,24.7,16.1z"/>
			<path fill="#2EA249" d="M23.5,14.4C23.5,14.4,23.5,14.4,23.5,14.4c0.1,0.2,0.3,0.4,0.4,0.6c0.5,0.5,1,0.8,1.6,0.9l0,0
				c0,0,0,0,0,0c0-0.1,0.1-0.4,0.1-0.8c0-0.3-0.1-0.7-0.3-1c-0.2-0.3-0.4-0.7-0.6-1c0,0,0,0,0,0c0,0,0,0,0,0
				c-0.1,0.4-0.1,0.9,0.1,1.5c0,0.1,0,0.2-0.1,0.2c-0.1,0-0.2,0-0.2,0C24.4,14.7,24,14.4,23.5,14.4C23.5,14.4,23.5,14.4,23.5,14.4z"
				/>
			<path fill="#2EA249" d="M23.2,13.1c-0.1,0.1-0.1,0.1-0.2,0c0,0-0.4-0.2-0.9-0.2c0,0,0,0-0.1,0c0,0,0,0,0,0c0,0,0,0,0,0
				c0.2,0.2,0.4,0.3,0.5,0.5c0.4,0.3,1,0.6,1.6,0.6c0,0,0,0,0,0c0,0,0,0,0,0c0-0.1,0-0.4-0.1-0.8c-0.1-0.3-0.2-0.7-0.4-1
				c-0.2-0.3-0.5-0.6-0.8-0.9c0,0,0,0,0,0c0,0,0,0,0,0c0,0.3,0,0.9,0.4,1.5C23.3,12.9,23.3,13,23.2,13.1z"/>
			<path fill="#2EA249" d="M6.4,40.4C6.5,40.4,6.5,40.4,6.4,40.4c0.1,0,0.1,0,0.1,0c0.1-0.9-0.5-1.8-0.9-2.2c0,0,0,0,0,0
				c0,0,0,0,0,0c-0.1,0.5,0.1,1,0.1,1c0,0.1,0,0.2-0.1,0.2c-0.1,0-0.1,0-0.2,0c-0.6-0.4-1.1-0.5-1.5-0.5c0,0,0,0,0,0c0,0,0,0,0,0
				c0.3,0.4,0.5,0.7,0.8,0.9c0.3,0.2,0.6,0.4,0.9,0.5C6,40.4,6.3,40.4,6.4,40.4z"/>
			<path fill="#2EA249" d="M5.2,38.7L5.2,38.7C5.2,38.7,5.2,38.7,5.2,38.7c0.1-0.7-0.1-1.3-0.3-1.8c-0.1-0.2-0.2-0.4-0.3-0.6
				c0,0,0,0,0,0c0,0,0,0,0,0c-0.1,0.5-0.1,1,0,1c0,0.1,0,0.2-0.1,0.2c-0.1,0-0.1,0-0.2,0c-0.5-0.4-1.1-0.6-1.4-0.6c0,0,0,0,0,0
				c0,0,0,0,0,0c0.2,0.4,0.5,0.7,0.7,1c0.3,0.3,0.6,0.5,0.9,0.6C4.7,38.6,5,38.7,5.2,38.7z"/>
			<path fill="#2EA249" d="M4,36.9L4,36.9C4,36.9,4,36.9,4,36.9c0.2-0.6,0.2-1.2-0.1-1.8c-0.1-0.2-0.2-0.4-0.3-0.6c0,0,0,0,0,0
				c0,0,0,0,0,0c-0.2,0.5-0.2,1-0.2,1c0,0.1,0,0.1-0.1,0.2c-0.1,0-0.2,0-0.2,0C2.7,35.2,2.3,35,2,34.8c-0.1,0-0.1,0-0.2-0.1
				c0,0,0,0,0,0c0,0,0,0,0,0c0.2,0.4,0.4,0.8,0.6,1c0.2,0.3,0.5,0.5,0.8,0.7C3.6,36.8,3.9,36.8,4,36.9z"/>
			<path fill="#2EA249" d="M3.1,34.9C3.1,34.9,3.1,34.9,3.1,34.9C3.1,34.9,3.1,34.9,3.1,34.9c0.5-1,0.1-1.9-0.1-2.4c0,0,0,0,0,0l0,0
				c0,0,0,0,0,0c-0.2,0.5-0.3,1-0.3,1c0,0.1-0.1,0.1-0.1,0.2c-0.1,0-0.2,0-0.2-0.1c-0.4-0.5-0.8-0.7-1-0.9c-0.1,0-0.1-0.1-0.2-0.1
				c0,0,0,0,0,0c0,0,0,0,0,0C1.6,34.3,2.7,34.8,3.1,34.9z"/>
			<path fill="#2EA249" d="M1.6,32.4c0.3,0.3,0.6,0.4,0.7,0.4c0,0,0,0,0,0s0,0,0,0c0.3-0.6,0.5-1.2,0.3-1.9c0-0.2-0.1-0.4-0.2-0.6
				c0,0,0,0,0,0c0,0,0,0,0,0c-0.3,0.4-0.4,1-0.4,1l0,0h0l0,0h0l0,0v0c0,0.1-0.1,0.1-0.1,0.1c-0.1,0-0.2,0-0.2-0.1
				c-0.4-0.6-0.8-0.9-1.1-1c0,0,0,0,0,0c0,0,0,0,0,0c0.1,0.4,0.2,0.8,0.4,1.1C1.2,31.9,1.4,32.2,1.6,32.4z"/>
			<path fill="#2EA249" d="M1.8,30.7C1.8,30.7,1.8,30.7,1.8,30.7C1.8,30.7,1.8,30.7,1.8,30.7c0.7-1,0.7-1.9,0.6-2.4c0,0,0,0,0,0
				c0,0,0,0,0,0c-0.3,0.4-0.5,0.9-0.5,0.9c0,0.1-0.1,0.1-0.2,0.1h0c0,0,0,0,0,0c-0.1,0-0.1,0-0.2-0.1c-0.2-0.5-0.6-0.9-0.8-1.1
				c-0.1,0-0.1-0.1-0.2-0.1c0,0,0,0,0,0c0,0,0,0,0,0C0.5,29.8,1.4,30.5,1.8,30.7z"/>
			<path fill="#2EA249" d="M1.6,28.6C1.6,28.6,1.6,28.6,1.6,28.6C1.6,28.6,1.6,28.6,1.6,28.6c0.4-0.3,0.6-0.8,0.7-1.3
				c0.1-0.4,0-0.8,0-1.1c0,0,0,0,0,0c0,0,0,0,0,0C1.8,26.5,1.7,27,1.7,27v0c0,0.1-0.1,0.2-0.2,0.2c-0.1,0-0.2,0-0.2-0.1
				c-0.2-0.6-0.5-0.9-0.7-1.2c0,0-0.1-0.1-0.1-0.1c0,0,0,0,0,0c0,0,0,0,0,0C0.4,27.5,1.2,28.3,1.6,28.6z"/>
			<path fill="#2EA249" d="M1.1,25.7c0.2,0.4,0.4,0.6,0.5,0.6c0,0,0,0,0,0c0,0,0,0,0,0c0.4-0.4,0.7-0.9,0.8-1.6
				c0-0.2,0.1-0.4,0.1-0.7c0,0,0,0,0,0c0,0,0,0,0,0c-0.4,0.3-0.6,0.8-0.6,0.8c0,0.1-0.1,0.1-0.2,0.1c-0.1,0-0.1-0.1-0.2-0.1
				c-0.2-0.7-0.5-1.1-0.7-1.3c0,0,0,0,0,0c0,0,0,0,0,0c-0.1,0.4-0.1,0.8,0,1.2C0.8,25,0.9,25.4,1.1,25.7z"/>
			<path fill="#2EA249" d="M1.3,23.4c0.2,0.3,0.4,0.6,0.5,0.7c0,0,0,0,0,0s0,0,0,0c0.5-0.4,0.8-1,0.9-1.6c0-0.2,0.1-0.4,0.1-0.6
				c0,0,0,0,0,0c0,0,0,0,0,0c-0.4,0.3-0.7,0.7-0.7,0.7c0,0.1-0.1,0.1-0.2,0.1c-0.1,0-0.1-0.1-0.1-0.1c-0.1-0.7-0.4-1.1-0.7-1.4
				c0,0,0,0,0,0c0,0,0,0,0,0C1,21.6,1,22,1,22.4C1.1,22.8,1.1,23.1,1.3,23.4z"/>
			<path fill="#2EA249" d="M2.1,21.9C2.1,21.9,2.1,21.9,2.1,21.9C2.1,21.9,2.1,21.9,2.1,21.9c0.6-0.4,1-0.9,1.2-1.5
				c0.1-0.2,0.1-0.4,0.1-0.6c0,0,0,0,0,0c0,0,0,0,0,0c-0.5,0.3-0.8,0.7-0.8,0.7c0,0.1-0.1,0.1-0.2,0.1c-0.1,0-0.1-0.1-0.1-0.2
				c-0.1-0.7-0.3-1.2-0.5-1.4c0,0,0,0,0,0c0,0,0,0,0,0c-0.1,0.4-0.2,0.8-0.2,1.2c0,0.4,0,0.7,0.2,1.1C1.8,21.6,2,21.9,2.1,21.9z"/>
			<path fill="#2EA249" d="M2.6,19.8C2.6,19.8,2.6,19.8,2.6,19.8C2.6,19.8,2.6,19.8,2.6,19.8c0.6-0.3,1.1-0.8,1.4-1.3
				c0.1-0.2,0.2-0.4,0.2-0.6c0,0,0,0,0,0c0,0,0,0,0,0c-0.5,0.2-0.9,0.5-0.9,0.6c-0.1,0-0.1,0.1-0.2,0C3,18.5,3,18.4,3,18.3
				c0-0.7-0.1-1.2-0.3-1.5c0,0,0,0,0,0h0c0,0,0,0,0,0c-0.2,0.4-0.3,0.8-0.4,1.2c-0.1,0.4,0,0.7,0,1.1C2.4,19.5,2.6,19.7,2.6,19.8z"
				/>
			<path fill="#2EA249" d="M3.4,17.8C3.4,17.8,3.4,17.8,3.4,17.8C3.4,17.8,3.4,17.8,3.4,17.8c0.6-0.2,1.1-0.5,1.5-1.1
				c0.2-0.2,0.3-0.5,0.4-0.6c0,0,0,0,0,0c0,0,0,0,0,0c-0.5,0.1-0.9,0.4-0.9,0.5c-0.1,0.1-0.1,0.1-0.2,0C4,16.5,4,16.5,4,16.4
				c0.1-0.7,0-1.2-0.1-1.5c0,0,0,0,0,0c0,0,0,0,0,0c-0.2,0.4-0.4,0.7-0.5,1.1c-0.1,0.4-0.2,0.7-0.1,1.1C3.3,17.4,3.4,17.7,3.4,17.8z
				"/>
			<path fill="#2EA249" d="M4.5,15.9L4.5,15.9c0.9-0.2,1.6-1,2-1.5c0,0,0,0,0,0c0,0,0,0,0,0c-0.5,0-0.9,0.3-0.9,0.3
				c-0.1,0-0.2,0-0.2,0c-0.1,0-0.1-0.1-0.1-0.2c0.2-0.6,0.2-1.2,0.1-1.5c0,0,0,0,0,0c0,0,0,0,0,0C4.2,14.4,4.4,15.5,4.5,15.9
				C4.5,15.9,4.5,15.9,4.5,15.9z"/>
			<path fill="#2EA249" d="M5.8,14.1C5.8,14.1,5.9,14.1,5.8,14.1c0.6,0,1.2-0.3,1.6-0.6C7.6,13.3,7.8,13.1,8,13c0,0,0,0,0,0
				c0,0,0,0,0,0c-0.5,0-0.9,0.2-1,0.2c-0.1,0-0.2,0-0.2-0.1c-0.1-0.1-0.1-0.1,0-0.2c0.3-0.6,0.4-1.1,0.4-1.5c0,0,0,0,0,0
				c0,0,0,0,0,0c-0.3,0.3-0.6,0.6-0.8,0.9c-0.2,0.3-0.4,0.7-0.4,1C5.8,13.7,5.8,14,5.8,14.1C5.8,14.1,5.8,14.1,5.8,14.1z"/>
			<path fill="#2EA249" d="M9.6,11.7c-0.5,0-1,0.1-1,0.1c-0.1,0-0.2,0-0.2-0.1c0-0.1,0-0.1,0-0.2C8.8,10.9,8.9,10.3,9,10
				c0,0,0,0,0,0c0,0,0,0,0,0c-1.5,1-1.6,2.2-1.5,2.6c0,0,0,0,0,0c0,0,0.1,0,0.1,0C8.4,12.6,9.2,12,9.6,11.7
				C9.6,11.7,9.7,11.7,9.6,11.7C9.6,11.7,9.6,11.7,9.6,11.7z"/>
			<path fill="#2EA249" d="M11.5,10.8c-0.2,0-0.3-0.1-0.5-0.1c-0.3,0-0.5,0-0.5,0h0c-0.1,0-0.2,0-0.2-0.1c0-0.1,0-0.2,0.1-0.2
				c0.5-0.4,0.7-0.8,0.9-1.1c0,0,0,0,0,0c0,0,0,0,0,0c-1.7,0.6-2.1,1.6-2.1,2c0,0,0,0,0,0c0.2,0,0.4,0.1,0.7,0.1
				c0.3,0,0.7-0.1,1.1-0.2C11.1,11,11.3,10.9,11.5,10.8C11.5,10.8,11.5,10.8,11.5,10.8C11.5,10.8,11.5,10.8,11.5,10.8z"/>
			<path fill="#2EA249" d="M13.5,10.2c-0.4-0.2-0.9-0.3-0.9-0.3c-0.1,0-0.1-0.1-0.2-0.2c0-0.1,0-0.2,0.1-0.2c0.6-0.3,0.8-0.6,1-0.7
				c0,0,0,0,0,0c0,0,0,0,0,0c-0.9,0.1-1.6,0.4-2,0.9c-0.2,0.2-0.3,0.4-0.4,0.6c0,0,0,0,0,0c0.4,0.2,0.8,0.2,1.1,0.2
				c0.2,0,0.5,0,0.7-0.1C13.1,10.4,13.3,10.3,13.5,10.2C13.5,10.2,13.5,10.2,13.5,10.2C13.5,10.2,13.5,10.2,13.5,10.2z"/>
			<path fill="#2EA249" d="M14.9,9.6c-0.1,0-0.1-0.1-0.1-0.2c0-0.1,0.1-0.2,0.1-0.2c0.6-0.2,0.9-0.4,1.1-0.5c0,0,0,0,0,0
				c0,0,0,0,0,0c-0.9-0.1-1.6,0.1-2.1,0.4c-0.3,0.2-0.4,0.4-0.5,0.5c0,0,0,0,0,0c0.6,0.4,1.3,0.5,1.9,0.5c0.2,0,0.3,0,0.5,0
				c0,0,0,0,0,0c0,0,0,0,0,0C15.3,9.8,14.9,9.6,14.9,9.6z"/>
			<path fill="#2EA249" d="M17.1,9.8C17,9.8,17,9.7,17,9.6c0-0.1,0.1-0.1,0.2-0.1c0.6-0.1,0.9-0.2,1.2-0.3c0,0,0,0,0,0c0,0,0,0,0,0
				c-0.8-0.2-1.5-0.2-2.1,0c-0.3,0.1-0.5,0.3-0.6,0.4c0,0,0,0,0,0c0.7,0.8,1.7,1,2.2,1h0c0,0,0,0,0,0c0,0,0,0,0,0
				C17.5,10.1,17.1,9.8,17.1,9.8z"/>
			<path fill="#2EA249" d="M22.6,12.6C22.6,12.6,22.6,12.6,22.6,12.6c0-0.2,0-0.6-0.2-0.9c-0.3-0.7-0.8-1.1-1.5-1.4c0,0,0,0,0,0
				c0,0,0,0,0,0c0.1,0.3,0.3,0.7,0.6,1.1c0.1,0.1,0.1,0.2,0,0.2c0,0.1-0.1,0.1-0.2,0.1c0,0-0.5-0.1-1,0c0,0,0,0,0,0c0,0,0,0,0,0
				c0.5,0.3,1.4,0.8,2.2,0.8C22.6,12.6,22.6,12.6,22.6,12.6z"/>
			<path fill="#2EA249" d="M20.9,11.2C20.9,11.2,20.9,11.2,20.9,11.2c-0.4-0.5-1-0.7-1.6-0.6c-0.2,0-0.5,0.1-0.7,0.1c0,0,0,0,0,0
				c0,0,0,0,0,0c0.5,0.4,1,0.6,1.6,0.6c0,0,0.1,0,0.1,0C20.5,11.3,20.7,11.3,20.9,11.2C20.9,11.2,20.9,11.2,20.9,11.2z"/>
			<path fill="#2EA249" d="M17.7,9.8C17.7,9.8,17.7,9.8,17.7,9.8c0.3,0.2,0.7,0.4,1.2,0.4c0.2,0,0.4,0,0.6-0.1
				c0.3-0.1,0.6-0.2,0.8-0.2c0,0,0,0,0,0c0,0,0,0,0,0c-0.3-0.2-0.6-0.3-0.9-0.3c-0.3-0.1-0.7,0-1,0C18.1,9.6,17.9,9.7,17.7,9.8
				C17.7,9.8,17.7,9.8,17.7,9.8z"/>
		</g>
		<g>
			<path fill="#ED4224" d="M11.4,22.2c0.1,0.1,0.3,0.2,0.5,0.2h2.5C12.9,21.5,12.4,21.6,11.4,22.2C11.4,22.2,11.4,22.2,11.4,22.2z"
				/>
			<path fill="#ED4224" d="M17.4,21.1C17.2,21,17,21,16.8,20.9c-0.8-0.3-1.4-0.8-1.4-0.8c-0.2-0.1-0.2-0.4-0.1-0.5
				c0.1-0.2,0.4-0.2,0.5-0.1c0,0,0.6,0.5,1.3,0.7c0.2,0.1,0.3,0.1,0.6,0.2c0.3,0.1,0.7,0.2,1,0.3c-0.1-0.4-0.1-0.8-0.2-1.1
				c-1-0.2-1.8-0.9-1.8-0.9c-0.1-0.1-0.1-0.1-0.1-0.2c0-0.1,0-0.2,0.1-0.3c0.1-0.2,0.4-0.2,0.5,0c0,0,0.5,0.4,1.2,0.7
				c-0.3-1-0.6-1.9-1.1-2.8c-0.3-0.6-0.8-1.1-1.5-1.3c-0.5-0.2-0.8-0.1-0.8-0.1c0,0,0,0,0,0c0,0-1.2,0-1.9,0.9c0,0,0,0,0,0
				c-0.1,0.1-0.5,0.6-0.6,0.9c0,0.2,0,0.3,0.1,0.4c0.1,0,0.2,0.1,0.6-0.1c0.1-0.1,0.1-0.1,0.2-0.1c0.2-0.1,0.4-0.1,0.5,0.1
				c0.1,0.2,0.1,0.4-0.1,0.5c0,0-0.1,0.1-0.1,0.1c-0.1,0.1-0.5,0.4-0.8,0.9c-0.4,0.6-1,1.6-1.3,3.1c0,0,0,0.1,0,0.1
				c1-0.4,1.9-0.6,3.7,0.5c0.7,0.5,1.5,0.5,1.7,0.5h0.8c0,0,0,0,0,0c0.2,0,0.8,0,1.1-0.3c0-0.1,0.1-0.1,0.1-0.2
				C18.7,21.5,18.3,21.3,17.4,21.1z"/>
		</g>
		<g>
			<path fill="#F9BA7F" d="M13.9,35.2c0.1-0.1,0.2-0.2,0.2-0.3c0,0,0-0.1-0.1-0.2c-0.1-0.1-0.2-0.1-0.2-0.1c-0.2,0-0.4,0.1-0.7,0.4
				c-0.2,0.1-0.5,0.4-0.5,0.7c0,0.1,0.1,0.2,0.1,0.2c0.2,0.1,0.5,0.1,0.6,0.1C13.3,35.6,13.5,35.4,13.9,35.2z"/>
			<path fill="#F9BA7F" d="M15.1,35.6c0,0,0-0.1-0.1-0.2c0,0-0.2-0.1-0.5,0.1c-0.3,0.2-0.6,0.4-0.7,0.6c0.1,0.1,0.1,0.1,0.2,0.1
				c0.3,0.1,0.7-0.2,0.8-0.3c0,0,0,0,0,0C14.9,35.9,15.1,35.7,15.1,35.6z"/>
			<path fill="#F9BA7F" d="M11.3,33.9C11.3,33.9,11.3,33.9,11.3,33.9c-0.3,0-0.7,0.2-0.9,0.4c-0.1,0.2-0.1,0.2-0.1,0.3
				c0,0,0.1,0.1,0.3,0.1c0,0,0.1,0,0.1,0c0.1-0.3,0.3-0.5,0.5-0.7c0.1-0.1,0.1-0.1,0.1-0.1C11.4,33.9,11.3,33.9,11.3,33.9
				C11.3,33.9,11.3,33.9,11.3,33.9z"/>
			<path fill="#F9BA7F" d="M11.4,35c0,0.1,0,0.2,0.3,0.3c0,0,0.1,0,0.1,0c0.1-0.3,0.3-0.6,0.7-0.9c0.1,0,0.1-0.1,0.2-0.1
				c0,0,0,0,0-0.1c0-0.1-0.1-0.1-0.2-0.2c-0.1,0-0.1,0-0.2,0c-0.2,0-0.4,0.1-0.7,0.4C11.5,34.7,11.4,34.9,11.4,35z"/>
			<path fill="#F9BA7F" d="M19.2,34.4c0.2,0,0.3-0.1,0.4-0.1c0.1-0.1,0.1-0.2,0.1-0.3c-0.2-0.2-0.8-1-1.6-1.5
				c-0.3-0.2-0.7-0.5-1.1-0.6c-0.4-0.2-0.8-0.2-1.1-0.1c0,0,0,0,0,0c-0.1,0-0.2,0.1-0.4,0.2c-0.1,0.1-0.2,0.1-0.4,0.2
				c-0.4,0.2-0.9,0.4-1.3,0.4c-0.4,0-0.8,0-1.1-0.4c-0.2-0.3-0.2-0.5-0.1-0.8c0.1-0.3,0.4-0.4,0.8-0.6c0.2-0.1,0.3-0.2,0.4-0.2
				c0.2-0.1,0.3-0.2,0.4-0.3c0.1-0.1,0.3-0.2,0.5-0.4c0.1-0.1,0.2-0.1,0.3-0.2c-0.1,0-0.2,0-0.4,0c-0.6,0-1,0.2-1.6,0.6
				c-0.5,0.4-1.6,0.7-3.2,1c-1.6,0.3-3.7,0.6-6.3,0.9c0.1,0.3,0.2,0.6,0.3,0.9c0.3,1.1,0.8,2.1,1.3,3c0.9-0.4,3.3-1.5,5.1-2.4
				c0.4-0.3,0.9-0.5,1.3-0.5c0.1,0,0.4,0,0.7,0.3c0.3-0.1,0.6-0.1,0.8,0.1c0.3,0.1,0.4,0.3,0.5,0.5l0,0c0.4-0.1,0.7,0,1,0.2
				c0.2,0.2,0.3,0.3,0.3,0.5c0.4-0.1,0.6,0.1,0.8,0.2c0.3,0.3,0.3,0.5,0.3,0.7c0,0.1-0.1,0.3-0.1,0.4c0.2,0,0.4,0,0.5-0.1
				c0.1,0,0.1-0.1,0.2-0.1c-0.1-0.2-0.2-0.4-0.4-0.6c-0.1-0.1-0.1-0.1-0.1-0.2c0-0.1,0-0.2,0.1-0.2c0.1-0.1,0.3-0.1,0.4,0
				c0.3,0.4,0.5,0.7,0.6,0.9c0.2,0,0.3,0,0.4-0.1c0.1-0.1,0.1-0.1,0.1-0.2c0-0.1-0.1-0.2-0.3-0.5c-0.2-0.2-0.6-0.5-0.7-0.6
				c-0.1,0-0.1-0.1-0.1-0.2c0-0.1,0-0.2,0.1-0.2c0-0.1,0.1-0.1,0.2-0.1c0.1,0,0.2,0,0.2,0.1c0,0,0.6,0.4,0.8,0.7
				c0.2,0.2,0.3,0.4,0.4,0.6c0.2,0,0.4-0.1,0.5-0.2c0,0,0.1-0.1,0.1-0.1c-0.2-0.3-0.9-1.1-1.6-1.4c-0.1,0-0.1-0.1-0.2-0.2
				c0-0.1,0-0.2,0-0.2c0-0.1,0.1-0.1,0.2-0.2c0.1,0,0.2,0,0.2,0C18.2,33.2,18.9,34.1,19.2,34.4z"/>
			<path fill="#F9BA7F" d="M15.1,31.5c0.2-0.1,0.4-0.3,0.6-0.3c1-0.3,2.1,0.4,2.7,0.8c0.8,0.5,1.4,1.2,1.7,1.5c0,0,0,0,0,0.1l0,0
				c0,0,0,0,0,0c0.1,0.1,0.3,0.3,0.5,0.5c1.3,1,3.4,1.9,4.2,2.2c0.5-1,1-2,1.3-3.1c0.1-0.3,0.2-0.5,0.2-0.8
				c-1.7-0.1-3.5-0.5-4.7-0.8c-1.4-0.3-2.4-0.7-2.5-0.7c-0.3-0.1-0.5-0.2-0.8-0.3c-0.8-0.3-1.3-0.5-1.8-0.4c-0.1,0-0.1,0-0.2,0
				c-0.1,0-0.2,0-0.2,0l0,0c-0.5,0-0.9,0-1.2,0.2c-0.2,0.2-0.4,0.3-0.5,0.4c-0.1,0.1-0.3,0.2-0.5,0.4c-0.2,0.1-0.3,0.2-0.5,0.3
				c-0.1,0.1-0.4,0.2-0.4,0.2c0,0,0,0.1,0.1,0.2c0.1,0.1,0.3,0.1,0.6,0.1c0.3,0,0.7-0.1,1-0.3C14.9,31.6,15,31.5,15.1,31.5z"/>
		</g>
	</g>
</g>
</svg>
