<?xml version="1.0" encoding="utf-8"?>
<!-- Generator: Adobe Illustrator 18.0.0, SVG Export Plug-In . SVG Version: 6.00 Build 0)  -->
<!DOCTYPE svg PUBLIC "-//W3C//DTD SVG 1.1//EN" "http://www.w3.org/Graphics/SVG/1.1/DTD/svg11.dtd">
<svg version="1.1" id="Layer_1" xmlns="http://www.w3.org/2000/svg" xmlns:xlink="http://www.w3.org/1999/xlink" x="0px" y="0px"
	 viewBox="0 0 263.4 48.4" enable-background="new 0 0 263.4 48.4" xml:space="preserve">
<g>
	<g>
		<g>
			<path fill="#0094D4" d="M41,26.2h5.1c3,0,4.9,1.7,4.9,4.3v0c0,2.9-2.3,4.4-5.2,4.4h-2.6v4.2H41V26.2z M45.9,32.9
				c1.7,0,2.8-1,2.8-2.3v0c0-1.5-1.1-2.3-2.8-2.3h-2.7v4.7H45.9z"/>
			<path fill="#0094D4" d="M53,29.4h2.2v2.2c0.6-1.5,1.7-2.5,3.5-2.4v2.4h-0.1c-2,0-3.3,1.3-3.3,3.9v3.7H53V29.4z"/>
			<path fill="#0094D4" d="M59.9,34.3L59.9,34.3c0-2.8,2-5.1,4.8-5.1c3.1,0,4.7,2.5,4.7,5.3c0,0.2,0,0.4,0,0.6h-7.2
				c0.2,1.6,1.4,2.5,2.8,2.5c1.1,0,1.9-0.4,2.7-1.2l1.3,1.2c-0.9,1.1-2.2,1.8-4,1.8C62.1,39.4,59.9,37.3,59.9,34.3z M67.2,33.6
				c-0.1-1.4-1-2.6-2.5-2.6c-1.4,0-2.3,1.1-2.5,2.6H67.2z"/>
			<path fill="#0094D4" d="M70.7,37.9l1-1.5c1.1,0.8,2.2,1.2,3.2,1.2c1,0,1.5-0.4,1.5-1.1v0c0-0.8-1-1-2.2-1.4
				c-1.4-0.4-3.1-1-3.1-2.9v0c0-1.9,1.5-3,3.5-3c1.2,0,2.6,0.4,3.6,1.1l-0.9,1.6c-0.9-0.6-1.9-0.9-2.8-0.9c-0.9,0-1.4,0.4-1.4,1v0
				c0,0.7,1.1,1,2.2,1.4c1.4,0.4,3,1.1,3,2.9v0c0,2.1-1.6,3.1-3.6,3.1C73.4,39.4,71.9,38.8,70.7,37.9z"/>
			<path fill="#0094D4" d="M80.6,25.7H83v2.1h-2.4V25.7z M80.7,29.4H83v9.8h-2.2V29.4z"/>
			<path fill="#0094D4" d="M85.2,34.3L85.2,34.3c0-3.3,2.2-5.1,4.5-5.1c1.6,0,2.6,0.8,3.3,1.7v-5.3h2.2v13.6h-2.2v-1.6
				c-0.7,1-1.7,1.8-3.3,1.8C87.4,39.4,85.2,37.5,85.2,34.3z M93.1,34.3L93.1,34.3c0-1.9-1.3-3.2-2.8-3.2c-1.5,0-2.8,1.2-2.8,3.1v0
				c0,1.9,1.3,3.1,2.8,3.1C91.8,37.4,93.1,36.2,93.1,34.3z"/>
			<path fill="#0094D4" d="M97.4,34.3L97.4,34.3c0-2.8,2-5.1,4.8-5.1c3.1,0,4.7,2.5,4.7,5.3c0,0.2,0,0.4,0,0.6h-7.2
				c0.2,1.6,1.4,2.5,2.8,2.5c1.1,0,1.9-0.4,2.7-1.2l1.3,1.2c-0.9,1.1-2.2,1.8-4,1.8C99.6,39.4,97.4,37.3,97.4,34.3z M104.7,33.6
				c-0.1-1.4-1-2.6-2.5-2.6c-1.4,0-2.3,1.1-2.5,2.6H104.7z"/>
			<path fill="#0094D4" d="M109,29.4h2.2v1.5c0.6-0.9,1.5-1.7,3.1-1.7c2.2,0,3.5,1.5,3.5,3.8v6.2h-2.2v-5.6c0-1.5-0.8-2.4-2.1-2.4
				c-1.3,0-2.2,0.9-2.2,2.4v5.5H109V29.4z"/>
			<path fill="#0094D4" d="M119.8,34.3L119.8,34.3c0-2.8,2.2-5.2,5.1-5.2c1.9,0,3,0.7,3.9,1.7l-1.4,1.5c-0.7-0.7-1.4-1.2-2.5-1.2
				c-1.6,0-2.8,1.4-2.8,3.1v0c0,1.7,1.2,3.2,2.9,3.2c1.1,0,1.8-0.5,2.5-1.2l1.4,1.3c-1,1.1-2.1,1.8-4,1.8
				C121.9,39.4,119.8,37.1,119.8,34.3z"/>
			<path fill="#0094D4" d="M130.8,25.7h2.4v2.1h-2.4V25.7z M130.9,29.4h2.2v9.8h-2.2V29.4z"/>
			<path fill="#0094D4" d="M141.9,39.2V38c-0.7,0.8-1.7,1.4-3.2,1.4c-1.9,0-3.5-1.1-3.5-3v0c0-2.2,1.7-3.2,4-3.2
				c1.2,0,1.9,0.2,2.7,0.4v-0.2c0-1.4-0.9-2.1-2.4-2.1c-1.1,0-1.9,0.2-2.8,0.6L136,30c1.1-0.5,2.1-0.8,3.7-0.8
				c2.9,0,4.3,1.5,4.3,4.1v5.8H141.9z M141.9,35.1c-0.6-0.2-1.4-0.4-2.2-0.4c-1.4,0-2.2,0.6-2.2,1.5v0c0,0.9,0.8,1.4,1.9,1.4
				c1.5,0,2.6-0.8,2.6-2.1V35.1z"/>
			<path fill="#0094D4" d="M151.5,34.3L151.5,34.3c0-3.3,2.2-5.1,4.5-5.1c1.6,0,2.6,0.8,3.3,1.7v-5.3h2.2v13.6h-2.2v-1.6
				c-0.7,1-1.7,1.8-3.3,1.8C153.7,39.4,151.5,37.5,151.5,34.3z M159.4,34.3L159.4,34.3c0-1.9-1.3-3.2-2.8-3.2
				c-1.5,0-2.8,1.2-2.8,3.1v0c0,1.9,1.3,3.1,2.8,3.1C158,37.4,159.4,36.2,159.4,34.3z"/>
			<path fill="#0094D4" d="M163.7,34.3L163.7,34.3c0-2.8,2-5.1,4.8-5.1c3.1,0,4.7,2.5,4.7,5.3c0,0.2,0,0.4,0,0.6h-7.2
				c0.2,1.6,1.4,2.5,2.8,2.5c1.1,0,1.9-0.4,2.7-1.2l1.3,1.2c-0.9,1.1-2.2,1.8-4,1.8C165.9,39.4,163.7,37.3,163.7,34.3z M170.9,33.6
				c-0.1-1.4-1-2.6-2.5-2.6c-1.4,0-2.3,1.1-2.5,2.6H170.9z"/>
			<path fill="#0094D4" d="M180.8,25.6h2.2v13.6h-2.2V25.6z"/>
			<path fill="#0094D4" d="M191.8,39.2V38c-0.7,0.8-1.7,1.4-3.2,1.4c-1.9,0-3.5-1.1-3.5-3v0c0-2.2,1.7-3.2,4-3.2
				c1.2,0,1.9,0.2,2.7,0.4v-0.2c0-1.4-0.9-2.1-2.4-2.1c-1.1,0-1.9,0.2-2.8,0.6l-0.6-1.8c1.1-0.5,2.1-0.8,3.7-0.8
				c2.9,0,4.3,1.5,4.3,4.1v5.8H191.8z M191.8,35.1c-0.6-0.2-1.4-0.4-2.2-0.4c-1.4,0-2.2,0.6-2.2,1.5v0c0,0.9,0.8,1.4,1.9,1.4
				c1.5,0,2.6-0.8,2.6-2.1V35.1z"/>
			<path fill="#0094D4" d="M202.1,26.2h2.1l7,9v-9h2.2v13h-1.9l-7.2-9.2v9.2h-2.2V26.2z"/>
			<path fill="#0094D4" d="M222.3,39.2V38c-0.7,0.8-1.7,1.4-3.2,1.4c-1.9,0-3.5-1.1-3.5-3v0c0-2.2,1.7-3.2,4-3.2
				c1.2,0,1.9,0.2,2.7,0.4v-0.2c0-1.4-0.9-2.1-2.4-2.1c-1.1,0-1.9,0.2-2.8,0.6l-0.6-1.8c1.1-0.5,2.1-0.8,3.7-0.8
				c2.9,0,4.3,1.5,4.3,4.1v5.8H222.3z M222.4,35.1c-0.6-0.2-1.4-0.4-2.2-0.4c-1.4,0-2.2,0.6-2.2,1.5v0c0,0.9,0.8,1.4,1.9,1.4
				c1.5,0,2.6-0.8,2.6-2.1V35.1z"/>
			<path fill="#0094D4" d="M226.5,34.3L226.5,34.3c0-2.8,2.2-5.2,5.1-5.2c1.9,0,3,0.7,3.9,1.7l-1.4,1.5c-0.7-0.7-1.4-1.2-2.5-1.2
				c-1.6,0-2.8,1.4-2.8,3.1v0c0,1.7,1.2,3.2,2.9,3.2c1.1,0,1.8-0.5,2.5-1.2l1.4,1.3c-1,1.1-2.1,1.8-4,1.8
				C228.7,39.4,226.5,37.1,226.5,34.3z"/>
			<path fill="#0094D4" d="M237.5,25.7h2.4v2.1h-2.4V25.7z M237.6,29.4h2.2v9.8h-2.2V29.4z"/>
			<path fill="#0094D4" d="M242.1,34.3L242.1,34.3c0-2.8,2.2-5.2,5.2-5.2c3,0,5.2,2.3,5.2,5.1v0c0,2.8-2.2,5.1-5.3,5.1
				C244.3,39.4,242.1,37.1,242.1,34.3z M250.3,34.3L250.3,34.3c0-1.8-1.2-3.2-3-3.2c-1.8,0-3,1.4-3,3.1v0c0,1.7,1.2,3.2,3,3.2
				C249.1,37.4,250.3,36,250.3,34.3z M248.3,25.1l2,0.9l-2.3,2.1h-1.7L248.3,25.1z"/>
			<path fill="#0094D4" d="M254.6,29.4h2.2v1.5c0.6-0.9,1.5-1.7,3.1-1.7c2.2,0,3.5,1.5,3.5,3.8v6.2h-2.2v-5.6c0-1.5-0.8-2.4-2.1-2.4
				c-1.3,0-2.2,0.9-2.2,2.4v5.5h-2.2V29.4z"/>
		</g>
		<g>
			<g>
				<path fill="#0094D4" d="M14.9,23.5h-2.7c-0.6,0-0.9-0.2-1.1-0.4c-0.1-0.2-0.2-0.4-0.3-0.7c0,0,0,0,0-0.1c0-0.2,0-0.5,0-0.8
					c0.4-1.8,1.1-3,1.6-3.7c-0.1,0-0.1,0-0.2-0.1c-0.4-0.2-0.6-0.6-0.5-1.1c0.1-0.6,0.7-1.2,0.8-1.3c0.9-1.1,2.3-1.1,2.5-1.2
					c0.2,0,2-0.1,3,1.8c1.2,2.3,1.5,4.2,1.7,5.7l0,0.1c0,0.3,0,0.5,0,0.7c0,0,0,0,0,0.1c-0.1,0.2-0.2,0.4-0.3,0.5
					c-0.2,0.3-0.6,0.4-1.1,0.5c-0.2,0-0.4,0-0.5,0c-0.1,0-0.1,0-0.1,0h-2.1v3.8h12.1c0-2.2-0.3-4.4-1-6.5c-0.6-2-1.5-3.7-2.7-5.3
					c-1.1-1.5-2.5-2.7-4-3.5c-1.5-0.9-3.2-1.3-4.8-1.3c-1.7,0-3.3,0.4-4.8,1.3c-1.5,0.8-2.8,2-4,3.5c-1.2,1.5-2.1,3.3-2.7,5.3
					c-0.7,2-1,4.2-1,6.5h12.1V23.5z"/>
			</g>
			<g>
				<path fill="#FFFFFF" d="M2.8,27.3c0,1.7,0.2,3.4,0.6,5c5.4-0.6,8.6-1.2,9.6-1.9c0.7-0.5,1.2-0.7,1.9-0.7v-2.3H2.8z"/>
				<path fill="#FFFFFF" d="M15.7,29.8c0.5,0.1,0.8,0.2,1.2,0.4c0,0,0.1,0,0.1,0c0.7,0,1.3,0.2,2.1,0.5c0.2,0.1,0.5,0.2,0.8,0.3
					c0.1,0,4,1.3,7.3,1.4c0.4-1.6,0.6-3.3,0.6-5H15.7V29.8z"/>
			</g>
			<polygon fill="#231F20" points="14.5,8.7 14.5,8.7 14.5,8.7 			"/>
			<polygon fill="#231F20" points="11.9,9.1 11.9,9.1 11.9,9.1 			"/>
			<polygon fill="#231F20" points="11.9,9.1 11.9,9.1 11.9,9.1 			"/>
			<path fill="#FFFFFF" d="M20.6,35c0,0.1-0.1,0.2-0.2,0.3c-0.2,0.2-0.5,0.3-0.8,0.3c0,0.1-0.1,0.2-0.2,0.3
				c-0.2,0.2-0.5,0.4-1.1,0.4c0,0.1-0.1,0.2-0.2,0.3c-0.3,0.3-0.6,0.4-1,0.3c-0.1,0.1-0.2,0.2-0.4,0.2c-0.2,0.1-0.6,0.2-1,0.1v3.2
				c0,0.2-0.2,0.4-0.4,0.4c-0.2,0-0.4-0.2-0.4-0.4v-3.1c-0.2,0.1-0.3,0.1-0.5,0.1c-0.1,0-0.1,0-0.2,0c-0.2,0-0.4-0.2-0.6-0.3
				c-0.3,0-0.7,0.1-1.1-0.2c-0.1-0.1-0.2-0.2-0.3-0.4c-0.1,0-0.2,0-0.4-0.1c-0.4-0.1-0.6-0.3-0.7-0.6c-0.1,0-0.2,0-0.3,0
				c-0.3,0-0.7-0.2-0.8-0.5c0-0.1-0.1-0.1-0.1-0.2c-1.7,0.9-3.7,1.8-4.6,2.2c0.3,0.6,0.7,1.1,1.1,1.7c1.1,1.5,2.5,2.7,4,3.5
				c0.7,0.4,1.4,0.7,2.1,0.9c0.1-0.1,0.2-0.3,0.3-0.3c0.7-0.5,2-0.1,2.4,0c0.4-0.1,1.7-0.4,2.4,0c0.1,0.1,0.2,0.2,0.3,0.3
				c0.7-0.2,1.4-0.5,2.1-0.9c1.5-0.8,2.8-2,4-3.5c0.4-0.5,0.7-1,1.1-1.6C24.1,37.1,22,36.1,20.6,35z"/>
			<g>
				<path fill="#0094D4" d="M16.4,46c0-0.1,0-0.2,0-0.3c0-0.1,0-0.2,0-0.3c0.4-0.1,1.1-0.3,1.4-0.7c0.2-0.3,0.3-0.6,0.3-0.9
					c0-0.3-0.2-0.5-0.4-0.7c-0.7-0.5-2-0.1-2.4,0c-0.4-0.1-1.7-0.4-2.4,0c-0.2,0.2-0.4,0.4-0.4,0.7c0,0.3,0.1,0.6,0.3,0.9
					c0.4,0.4,1,0.6,1.4,0.7c0,0.1,0,0.2,0,0.3c0,0.1,0,0.2,0,0.3c-0.3,0.3-1.2,1.1-2.6,1.3l0,0c0,0.1,0.2,0.3,0.4,0.5
					c1.2-0.2,2.1-0.9,2.5-1.3c0,0,0.1,0.1,0.1,0.1c-0.1,0.3-0.5,1.2-1.9,1.6c0.2,0.1,0.5,0.2,0.9,0.3c1-0.5,1.4-1.2,1.5-1.6
					c0.1,0,0.1,0,0.2,0c0.1,0,0.1,0,0.2,0c0.1,0.4,0.5,1.1,1.5,1.6c0.4-0.1,0.7-0.1,0.9-0.3c-1.5-0.4-1.9-1.2-1.9-1.6
					c0,0,0.1-0.1,0.1-0.1c0.4,0.4,1.3,1,2.5,1.3c0.2-0.2,0.4-0.4,0.4-0.5C17.6,47.1,16.7,46.3,16.4,46z"/>
				<g>
					<g>
						<path fill="#FFFFFF" d="M17.3,43.6c0.1,0.1,0.2,0.2,0.2,0.3c0,0.2,0,0.4-0.1,0.5c-0.2,0.2-0.4,0.3-0.7,0.4
							c0.1-0.3,0.1-0.5,0.1-0.8c-0.1-0.3-0.3-0.4-0.4-0.6C16.7,43.4,17.1,43.4,17.3,43.6z"/>
						<path fill="#FFFFFF" d="M14.3,44.2c0.2-0.5,1-0.5,1-0.5h0c0,0,0.2,0,0.4,0.1c0.3,0.1,0.5,0.3,0.6,0.5c0.1,0.2-0.1,0.5-0.2,0.7
							c-0.2-0.2-0.5-0.3-0.8-0.3c-0.3,0-0.6,0.1-0.8,0.3C14.4,44.7,14.2,44.4,14.3,44.2z"/>
						<path fill="#FFFFFF" d="M13.8,44.8c-0.3-0.1-0.5-0.2-0.7-0.4C13,44.2,13,44.1,13,43.9c0-0.1,0.1-0.2,0.2-0.3
							c0.2-0.1,0.4-0.1,0.7-0.1c0.1,0,0.2,0,0.3,0c-0.2,0.1-0.3,0.3-0.4,0.6C13.7,44.3,13.7,44.6,13.8,44.8z"/>
						<circle fill="#FFFFFF" cx="15.3" cy="45.7" r="0.6"/>
					</g>
					<path fill="#FFFFFF" d="M18.6,47.7c-1.2-0.2-2.1-0.9-2.5-1.3c0,0-0.1,0.1-0.1,0.1c0.1,0.3,0.5,1.2,1.9,1.6
						C18.2,48,18.4,47.9,18.6,47.7z"/>
					<path fill="#FFFFFF" d="M14.4,46.5c-0.4,0.4-1.3,1-2.5,1.3c0.2,0.1,0.4,0.3,0.7,0.4c1.5-0.4,1.9-1.2,1.9-1.6
						C14.5,46.6,14.5,46.5,14.4,46.5z"/>
				</g>
			</g>
			<path fill="#231F20" d="M30.4,30.5c0-0.1,0-0.2-0.1-0.2c-0.1,0-0.1-0.1-0.2-0.1c0.1-0.1,0.1-0.2,0.1-0.3c0.2-0.5,0.3-1.1,0.3-1.8
				c0-0.1,0-0.2-0.1-0.2c-0.1,0-0.1,0-0.2,0c0-0.1,0.1-0.2,0.1-0.3c0.1-0.5,0.2-1.1,0.1-1.8c0-0.1-0.1-0.2-0.1-0.2
				c-0.1,0-0.1,0-0.2,0c0-0.1,0.1-0.3,0.1-0.4c0.1-0.5,0.1-1.1-0.1-1.8c0-0.1-0.1-0.2-0.2-0.2c0,0-0.1,0-0.1,0c0-0.1,0-0.2,0-0.3
				c0.1-0.5,0-1.1-0.1-1.8c0-0.1-0.1-0.2-0.2-0.2c-0.1,0-0.2,0-0.2,0l0,0c0-0.1,0-0.3,0-0.4c0-0.5-0.1-1.1-0.4-1.7
				c0-0.1-0.1-0.1-0.2-0.2c-0.1,0-0.1,0-0.2,0c0-0.1,0-0.3,0-0.4c-0.1-0.5-0.3-1.1-0.6-1.7c0-0.1-0.1-0.1-0.2-0.1
				c-0.1,0-0.1,0-0.2,0.1c0-0.1,0-0.2-0.1-0.4c-0.1-0.5-0.4-1.1-0.8-1.6c0-0.1-0.1-0.1-0.2-0.1c-0.1,0-0.2,0-0.2,0.1
				c0-0.1-0.1-0.3-0.2-0.4c-0.2-0.5-0.6-1-1-1.5c-0.1-0.1-0.2-0.1-0.2-0.1c-0.1,0-0.1,0.1-0.2,0.1c-0.1-0.1-0.1-0.3-0.2-0.4
				c-0.3-0.5-0.7-0.9-1.2-1.3c-0.1-0.1-0.2-0.1-0.2,0C23,11,23,11,23,11.1c-0.3-0.5-0.8-0.8-1.4-1c0.1,0,0.2,0,0.3,0
				c0.7,0,1.2-0.1,1.2-0.1c0.2,0,0.2-0.2,0.2-0.4c0-0.2-0.2-0.3-0.3-0.3c-0.8,0-1.1-0.2-1.4-0.4c-0.1,0-0.1-0.1-0.2-0.1l1.8-0.3
				c0.2,0,0.3-0.2,0.3-0.3c0-0.2-0.1-0.3-0.3-0.3l-1.8-0.3c0.2-0.1,0.5-0.1,0.7-0.2c0.7-0.2,1.1-0.6,1.1-0.6
				c0.1-0.1,0.2-0.3,0.1-0.4c-0.1-0.1-0.2-0.2-0.4-0.1c-0.7,0.3-1.1,0.2-1.5,0.2c-0.1,0-0.2,0-0.2,0l1.6-1c0.1-0.1,0.2-0.3,0.1-0.4
				c-0.1-0.2-0.2-0.2-0.4-0.2l-1.8,0.5C20.8,5.2,21,5,21.2,4.9c0.5-0.5,0.8-0.9,0.8-1c0.1-0.1,0-0.3-0.1-0.4c-0.1-0.1-0.3-0.1-0.4,0
				C21,4,20.6,4.1,20.2,4.2c-0.1,0-0.2,0-0.2,0.1l1.1-1.5c0.1-0.1,0.1-0.3,0-0.4c-0.1-0.1-0.3-0.1-0.4,0l-1.5,1.1
				c0.1-0.2,0.2-0.4,0.4-0.7c0.3-0.6,0.4-1.2,0.4-1.2c0-0.2-0.1-0.3-0.2-0.3c-0.2,0-0.3,0-0.4,0.2c-0.3,0.7-0.6,0.9-0.9,1.2
				c-0.1,0-0.1,0.1-0.2,0.2L18.6,1c0-0.2,0-0.3-0.2-0.4c-0.2-0.1-0.3,0-0.4,0.1l-1,1.6c0-0.2,0.1-0.5,0.1-0.8c0-0.7-0.1-1.2-0.1-1.2
				c0-0.2-0.2-0.2-0.4-0.2c-0.2,0-0.3,0.2-0.3,0.3c0,0.8-0.2,1.1-0.4,1.5c0,0.1-0.1,0.1-0.1,0.2l-0.3-1.8c0-0.2-0.2-0.3-0.3-0.3h0
				c-0.2,0-0.3,0.1-0.3,0.3l-0.3,1.8c-0.1-0.2-0.1-0.5-0.2-0.7c-0.2-0.7-0.6-1.1-0.6-1.1c-0.1-0.1-0.3-0.2-0.4-0.1
				c-0.1,0.1-0.2,0.2-0.1,0.4c0.3,0.7,0.2,1.1,0.2,1.5c0,0.1,0,0.2,0,0.3l-1-1.6c-0.1-0.1-0.3-0.2-0.4-0.1C12,0.7,11.9,0.9,11.9,1
				l0.5,1.8c-0.1-0.2-0.3-0.4-0.5-0.6c-0.5-0.5-0.9-0.8-1-0.8c-0.1-0.1-0.3,0-0.4,0.1c-0.1,0.1-0.1,0.3,0,0.4
				c0.5,0.6,0.6,0.9,0.7,1.3c0,0.1,0,0.2,0.1,0.2L9.9,2.4c-0.1-0.1-0.3-0.1-0.4,0c-0.1,0.1-0.1,0.3,0,0.4l1.1,1.5
				C10.3,4.2,10.1,4.1,9.9,4C9.2,3.6,8.7,3.6,8.7,3.6c-0.2,0-0.3,0.1-0.3,0.2c0,0.2,0,0.3,0.2,0.4c0.7,0.3,0.9,0.6,1.2,0.9
				c0,0.1,0.1,0.1,0.2,0.2L8.1,4.9c-0.2,0-0.3,0-0.4,0.2c-0.1,0.2,0,0.3,0.1,0.4l1.6,0.9c-0.2,0-0.5-0.1-0.7-0.1
				c-0.7,0-1.2,0.1-1.2,0.1c-0.2,0-0.2,0.2-0.2,0.4c0,0.2,0.2,0.3,0.3,0.3c0.8,0,1.1,0.2,1.5,0.4c0.1,0,0.1,0.1,0.2,0.1L7.3,7.9
				C7.2,7.9,7,8.1,7,8.2c0,0.2,0.1,0.3,0.3,0.3l1.8,0.3C9,8.9,8.7,8.9,8.4,9C7.8,9.3,7.4,9.6,7.3,9.6C7.2,9.7,7.2,9.9,7.3,10
				c0.1,0.1,0.2,0.2,0.4,0.1C8.1,10,8.4,10,8.6,10c-0.4,0.3-0.7,0.6-0.8,0.8c-0.1,0.1-0.1,0.2-0.2,0.3c0-0.1-0.1-0.1-0.1-0.1
				c-0.1,0-0.2,0-0.2,0c-0.5,0.4-0.9,0.8-1.2,1.3c-0.1,0.1-0.2,0.3-0.2,0.4c0-0.1-0.1-0.1-0.2-0.1c-0.1,0-0.2,0-0.2,0.1
				c-0.4,0.5-0.8,1-1,1.5c-0.1,0.1-0.1,0.3-0.2,0.4c0,0-0.1-0.1-0.2-0.1c-0.1,0-0.2,0-0.2,0.1c-0.4,0.5-0.7,1.1-0.8,1.6
				c0,0.1-0.1,0.3-0.1,0.4c-0.1-0.1-0.1-0.1-0.2-0.1c-0.1,0-0.2,0.1-0.2,0.1c-0.3,0.6-0.5,1.1-0.6,1.7c0,0.1,0,0.3,0,0.4
				c-0.1-0.1-0.1-0.1-0.2-0.1c-0.1,0-0.2,0.1-0.2,0.2c-0.2,0.6-0.3,1.2-0.4,1.7c0,0.1,0,0.3,0,0.4c-0.1,0-0.1,0-0.2,0
				c-0.1,0-0.1,0.1-0.2,0.2c-0.2,0.6-0.2,1.2-0.1,1.8c0,0.1,0,0.2,0,0.3c0,0-0.1,0-0.1,0c-0.1,0-0.1,0.1-0.2,0.2
				c-0.1,0.6-0.1,1.2-0.1,1.8c0,0.1,0.1,0.3,0.1,0.4c0,0-0.1,0-0.1,0c-0.1,0-0.1,0.1-0.1,0.2c-0.1,0.6-0.1,1.2,0.1,1.8
				c0,0.1,0.1,0.2,0.1,0.3c-0.1,0-0.1,0-0.2,0C0,28,0,28.1,0,28.2c0,0.7,0.1,1.2,0.2,1.8c0.1,0.2,0.1,0.3,0.2,0.4c0,0,0,0,0,0
				c-0.1,0-0.2,0-0.2,0.1c-0.1,0.1-0.1,0.1-0.1,0.2c0.1,0.6,0.3,1.2,0.5,1.7c0.1,0.1,0.1,0.2,0.2,0.3c0,0-0.1,0-0.1,0.1
				c-0.1,0.1-0.1,0.2-0.1,0.2c0.2,0.6,0.4,1.2,0.7,1.7c0.1,0.1,0.1,0.2,0.2,0.3c-0.1,0-0.1,0-0.2,0.1c-0.1,0.1-0.1,0.2,0,0.2
				c0.2,0.6,0.5,1.1,0.9,1.6c0.1,0.1,0.2,0.2,0.2,0.3c-0.1,0-0.1,0.1-0.2,0.1c0,0.1,0,0.2,0,0.2c0.3,0.6,0.6,1.1,1,1.5
				C3.3,39,3.4,39,3.5,39.1c-0.1,0-0.1,0.1-0.1,0.1c0,0.1,0,0.2,0,0.2c0.4,0.6,0.8,1,1.2,1.3C4.7,40.9,4.9,41,5,41.1c0,0,0,0-0.1,0
				c-0.1,0-0.1,0.1-0.2,0.2c0,0.1,0,0.2,0.1,0.2c0.5,0.5,0.9,0.8,1.4,1.1C6.6,42.9,7,43,7.4,43.1c0.3,0.1,0.7,0.1,0.9,0
				c0,0,0,0,0.1,0c0.8,0.6,1.7,1,2.5,1.4c0.7,0.3,1.5,0.6,2.2,0.7c0.2,0,0.3,0.1,0.5,0.1c-0.3-0.1-0.6-0.3-0.9-0.6
				c0,0-0.1-0.1-0.1-0.1c-0.5-0.1-1-0.3-1.5-0.5c-0.8-0.4-1.7-0.8-2.4-1.4c0,0,0,0,0,0c0-0.3,0-0.5-0.1-0.8c0.6,0.4,1.1,0.8,1.6,1.1
				c0.7,0.4,1.5,0.7,2.3,1c0,0,0-0.1,0-0.1c0-0.1,0.1-0.3,0.1-0.4c-0.7-0.2-1.4-0.5-2.1-0.9c-1.5-0.8-2.8-2-4-3.5
				c-0.4-0.5-0.8-1.1-1.1-1.7c0.9-0.4,2.8-1.3,4.6-2.2c0,0.1,0,0.2,0.1,0.2c0.1,0.3,0.5,0.5,0.8,0.5c0.1,0,0.2,0,0.3,0
				c0.1,0.3,0.4,0.5,0.7,0.6c0.1,0,0.3,0.1,0.4,0.1c0.1,0.2,0.2,0.3,0.3,0.4c0.3,0.2,0.8,0.2,1.1,0.2c0.2,0.2,0.3,0.3,0.6,0.4
				c0.1,0,0.1,0,0.2,0c0.2,0,0.4,0,0.5-0.1v3.1c0,0.2,0.2,0.4,0.4,0.4c0.2,0,0.4-0.2,0.4-0.4v-3.2c0.4,0.1,0.7,0,1-0.1
				c0.2-0.1,0.3-0.2,0.4-0.2c0.4,0.1,0.8,0,1-0.3c0.1-0.1,0.2-0.2,0.2-0.3c0.5,0,0.9-0.2,1.1-0.4c0.1-0.1,0.2-0.2,0.2-0.3
				c0.3,0,0.6-0.1,0.8-0.3c0.1-0.1,0.2-0.2,0.2-0.3c1.4,1.1,3.6,2,4.5,2.4c-0.3,0.5-0.7,1.1-1.1,1.6c-1.1,1.5-2.5,2.7-4,3.5
				c-0.7,0.4-1.4,0.7-2.1,0.9c0.1,0.1,0.1,0.2,0.1,0.4c0,0,0,0.1,0,0.1c0.8-0.2,1.5-0.5,2.3-1c0.6-0.3,1.1-0.7,1.6-1.1
				c-0.1,0.3-0.1,0.5-0.1,0.8c0,0,0,0,0,0c-0.2,0.2-0.9,0.6-1.8,1.1c-0.7,0.3-1.4,0.6-2.1,0.8c0,0-0.1,0-0.1,0c0,0-0.1,0.1-0.1,0.1
				c-0.2,0.3-0.6,0.5-0.9,0.6c0.4-0.1,0.8-0.1,1.2-0.3c0.8-0.2,1.5-0.5,2.2-0.8c1-0.5,1.6-0.9,1.9-1.1c0,0,0,0,0,0
				c0.3,0.1,0.6,0.1,0.9,0c0.4-0.1,0.8-0.2,1.1-0.4c0.5-0.3,0.9-0.6,1.4-1.1c0.1-0.1,0.1-0.2,0.1-0.2c0-0.1-0.1-0.2-0.2-0.2
				c0,0,0,0,0,0c0.1-0.1,0.3-0.2,0.4-0.3c0.4-0.3,0.8-0.8,1.2-1.3c0-0.1,0.1-0.2,0-0.2c0-0.1-0.1-0.1-0.1-0.1
				c0.1-0.1,0.2-0.1,0.3-0.2c0.4-0.4,0.7-0.9,1-1.5c0-0.1,0-0.2,0-0.2c0-0.1-0.1-0.1-0.2-0.1c0.1-0.1,0.2-0.2,0.3-0.3
				c0.3-0.4,0.6-0.9,0.9-1.6c0-0.1,0-0.2,0-0.2c0-0.1-0.1-0.1-0.2-0.1l0,0c0.1-0.1,0.1-0.2,0.2-0.3c0.3-0.5,0.5-1,0.7-1.6
				c0-0.1,0-0.2-0.1-0.2c-0.1-0.1-0.1-0.1-0.2-0.1c0.1-0.1,0.1-0.2,0.2-0.3C30.1,31.8,30.3,31.2,30.4,30.5z M30,28.5
				C30,28.5,30.1,28.5,30,28.5c0,0.5-0.1,0.9-0.2,1.2c-0.1,0.4-0.3,0.7-0.5,0.9c-0.3,0.3-0.5,0.5-0.6,0.5l0,0c0,0,0,0,0,0
				c-0.4-0.5-0.5-1.1-0.5-1.8c0-0.2,0-0.4,0.1-0.7c0,0,0,0,0,0c0,0,0,0,0,0c0.3,0.4,0.5,0.9,0.5,0.9c0,0.1,0.1,0.1,0.2,0.1
				c0.1,0,0.2,0,0.2-0.1C29.3,29.1,29.7,28.7,30,28.5C30,28.5,30,28.5,30,28.5z M30,26.2L30,26.2C30,26.2,30,26.2,30,26.2
				c0,0.5,0,0.9-0.1,1.2c-0.1,0.4-0.2,0.7-0.4,1C29.2,28.8,29,29,28.9,29c0,0,0,0,0,0s0,0,0,0c-0.6-0.7-0.7-1.8-0.7-2.3c0,0,0,0,0,0
				l0,0c0.3,0.4,0.6,0.8,0.6,0.8c0,0.1,0.1,0.1,0.2,0.1c0.1,0,0.1-0.1,0.2-0.1C29.4,26.8,29.7,26.4,30,26.2z M29.7,23.8
				C29.8,23.8,29.8,23.8,29.7,23.8C29.8,23.8,29.8,23.8,29.7,23.8c0.1,0.5,0.1,0.9,0,1.2c-0.1,0.4-0.2,0.7-0.3,1
				c-0.2,0.4-0.4,0.6-0.5,0.7l0,0l0,0c-0.6-0.5-0.8-1.6-0.9-2.3c0,0,0,0,0,0c0,0,0,0,0,0c0.4,0.3,0.6,0.7,0.6,0.8
				c0,0.1,0.1,0.1,0.2,0.1c0.1,0,0.1-0.1,0.2-0.1C29.2,24.5,29.5,24.1,29.7,23.8z M29.4,21.6C29.4,21.6,29.4,21.6,29.4,21.6
				L29.4,21.6c0.1,0.4,0.1,0.9,0.1,1.2c0,0.4-0.1,0.7-0.3,1c-0.2,0.4-0.4,0.6-0.5,0.7c0,0,0,0,0,0c0,0,0,0,0,0
				c-0.5-0.4-0.8-1.1-0.9-1.6c-0.1-0.2-0.1-0.4-0.1-0.7l0,0c0,0,0,0,0,0c0.4,0.3,0.7,0.7,0.7,0.7c0,0.1,0.1,0.1,0.2,0.1
				c0.1,0,0.1-0.1,0.2-0.2C28.8,22.3,29.1,21.9,29.4,21.6z M11.5,21.7C11.5,21.7,11.5,21.7,11.5,21.7c0.3-1.6,0.9-2.7,1.4-3.3
				c0.3-0.5,0.6-0.7,0.8-0.9c0,0,0.1-0.1,0.1-0.1c0.1-0.1,0.2-0.3,0.1-0.5c-0.1-0.2-0.3-0.2-0.5-0.1c0,0-0.1,0-0.2,0.1
				c-0.3,0.2-0.5,0.2-0.6,0.1c-0.1-0.1-0.2-0.2-0.1-0.4c0.1-0.3,0.4-0.8,0.6-0.9c0,0,0,0,0,0c0.8-0.9,2-0.9,2-0.9c0,0,0,0,0,0
				c0,0,0.4,0,0.8,0.1c0.6,0.2,1.1,0.7,1.5,1.3c0.5,0.9,0.8,1.9,1.1,2.9c-0.7-0.2-1.2-0.7-1.2-0.7c-0.2-0.1-0.4-0.1-0.5,0
				c-0.1,0.1-0.1,0.2-0.1,0.3c0,0.1,0.1,0.2,0.1,0.2c0,0,0.9,0.7,1.9,0.9c0.1,0.3,0.1,0.7,0.2,1.1c-0.3-0.2-0.7-0.3-1-0.3
				c-0.2-0.1-0.4-0.1-0.6-0.2c-0.7-0.3-1.3-0.7-1.3-0.7c-0.2-0.1-0.4-0.1-0.5,0.1c-0.1,0.2-0.1,0.4,0.1,0.5c0,0,0.7,0.5,1.5,0.8
				c0.2,0.1,0.4,0.1,0.7,0.2c0.9,0.2,1.3,0.4,1.3,0.8c0,0.1-0.1,0.1-0.1,0.2c-0.3,0.3-0.9,0.3-1.1,0.3c0,0,0,0,0,0H17
				c-0.2,0-1,0-1.7-0.5C13.4,21.1,12.5,21.3,11.5,21.7z M14.7,22.8h-2.5c-0.3,0-0.4-0.1-0.5-0.2c0,0,0-0.1-0.1-0.1
				C12.6,22,13.1,21.9,14.7,22.8z M15.7,27.3v-3.8h2.1c0,0,0.1,0,0.1,0c0.1,0,0.3,0,0.5,0c0.5-0.1,0.8-0.2,1.1-0.5
				c0.1-0.1,0.2-0.3,0.3-0.5c0,0,0,0,0-0.1c0-0.2,0.1-0.4,0-0.7l0-0.1c-0.2-1.5-0.5-3.4-1.7-5.7c-1-1.9-2.8-1.8-3-1.8
				c-0.2,0-1.6,0.1-2.5,1.2c-0.1,0.1-0.7,0.7-0.8,1.3c-0.1,0.5,0.1,0.9,0.5,1.1c0.1,0,0.1,0.1,0.2,0.1c-0.6,0.7-1.3,1.9-1.6,3.7
				c-0.1,0.3-0.1,0.6,0,0.8c0,0,0,0,0,0.1c0,0.3,0.1,0.5,0.3,0.7c0.2,0.2,0.5,0.4,1.1,0.4h2.7v3.8v2.3c-0.7,0-1.2,0.3-1.9,0.7
				c-1,0.6-4.2,1.3-9.6,1.9c-0.4-1.6-0.6-3.3-0.6-5c0-2.2,0.3-4.4,1-6.5c0.6-2,1.5-3.7,2.7-5.3c1.1-1.5,2.5-2.7,4-3.5
				c1.5-0.9,3.2-1.3,4.8-1.3c1.7,0,3.3,0.4,4.8,1.3c1.5,0.8,2.8,2,4,3.5c1.2,1.5,2.1,3.3,2.7,5.3c0.7,2,1,4.2,1,6.5
				c0,1.7-0.2,3.4-0.6,5c-3.3-0.2-7.2-1.4-7.3-1.4c-0.3-0.1-0.5-0.2-0.8-0.3c-0.8-0.3-1.4-0.5-2.1-0.5c0,0-0.1,0-0.1,0
				c-0.4-0.2-0.7-0.3-1.2-0.4V27.3z M20.8,10.1c-0.2,0.1-0.5,0.2-0.9,0.3c-0.2,0-0.4,0.1-0.6,0.1c-0.5,0-0.9-0.1-1.2-0.3
				c0,0,0,0,0,0c0,0,0,0,0,0c0.2-0.1,0.4-0.2,0.7-0.3c0.3-0.1,0.7-0.1,1,0C20.1,9.7,20.4,9.9,20.8,10.1C20.8,10,20.8,10,20.8,10.1
				C20.8,10.1,20.8,10.1,20.8,10.1z M21.2,11.4C21.2,11.4,21.2,11.4,21.2,11.4C21.2,11.4,21.2,11.4,21.2,11.4
				c-0.1,0.1-0.4,0.1-0.6,0.1c0,0-0.1,0-0.1,0c-0.6,0-1.1-0.2-1.6-0.6c0,0,0,0,0,0l0,0c0.2-0.1,0.5-0.1,0.7-0.1
				C20.3,10.7,20.8,10.9,21.2,11.4z M18.7,9.3c-0.2,0.1-0.6,0.2-1.2,0.3c-0.1,0-0.1,0.1-0.2,0.1c0,0.1,0,0.2,0.1,0.2
				c0,0,0.4,0.3,0.8,0.7l0,0c0,0,0,0,0,0h0c-0.5,0-1.5-0.2-2.3-1c0,0,0,0,0,0c0.1-0.1,0.3-0.3,0.6-0.4C17.1,9.1,17.8,9.1,18.7,9.3
				L18.7,9.3C18.7,9.3,18.7,9.3,18.7,9.3z M16.2,8.9c-0.2,0.1-0.5,0.4-1.1,0.5c-0.1,0-0.1,0.1-0.1,0.2c0,0.1,0,0.2,0.1,0.2
				c0,0,0.5,0.2,0.9,0.5c0,0,0,0,0,0c0,0,0,0,0,0c-0.1,0-0.3,0-0.5,0c-0.6,0-1.3-0.1-1.9-0.6c0,0,0,0,0,0c0.1-0.1,0.3-0.3,0.5-0.5
				C14.6,9,15.4,8.8,16.2,8.9C16.2,8.9,16.2,8.9,16.2,8.9L16.2,8.9z M13.8,9c-0.1,0.2-0.4,0.5-1,0.8c-0.1,0-0.1,0.1-0.1,0.2
				c0,0.1,0.1,0.1,0.2,0.2c0,0,0.5,0.1,1,0.3c0,0,0,0,0,0c0,0,0,0,0,0c-0.2,0.1-0.4,0.1-0.6,0.2c-0.2,0-0.4,0.1-0.7,0.1
				c-0.4,0-0.8-0.1-1.2-0.2c0,0,0,0,0,0c0.1-0.1,0.2-0.4,0.4-0.6C12.2,9.4,12.9,9.1,13.8,9C13.7,8.9,13.8,8.9,13.8,9L13.8,9z
				 M10.6,10.5c-0.1,0.1-0.1,0.1-0.1,0.2c0,0.1,0.1,0.1,0.2,0.1h0c0,0,0.2,0,0.5,0c0.2,0,0.4,0.1,0.5,0.1c0,0,0,0,0,0c0,0,0,0,0,0
				c-0.2,0.1-0.4,0.2-0.6,0.3c-0.5,0.2-0.8,0.2-1.2,0.2c-0.3,0-0.5,0-0.7-0.1c0,0,0,0,0,0c0.1-0.4,0.5-1.4,2.2-2c0,0,0,0,0,0l0,0
				C11.3,9.6,11.1,10,10.6,10.5z M28.2,20.8c0-0.7,0.3-1.2,0.5-1.5c0,0,0,0,0,0l0,0c0.1,0.4,0.2,0.8,0.2,1.2c0,0.4,0,0.8-0.1,1.1
				c-0.1,0.4-0.3,0.6-0.4,0.7c0,0,0,0,0,0l0,0c-0.5-0.3-0.9-0.8-1.1-1.4c-0.1-0.2-0.1-0.4-0.2-0.6c0,0,0,0,0,0l0,0
				c0.4,0.3,0.8,0.6,0.8,0.6C27.9,21,28,21,28.1,21C28.1,21,28.2,20.9,28.2,20.8z M27.4,18.7c0-0.7,0.2-1.2,0.3-1.5c0,0,0,0,0,0
				c0,0,0,0,0,0c0.2,0.4,0.3,0.8,0.4,1.2c0.1,0.4,0,0.7,0,1.1c-0.1,0.4-0.3,0.7-0.3,0.8l0,0c0,0,0,0,0,0c-0.5-0.3-0.9-0.7-1.3-1.3
				c-0.1-0.2-0.2-0.4-0.3-0.6c0,0,0,0,0,0l0,0c0.5,0.2,0.9,0.6,0.9,0.6c0.1,0.1,0.1,0.1,0.2,0h0C27.4,18.8,27.4,18.7,27.4,18.7z
				 M26.3,16.9L26.3,16.9c0.1,0,0.1-0.1,0.1-0.2c-0.1-0.7,0-1.2,0.1-1.5c0,0,0,0,0,0l0,0c0.2,0.4,0.4,0.8,0.5,1.1
				c0.1,0.4,0.1,0.7,0.1,1.1c0,0.4-0.2,0.7-0.2,0.8c0,0,0,0,0,0l0,0c-0.6-0.2-1.1-0.6-1.5-1.2c-0.1-0.2-0.2-0.4-0.3-0.6c0,0,0,0,0,0
				c0,0,0,0,0,0c0.5,0.1,0.9,0.5,0.9,0.5C26.2,16.9,26.3,16.9,26.3,16.9z M24.9,15c0.1,0,0.2,0,0.2,0c0.1,0,0.1-0.1,0.1-0.2
				c-0.2-0.6-0.2-1.2-0.1-1.5c0,0,0,0,0,0c0,0,0,0,0,0c0.3,0.3,0.5,0.7,0.7,1c0.2,0.4,0.2,0.7,0.3,1.1c0,0.4,0,0.7-0.1,0.8
				c0,0,0,0,0,0l0,0c-0.6-0.1-1.1-0.4-1.6-0.9c-0.2-0.2-0.3-0.4-0.4-0.6c0,0,0,0,0,0l0,0C24.5,14.7,24.9,15,24.9,15z M23.5,13.3
				c0.1,0,0.2,0,0.2-0.1c0.1-0.1,0.1-0.1,0-0.2c-0.3-0.6-0.4-1.2-0.4-1.5l0,0c0,0,0,0,0,0c0.3,0.3,0.6,0.6,0.8,0.9
				c0.2,0.3,0.4,0.7,0.4,1c0.1,0.4,0.1,0.7,0.1,0.8c0,0,0,0,0,0c0,0,0,0,0,0c-0.6,0-1.2-0.4-1.6-0.6c-0.2-0.1-0.4-0.3-0.6-0.5
				c0,0,0,0,0,0c0,0,0,0,0,0c0,0,0,0,0.1,0C23,13.2,23.4,13.3,23.5,13.3z M22.9,11.8c0.2,0.4,0.2,0.8,0.2,0.9c0,0,0,0,0,0
				c0,0-0.1,0-0.1,0c-0.8,0-1.7-0.5-2.2-0.9c0,0,0,0,0,0c0,0,0,0,0,0c0.5-0.1,1,0,1,0c0.1,0,0.2,0,0.2-0.1c0-0.1,0-0.2,0-0.2
				c-0.3-0.4-0.5-0.8-0.6-1.2l0,0c0,0,0,0,0,0C22.1,10.7,22.6,11.2,22.9,11.8z M8.5,9.5c0,0,0.1,0,0.1,0c0.5-0.2,0.9-0.3,1.1-0.3
				c0.5-0.1,0.9-0.3,0.9-0.4c0,0,0.1-0.1,0.1-0.1c0-0.1-0.1-0.1-0.1-0.1L8.3,8.2l2.3-0.3c0.1,0,0.1-0.1,0.1-0.1c0-0.1,0-0.1-0.1-0.1
				c0,0-0.5-0.1-1-0.3C9.4,7.2,9.3,7.2,9.2,7.1C9,7,8.8,6.9,8.5,6.8c0,0,0.1,0,0.1,0c0.5,0,0.9,0.1,1.2,0.1c0.5,0.1,0.9,0,1,0
				c0.1,0,0.1-0.1,0.1-0.1c0-0.1,0-0.1-0.1-0.1l-2-1.2l2.2,0.6c0.1,0,0.1,0,0.2-0.1c0-0.1,0-0.1-0.1-0.2c0,0-0.4-0.3-0.8-0.7
				c-0.1-0.1-0.2-0.2-0.3-0.3C9.9,4.7,9.8,4.5,9.6,4.3c0,0,0.1,0,0.1,0.1c0.4,0.2,0.8,0.5,1,0.6c0.4,0.3,0.9,0.4,0.9,0.4
				c0.1,0,0.1,0,0.1-0.1c0,0,0-0.1,0-0.2l-1.4-1.8l1.9,1.4c0.1,0,0.1,0,0.2,0c0,0,0.1-0.1,0-0.2c0,0-0.3-0.4-0.5-0.9
				c-0.1-0.2-0.1-0.3-0.1-0.4c-0.1-0.2-0.1-0.4-0.3-0.7c0,0,0.1,0.1,0.1,0.1c0.3,0.4,0.6,0.7,0.7,0.9c0.3,0.4,0.6,0.7,0.7,0.7
				c0,0,0.1,0,0.2,0c0,0,0.1-0.1,0.1-0.1l-0.6-2.2l1.2,2c0,0.1,0.1,0.1,0.2,0.1C14,3.8,14,3.7,14,3.7c0,0-0.1-0.5-0.1-1.1
				c0-0.2,0-0.3,0-0.4c0-0.2,0-0.4,0-0.7c0,0,0,0.1,0,0.1c0.2,0.5,0.3,0.9,0.3,1.1c0.1,0.5,0.3,0.9,0.3,0.9c0,0,0.1,0.1,0.1,0.1
				c0.1,0,0.1-0.1,0.1-0.1l0.3-2.3l0.3,2.3c0,0.1,0.1,0.1,0.1,0.1c0.1,0,0.1,0,0.1-0.1c0,0,0.1-0.5,0.3-1c0.1-0.1,0.1-0.3,0.2-0.4
				c0.1-0.2,0.2-0.4,0.3-0.7c0,0,0,0.1,0,0.1c0,0.5-0.1,0.9-0.1,1.2c-0.1,0.5,0,0.9,0,1c0,0.1,0.1,0.1,0.1,0.1c0.1,0,0.1,0,0.1-0.1
				l1.2-2L17.4,4c0,0.1,0,0.1,0.1,0.2c0.1,0,0.1,0,0.2-0.1c0,0,0.3-0.4,0.7-0.8c0.1-0.1,0.2-0.2,0.3-0.3c0.2-0.1,0.4-0.3,0.5-0.5
				c0,0,0,0.1-0.1,0.1c-0.2,0.4-0.5,0.8-0.6,1c-0.3,0.4-0.4,0.9-0.4,0.9c0,0.1,0,0.1,0.1,0.1c0,0,0.1,0,0.2,0l1.8-1.4l-1.4,1.9
				c0,0.1,0,0.1,0,0.2c0,0,0.1,0.1,0.2,0c0,0,0.4-0.3,0.9-0.5c0.2-0.1,0.3-0.1,0.4-0.1c0.2-0.1,0.4-0.1,0.7-0.3c0,0-0.1,0.1-0.1,0.1
				c-0.4,0.3-0.7,0.6-0.9,0.7c-0.4,0.3-0.7,0.7-0.7,0.7c0,0,0,0.1,0,0.2c0,0,0.1,0.1,0.1,0.1l2.2-0.6l-2,1.2c-0.1,0-0.1,0.1-0.1,0.2
				C19.7,7,19.8,7,19.8,7c0.1,0,0.5-0.1,1.1-0.1c0.2,0,0.3,0,0.4,0c0.2,0,0.4,0,0.7,0c0,0-0.1,0-0.1,0c-0.5,0.2-0.9,0.3-1.1,0.3
				c-0.5,0.1-0.9,0.3-0.9,0.4c0,0-0.1,0.1-0.1,0.1c0,0.1,0.1,0.1,0.1,0.1l2.3,0.3l-2.3,0.3c-0.1,0-0.1,0.1-0.1,0.1
				c0,0.1,0,0.1,0.1,0.1c0.1,0,0.5,0.1,1,0.3c0.1,0.1,0.3,0.1,0.4,0.2c0.2,0.1,0.4,0.2,0.7,0.3c0,0-0.1,0-0.1,0
				c-0.5,0-0.9-0.1-1.2-0.1l-0.1,0c-0.4-0.2-0.8-0.3-1.3-0.3c0,0,0,0,0,0c0-0.1-0.1-0.2-0.2-0.2c-0.6-0.2-1.2-0.3-1.7-0.3
				c-0.2,0-0.4,0-0.6,0c0,0,0,0,0-0.1c0-0.1-0.1-0.1-0.2-0.1c-0.7-0.1-1.2-0.1-1.8,0c-0.2,0-0.4,0.1-0.6,0.2c0-0.1,0-0.1-0.1-0.2
				c-0.1-0.1-0.1-0.1-0.2-0.1c-0.7,0.1-1.2,0.2-1.7,0.4C12.2,8.9,12.1,9,12,9c0-0.1,0-0.1-0.1-0.2c-0.1-0.1-0.2-0.1-0.2-0.1
				C11,9,10.5,9.2,10,9.5l0,0c-0.1,0-0.2,0-0.4,0c-0.1,0-0.4,0-0.4,0C9,9.5,8.8,9.5,8.5,9.5z M9.1,10.2L9.1,10.2
				C9.1,10.2,9.1,10.2,9.1,10.2c0,0.4-0.1,0.9-0.5,1.5c0,0.1,0,0.1,0,0.2c0,0.1,0.1,0.1,0.2,0.1c0,0,0.5-0.1,1-0.1c0,0,0,0,0,0l0,0
				c-0.4,0.3-1.3,0.9-2.2,0.9c0,0-0.1,0-0.1,0c0,0,0,0,0,0C7.5,12.4,7.6,11.2,9.1,10.2z M6,13.5c0.1-0.3,0.2-0.7,0.4-1
				c0.2-0.3,0.5-0.6,0.8-0.9l0,0c0,0,0,0,0,0c0,0.4,0,0.9-0.4,1.5c0,0.1,0,0.2,0,0.2C7,13.4,7,13.4,7.1,13.4c0,0,0.5-0.2,1-0.2
				c0,0,0,0,0,0c0,0,0,0,0,0c-0.2,0.2-0.4,0.4-0.6,0.5c-0.4,0.3-1,0.7-1.5,0.7c0,0,0,0-0.1,0c0,0,0,0,0,0C5.9,14.2,5.9,13.9,6,13.5z
				 M5.4,13.2C5.4,13.2,5.5,13.2,5.4,13.2C5.5,13.2,5.5,13.2,5.4,13.2c0.1,0.4,0.1,0.9-0.1,1.6c0,0.1,0,0.2,0.1,0.2
				c0.1,0,0.2,0.1,0.2,0c0,0,0.4-0.3,1-0.3c0,0,0,0,0,0c0,0,0,0,0,0c-0.3,0.5-1.1,1.3-2,1.5l0,0l0,0C4.5,15.8,4.3,14.6,5.4,13.2z
				 M3.4,16.2c0.1-0.4,0.3-0.7,0.5-1.1c0,0,0,0,0,0c0,0,0,0,0,0c0.1,0.3,0.2,0.9,0.1,1.6c0,0.1,0,0.2,0.1,0.2c0.1,0,0.2,0,0.2,0
				c0,0,0.4-0.4,0.9-0.5c0,0,0,0,0,0c0,0,0,0,0,0C5.3,16.6,5.1,16.8,5,17c-0.4,0.6-0.9,0.9-1.5,1.1l0,0c0,0,0,0,0,0
				c-0.1-0.1-0.2-0.4-0.2-0.8C3.3,17,3.3,16.6,3.4,16.2z M2.3,18.3c0.1-0.4,0.2-0.8,0.4-1.2c0,0,0,0,0,0h0l0,0
				C2.9,17.5,3.1,18,3,18.7c0,0.1,0,0.1,0.1,0.2c0.1,0,0.2,0,0.2,0c0,0,0.4-0.4,0.9-0.6c0,0,0,0,0,0c0,0,0,0,0,0
				c0,0.2-0.1,0.4-0.2,0.6c-0.3,0.6-0.8,1.1-1.4,1.4l0,0c0,0,0,0,0,0c-0.1-0.1-0.2-0.4-0.3-0.8C2.3,19.1,2.3,18.7,2.3,18.3z
				 M1.8,19.3C1.8,19.3,1.8,19.3,1.8,19.3C1.8,19.3,1.8,19.3,1.8,19.3c0.2,0.3,0.5,0.8,0.5,1.5c0,0.1,0.1,0.1,0.1,0.2
				c0.1,0,0.2,0,0.2-0.1c0,0,0.3-0.4,0.8-0.7l0,0c0,0,0,0,0,0c0,0.2-0.1,0.4-0.1,0.6c-0.2,0.6-0.6,1.2-1.2,1.5c0,0,0,0,0,0
				c0,0,0,0,0,0C2,22.2,1.8,22,1.7,21.6c-0.1-0.3-0.2-0.7-0.2-1.1C1.6,20.2,1.6,19.7,1.8,19.3z M1.1,21.6
				C1.1,21.6,1.1,21.6,1.1,21.6C1.1,21.6,1.1,21.6,1.1,21.6c0.3,0.3,0.6,0.7,0.7,1.4c0,0.1,0.1,0.1,0.2,0.2c0.1,0,0.2,0,0.2-0.1
				c0,0,0.3-0.4,0.7-0.8c0,0,0,0,0,0c0,0,0,0,0,0c0,0.2,0,0.4-0.1,0.6c-0.2,0.7-0.5,1.2-1,1.6l0,0c0,0,0,0,0,0
				c-0.1-0.1-0.3-0.3-0.5-0.7c-0.2-0.3-0.3-0.7-0.3-1C1,22.4,1,22,1.1,21.6z M0.7,23.8C0.7,23.8,0.8,23.8,0.7,23.8
				C0.8,23.8,0.8,23.8,0.7,23.8c0.3,0.3,0.6,0.7,0.8,1.4c0,0.1,0.1,0.1,0.2,0.1c0.1,0,0.2,0,0.2-0.1c0,0,0.2-0.4,0.6-0.8
				c0,0,0,0,0,0c0,0,0,0,0,0c0,0.2,0,0.5-0.1,0.7c-0.1,0.7-0.4,1.2-0.8,1.6l0,0l0,0c-0.1-0.1-0.3-0.3-0.5-0.7
				c-0.2-0.3-0.3-0.7-0.3-1C0.7,24.7,0.7,24.3,0.7,23.8z M0.6,26.2C0.6,26.2,0.6,26.2,0.6,26.2C0.6,26.2,0.6,26.2,0.6,26.2
				c0.1,0,0.1,0.1,0.2,0.1c0.2,0.2,0.5,0.6,0.7,1.2c0,0.1,0.1,0.1,0.2,0.1c0.1,0,0.2-0.1,0.2-0.2v0c0,0,0.1-0.5,0.5-0.9c0,0,0,0,0,0
				l0,0c0,0.3,0.1,0.7,0,1.1c-0.1,0.5-0.3,1-0.7,1.3l0,0c0,0,0,0,0,0C1.3,28.8,0.4,28.1,0.6,26.2z M0.5,28.5
				C0.5,28.5,0.5,28.5,0.5,28.5c0.1,0,0.1,0.1,0.2,0.1c0.2,0.2,0.6,0.6,0.8,1.1c0,0.1,0.1,0.1,0.2,0.1l0,0h0c0.1,0,0.1,0,0.2-0.1
				c0,0,0.2-0.5,0.6-0.9c0,0,0,0,0,0l0,0c0.1,0.5,0.2,1.5-0.5,2.4l0,0c0,0,0,0,0,0C1.4,31.1,0.5,30.4,0.5,28.5
				C0.5,28.6,0.5,28.5,0.5,28.5z M0.6,31C0.6,31,0.6,30.9,0.6,31L0.6,31c0.3,0.1,0.8,0.5,1.2,1c0,0.1,0.1,0.1,0.2,0.1
				c0.1,0,0.1-0.1,0.2-0.1v0l0,0l0,0c0,0,0.1-0.6,0.4-1c0,0,0,0,0,0c0,0,0,0,0,0c0.1,0.2,0.2,0.4,0.2,0.6c0.1,0.7,0,1.3-0.3,1.9
				c0,0,0,0,0,0l0,0c-0.1,0-0.4-0.2-0.7-0.4c-0.3-0.2-0.5-0.5-0.7-0.9C0.8,31.8,0.7,31.4,0.6,31z M1.1,33.2L1.1,33.2
				C1.1,33.2,1.1,33.2,1.1,33.2c0.1,0,0.1,0,0.2,0.1c0.3,0.1,0.7,0.4,1.1,0.9c0,0.1,0.1,0.1,0.2,0.1c0.1,0,0.1-0.1,0.1-0.2
				c0,0,0.1-0.5,0.3-1c0,0,0,0,0,0h0l0,0c0.2,0.5,0.5,1.5,0.1,2.5c0,0,0,0,0,0l0,0C2.7,35.4,1.7,34.9,1.1,33.2z M2.5,36.5
				c-0.2-0.3-0.5-0.7-0.6-1.1c0,0,0,0,0,0c0,0,0,0,0,0c0.1,0,0.1,0,0.2,0.1c0.3,0.1,0.7,0.3,1.1,0.7c0.1,0.1,0.1,0.1,0.2,0
				c0.1,0,0.1-0.1,0.1-0.2c0,0,0-0.5,0.2-1c0,0,0,0,0,0c0,0,0,0,0,0c0.1,0.2,0.2,0.4,0.3,0.6c0.2,0.7,0.3,1.3,0.1,1.8c0,0,0,0,0,0
				l0,0c-0.1,0-0.4-0.1-0.8-0.3C3,37,2.7,36.8,2.5,36.5z M2.8,37.6L2.8,37.6C2.8,37.5,2.8,37.5,2.8,37.6c0.4,0,0.9,0.2,1.4,0.6
				c0.1,0,0.1,0.1,0.2,0c0.1,0,0.1-0.1,0.1-0.2c0,0-0.1-0.5,0.1-1c0,0,0,0,0,0c0,0,0,0,0,0c0.1,0.2,0.2,0.4,0.3,0.6
				c0.2,0.4,0.4,1.1,0.3,1.8c0,0,0,0,0,0h0c-0.1,0-0.5,0-0.8-0.2c-0.3-0.1-0.6-0.4-0.9-0.6C3.3,38.3,3,37.9,2.8,37.6z M7.3,41.4
				c0,0-0.2-0.5-0.2-1c0,0,0,0,0,0l0,0c0.5,0.4,1.2,1.2,1.2,2.2c0,0,0,0,0,0c-0.1,0-0.2,0-0.3,0c-0.1,0-0.3,0-0.5,0
				c-0.6-0.1-1.3-0.5-2-1.1c0,0,0,0,0,0c0,0,0,0,0,0c0.4,0,0.9,0,1.6,0.2c0.1,0,0.2,0,0.2,0C7.3,41.6,7.3,41.5,7.3,41.4z M5.5,40
				c0.1,0,0.2,0,0.2,0c0.1,0,0.1-0.1,0.1-0.2c0,0-0.1-0.5-0.1-1c0,0,0,0,0,0c0,0,0,0,0,0c0.4,0.4,1,1.3,0.9,2.3l0,0c0,0-0.1,0-0.1,0
				c-0.2,0-0.4,0-0.7-0.1c-0.3-0.1-0.7-0.3-1-0.5c-0.3-0.2-0.6-0.5-0.9-0.9l0,0c0,0,0,0,0,0C4.4,39.6,4.9,39.7,5.5,40z M13,35
				c-0.1,0-0.1,0.1-0.2,0.1c-0.4,0.3-0.7,0.6-0.8,0.9c-0.1,0-0.1,0-0.2,0c-0.3-0.1-0.3-0.3-0.3-0.3c0-0.2,0.1-0.3,0.3-0.5
				c0.3-0.3,0.5-0.4,0.7-0.4c0.1,0,0.1,0,0.2,0C13,34.8,13,34.9,13,35C13.1,34.9,13.1,35,13,35z M13.4,36.6c-0.1,0-0.5,0.1-0.6-0.1
				c0,0-0.1-0.1-0.1-0.2c0-0.3,0.3-0.6,0.5-0.7c0.3-0.2,0.6-0.4,0.7-0.4c0.1,0,0.2,0,0.3,0.1c0.1,0.1,0.1,0.1,0.1,0.2
				c0,0.1-0.1,0.2-0.2,0.3C13.8,36,13.6,36.3,13.4,36.6z M15.1,36.6c-0.1,0.1-0.5,0.4-0.8,0.3c0,0-0.1,0-0.2-0.1
				c0.1-0.3,0.4-0.5,0.7-0.6c0.4-0.2,0.5-0.1,0.5-0.1c0.1,0.1,0.1,0.2,0.1,0.2C15.4,36.4,15.2,36.6,15.1,36.6
				C15.1,36.6,15.1,36.6,15.1,36.6z M11.6,34.5c0,0-0.1,0.1-0.2,0.1c-0.2,0.2-0.4,0.4-0.5,0.7c0,0-0.1,0-0.1,0
				c-0.2,0-0.3-0.1-0.3-0.2c0,0-0.1-0.1,0.1-0.3c0.2-0.2,0.6-0.4,0.8-0.4c0,0,0.1,0,0.1,0c0,0,0,0,0,0
				C11.6,34.5,11.6,34.5,11.6,34.5z M19.9,34.9C19.8,35,19.7,35,19.5,35c-0.3-0.4-1-1.2-1.9-1.6c-0.1,0-0.2,0-0.2,0
				c-0.1,0-0.1,0.1-0.2,0.2c0,0.1,0,0.2,0,0.2c0,0.1,0.1,0.1,0.2,0.2c0.8,0.4,1.4,1.1,1.6,1.5c0,0.1-0.1,0.1-0.1,0.1
				c-0.1,0.1-0.3,0.2-0.5,0.2c-0.1-0.2-0.2-0.4-0.4-0.6c-0.3-0.3-0.8-0.7-0.8-0.7c-0.1,0-0.2-0.1-0.2-0.1c-0.1,0-0.2,0.1-0.2,0.1
				c0,0.1-0.1,0.2-0.1,0.2c0,0.1,0.1,0.2,0.1,0.2c0.1,0.1,0.6,0.4,0.7,0.6c0.2,0.2,0.3,0.4,0.3,0.5c0,0.1-0.1,0.1-0.1,0.2
				c-0.1,0.1-0.3,0.2-0.4,0.1c-0.1-0.2-0.3-0.5-0.6-0.9c-0.1-0.1-0.3-0.1-0.5,0c-0.1,0.1-0.1,0.1-0.1,0.2c0,0.1,0,0.2,0.1,0.2
				c0.2,0.3,0.4,0.5,0.4,0.6c-0.1,0-0.1,0.1-0.2,0.1c-0.2,0.1-0.3,0.1-0.5,0.1c0.1-0.1,0.1-0.3,0.1-0.4c0-0.2,0-0.4-0.3-0.7
				c-0.1-0.1-0.4-0.3-0.8-0.2c0-0.2-0.1-0.4-0.3-0.5c-0.3-0.3-0.6-0.3-1-0.2l0,0c-0.1-0.1-0.2-0.3-0.5-0.5c-0.3-0.1-0.6-0.2-0.9-0.1
				c-0.3-0.2-0.6-0.3-0.7-0.3c-0.4-0.1-1,0.1-1.3,0.5c-1.8,1-4.2,2-5.2,2.5c-0.5-0.9-0.9-2-1.3-3c-0.1-0.3-0.2-0.6-0.3-0.9
				c2.7-0.3,4.9-0.6,6.5-0.9c1.7-0.3,2.7-0.7,3.3-1c0.6-0.4,1.1-0.7,1.7-0.6c0.1,0,0.3,0,0.4,0c-0.1,0-0.2,0.1-0.3,0.2
				c-0.3,0.2-0.4,0.3-0.5,0.4c-0.1,0.1-0.2,0.2-0.4,0.3c-0.1,0.1-0.3,0.2-0.4,0.2c-0.4,0.2-0.7,0.3-0.8,0.6
				c-0.1,0.3-0.1,0.5,0.1,0.8c0.3,0.4,0.8,0.4,1.1,0.4c0.4,0,0.9-0.2,1.3-0.4c0.1-0.1,0.3-0.2,0.4-0.2c0.2-0.1,0.3-0.2,0.4-0.2
				c0,0,0,0,0,0c0.3-0.1,0.7-0.1,1.1,0.1c0.4,0.2,0.8,0.4,1.1,0.6c0.8,0.5,1.5,1.3,1.7,1.5C20.1,34.7,20,34.8,19.9,34.9z M21.1,34.7
				c-0.3-0.2-0.5-0.4-0.6-0.5l0,0l0,0c0,0,0,0,0-0.1c-0.3-0.3-0.9-1-1.7-1.5c-0.6-0.4-1.7-1.1-2.8-0.8c-0.2,0-0.4,0.2-0.6,0.3
				c-0.1,0.1-0.2,0.1-0.3,0.2c-0.3,0.2-0.8,0.3-1,0.3c-0.3,0-0.5,0-0.6-0.1c-0.1-0.1-0.1-0.1-0.1-0.2c0.1-0.1,0.3-0.2,0.5-0.3
				c0.2-0.1,0.4-0.2,0.5-0.3c0.2-0.1,0.3-0.2,0.5-0.4c0.1-0.1,0.3-0.2,0.5-0.4c0.3-0.2,0.7-0.2,1.2-0.2l0,0c0.1,0,0.2,0,0.3,0
				c0.1,0,0.1,0,0.2,0c0.6,0,1.1,0.2,1.9,0.4c0.2,0.1,0.5,0.2,0.8,0.3c0,0,1.1,0.3,2.5,0.7c1.2,0.3,3.1,0.7,4.8,0.8
				c-0.1,0.3-0.2,0.6-0.2,0.8c-0.4,1.1-0.8,2.2-1.3,3.1C24.5,36.6,22.5,35.7,21.1,34.7z M25.1,41.5c-0.8,0.8-1.5,1-2,1.1
				c-0.2,0-0.3,0-0.5,0c-0.1,0-0.2,0-0.3,0c0,0,0,0,0,0c0-0.6,0.2-1.2,0.7-1.7c0.1-0.2,0.3-0.3,0.5-0.5l0,0c0,0,0,0,0,0
				c-0.1,0.5-0.2,1-0.2,1c0,0.1,0,0.2,0,0.2c0.1,0.1,0.1,0.1,0.2,0C24.2,41.4,24.7,41.4,25.1,41.5C25.1,41.5,25.1,41.5,25.1,41.5
				C25.1,41.5,25.1,41.5,25.1,41.5z M26.5,39.6c-0.3,0.4-0.6,0.7-0.9,0.9c-0.3,0.2-0.6,0.4-1,0.5c-0.3,0.1-0.6,0.1-0.7,0.1
				c0,0-0.1,0-0.1,0c0,0,0,0,0,0c0-0.6,0.1-1.2,0.5-1.8c0.1-0.2,0.3-0.4,0.4-0.5c0,0,0,0,0,0c0,0,0,0,0,0c0,0.5-0.1,1-0.1,1
				c0,0.1,0,0.2,0.1,0.2c0.1,0,0.1,0,0.2,0C25.6,39.7,26.2,39.6,26.5,39.6C26.5,39.5,26.5,39.5,26.5,39.6L26.5,39.6z M27,38.5
				c-0.3,0.3-0.6,0.5-0.9,0.6c-0.4,0.2-0.7,0.2-0.8,0.2h0c0,0,0,0,0,0c-0.1-0.6,0-1.2,0.3-1.8c0.1-0.2,0.2-0.4,0.3-0.6c0,0,0,0,0,0
				c0,0,0,0,0,0c0.1,0.5,0.1,1,0.1,1c0,0.1,0,0.2,0.1,0.2c0.1,0,0.2,0,0.2,0c0.5-0.4,1.1-0.6,1.4-0.7c0,0,0,0,0,0l0,0
				C27.5,38,27.3,38.3,27,38.5z M28.1,36.5c-0.2,0.3-0.5,0.5-0.8,0.7c-0.3,0.2-0.6,0.3-0.8,0.3l0,0c0,0,0,0,0,0
				c-0.2-0.6-0.1-1.2,0.1-1.8c0.1-0.2,0.2-0.4,0.3-0.6c0,0,0,0,0,0c0,0,0,0,0,0c0.2,0.5,0.2,1,0.2,1c0,0.1,0.1,0.2,0.1,0.2
				c0.1,0,0.2,0,0.2-0.1h0c0.4-0.5,0.9-0.7,1.1-0.8c0.1,0,0.1,0,0.2-0.1c0,0,0,0,0,0c0,0,0,0,0,0C28.5,35.8,28.3,36.2,28.1,36.5z
				 M28.9,34.3c-0.2,0.3-0.5,0.6-0.7,0.8c-0.3,0.2-0.6,0.3-0.8,0.4l0,0l0,0c-0.3-0.7-0.2-1.4-0.1-1.8c0.1-0.2,0.1-0.4,0.2-0.6l0,0
				l0,0l0,0c0.2,0.5,0.3,1,0.3,1c0,0.1,0.1,0.1,0.1,0.2c0.1,0,0.2,0,0.2-0.1c0.4-0.5,0.9-0.8,1.3-0.9c0,0,0,0,0,0c0,0,0,0,0,0
				C29.3,33.6,29.1,34,28.9,34.3z M29.5,32c-0.2,0.3-0.4,0.6-0.6,0.9c-0.3,0.3-0.6,0.4-0.7,0.5c0,0,0,0,0,0c0,0,0,0,0,0
				c-0.3-0.5-0.4-1.2-0.3-1.9c0-0.2,0.1-0.4,0.1-0.7c0,0,0,0,0,0c0,0,0,0,0,0c0.3,0.4,0.4,1,0.4,1c0,0.1,0.1,0.1,0.2,0.1
				c0.1,0,0.2,0,0.2-0.1c0.4-0.6,0.8-0.9,1.1-1.1c0,0,0,0,0,0c0,0,0,0,0,0C29.8,31.3,29.6,31.7,29.5,32z"/>
			<path fill="#FFC10E" d="M19.4,9.2c0.4,0,0.8,0.1,1.3,0.3l0.1,0c0.2,0,0.7,0.1,1.2,0.1c0,0,0.1,0,0.1,0c-0.3-0.1-0.5-0.2-0.7-0.3
				c-0.1-0.1-0.3-0.1-0.4-0.2c-0.5-0.2-1-0.3-1-0.3c-0.1,0-0.1-0.1-0.1-0.1c0-0.1,0-0.1,0.1-0.1l2.3-0.3l-2.3-0.3
				c-0.1,0-0.1,0-0.1-0.1c0-0.1,0-0.1,0.1-0.1c0,0,0.4-0.2,0.9-0.4c0.2,0,0.7-0.2,1.1-0.3c0,0,0.1,0,0.1,0c-0.3,0-0.5,0-0.7,0
				c-0.1,0-0.3,0-0.4,0c-0.5,0-1,0.1-1.1,0.1c-0.1,0-0.1,0-0.2-0.1c0-0.1,0-0.1,0.1-0.2l2-1.2l-2.2,0.6c-0.1,0-0.1,0-0.1-0.1
				c0,0,0-0.1,0-0.2c0,0,0.3-0.4,0.7-0.7c0.2-0.1,0.6-0.4,0.9-0.7c0,0,0.1-0.1,0.1-0.1c-0.2,0.1-0.5,0.2-0.7,0.3
				c-0.1,0-0.3,0.1-0.4,0.1C19.4,5,19,5.3,19,5.3c-0.1,0-0.1,0-0.2,0c0,0-0.1-0.1,0-0.2l1.4-1.9l-1.8,1.4c0,0-0.1,0-0.2,0
				c0,0-0.1-0.1-0.1-0.1c0,0,0.1-0.4,0.4-0.9c0.1-0.2,0.4-0.6,0.6-1c0,0,0-0.1,0.1-0.1C19,2.7,18.8,2.9,18.6,3
				c-0.1,0.1-0.2,0.2-0.3,0.3c-0.4,0.4-0.6,0.8-0.7,0.8c0,0.1-0.1,0.1-0.2,0.1c-0.1,0-0.1-0.1-0.1-0.2l0.6-2.2l-1.2,2
				c0,0-0.1,0.1-0.1,0.1c-0.1,0-0.1-0.1-0.1-0.1c0,0-0.1-0.4,0-1c0-0.2,0.1-0.7,0.1-1.2c0,0,0-0.1,0-0.1c-0.1,0.3-0.2,0.5-0.3,0.7
				c-0.1,0.1-0.1,0.3-0.2,0.4c-0.2,0.5-0.3,1-0.3,1c0,0.1-0.1,0.1-0.1,0.1c-0.1,0-0.1,0-0.1-0.1l-0.3-2.3l-0.3,2.3
				c0,0.1,0,0.1-0.1,0.1c-0.1,0-0.1,0-0.1-0.1c0,0-0.2-0.4-0.3-0.9c0-0.2-0.2-0.7-0.3-1.1c0,0,0-0.1,0-0.1c0,0.3,0,0.5,0,0.7
				c0,0.1,0,0.3,0,0.4c0,0.6,0.1,1,0.1,1.1c0,0.1,0,0.1-0.1,0.2c-0.1,0-0.1,0-0.2-0.1l-1.2-2L13.2,4c0,0.1,0,0.1-0.1,0.1
				c0,0-0.1,0-0.2,0c0,0-0.4-0.3-0.7-0.7c-0.1-0.2-0.4-0.6-0.7-0.9c0,0-0.1-0.1-0.1-0.1c0.1,0.2,0.2,0.5,0.3,0.7
				c0,0.1,0.1,0.3,0.1,0.4c0.2,0.5,0.5,0.9,0.5,0.9c0,0.1,0,0.1,0,0.2c0,0-0.1,0.1-0.2,0l-1.9-1.4l1.4,1.8c0,0,0,0.1,0,0.2
				c0,0-0.1,0.1-0.1,0.1c0,0-0.4-0.1-0.9-0.4c-0.2-0.1-0.6-0.4-1-0.6c0,0-0.1,0-0.1-0.1c0.2,0.2,0.3,0.3,0.5,0.5
				c0.1,0.1,0.2,0.2,0.3,0.3c0.4,0.4,0.8,0.7,0.8,0.7c0.1,0,0.1,0.1,0.1,0.2c0,0.1-0.1,0.1-0.2,0.1L8.8,5.5l2,1.2
				c0,0,0.1,0.1,0.1,0.1c0,0.1-0.1,0.1-0.1,0.1c0,0-0.4,0.1-1,0c-0.2,0-0.7-0.1-1.2-0.1c0,0-0.1,0-0.1,0C8.8,6.9,9,7,9.2,7.1
				c0.1,0.1,0.3,0.1,0.4,0.2c0.5,0.2,1,0.3,1,0.3c0.1,0,0.1,0.1,0.1,0.1c0,0.1,0,0.1-0.1,0.1L8.3,8.2l2.3,0.3c0.1,0,0.1,0,0.1,0.1
				c0,0.1,0,0.1-0.1,0.1c0,0-0.4,0.2-0.9,0.4C9.5,9.2,9.1,9.3,8.6,9.5c0,0-0.1,0-0.1,0c0.3,0,0.5,0,0.7,0c0,0,0.4,0,0.4,0
				c0.1,0,0.2,0,0.4,0l0,0c0.4-0.3,1-0.6,1.6-0.7c0.1,0,0.2,0,0.2,0.1C12,8.9,12,9,12,9c0.1-0.1,0.2-0.1,0.4-0.2
				c0.5-0.2,1.1-0.3,1.7-0.4c0.1,0,0.2,0,0.2,0.1c0,0,0.1,0.1,0.1,0.2c0.2-0.1,0.4-0.1,0.6-0.2c0.5-0.1,1.1-0.1,1.8,0
				c0.1,0,0.2,0.1,0.2,0.1c0,0,0,0,0,0.1c0.2,0,0.4,0,0.6,0c0.5,0,1.1,0.1,1.7,0.3C19.3,9,19.4,9.1,19.4,9.2
				C19.4,9.2,19.4,9.2,19.4,9.2z"/>
			<g>
				<path fill="#231F20" d="M16.1,6.3c2.2-0.4,2.5,0.3,2.5,0.3s0.1,0.1,0.2,0.1c0,0,0.2,0,0.1-0.2c0,0-0.2-0.7-1.4-0.9
					c0,0-0.6-0.1-1.3,0c-0.2,0-0.3,0.5-0.3,0.5C15.9,6.3,16.1,6.3,16.1,6.3z"/>
				<path fill="#231F20" d="M14.2,6.7c-0.3-0.1-0.9-0.1-0.9-0.1c-1,0-1.3,0.7-1.3,0.7c-0.1,0.2,0.1,0.2,0.1,0.2
					c0.2,0.1,0.3-0.1,0.3-0.1s0.1-0.2,0.5-0.3c0,0.1,0,0.1,0,0.2c0,0.3,0.2,0.5,0.5,0.5c0.3,0,0.5-0.2,0.5-0.5c0-0.1,0-0.1,0-0.2
					c0.1,0.1,0.3,0.2,0.4,0.3c0,0.1,0.1,0.1,0.3,0.1c0.2,0,0.2-0.1,0.2-0.1C14.5,6.9,14.2,6.7,14.2,6.7z"/>
				<path fill="#231F20" d="M16,7.6c0.2,0,0.3,0,0.3-0.1c0.1-0.2,0.2-0.3,0.4-0.3c0,0.1,0,0.1,0,0.2c0,0.3,0.2,0.5,0.5,0.5
					c0.3,0,0.5-0.2,0.5-0.5c0-0.1,0-0.1,0-0.2c0.4,0.1,0.5,0.3,0.5,0.3s0.1,0.2,0.3,0.1c0,0,0.2,0,0.1-0.2c0,0-0.3-0.6-1.3-0.7
					c0,0-0.6,0-0.9,0.1c0,0-0.3,0.2-0.5,0.7C15.9,7.4,15.8,7.6,16,7.6z"/>
				<path fill="#231F20" d="M11.7,6.7c0.2,0,0.2-0.1,0.2-0.1s0.2-0.6,2.5-0.3c0,0,0.2,0,0.2-0.2c0,0-0.1-0.4-0.3-0.5
					c-0.7-0.1-1.3,0-1.3,0c-1.2,0.1-1.4,0.9-1.4,0.9C11.6,6.7,11.7,6.7,11.7,6.7z"/>
			</g>
			<g>
				<path fill="#2DA34A" d="M25.1,41.5c-0.4,0-0.9,0-1.6,0.2c-0.1,0-0.2,0-0.2,0c-0.1-0.1-0.1-0.1,0-0.2c0,0,0.2-0.5,0.2-1
					c0,0,0,0,0,0l0,0c-0.2,0.1-0.3,0.3-0.5,0.5c-0.5,0.5-0.7,1.1-0.7,1.7c0,0,0,0,0,0c0.1,0,0.2,0,0.3,0c0.1,0,0.3,0,0.5,0
					C23.6,42.5,24.3,42.3,25.1,41.5C25.1,41.5,25.1,41.5,25.1,41.5C25.1,41.5,25.1,41.5,25.1,41.5z"/>
				<path fill="#2DA34A" d="M7,40.4L7,40.4C7,40.4,7,40.4,7,40.4c0,0.5,0.2,1,0.2,1c0,0.1,0,0.2,0,0.2c-0.1,0.1-0.1,0.1-0.2,0
					c-0.6-0.3-1.2-0.3-1.6-0.2c0,0,0,0,0,0c0,0,0,0,0,0c0.7,0.6,1.3,1,2,1.1c0.2,0,0.3,0,0.5,0c0.1,0,0.2,0,0.3,0c0,0,0,0,0,0
					C8.2,41.6,7.5,40.8,7,40.4z"/>
				<path fill="#2DA34A" d="M26.5,39.5c-0.4,0-0.9,0.1-1.5,0.5c-0.1,0-0.1,0-0.2,0c-0.1,0-0.1-0.1-0.1-0.2c0,0,0.1-0.5,0.1-1
					c0,0,0,0,0,0c0,0,0,0,0,0c-0.1,0.2-0.3,0.3-0.4,0.5c-0.4,0.6-0.5,1.2-0.5,1.7c0,0,0,0,0,0c0,0,0.1,0,0.1,0c0.2,0,0.4,0,0.7-0.1
					c0.3-0.1,0.7-0.3,1-0.5C26,40.2,26.3,39.9,26.5,39.5L26.5,39.5C26.5,39.5,26.5,39.5,26.5,39.5z"/>
				<path fill="#2DA34A" d="M27.7,37.5c-0.4,0.1-0.9,0.2-1.4,0.7c-0.1,0-0.1,0.1-0.2,0C26,38.2,26,38.1,26,38c0,0,0-0.5-0.1-1
					c0,0,0,0,0,0c0,0,0,0,0,0c-0.1,0.2-0.2,0.4-0.3,0.6c-0.3,0.6-0.4,1.2-0.3,1.8c0,0,0,0,0,0h0c0.1,0,0.4,0,0.8-0.2
					c0.3-0.1,0.6-0.4,0.9-0.6C27.3,38.3,27.5,38,27.7,37.5L27.7,37.5C27.7,37.5,27.7,37.5,27.7,37.5z"/>
				<path fill="#2DA34A" d="M28.7,35.4c-0.1,0-0.1,0-0.2,0.1c-0.3,0.1-0.7,0.3-1.1,0.8h0c-0.1,0.1-0.1,0.1-0.2,0.1
					c-0.1,0-0.1-0.1-0.1-0.2c0,0,0-0.5-0.2-1c0,0,0,0,0,0c0,0,0,0,0,0c-0.1,0.2-0.2,0.4-0.3,0.6c-0.2,0.6-0.3,1.3-0.1,1.8
					c0,0,0,0,0,0l0,0c0.1,0,0.4-0.1,0.8-0.3c0.3-0.2,0.6-0.4,0.8-0.7C28.3,36.2,28.5,35.8,28.7,35.4C28.7,35.4,28.7,35.4,28.7,35.4
					C28.7,35.4,28.7,35.4,28.7,35.4z"/>
				<path fill="#2DA34A" d="M29.4,33.2c-0.3,0.1-0.8,0.4-1.3,0.9c0,0.1-0.1,0.1-0.2,0.1c-0.1,0-0.1-0.1-0.1-0.2c0,0-0.1-0.6-0.3-1
					l0,0h0l0,0c-0.1,0.2-0.2,0.4-0.2,0.6c-0.1,0.5-0.2,1.2,0.1,1.8l0,0l0,0c0.1,0,0.4-0.1,0.8-0.4c0.3-0.2,0.5-0.5,0.7-0.8
					C29.1,34,29.3,33.6,29.4,33.2C29.4,33.2,29.4,33.2,29.4,33.2C29.4,33.2,29.4,33.2,29.4,33.2z"/>
				<path fill="#2DA34A" d="M29.8,30.8c-0.3,0.2-0.8,0.5-1.1,1.1c0,0.1-0.1,0.1-0.2,0.1c-0.1,0-0.1-0.1-0.2-0.1c0,0-0.1-0.6-0.4-1
					c0,0,0,0,0,0c0,0,0,0,0,0c-0.1,0.2-0.1,0.4-0.1,0.7c-0.1,0.7,0,1.3,0.3,1.9c0,0,0,0,0,0c0,0,0,0,0,0c0.1-0.1,0.4-0.2,0.7-0.5
					c0.3-0.2,0.5-0.5,0.6-0.9C29.6,31.7,29.8,31.3,29.8,30.8C29.9,30.9,29.8,30.9,29.8,30.8C29.8,30.8,29.8,30.8,29.8,30.8z"/>
				<path fill="#2DA34A" d="M29,29.7c0,0.1-0.1,0.1-0.2,0.1c-0.1,0-0.1-0.1-0.2-0.1c0,0-0.2-0.5-0.5-0.9c0,0,0,0,0,0c0,0,0,0,0,0
					c0,0.2-0.1,0.5-0.1,0.7c0,0.7,0.2,1.3,0.5,1.8c0,0,0,0,0,0l0,0c0.1-0.1,0.4-0.2,0.6-0.5c0.2-0.3,0.4-0.6,0.5-0.9
					c0.1-0.4,0.2-0.8,0.2-1.2c0,0,0,0,0,0c0,0,0,0,0,0C29.7,28.7,29.3,29.1,29,29.7z"/>
				<path fill="#2DA34A" d="M29,27.6c-0.1,0-0.1,0-0.2-0.1c0,0-0.2-0.5-0.6-0.8l0,0c0,0,0,0,0,0c0,0.6,0,1.6,0.7,2.3c0,0,0,0,0,0
					s0,0,0,0c0.1-0.1,0.4-0.3,0.6-0.6c0.2-0.3,0.3-0.6,0.4-1c0.1-0.4,0.1-0.8,0.1-1.2c0,0,0,0,0,0l0,0c-0.3,0.2-0.6,0.6-0.9,1.3
					C29.1,27.6,29,27.6,29,27.6z"/>
				<path fill="#2DA34A" d="M28.8,25.3c-0.1,0-0.2,0-0.2-0.1c0,0-0.3-0.4-0.6-0.8c0,0,0,0,0,0c0,0,0,0,0,0c0.1,0.6,0.2,1.7,0.9,2.3
					l0,0l0,0c0.1-0.1,0.3-0.3,0.5-0.7c0.2-0.3,0.3-0.7,0.3-1c0.1-0.4,0.1-0.8,0-1.2c0,0,0,0,0,0c0,0,0,0,0,0
					c-0.2,0.3-0.6,0.7-0.7,1.4C29,25.3,28.9,25.3,28.8,25.3z"/>
				<path fill="#2DA34A" d="M28.6,23.1c-0.1,0-0.2,0-0.2-0.1c0,0-0.3-0.4-0.7-0.7c0,0,0,0,0,0l0,0c0,0.2,0.1,0.4,0.1,0.7
					c0.1,0.5,0.4,1.1,0.9,1.6c0,0,0,0,0,0c0,0,0,0,0,0c0.1-0.1,0.3-0.3,0.5-0.7c0.2-0.3,0.3-0.7,0.3-1c0-0.4,0-0.8-0.1-1.2l0,0
					c0,0,0,0,0,0c-0.2,0.3-0.5,0.7-0.7,1.4C28.7,23.1,28.6,23.1,28.6,23.1z"/>
				<path fill="#2DA34A" d="M28.1,21c-0.1,0-0.2,0-0.2-0.1c0,0-0.4-0.4-0.8-0.6l0,0c0,0,0,0,0,0c0.1,0.2,0.1,0.4,0.2,0.6
					c0.3,0.7,0.6,1.1,1.1,1.4l0,0c0,0,0,0,0,0c0.1-0.1,0.3-0.3,0.4-0.7c0.1-0.3,0.2-0.7,0.1-1.1c0-0.4-0.1-0.8-0.2-1.2l0,0
					c0,0,0,0,0,0c-0.2,0.3-0.4,0.8-0.5,1.5C28.2,20.9,28.1,21,28.1,21z"/>
				<path fill="#2DA34A" d="M27.1,18.8c0,0-0.4-0.3-0.9-0.6l0,0c0,0,0,0,0,0c0.1,0.2,0.2,0.4,0.3,0.6c0.3,0.6,0.7,1.1,1.3,1.3
					c0,0,0,0,0,0l0,0c0.1-0.1,0.2-0.4,0.3-0.8c0.1-0.3,0.1-0.7,0-1.1c-0.1-0.4-0.2-0.8-0.4-1.2c0,0,0,0,0,0c0,0,0,0,0,0
					c-0.2,0.3-0.4,0.8-0.3,1.5c0,0.1,0,0.1-0.1,0.2h0C27.2,18.9,27.2,18.9,27.1,18.8z"/>
				<path fill="#2DA34A" d="M25.2,16.4C25.2,16.4,25.2,16.4,25.2,16.4c0.1,0.2,0.2,0.4,0.3,0.6c0.4,0.6,0.9,1,1.5,1.2l0,0
					c0,0,0,0,0,0c0.1-0.1,0.2-0.4,0.2-0.8c0-0.3,0-0.7-0.1-1.1c-0.1-0.4-0.3-0.8-0.5-1.1l0,0c0,0,0,0,0,0c-0.1,0.3-0.2,0.9-0.1,1.5
					c0,0.1,0,0.2-0.1,0.2h0c-0.1,0-0.2,0-0.2,0C26.1,16.8,25.7,16.5,25.2,16.4C25.2,16.4,25.2,16.4,25.2,16.4z"/>
				<path fill="#2DA34A" d="M23.9,14.7C23.9,14.7,23.9,14.7,23.9,14.7c0.1,0.2,0.3,0.4,0.4,0.6c0.5,0.5,1,0.8,1.6,0.9l0,0
					c0,0,0,0,0,0c0-0.1,0.1-0.4,0.1-0.8c0-0.3-0.1-0.7-0.3-1.1c-0.2-0.3-0.4-0.7-0.7-1c0,0,0,0,0,0c0,0,0,0,0,0
					c-0.1,0.4-0.1,0.9,0.1,1.5c0,0.1,0,0.2-0.1,0.2c-0.1,0-0.2,0-0.2,0C24.9,15,24.5,14.7,23.9,14.7L23.9,14.7z"/>
				<path fill="#2DA34A" d="M23.7,13.3c-0.1,0.1-0.1,0.1-0.2,0.1c0,0-0.5-0.2-0.9-0.2c0,0,0,0-0.1,0c0,0,0,0,0,0c0,0,0,0,0,0
					c0.2,0.2,0.4,0.4,0.6,0.5c0.4,0.3,1,0.6,1.6,0.6c0,0,0,0,0,0c0,0,0,0,0,0c0-0.1,0-0.4-0.1-0.8c-0.1-0.3-0.2-0.7-0.4-1
					c-0.2-0.3-0.5-0.6-0.8-0.9c0,0,0,0,0,0l0,0c0,0.4,0,0.9,0.4,1.5C23.7,13.2,23.7,13.2,23.7,13.3z"/>
				<path fill="#2DA34A" d="M6.6,41.1C6.6,41.1,6.6,41.1,6.6,41.1l0.1,0c0.1-0.9-0.6-1.8-0.9-2.3c0,0,0,0,0,0c0,0,0,0,0,0
					c-0.1,0.5,0.1,1,0.1,1c0,0.1,0,0.2-0.1,0.2c-0.1,0-0.1,0-0.2,0c-0.6-0.4-1.1-0.5-1.5-0.5c0,0,0,0,0,0l0,0
					c0.3,0.4,0.6,0.7,0.9,0.9c0.3,0.2,0.6,0.4,1,0.5C6.1,41.1,6.4,41.1,6.6,41.1z"/>
				<path fill="#2DA34A" d="M5.3,39.4L5.3,39.4C5.3,39.4,5.3,39.4,5.3,39.4C5.4,38.7,5.2,38,5,37.6c-0.1-0.2-0.2-0.4-0.3-0.6
					c0,0,0,0,0,0c0,0,0,0,0,0c-0.1,0.5-0.1,1-0.1,1c0,0.1,0,0.2-0.1,0.2c-0.1,0-0.2,0-0.2,0c-0.5-0.4-1.1-0.6-1.4-0.7c0,0,0,0,0,0
					l0,0c0.2,0.4,0.5,0.7,0.8,1c0.3,0.3,0.6,0.5,0.9,0.6C4.8,39.3,5.1,39.4,5.3,39.4z"/>
				<path fill="#2DA34A" d="M4.1,37.5L4.1,37.5C4.1,37.5,4.1,37.5,4.1,37.5c0.2-0.6,0.2-1.2-0.1-1.8c-0.1-0.2-0.2-0.4-0.3-0.6
					c0,0,0,0,0,0c0,0,0,0,0,0c-0.2,0.5-0.2,1-0.2,1c0,0.1,0,0.1-0.1,0.2c-0.1,0-0.2,0-0.2,0c-0.4-0.4-0.9-0.6-1.1-0.7
					c-0.1,0-0.1,0-0.2-0.1c0,0,0,0,0,0c0,0,0,0,0,0c0.2,0.4,0.4,0.8,0.6,1.1C2.7,36.8,3,37,3.3,37.2C3.7,37.4,4,37.5,4.1,37.5z"/>
				<path fill="#2DA34A" d="M3.1,35.5L3.1,35.5C3.1,35.5,3.1,35.5,3.1,35.5c0.5-1,0.2-2-0.1-2.5l0,0h0c0,0,0,0,0,0
					c-0.2,0.5-0.3,1-0.3,1c0,0.1-0.1,0.1-0.1,0.2c-0.1,0-0.2,0-0.2-0.1c-0.4-0.5-0.8-0.7-1.1-0.9c-0.1,0-0.1-0.1-0.2-0.1
					c0,0,0,0,0,0l0,0C1.7,34.9,2.7,35.4,3.1,35.5z"/>
				<path fill="#2DA34A" d="M1.7,33c0.3,0.3,0.6,0.4,0.7,0.4l0,0c0,0,0,0,0,0c0.4-0.6,0.5-1.2,0.3-1.9c0-0.2-0.1-0.4-0.2-0.6
					c0,0,0,0,0,0s0,0,0,0c-0.3,0.4-0.4,1-0.4,1l0,0h0l0,0h0l0,0v0C2.1,32,2,32.1,2,32.1c-0.1,0-0.2,0-0.2-0.1
					c-0.4-0.6-0.8-0.9-1.2-1l0,0c0,0,0,0,0,0c0.1,0.4,0.2,0.8,0.4,1.2C1.2,32.5,1.4,32.8,1.7,33z"/>
				<path fill="#2DA34A" d="M1.8,31.3C1.8,31.3,1.8,31.3,1.8,31.3L1.8,31.3c0.7-1,0.7-1.9,0.6-2.4l0,0c0,0,0,0,0,0
					c-0.3,0.4-0.5,0.9-0.6,0.9c0,0.1-0.1,0.1-0.2,0.1h0l0,0c-0.1,0-0.1,0-0.2-0.1c-0.2-0.5-0.6-0.9-0.8-1.1c-0.1,0-0.1-0.1-0.2-0.1
					c0,0,0,0,0,0c0,0,0,0,0,0C0.5,30.4,1.4,31.1,1.8,31.3z"/>
				<path fill="#2DA34A" d="M1.6,29.1L1.6,29.1L1.6,29.1c0.4-0.3,0.6-0.8,0.7-1.3c0.1-0.4,0-0.9,0-1.1l0,0c0,0,0,0,0,0
					c-0.4,0.4-0.5,0.9-0.5,0.9l0,0c0,0.1-0.1,0.2-0.2,0.2c-0.1,0-0.2,0-0.2-0.1c-0.2-0.6-0.5-0.9-0.7-1.2c0-0.1-0.1-0.1-0.1-0.1
					c0,0,0,0,0,0c0,0,0,0,0,0C0.4,28.1,1.3,28.8,1.6,29.1z"/>
				<path fill="#2DA34A" d="M1.1,26.1c0.2,0.4,0.4,0.6,0.5,0.7l0,0l0,0c0.4-0.4,0.7-0.9,0.8-1.6c0-0.2,0.1-0.5,0.1-0.7c0,0,0,0,0,0
					c0,0,0,0,0,0c-0.4,0.3-0.6,0.8-0.6,0.8c0,0.1-0.1,0.1-0.2,0.1c-0.1,0-0.1-0.1-0.2-0.1c-0.2-0.7-0.5-1.1-0.7-1.4c0,0,0,0,0,0
					c0,0,0,0,0,0c-0.1,0.4-0.1,0.9,0,1.2C0.8,25.5,0.9,25.8,1.1,26.1z"/>
				<path fill="#2DA34A" d="M1.3,23.9c0.2,0.3,0.4,0.6,0.5,0.7c0,0,0,0,0,0l0,0c0.5-0.4,0.8-1,1-1.6c0-0.2,0.1-0.4,0.1-0.6
					c0,0,0,0,0,0c0,0,0,0,0,0C2.4,22.6,2.1,23,2.1,23c0,0.1-0.1,0.1-0.2,0.1c-0.1,0-0.1-0.1-0.2-0.2c-0.1-0.7-0.4-1.1-0.7-1.4
					c0,0,0,0,0,0c0,0,0,0,0,0C1,22,1,22.4,1,22.8C1.1,23.2,1.2,23.6,1.3,23.9z"/>
				<path fill="#2DA34A" d="M2.1,22.3C2.1,22.3,2.1,22.3,2.1,22.3C2.1,22.3,2.1,22.3,2.1,22.3c0.6-0.4,1-0.9,1.2-1.5
					c0.1-0.2,0.1-0.4,0.1-0.6c0,0,0,0,0,0l0,0c-0.5,0.3-0.8,0.7-0.8,0.7c-0.1,0.1-0.1,0.1-0.2,0.1c-0.1,0-0.1-0.1-0.1-0.2
					c-0.1-0.7-0.3-1.2-0.5-1.5c0,0,0,0,0,0c0,0,0,0,0,0c-0.1,0.4-0.2,0.8-0.2,1.2c0,0.4,0,0.7,0.2,1.1C1.8,22,2,22.2,2.1,22.3z"/>
				<path fill="#2DA34A" d="M2.7,20.2C2.7,20.2,2.7,20.2,2.7,20.2L2.7,20.2c0.6-0.3,1.1-0.8,1.4-1.4c0.1-0.2,0.2-0.4,0.2-0.6
					c0,0,0,0,0,0c0,0,0,0,0,0c-0.5,0.2-0.9,0.6-0.9,0.6c-0.1,0.1-0.1,0.1-0.2,0c-0.1,0-0.1-0.1-0.1-0.2c0-0.7-0.1-1.2-0.3-1.5l0,0h0
					c0,0,0,0,0,0c-0.2,0.4-0.3,0.8-0.4,1.2c-0.1,0.4,0,0.7,0,1.1C2.4,19.8,2.6,20.1,2.7,20.2z"/>
				<path fill="#2DA34A" d="M3.5,18.1C3.5,18.1,3.5,18.2,3.5,18.1C3.5,18.2,3.5,18.2,3.5,18.1C4.1,18,4.6,17.6,5,17
					c0.2-0.2,0.3-0.5,0.4-0.6c0,0,0,0,0,0c0,0,0,0,0,0c-0.5,0.1-0.9,0.5-0.9,0.5c-0.1,0.1-0.2,0.1-0.2,0c-0.1,0-0.1-0.1-0.1-0.2
					c0.1-0.7,0-1.2-0.1-1.6c0,0,0,0,0,0c0,0,0,0,0,0c-0.2,0.4-0.4,0.8-0.5,1.1c-0.1,0.4-0.2,0.7-0.1,1.1C3.3,17.7,3.4,18,3.5,18.1z"
					/>
				<path fill="#2DA34A" d="M4.6,16.2L4.6,16.2c0.9-0.2,1.7-1,2-1.5c0,0,0,0,0,0c0,0,0,0,0,0c-0.5,0-1,0.3-1,0.3c-0.1,0-0.2,0-0.2,0
					c-0.1,0-0.1-0.1-0.1-0.2c0.2-0.7,0.2-1.2,0.1-1.5c0,0,0,0,0,0c0,0,0,0,0,0C4.3,14.6,4.5,15.8,4.6,16.2L4.6,16.2z"/>
				<path fill="#2DA34A" d="M5.9,14.4C6,14.4,6,14.4,5.9,14.4c0.6,0,1.2-0.4,1.6-0.7c0.2-0.1,0.4-0.3,0.6-0.5c0,0,0,0,0,0
					c0,0,0,0,0,0c-0.5,0-1,0.2-1,0.2c-0.1,0-0.2,0-0.2-0.1c-0.1-0.1-0.1-0.1,0-0.2c0.3-0.6,0.4-1.2,0.4-1.5c0,0,0,0,0,0l0,0
					c-0.3,0.3-0.6,0.6-0.8,0.9c-0.2,0.3-0.4,0.7-0.4,1C5.9,13.9,5.9,14.2,5.9,14.4C5.9,14.3,5.9,14.4,5.9,14.4z"/>
				<path fill="#2DA34A" d="M9.8,11.9c-0.5,0-1,0.1-1,0.1c-0.1,0-0.2,0-0.2-0.1c0-0.1,0-0.1,0-0.2c0.4-0.6,0.5-1.1,0.5-1.5
					c0,0,0,0,0,0l0,0c-1.5,1.1-1.6,2.2-1.6,2.6c0,0,0,0,0,0c0,0,0.1,0,0.1,0C8.5,12.8,9.4,12.2,9.8,11.9L9.8,11.9
					C9.8,11.9,9.8,11.9,9.8,11.9z"/>
				<path fill="#2DA34A" d="M11.7,11c-0.2,0-0.3-0.1-0.5-0.1c-0.3,0-0.5,0-0.5,0l0,0c-0.1,0-0.2-0.1-0.2-0.1c0-0.1,0-0.2,0.1-0.2
					c0.5-0.4,0.8-0.8,0.9-1.1l0,0c0,0,0,0,0,0c-1.7,0.6-2.1,1.6-2.2,2c0,0,0,0,0,0c0.2,0.1,0.4,0.1,0.7,0.1c0.3,0,0.7-0.1,1.2-0.2
					C11.3,11.2,11.5,11.1,11.7,11C11.7,11,11.7,11,11.7,11C11.7,11,11.7,11,11.7,11z"/>
				<path fill="#2DA34A" d="M13.8,10.4c-0.5-0.2-1-0.3-1-0.3c-0.1,0-0.1-0.1-0.2-0.2c0-0.1,0-0.2,0.1-0.2c0.6-0.3,0.9-0.6,1-0.8l0,0
					c0,0,0,0,0,0c-0.9,0.1-1.6,0.4-2,0.9c-0.2,0.2-0.3,0.4-0.4,0.6c0,0,0,0,0,0c0.4,0.2,0.8,0.2,1.2,0.2c0.2,0,0.5,0,0.7-0.1
					C13.4,10.6,13.6,10.5,13.8,10.4C13.8,10.4,13.8,10.4,13.8,10.4C13.8,10.4,13.8,10.4,13.8,10.4z"/>
				<path fill="#2DA34A" d="M15.1,9.8c-0.1,0-0.1-0.1-0.1-0.2c0-0.1,0.1-0.2,0.1-0.2c0.6-0.2,0.9-0.4,1.1-0.5l0,0c0,0,0,0,0,0
					c-0.9-0.1-1.6,0.1-2.1,0.4c-0.3,0.2-0.4,0.4-0.5,0.5c0,0,0,0,0,0c0.6,0.4,1.4,0.6,1.9,0.6c0.2,0,0.3,0,0.5,0c0,0,0,0,0,0
					c0,0,0,0,0,0C15.6,10,15.1,9.8,15.1,9.8z"/>
				<path fill="#2DA34A" d="M17.4,10c-0.1,0-0.1-0.1-0.1-0.2c0-0.1,0.1-0.1,0.2-0.1c0.6-0.1,1-0.2,1.2-0.3c0,0,0,0,0,0l0,0
					c-0.8-0.2-1.6-0.2-2.1,0c-0.3,0.1-0.5,0.3-0.6,0.4c0,0,0,0,0,0c0.7,0.9,1.7,1,2.3,1h0c0,0,0,0,0,0l0,0
					C17.8,10.3,17.4,10,17.4,10z"/>
				<path fill="#2DA34A" d="M23,12.8C23,12.8,23,12.8,23,12.8c0-0.2,0-0.6-0.2-1c-0.3-0.7-0.8-1.1-1.6-1.4c0,0,0,0,0,0l0,0
					c0.1,0.3,0.3,0.8,0.6,1.2c0.1,0.1,0.1,0.2,0,0.2c0,0.1-0.1,0.1-0.2,0.1c0,0-0.5-0.1-1,0c0,0,0,0,0,0c0,0,0,0,0,0
					c0.5,0.3,1.4,0.9,2.2,0.9C23,12.8,23,12.8,23,12.8z"/>
				<path fill="#2DA34A" d="M21.2,11.4C21.2,11.4,21.2,11.4,21.2,11.4c-0.4-0.5-1-0.7-1.6-0.6c-0.2,0-0.5,0.1-0.7,0.1l0,0
					c0,0,0,0,0,0c0.5,0.4,1.1,0.6,1.6,0.6c0,0,0.1,0,0.1,0C20.9,11.5,21.1,11.5,21.2,11.4C21.2,11.4,21.2,11.4,21.2,11.4z"/>
				<path fill="#2DA34A" d="M18.1,10C18.1,10,18.1,10,18.1,10c0.3,0.2,0.7,0.4,1.2,0.4c0.2,0,0.4,0,0.6-0.1c0.3-0.1,0.7-0.2,0.9-0.3
					c0,0,0,0,0,0c0,0,0,0,0,0c-0.3-0.2-0.6-0.3-1-0.3c-0.3-0.1-0.7,0-1,0C18.5,9.8,18.2,9.9,18.1,10C18.1,10,18.1,10,18.1,10z"/>
			</g>
			<g>
				<path fill="#EE4023" d="M11.6,22.6c0.1,0.1,0.3,0.2,0.5,0.2h2.5C13.1,21.9,12.6,22,11.6,22.6C11.6,22.6,11.6,22.6,11.6,22.6z"/>
				<path fill="#EE4023" d="M17.7,21.5c-0.2-0.1-0.5-0.1-0.7-0.2c-0.8-0.3-1.4-0.8-1.5-0.8c-0.2-0.1-0.2-0.4-0.1-0.5
					c0.1-0.2,0.4-0.2,0.5-0.1c0,0,0.6,0.5,1.3,0.7c0.2,0.1,0.4,0.1,0.6,0.2c0.3,0.1,0.7,0.2,1,0.3c-0.1-0.4-0.1-0.8-0.2-1.1
					c-1-0.2-1.8-0.9-1.9-0.9c-0.1-0.1-0.1-0.2-0.1-0.2c0-0.1,0-0.2,0.1-0.3c0.1-0.2,0.4-0.2,0.5,0c0,0,0.5,0.4,1.2,0.7
					c-0.3-1-0.6-1.9-1.1-2.9c-0.3-0.7-0.8-1.1-1.5-1.3c-0.5-0.2-0.8-0.1-0.8-0.1c0,0,0,0,0,0c0,0-1.2,0-2,0.9c0,0,0,0,0,0
					c-0.1,0.1-0.5,0.6-0.6,0.9c0,0.2,0,0.3,0.1,0.4c0.1,0,0.2,0.1,0.6-0.1c0.1-0.1,0.1-0.1,0.2-0.1c0.2-0.1,0.4-0.1,0.5,0.1
					c0.1,0.2,0.1,0.4-0.1,0.5c0,0-0.1,0.1-0.1,0.1c-0.2,0.1-0.5,0.4-0.8,0.9c-0.5,0.6-1.1,1.7-1.4,3.2c0,0,0,0.1,0,0.1
					c1-0.5,1.9-0.6,3.7,0.6c0.7,0.5,1.6,0.5,1.7,0.5h0.8c0,0,0,0,0,0c0.2,0,0.8,0,1.1-0.3c0-0.1,0.1-0.1,0.1-0.2
					C19,21.9,18.6,21.7,17.7,21.5z"/>
			</g>
			<g>
				<path fill="#FBBB80" d="M14.1,35.8c0.1-0.1,0.2-0.2,0.2-0.3c0,0,0-0.1-0.1-0.2c-0.1-0.1-0.2-0.1-0.3-0.1c-0.2,0-0.4,0.1-0.7,0.4
					c-0.2,0.1-0.6,0.4-0.5,0.7c0,0.1,0.1,0.2,0.1,0.2c0.2,0.1,0.5,0.1,0.6,0.1C13.6,36.3,13.8,36,14.1,35.8z"/>
				<path fill="#FBBB80" d="M15.4,36.3c0,0,0-0.1-0.1-0.2c0,0-0.2-0.1-0.5,0.1c-0.3,0.2-0.6,0.4-0.7,0.6c0.1,0.1,0.1,0.1,0.2,0.1
					c0.3,0.1,0.7-0.2,0.8-0.3c0,0,0,0,0,0C15.2,36.6,15.4,36.4,15.4,36.3z"/>
				<path fill="#FBBB80" d="M11.5,34.5C11.5,34.5,11.5,34.5,11.5,34.5c-0.3,0-0.7,0.2-0.9,0.4c-0.1,0.2-0.1,0.3-0.1,0.3
					c0,0.1,0.1,0.1,0.3,0.2c0,0,0.1,0,0.1,0c0.1-0.3,0.3-0.5,0.5-0.7c0.1-0.1,0.1-0.1,0.2-0.1C11.6,34.5,11.6,34.5,11.5,34.5
					C11.5,34.5,11.5,34.5,11.5,34.5z"/>
				<path fill="#FBBB80" d="M11.6,35.7c0,0.1,0,0.2,0.3,0.3c0,0,0.1,0,0.2,0c0.1-0.3,0.4-0.6,0.8-0.9c0.1,0,0.1-0.1,0.2-0.1
					c0,0,0,0,0-0.1c0-0.1-0.1-0.1-0.2-0.2c-0.1,0-0.1,0-0.2,0c-0.2,0-0.4,0.1-0.7,0.4C11.7,35.3,11.6,35.5,11.6,35.7z"/>
				<path fill="#FBBB80" d="M19.5,35c0.2,0,0.3-0.1,0.4-0.1c0.1-0.1,0.1-0.2,0.1-0.3c-0.2-0.2-0.8-1-1.7-1.5
					c-0.4-0.2-0.7-0.5-1.1-0.6c-0.4-0.2-0.8-0.2-1.1-0.1c0,0,0,0,0,0c-0.1,0-0.2,0.1-0.4,0.2c-0.1,0.1-0.2,0.1-0.4,0.2
					c-0.4,0.2-0.9,0.4-1.3,0.4c-0.4,0-0.8,0-1.1-0.4c-0.2-0.3-0.2-0.5-0.1-0.8c0.1-0.3,0.4-0.4,0.8-0.6c0.2-0.1,0.3-0.2,0.4-0.2
					c0.2-0.1,0.3-0.2,0.4-0.3c0.1-0.1,0.3-0.2,0.5-0.4c0.1-0.1,0.2-0.1,0.3-0.2c-0.1,0-0.3,0-0.4,0c-0.6-0.1-1,0.2-1.7,0.6
					c-0.5,0.4-1.6,0.7-3.3,1c-1.6,0.3-3.8,0.6-6.5,0.9c0.1,0.3,0.2,0.6,0.3,0.9c0.3,1.1,0.8,2.1,1.3,3c1-0.4,3.3-1.5,5.2-2.5
					c0.4-0.3,0.9-0.5,1.3-0.5c0.1,0,0.4,0.1,0.7,0.3c0.3-0.1,0.6-0.1,0.9,0.1c0.3,0.1,0.4,0.3,0.5,0.5l0,0c0.4-0.1,0.7,0,1,0.2
					c0.2,0.2,0.3,0.3,0.3,0.5c0.4-0.1,0.6,0.1,0.8,0.2c0.3,0.3,0.3,0.5,0.3,0.7c0,0.1-0.1,0.3-0.1,0.4c0.2,0,0.4,0,0.5-0.1
					c0.1,0,0.1-0.1,0.2-0.1c-0.1-0.2-0.2-0.4-0.4-0.6c-0.1-0.1-0.1-0.1-0.1-0.2c0-0.1,0-0.2,0.1-0.2c0.1-0.1,0.3-0.1,0.5,0
					c0.3,0.4,0.5,0.7,0.6,0.9c0.2,0,0.3,0,0.4-0.1c0.1-0.1,0.1-0.1,0.1-0.2c0-0.1-0.1-0.2-0.3-0.5c-0.2-0.2-0.6-0.5-0.7-0.6
					c-0.1,0-0.1-0.1-0.1-0.2c0-0.1,0-0.2,0.1-0.2c0-0.1,0.1-0.1,0.2-0.1c0.1,0,0.2,0,0.2,0.1c0,0,0.6,0.4,0.8,0.7
					c0.2,0.2,0.3,0.4,0.4,0.6c0.2,0,0.4-0.1,0.5-0.2c0,0,0.1-0.1,0.1-0.1c-0.2-0.3-0.9-1.1-1.6-1.5c-0.1,0-0.1-0.1-0.2-0.2
					c0-0.1,0-0.2,0-0.2c0-0.1,0.1-0.1,0.2-0.2c0.1,0,0.2,0,0.2,0C18.5,33.8,19.2,34.7,19.5,35z"/>
				<path fill="#FBBB80" d="M15.4,32.1c0.2-0.1,0.4-0.3,0.6-0.3c1.1-0.3,2.2,0.4,2.8,0.8c0.8,0.5,1.4,1.2,1.7,1.5c0,0,0,0,0,0.1l0,0
					l0,0c0.1,0.1,0.3,0.3,0.6,0.5c1.4,1,3.4,1.9,4.3,2.3c0.5-1,1-2,1.3-3.1c0.1-0.3,0.2-0.5,0.2-0.8c-1.7-0.1-3.5-0.5-4.8-0.8
					c-1.4-0.3-2.5-0.7-2.5-0.7c-0.3-0.1-0.5-0.2-0.8-0.3c-0.8-0.3-1.3-0.5-1.9-0.4c-0.1,0-0.1,0-0.2,0c-0.1,0-0.2,0-0.3,0l0,0
					c-0.5,0-0.9,0-1.2,0.2c-0.2,0.2-0.4,0.3-0.5,0.4c-0.1,0.1-0.3,0.2-0.5,0.4c-0.2,0.1-0.3,0.2-0.5,0.3c-0.1,0.1-0.4,0.2-0.5,0.3
					c0,0,0,0.1,0.1,0.2c0.1,0.1,0.3,0.1,0.6,0.1c0.3,0,0.7-0.1,1-0.3C15.2,32.2,15.3,32.1,15.4,32.1z"/>
			</g>
		</g>
	</g>
	<g>
		<g>
			<path fill="#0094D4" d="M41.1,20.1l1-1.2c0.9,0.8,1.8,1.2,3,1.2c1,0,1.7-0.5,1.7-1.2v0c0-0.7-0.4-1-2.1-1.5
				c-2-0.5-3.2-1.1-3.2-2.8v0c0-1.6,1.4-2.8,3.3-2.8c1.4,0,2.5,0.4,3.5,1.2l-0.9,1.3c-0.9-0.6-1.7-1-2.6-1c-1,0-1.6,0.5-1.6,1.1v0
				c0,0.7,0.4,1.1,2.3,1.5c2,0.5,3.1,1.2,3.1,2.8v0c0,1.8-1.4,2.8-3.4,2.8C43.6,21.6,42.3,21.1,41.1,20.1z"/>
			<path fill="#0094D4" d="M49.7,17.9L49.7,17.9c0-2.1,1.5-3.8,3.5-3.8c2.3,0,3.4,1.8,3.4,3.9c0,0.1,0,0.3,0,0.5h-5.3
				c0.2,1.2,1,1.8,2.1,1.8c0.8,0,1.4-0.3,1.9-0.9l1,0.9c-0.7,0.8-1.6,1.3-2.9,1.3C51.4,21.6,49.7,20.1,49.7,17.9z M55.1,17.4
				c-0.1-1.1-0.7-1.9-1.8-1.9c-1,0-1.7,0.8-1.9,1.9H55.1z"/>
			<path fill="#0094D4" d="M57.8,17.9L57.8,17.9c0-2.1,1.6-3.8,3.7-3.8c1.4,0,2.2,0.5,2.9,1.2l-1,1.1c-0.5-0.5-1-0.9-1.9-0.9
				c-1.2,0-2.1,1-2.1,2.3v0c0,1.3,0.9,2.3,2.1,2.3c0.8,0,1.3-0.4,1.9-0.9l1,1c-0.7,0.8-1.5,1.3-2.9,1.3C59.4,21.6,57.8,20,57.8,17.9
				z"/>
			<path fill="#0094D4" d="M65.9,14.3h1.6v1.6c0.4-1.1,1.3-1.8,2.5-1.8v1.7H70c-1.4,0-2.4,0.9-2.4,2.8v2.7h-1.6V14.3z"/>
			<path fill="#0094D4" d="M70.7,17.9L70.7,17.9c0-2.1,1.5-3.8,3.5-3.8c2.3,0,3.4,1.8,3.4,3.9c0,0.1,0,0.3,0,0.5h-5.3
				c0.2,1.2,1,1.8,2.1,1.8c0.8,0,1.4-0.3,1.9-0.9l1,0.9c-0.7,0.8-1.6,1.3-2.9,1.3C72.3,21.6,70.7,20.1,70.7,17.9z M76,17.4
				c-0.1-1.1-0.7-1.9-1.8-1.9c-1,0-1.7,0.8-1.9,1.9H76z"/>
			<path fill="#0094D4" d="M79.5,19.5v-3.8h-0.9v-1.4h0.9v-2h1.6v2h1.9v1.4h-1.9v3.5c0,0.6,0.3,0.9,0.9,0.9c0.4,0,0.7-0.1,1-0.2v1.3
				c-0.4,0.2-0.9,0.4-1.5,0.4C80.4,21.6,79.5,21.1,79.5,19.5z"/>
			<path fill="#0094D4" d="M89,21.5v-0.9c-0.5,0.6-1.2,1-2.3,1c-1.4,0-2.6-0.8-2.6-2.2v0c0-1.6,1.2-2.4,2.9-2.4c0.9,0,1.4,0.1,2,0.3
				v-0.1c0-1-0.6-1.5-1.8-1.5c-0.8,0-1.4,0.2-2.1,0.4l-0.4-1.3c0.8-0.4,1.6-0.6,2.7-0.6c2.1,0,3.2,1.1,3.2,3v4.3H89z M89.1,18.5
				c-0.4-0.2-1-0.3-1.6-0.3c-1,0-1.6,0.4-1.6,1.1v0c0,0.7,0.6,1.1,1.4,1.1c1.1,0,1.9-0.6,1.9-1.5V18.5z"/>
			<path fill="#0094D4" d="M92.5,14.3h1.6v1.6c0.4-1.1,1.3-1.8,2.5-1.8v1.7h-0.1c-1.4,0-2.4,0.9-2.4,2.8v2.7h-1.6V14.3z"/>
			<path fill="#0094D4" d="M98,14.3h1.6v7.2H98V14.3z M99.6,11.1l1.5,0.7l-1.7,1.6h-1.2L99.6,11.1z"/>
			<path fill="#0094D4" d="M106.1,21.5v-0.9c-0.5,0.6-1.2,1-2.3,1c-1.4,0-2.6-0.8-2.6-2.2v0c0-1.6,1.2-2.4,2.9-2.4
				c0.9,0,1.4,0.1,2,0.3v-0.1c0-1-0.6-1.5-1.8-1.5c-0.8,0-1.4,0.2-2.1,0.4l-0.4-1.3c0.8-0.4,1.6-0.6,2.7-0.6c2.1,0,3.2,1.1,3.2,3
				v4.3H106.1z M106.1,18.5c-0.4-0.2-1-0.3-1.6-0.3c-1,0-1.6,0.4-1.6,1.1v0c0,0.7,0.6,1.1,1.4,1.1c1.1,0,1.9-0.6,1.9-1.5V18.5z"/>
			<path fill="#0094D4" d="M113.1,17.9L113.1,17.9c0-2.4,1.6-3.8,3.3-3.8c1.2,0,1.9,0.6,2.4,1.3v-3.9h1.6v9.9h-1.6v-1.2
				c-0.5,0.7-1.3,1.3-2.4,1.3C114.8,21.6,113.1,20.3,113.1,17.9z M118.9,17.9L118.9,17.9c0-1.4-1-2.3-2.1-2.3
				c-1.1,0-2.1,0.9-2.1,2.3v0c0,1.4,1,2.3,2.1,2.3C118,20.2,118.9,19.3,118.9,17.9z"/>
			<path fill="#0094D4" d="M122.1,17.9L122.1,17.9c0-2.1,1.5-3.8,3.5-3.8c2.3,0,3.4,1.8,3.4,3.9c0,0.1,0,0.3,0,0.5h-5.3
				c0.2,1.2,1,1.8,2.1,1.8c0.8,0,1.4-0.3,1.9-0.9l1,0.9c-0.7,0.8-1.6,1.3-2.9,1.3C123.7,21.6,122.1,20.1,122.1,17.9z M127.4,17.4
				c-0.1-1.1-0.7-1.9-1.8-1.9c-1,0-1.7,0.8-1.9,1.9H127.4z"/>
			<path fill="#0094D4" d="M134.7,11.9h1.8l2.9,4.5l2.9-4.5h1.8v9.5h-1.7v-6.8l-3,4.5h-0.1l-3-4.5v6.8h-1.6V11.9z"/>
			<path fill="#0094D4" d="M145.8,17.9L145.8,17.9c0-2.1,1.6-3.8,3.8-3.8c2.2,0,3.8,1.7,3.8,3.7v0c0,2-1.6,3.7-3.9,3.7
				C147.4,21.6,145.8,20,145.8,17.9z M151.8,17.9L151.8,17.9c0-1.3-0.9-2.3-2.2-2.3c-1.3,0-2.2,1-2.2,2.3v0c0,1.3,0.9,2.3,2.2,2.3
				C151,20.2,151.8,19.2,151.8,17.9z"/>
			<path fill="#0094D4" d="M154.6,17.9L154.6,17.9c0-2.4,1.6-3.8,3.3-3.8c1.2,0,1.9,0.6,2.4,1.3v-3.9h1.6v9.9h-1.6v-1.2
				c-0.5,0.7-1.3,1.3-2.4,1.3C156.3,21.6,154.6,20.3,154.6,17.9z M160.4,17.9L160.4,17.9c0-1.4-1-2.3-2.1-2.3
				c-1.1,0-2.1,0.9-2.1,2.3v0c0,1.4,1,2.3,2.1,2.3C159.5,20.2,160.4,19.3,160.4,17.9z"/>
			<path fill="#0094D4" d="M163.6,17.9L163.6,17.9c0-2.1,1.5-3.8,3.5-3.8c2.3,0,3.4,1.8,3.4,3.9c0,0.1,0,0.3,0,0.5h-5.3
				c0.2,1.2,1,1.8,2.1,1.8c0.8,0,1.4-0.3,1.9-0.9l1,0.9c-0.7,0.8-1.6,1.3-2.9,1.3C165.2,21.6,163.6,20.1,163.6,17.9z M168.9,17.4
				c-0.1-1.1-0.7-1.9-1.8-1.9c-1,0-1.7,0.8-1.9,1.9H168.9z"/>
			<path fill="#0094D4" d="M172.1,14.3h1.6v1.6c0.4-1.1,1.3-1.8,2.5-1.8v1.7h-0.1c-1.4,0-2.4,0.9-2.4,2.8v2.7h-1.6V14.3z"/>
			<path fill="#0094D4" d="M177.5,14.3h1.6v1.1c0.5-0.7,1.1-1.3,2.2-1.3c1.6,0,2.6,1.1,2.6,2.8v4.6h-1.6v-4.1c0-1.1-0.6-1.8-1.5-1.8
				c-1,0-1.6,0.7-1.6,1.8v4.1h-1.6V14.3z"/>
			<path fill="#0094D4" d="M185.9,11.6h1.8v1.6h-1.8V11.6z M185.9,14.3h1.6v7.2h-1.6V14.3z"/>
			<path fill="#0094D4" d="M189.3,20.3l4.1-4.7h-4v-1.3h6.1v1.1l-4.1,4.7h4.1v1.3h-6.2V20.3z"/>
			<path fill="#0094D4" d="M201.5,21.5v-0.9c-0.5,0.6-1.2,1-2.3,1c-1.4,0-2.6-0.8-2.6-2.2v0c0-1.6,1.2-2.4,2.9-2.4
				c0.9,0,1.4,0.1,2,0.3v-0.1c0-1-0.6-1.5-1.8-1.5c-0.8,0-1.4,0.2-2.1,0.4l-0.4-1.3c0.8-0.4,1.6-0.6,2.7-0.6c2.1,0,3.2,1.1,3.2,3
				v4.3H201.5z M201.5,18.5c-0.4-0.2-1-0.3-1.6-0.3c-1,0-1.6,0.4-1.6,1.1v0c0,0.7,0.6,1.1,1.4,1.1c1.1,0,1.9-0.6,1.9-1.5V18.5z"/>
			<path fill="#0094D4" d="M204.5,17.9L204.5,17.9c0-2.1,1.6-3.8,3.7-3.8c1.4,0,2.2,0.5,2.9,1.2l-1,1.1c-0.5-0.5-1-0.9-1.9-0.9
				c-1.2,0-2.1,1-2.1,2.3v0c0,1.3,0.9,2.3,2.1,2.3c0.8,0,1.3-0.4,1.9-0.9l1,1c-0.7,0.8-1.5,1.3-2.9,1.3
				C206.1,21.6,204.5,20,204.5,17.9z"/>
			<path fill="#0094D4" d="M212.6,11.6h1.8v1.6h-1.8V11.6z M212.7,14.3h1.6v7.2h-1.6V14.3z"/>
			<path fill="#0094D4" d="M215.9,17.9L215.9,17.9c0-2.1,1.6-3.8,3.8-3.8c2.2,0,3.8,1.7,3.8,3.7v0c0,2-1.6,3.7-3.9,3.7
				C217.5,21.6,215.9,20,215.9,17.9z M221.9,17.9L221.9,17.9c0-1.3-0.9-2.3-2.2-2.3c-1.3,0-2.2,1-2.2,2.3v0c0,1.3,0.9,2.3,2.2,2.3
				C221.1,20.2,221.9,19.2,221.9,17.9z M220.5,11.1l1.5,0.7l-1.7,1.6h-1.2L220.5,11.1z"/>
			<path fill="#0094D4" d="M225.1,14.3h1.6v1.1c0.5-0.7,1.1-1.3,2.2-1.3c1.6,0,2.6,1.1,2.6,2.8v4.6h-1.6v-4.1c0-1.1-0.6-1.8-1.5-1.8
				c-1,0-1.6,0.7-1.6,1.8v4.1h-1.6V14.3z"/>
		</g>
	</g>
</g>
</svg>
