<?xml version="1.0" encoding="utf-8"?>
<!-- Generator: Adobe Illustrator 18.0.0, SVG Export Plug-In . SVG Version: 6.00 Build 0)  -->
<!DOCTYPE svg PUBLIC "-//W3C//DTD SVG 1.1//EN" "http://www.w3.org/Graphics/SVG/1.1/DTD/svg11.dtd">
<svg version="1.1" id="Layer_1" xmlns="http://www.w3.org/2000/svg" xmlns:xlink="http://www.w3.org/1999/xlink" x="0px" y="0px"
	 viewBox="0 0 262.7 48.3" enable-background="new 0 0 262.7 48.3" xml:space="preserve">
<g>
	<g>
		<g>
			<path fill="#0094D4" d="M40.9,11.2h1.7l2.8,4.4l2.8-4.4h1.7v9.3h-1.6v-6.7l-2.9,4.4h-0.1l-2.9-4.4v6.7h-1.6V11.2z"/>
			<path fill="#0094D4" d="M52,10.9h1.7v1.5H52V10.9z M52.1,13.5h1.6v7h-1.6V13.5z"/>
			<path fill="#0094D4" d="M55.6,13.5h1.6v1.1c0.5-0.7,1.1-1.2,2.2-1.2c1.6,0,2.5,1.1,2.5,2.7v4.5h-1.6v-4c0-1.1-0.5-1.7-1.5-1.7
				c-0.9,0-1.6,0.7-1.6,1.7v4h-1.6V13.5z"/>
			<path fill="#0094D4" d="M63.6,10.9h1.7v1.5h-1.7V10.9z M63.6,13.5h1.6v7h-1.6V13.5z"/>
			<path fill="#0094D4" d="M66.5,19.6l0.7-1.1c0.8,0.6,1.6,0.9,2.3,0.9c0.7,0,1.1-0.3,1.1-0.8v0c0-0.5-0.7-0.7-1.6-1
				c-1-0.3-2.2-0.7-2.2-2.1v0c0-1.3,1.1-2.1,2.5-2.1c0.9,0,1.8,0.3,2.6,0.8l-0.6,1.1c-0.7-0.4-1.4-0.7-2-0.7c-0.6,0-1,0.3-1,0.7v0
				c0,0.5,0.8,0.7,1.6,1c1,0.3,2.2,0.8,2.2,2v0c0,1.5-1.1,2.2-2.6,2.2C68.5,20.7,67.4,20.3,66.5,19.6z"/>
			<path fill="#0094D4" d="M73.8,18.6v-3.7h-0.9v-1.4h0.9v-1.9h1.6v1.9h1.9v1.4h-1.9v3.4c0,0.6,0.3,0.9,0.9,0.9c0.4,0,0.7-0.1,1-0.2
				v1.3c-0.4,0.2-0.9,0.4-1.4,0.4C74.6,20.6,73.8,20.1,73.8,18.6z"/>
			<path fill="#0094D4" d="M78.3,17L78.3,17c0-2,1.4-3.7,3.4-3.7c2.2,0,3.4,1.8,3.4,3.8c0,0.1,0,0.3,0,0.5h-5.2c0.2,1.1,1,1.8,2,1.8
				c0.8,0,1.3-0.3,1.9-0.8l0.9,0.8c-0.7,0.8-1.6,1.3-2.9,1.3C79.8,20.7,78.3,19.2,78.3,17z M83.5,16.5c-0.1-1-0.7-1.8-1.8-1.8
				c-1,0-1.7,0.8-1.8,1.8H83.5z"/>
			<path fill="#0094D4" d="M86.4,13.5H88v1.6c0.4-1.1,1.3-1.8,2.5-1.7v1.7h-0.1C89,15.1,88,16,88,17.9v2.7h-1.6V13.5z"/>
			<path fill="#0094D4" d="M91.7,10.9h1.7v1.5h-1.7V10.9z M91.7,13.5h1.6v7h-1.6V13.5z"/>
			<path fill="#0094D4" d="M94.8,17.1L94.8,17.1c0-2,1.6-3.7,3.8-3.7c2.2,0,3.7,1.6,3.7,3.6v0c0,2-1.6,3.7-3.8,3.7
				C96.4,20.7,94.8,19.1,94.8,17.1z M100.7,17.1L100.7,17.1c0-1.3-0.9-2.3-2.2-2.3c-1.3,0-2.1,1-2.1,2.2v0c0,1.2,0.9,2.3,2.1,2.3
				C99.9,19.3,100.7,18.3,100.7,17.1z"/>
			<path fill="#0094D4" d="M107,17L107,17c0-2.4,1.6-3.7,3.3-3.7c1.2,0,1.9,0.6,2.4,1.2v-3.8h1.6v9.7h-1.6v-1.2
				c-0.5,0.7-1.3,1.3-2.4,1.3C108.6,20.7,107,19.4,107,17z M112.7,17L112.7,17c0-1.4-1-2.3-2-2.3c-1.1,0-2,0.9-2,2.2v0
				c0,1.4,0.9,2.2,2,2.2C111.7,19.3,112.7,18.4,112.7,17z"/>
			<path fill="#0094D4" d="M115.6,17L115.6,17c0-2,1.4-3.7,3.4-3.7c2.2,0,3.4,1.8,3.4,3.8c0,0.1,0,0.3,0,0.5h-5.2
				c0.2,1.1,1,1.8,2,1.8c0.8,0,1.3-0.3,1.9-0.8l0.9,0.8c-0.7,0.8-1.6,1.3-2.9,1.3C117.2,20.7,115.6,19.2,115.6,17z M120.8,16.5
				c-0.1-1-0.7-1.8-1.8-1.8c-1,0-1.7,0.8-1.8,1.8H120.8z"/>
			<path fill="#0094D4" d="M130,12.7h-3v-1.5h7.6v1.5h-3v7.8H130V12.7z"/>
			<path fill="#0094D4" d="M135.9,13.5h1.6v1.6c0.4-1.1,1.3-1.8,2.5-1.7v1.7h-0.1c-1.4,0-2.4,0.9-2.4,2.8v2.7h-1.6V13.5z"/>
			<path fill="#0094D4" d="M145.4,20.5v-0.9c-0.5,0.6-1.2,1-2.3,1c-1.3,0-2.5-0.8-2.5-2.2v0c0-1.6,1.2-2.3,2.8-2.3
				c0.9,0,1.4,0.1,1.9,0.3v-0.1c0-1-0.6-1.5-1.7-1.5c-0.8,0-1.4,0.2-2,0.4l-0.4-1.3c0.8-0.3,1.5-0.6,2.7-0.6c2.1,0,3.1,1.1,3.1,3
				v4.2H145.4z M145.4,17.6c-0.4-0.2-1-0.3-1.6-0.3c-1,0-1.6,0.4-1.6,1.1v0c0,0.7,0.6,1,1.4,1c1.1,0,1.9-0.6,1.9-1.5V17.6z"/>
			<path fill="#0094D4" d="M148.6,13.5h1.6v1.1c0.5-0.7,1.1-1.2,2.2-1.2c1.6,0,2.5,1.1,2.5,2.7v4.5h-1.6v-4c0-1.1-0.5-1.7-1.5-1.7
				c-0.9,0-1.6,0.7-1.6,1.7v4h-1.6V13.5z"/>
			<path fill="#0094D4" d="M156,19.6l0.7-1.1c0.8,0.6,1.6,0.9,2.3,0.9c0.7,0,1.1-0.3,1.1-0.8v0c0-0.5-0.7-0.7-1.6-1
				c-1-0.3-2.2-0.7-2.2-2.1v0c0-1.3,1.1-2.1,2.5-2.1c0.9,0,1.8,0.3,2.6,0.8l-0.6,1.1c-0.7-0.4-1.4-0.7-2-0.7c-0.6,0-1,0.3-1,0.7v0
				c0,0.5,0.8,0.7,1.6,1c1,0.3,2.2,0.8,2.2,2v0c0,1.5-1.1,2.2-2.6,2.2C158,20.7,156.9,20.3,156,19.6z"/>
			<path fill="#0094D4" d="M163,13.5h1.6v1.2c0.5-0.7,1.3-1.3,2.4-1.3c1.7,0,3.3,1.3,3.3,3.6v0c0,2.3-1.6,3.6-3.3,3.6
				c-1.2,0-1.9-0.6-2.4-1.2v3.2H163V13.5z M168.6,17L168.6,17c0-1.4-0.9-2.3-2-2.3s-2,0.9-2,2.2v0c0,1.4,1,2.2,2,2.2
				C167.7,19.3,168.6,18.4,168.6,17z"/>
			<path fill="#0094D4" d="M171.3,17.1L171.3,17.1c0-2,1.6-3.7,3.8-3.7c2.2,0,3.7,1.6,3.7,3.6v0c0,2-1.6,3.7-3.8,3.7
				C172.8,20.7,171.3,19.1,171.3,17.1z M177.1,17.1L177.1,17.1c0-1.3-0.9-2.3-2.2-2.3c-1.3,0-2.1,1-2.1,2.2v0c0,1.2,0.9,2.3,2.1,2.3
				C176.3,19.3,177.1,18.3,177.1,17.1z"/>
			<path fill="#0094D4" d="M180.1,13.5h1.6v1.6c0.4-1.1,1.3-1.8,2.5-1.7v1.7h-0.1c-1.4,0-2.4,0.9-2.4,2.8v2.7h-1.6V13.5z"/>
			<path fill="#0094D4" d="M185.7,18.6v-3.7h-0.9v-1.4h0.9v-1.9h1.6v1.9h1.9v1.4h-1.9v3.4c0,0.6,0.3,0.9,0.9,0.9
				c0.4,0,0.7-0.1,1-0.2v1.3c-0.4,0.2-0.9,0.4-1.4,0.4C186.5,20.6,185.7,20.1,185.7,18.6z"/>
			<path fill="#0094D4" d="M190.1,17L190.1,17c0-2,1.4-3.7,3.4-3.7c2.2,0,3.4,1.8,3.4,3.8c0,0.1,0,0.3,0,0.5h-5.2
				c0.2,1.1,1,1.8,2,1.8c0.8,0,1.3-0.3,1.9-0.8l0.9,0.8c-0.7,0.8-1.6,1.3-2.9,1.3C191.7,20.7,190.1,19.2,190.1,17z M195.3,16.5
				c-0.1-1-0.7-1.8-1.8-1.8c-1,0-1.7,0.8-1.8,1.8H195.3z"/>
		</g>
	</g>
	<g>
		<path fill="#0094D4" d="M40.9,26.1H46c3,0,4.9,1.7,4.9,4.3v0c0,2.9-2.3,4.4-5.2,4.4h-2.6v4.2h-2.3V26.1z M45.8,32.8
			c1.7,0,2.8-1,2.8-2.3v0c0-1.5-1.1-2.3-2.8-2.3h-2.6v4.7H45.8z"/>
		<path fill="#0094D4" d="M52.8,29.3h2.2v2.2c0.6-1.5,1.7-2.5,3.5-2.4v2.4h-0.1c-2,0-3.3,1.3-3.3,3.9v3.7h-2.2V29.3z"/>
		<path fill="#0094D4" d="M59.8,34.2L59.8,34.2c0-2.8,2-5.1,4.8-5.1c3.1,0,4.7,2.4,4.7,5.3c0,0.2,0,0.4,0,0.6H62
			c0.2,1.6,1.4,2.5,2.8,2.5c1.1,0,1.9-0.4,2.6-1.2l1.3,1.2c-0.9,1.1-2.2,1.8-4,1.8C61.9,39.3,59.8,37.2,59.8,34.2 M67,33.5
			c-0.1-1.4-1-2.6-2.5-2.6c-1.4,0-2.3,1.1-2.5,2.6H67z"/>
		<path fill="#0094D4" d="M70.5,37.8l1-1.5c1.1,0.8,2.2,1.2,3.2,1.2c1,0,1.5-0.4,1.5-1.1v0c0-0.8-1-1-2.2-1.4
			c-1.4-0.4-3.1-1-3.1-2.9v0c0-1.9,1.5-3,3.5-3c1.2,0,2.6,0.4,3.6,1.1l-0.9,1.6c-0.9-0.6-1.9-0.9-2.8-0.9c-0.9,0-1.4,0.4-1.4,1v0
			c0,0.7,1.1,1,2.2,1.4c1.4,0.4,3,1.1,3,2.9v0c0,2.1-1.6,3.1-3.6,3.1C73.3,39.3,71.7,38.8,70.5,37.8"/>
		<path fill="#0094D4" d="M80.4,25.7h2.4v2.1h-2.4V25.7z M80.5,29.3h2.2v9.8h-2.2V29.3z"/>
		<path fill="#0094D4" d="M85,34.2L85,34.2c0-3.3,2.2-5.1,4.5-5.1c1.6,0,2.6,0.8,3.3,1.7v-5.3h2.2v13.5h-2.2v-1.6
			c-0.7,1-1.7,1.8-3.3,1.8C87.2,39.3,85,37.4,85,34.2 M92.9,34.2L92.9,34.2c0-1.9-1.3-3.2-2.8-3.2c-1.5,0-2.8,1.2-2.8,3.1v0
			c0,1.9,1.3,3.1,2.8,3.1C91.6,37.3,92.9,36.1,92.9,34.2"/>
		<path fill="#0094D4" d="M97.2,34.2L97.2,34.2c0-2.8,2-5.1,4.8-5.1c3.1,0,4.7,2.4,4.7,5.3c0,0.2,0,0.4,0,0.6h-7.2
			c0.2,1.6,1.4,2.5,2.8,2.5c1.1,0,1.9-0.4,2.6-1.2l1.3,1.2c-0.9,1.1-2.2,1.8-4,1.8C99.4,39.3,97.2,37.2,97.2,34.2 M104.4,33.5
			c-0.1-1.4-1-2.6-2.5-2.6c-1.4,0-2.3,1.1-2.5,2.6H104.4z"/>
		<path fill="#0094D4" d="M108.7,29.3h2.2v1.5c0.6-0.9,1.5-1.7,3.1-1.7c2.2,0,3.5,1.5,3.5,3.8v6.2h-2.2v-5.6c0-1.5-0.8-2.4-2.1-2.4
			c-1.3,0-2.2,0.9-2.2,2.4v5.5h-2.2V29.3z"/>
		<path fill="#0094D4" d="M119.5,34.2L119.5,34.2c0-2.8,2.1-5.1,5.1-5.1c1.9,0,3,0.7,3.9,1.7l-1.4,1.5c-0.7-0.7-1.4-1.2-2.5-1.2
			c-1.6,0-2.8,1.4-2.8,3.1v0c0,1.7,1.2,3.1,2.9,3.1c1.1,0,1.8-0.5,2.5-1.2l1.4,1.3c-1,1.1-2.1,1.8-4,1.8
			C121.6,39.3,119.5,37,119.5,34.2"/>
		<path fill="#0094D4" d="M130.4,25.7h2.4v2.1h-2.4V25.7z M130.5,29.3h2.2v9.8h-2.2V29.3z"/>
		<path fill="#0094D4" d="M141.5,39.1v-1.2c-0.7,0.8-1.7,1.4-3.2,1.4c-1.9,0-3.5-1.1-3.5-3v0c0-2.2,1.7-3.2,4-3.2
			c1.2,0,1.9,0.2,2.7,0.4v-0.2c0-1.4-0.9-2.1-2.4-2.1c-1.1,0-1.9,0.2-2.8,0.6l-0.6-1.8c1.1-0.5,2.1-0.8,3.7-0.8
			c2.9,0,4.3,1.5,4.3,4.1v5.8H141.5z M141.6,35c-0.6-0.2-1.4-0.4-2.2-0.4c-1.4,0-2.2,0.6-2.2,1.5v0c0,0.9,0.8,1.4,1.9,1.4
			c1.5,0,2.6-0.8,2.6-2.1V35z"/>
		<path fill="#0094D4" d="M151.1,34.2L151.1,34.2c0-3.3,2.2-5.1,4.5-5.1c1.6,0,2.6,0.8,3.3,1.7v-5.3h2.2v13.5h-2.2v-1.6
			c-0.7,1-1.7,1.8-3.3,1.8C153.3,39.3,151.1,37.4,151.1,34.2 M159,34.2L159,34.2c0-1.9-1.3-3.2-2.8-3.2c-1.5,0-2.8,1.2-2.8,3.1v0
			c0,1.9,1.3,3.1,2.8,3.1C157.7,37.3,159,36.1,159,34.2"/>
		<path fill="#0094D4" d="M163.3,34.2L163.3,34.2c0-2.8,2-5.1,4.8-5.1c3.1,0,4.7,2.4,4.7,5.3c0,0.2,0,0.4,0,0.6h-7.2
			c0.2,1.6,1.4,2.5,2.8,2.5c1.1,0,1.9-0.4,2.6-1.2l1.3,1.2c-0.9,1.1-2.2,1.8-4,1.8C165.4,39.3,163.3,37.2,163.3,34.2 M170.5,33.5
			c-0.1-1.4-1-2.6-2.5-2.6c-1.4,0-2.3,1.1-2.5,2.6H170.5z"/>
		<rect x="180.3" y="25.5" fill="#0094D4" width="2.2" height="13.5"/>
		<path fill="#0094D4" d="M191.3,39.1v-1.2c-0.7,0.8-1.7,1.4-3.2,1.4c-1.9,0-3.5-1.1-3.5-3v0c0-2.2,1.7-3.2,4-3.2
			c1.2,0,1.9,0.2,2.7,0.4v-0.2c0-1.4-0.9-2.1-2.4-2.1c-1.1,0-1.9,0.2-2.8,0.6l-0.6-1.8c1.1-0.5,2.1-0.8,3.7-0.8
			c2.9,0,4.3,1.5,4.3,4.1v5.8H191.3z M191.3,35c-0.6-0.2-1.4-0.4-2.2-0.4c-1.4,0-2.2,0.6-2.2,1.5v0c0,0.9,0.8,1.4,1.9,1.4
			c1.5,0,2.6-0.8,2.6-2.1V35z"/>
		<polygon fill="#0094D4" points="201.6,26.1 203.7,26.1 210.7,35.1 210.7,26.1 212.9,26.1 212.9,39.1 211,39.1 203.8,29.8 
			203.8,39.1 201.6,39.1 		"/>
		<path fill="#0094D4" d="M221.8,39.1v-1.2c-0.7,0.8-1.7,1.4-3.2,1.4c-1.9,0-3.5-1.1-3.5-3v0c0-2.2,1.7-3.2,4-3.2
			c1.2,0,1.9,0.2,2.7,0.4v-0.2c0-1.4-0.9-2.1-2.4-2.1c-1.1,0-1.9,0.2-2.8,0.6L216,30c1.1-0.5,2.1-0.8,3.7-0.8c2.9,0,4.3,1.5,4.3,4.1
			v5.8H221.8z M221.8,35c-0.6-0.2-1.4-0.4-2.2-0.4c-1.4,0-2.2,0.6-2.2,1.5v0c0,0.9,0.8,1.4,1.9,1.4c1.5,0,2.6-0.8,2.6-2.1V35z"/>
		<path fill="#0094D4" d="M225.9,34.2L225.9,34.2c0-2.8,2.1-5.1,5.1-5.1c1.9,0,3,0.7,3.9,1.7l-1.4,1.5c-0.7-0.7-1.4-1.2-2.5-1.2
			c-1.6,0-2.8,1.4-2.8,3.1v0c0,1.7,1.2,3.1,2.9,3.1c1.1,0,1.8-0.5,2.5-1.2l1.4,1.3c-1,1.1-2.1,1.8-4,1.8
			C228.1,39.3,225.9,37,225.9,34.2"/>
		<path fill="#0094D4" d="M236.9,25.7h2.4v2.1h-2.4V25.7z M237,29.3h2.2v9.8H237V29.3z"/>
		<path fill="#0094D4" d="M241.4,34.2L241.4,34.2c0-2.8,2.2-5.1,5.2-5.1s5.2,2.3,5.2,5.1v0c0,2.8-2.2,5.1-5.2,5.1
			C243.7,39.3,241.4,37,241.4,34.2 M249.6,34.2L249.6,34.2c0-1.8-1.2-3.2-3-3.2c-1.8,0-2.9,1.4-2.9,3.1v0c0,1.7,1.2,3.1,3,3.1
			C248.5,37.3,249.6,35.9,249.6,34.2 M247.7,25l2,0.9l-2.3,2.1h-1.7L247.7,25z"/>
		<path fill="#0094D4" d="M254,29.3h2.2v1.5c0.6-0.9,1.5-1.7,3.1-1.7c2.2,0,3.5,1.5,3.5,3.8v6.2h-2.2v-5.6c0-1.5-0.8-2.4-2.1-2.4
			c-1.3,0-2.2,0.9-2.2,2.4v5.5H254V29.3z"/>
		<path fill="#0094D4" d="M14.8,23.4h-2.7c-0.6,0-0.9-0.2-1.1-0.4c-0.1-0.2-0.2-0.4-0.3-0.7c0,0,0,0,0-0.1c0-0.2,0-0.5,0-0.8
			c0.4-1.8,1.1-3,1.6-3.7c-0.1,0-0.1,0-0.2-0.1c-0.4-0.2-0.6-0.6-0.5-1.1c0.1-0.6,0.7-1.2,0.8-1.3c0.9-1.1,2.3-1.1,2.5-1.1
			c0.2,0,2-0.1,3,1.8c1.2,2.3,1.4,4.2,1.7,5.7l0,0.1c0,0.3,0,0.5,0,0.7c0,0,0,0,0,0.1c-0.1,0.2-0.2,0.4-0.3,0.5
			c-0.2,0.3-0.6,0.4-1.1,0.5c-0.2,0-0.4,0-0.5,0c-0.1,0-0.1,0-0.1,0h-2.1v3.8h12c0-2.2-0.3-4.4-1-6.4c-0.6-2-1.5-3.7-2.7-5.2
			c-1.1-1.5-2.5-2.7-4-3.5c-1.5-0.9-3.1-1.3-4.8-1.3c-1.7,0-3.3,0.4-4.8,1.3c-1.5,0.8-2.8,2-4,3.5c-1.1,1.5-2.1,3.3-2.7,5.2
			c-0.7,2-1,4.2-1,6.4h12V23.4z"/>
		<path fill="#FFFFFF" d="M2.8,27.3c0,1.7,0.2,3.3,0.6,4.9c5.4-0.6,8.6-1.2,9.6-1.9c0.7-0.5,1.2-0.7,1.9-0.7v-2.3H2.8z"/>
		<path fill="#FFFFFF" d="M15.6,29.7c0.5,0.1,0.8,0.2,1.2,0.4c0,0,0.1,0,0.1,0c0.7,0,1.3,0.2,2.1,0.5c0.2,0.1,0.5,0.2,0.7,0.3
			c0.1,0,4,1.3,7.3,1.4c0.4-1.6,0.6-3.3,0.6-5h-12V29.7z"/>
		<path fill="#231F20" d="M14.4,8.7L14.4,8.7L14.4,8.7z"/>
		<path fill="#FFFFFF" d="M20.5,34.9c-0.1,0.1-0.1,0.2-0.2,0.3c-0.2,0.2-0.5,0.3-0.8,0.3c0,0.1-0.1,0.2-0.2,0.3
			c-0.2,0.2-0.5,0.4-1.1,0.4c-0.1,0.1-0.1,0.2-0.2,0.3c-0.3,0.3-0.6,0.4-1,0.3c-0.1,0.1-0.2,0.2-0.4,0.2c-0.2,0.1-0.6,0.2-1,0.1v3.2
			c0,0.2-0.2,0.4-0.4,0.4c-0.2,0-0.4-0.2-0.4-0.4v-3.1c-0.2,0.1-0.3,0.1-0.5,0.1c-0.1,0-0.1,0-0.2,0c-0.2,0-0.4-0.2-0.6-0.3
			c-0.3,0-0.7,0.1-1.1-0.2c-0.1-0.1-0.2-0.2-0.3-0.4c-0.1,0-0.2,0-0.4-0.1c-0.4-0.1-0.6-0.3-0.7-0.6c-0.1,0-0.2,0-0.3,0
			c-0.3,0-0.7-0.2-0.8-0.5c0-0.1-0.1-0.1-0.1-0.2c-1.7,0.9-3.7,1.8-4.6,2.2c0.3,0.6,0.7,1.1,1.1,1.7c1.1,1.5,2.5,2.7,4,3.5
			c0.7,0.4,1.4,0.7,2.1,0.9c0.1-0.1,0.2-0.3,0.3-0.3c0.7-0.5,2-0.1,2.4,0c0.4-0.1,1.7-0.4,2.4,0c0.1,0.1,0.2,0.2,0.3,0.3
			c0.7-0.2,1.4-0.5,2.1-0.9c1.5-0.8,2.8-2,4-3.5c0.4-0.5,0.7-1,1-1.6C24.1,37,21.9,36,20.5,34.9"/>
		<path fill="#0094D4" d="M16.3,45.9c0-0.1,0-0.2,0-0.3c0-0.1,0-0.2,0-0.3c0.4-0.1,1.1-0.3,1.4-0.7c0.2-0.3,0.3-0.6,0.3-0.9
			c0-0.3-0.2-0.5-0.4-0.7c-0.7-0.5-2-0.1-2.4,0c-0.4-0.1-1.7-0.4-2.4,0c-0.2,0.2-0.4,0.4-0.4,0.7c0,0.3,0.1,0.6,0.3,0.9
			c0.4,0.4,1,0.6,1.4,0.7c0,0.1,0,0.2,0,0.3c0,0.1,0,0.2,0,0.3c-0.3,0.3-1.2,1.1-2.6,1.3c0,0.1,0.2,0.3,0.4,0.5
			c1.2-0.2,2.1-0.9,2.5-1.3c0,0,0.1,0.1,0.1,0.1c-0.1,0.3-0.5,1.2-1.9,1.6c0.2,0.1,0.5,0.2,0.9,0.3c1-0.5,1.4-1.2,1.5-1.6
			c0.1,0,0.1,0,0.2,0c0.1,0,0.1,0,0.2,0c0.1,0.4,0.5,1.1,1.5,1.6c0.4-0.1,0.6-0.1,0.9-0.3c-1.5-0.4-1.8-1.2-1.9-1.6
			c0,0,0.1-0.1,0.1-0.1c0.4,0.4,1.3,1,2.5,1.3c0.2-0.2,0.4-0.4,0.4-0.5C17.6,47,16.6,46.2,16.3,45.9"/>
		<path fill="#FFFFFF" d="M17.3,43.5c0.1,0.1,0.2,0.2,0.2,0.3c0,0.2,0,0.4-0.1,0.5c-0.2,0.2-0.4,0.3-0.7,0.4
			c0.1-0.3,0.1-0.5,0.1-0.8c-0.1-0.3-0.3-0.4-0.4-0.6C16.7,43.3,17.1,43.3,17.3,43.5"/>
		<path fill="#FFFFFF" d="M14.2,44.1c0.2-0.5,1-0.5,1-0.5c0,0,0.2,0,0.4,0.1c0.3,0.1,0.5,0.3,0.6,0.5c0.1,0.2-0.1,0.5-0.2,0.7
			c-0.2-0.2-0.5-0.3-0.8-0.3c-0.3,0-0.6,0.1-0.8,0.3C14.3,44.6,14.1,44.3,14.2,44.1"/>
		<path fill="#FFFFFF" d="M13.8,44.7c-0.3-0.1-0.5-0.2-0.7-0.4c-0.1-0.1-0.2-0.3-0.1-0.5c0-0.1,0.1-0.2,0.2-0.3
			c0.2-0.1,0.4-0.1,0.7-0.1c0.1,0,0.2,0,0.3,0c-0.2,0.1-0.3,0.3-0.4,0.6C13.6,44.2,13.7,44.5,13.8,44.7"/>
		<path fill="#FFFFFF" d="M14.6,45.6c0-0.3,0.3-0.6,0.6-0.6c0.3,0,0.6,0.3,0.6,0.6c0,0.3-0.3,0.6-0.6,0.6
			C14.9,46.2,14.6,45.9,14.6,45.6"/>
		<path fill="#FFFFFF" d="M18.5,47.6c-1.2-0.2-2.1-0.9-2.5-1.3c0,0-0.1,0.1-0.1,0.1c0.1,0.3,0.5,1.2,1.9,1.6
			C18.2,47.9,18.4,47.8,18.5,47.6"/>
		<path fill="#FFFFFF" d="M14.4,46.4c-0.4,0.4-1.3,1-2.5,1.3c0.2,0.1,0.4,0.3,0.7,0.4c1.5-0.4,1.9-1.2,1.9-1.6
			C14.5,46.4,14.4,46.4,14.4,46.4"/>
		<path fill="#231F20" d="M30.3,30.5c0-0.1,0-0.2-0.1-0.2c-0.1,0-0.1-0.1-0.2-0.1c0.1-0.1,0.1-0.2,0.1-0.3c0.2-0.5,0.3-1.1,0.3-1.8
			c0-0.1,0-0.2-0.1-0.2c-0.1,0-0.1-0.1-0.2,0c0-0.1,0.1-0.2,0.1-0.3c0.1-0.5,0.2-1.1,0.1-1.8c0-0.1-0.1-0.2-0.1-0.2
			c-0.1,0-0.1,0-0.2,0c0-0.1,0.1-0.3,0.1-0.4c0.1-0.5,0.1-1.1-0.1-1.8c0-0.1-0.1-0.2-0.2-0.2c0,0-0.1,0-0.1,0c0-0.1,0-0.2,0-0.3
			c0.1-0.5,0-1.1-0.1-1.8c0-0.1-0.1-0.2-0.2-0.2c-0.1,0-0.2,0-0.2,0h0c0-0.1,0-0.3,0-0.4c0-0.5-0.1-1.1-0.4-1.7
			c0-0.1-0.1-0.1-0.2-0.2c-0.1,0-0.1,0-0.2,0c0-0.1,0-0.3,0-0.4c-0.1-0.5-0.3-1.1-0.6-1.7c0-0.1-0.1-0.1-0.2-0.1
			c-0.1,0-0.1,0-0.2,0.1c0-0.1,0-0.2-0.1-0.4c-0.1-0.5-0.4-1.1-0.8-1.6c0-0.1-0.1-0.1-0.2-0.1c-0.1,0-0.2,0-0.2,0.1
			c0-0.1-0.1-0.3-0.2-0.4c-0.2-0.5-0.6-1-1-1.5c-0.1-0.1-0.2-0.1-0.2-0.1c-0.1,0-0.1,0.1-0.2,0.1c-0.1-0.1-0.1-0.3-0.2-0.4
			c-0.3-0.5-0.7-0.9-1.2-1.3c-0.1-0.1-0.2-0.1-0.2,0c-0.1,0-0.1,0.1-0.1,0.1c-0.3-0.4-0.8-0.8-1.4-1c0.1,0,0.2,0,0.3,0
			c0.7,0,1.2-0.1,1.2-0.1c0.2,0,0.2-0.2,0.2-0.4c0-0.2-0.2-0.3-0.3-0.3c-0.8,0-1.1-0.2-1.4-0.4c-0.1,0-0.1-0.1-0.2-0.1l1.8-0.3
			c0.2,0,0.3-0.2,0.3-0.3c0-0.2-0.1-0.3-0.3-0.3l-1.8-0.3c0.2-0.1,0.5-0.1,0.7-0.2c0.7-0.2,1.1-0.6,1.1-0.6c0.1-0.1,0.2-0.3,0.1-0.4
			c-0.1-0.1-0.2-0.2-0.4-0.1c-0.7,0.3-1.1,0.2-1.5,0.2c-0.1,0-0.2,0-0.2,0l1.6-1c0.1-0.1,0.2-0.3,0.1-0.4c-0.1-0.2-0.2-0.2-0.4-0.2
			l-1.8,0.5C20.8,5.2,21,5,21.2,4.8c0.5-0.5,0.8-0.9,0.8-1c0.1-0.1,0-0.3-0.1-0.4c-0.1-0.1-0.3-0.1-0.4,0c-0.6,0.5-0.9,0.6-1.3,0.7
			c-0.1,0-0.2,0-0.2,0.1L21,2.8c0.1-0.1,0.1-0.3,0-0.4c-0.1-0.1-0.3-0.1-0.4,0l-1.5,1.1c0.1-0.2,0.2-0.4,0.4-0.7
			c0.3-0.6,0.4-1.2,0.4-1.2c0-0.2-0.1-0.3-0.2-0.3c-0.2,0-0.3,0-0.4,0.2c-0.3,0.7-0.6,0.9-0.9,1.2c-0.1,0-0.1,0.1-0.2,0.2L18.5,1
			c0-0.2,0-0.3-0.2-0.4c-0.2-0.1-0.3,0-0.4,0.1L17,2.4c0-0.2,0.1-0.5,0.1-0.8c0-0.7-0.1-1.2-0.1-1.2c0-0.2-0.2-0.2-0.4-0.2
			c-0.2,0-0.3,0.2-0.3,0.3c0,0.8-0.2,1.1-0.4,1.4c0,0.1-0.1,0.1-0.1,0.2l-0.3-1.8c0-0.2-0.2-0.3-0.3-0.3c-0.2,0-0.3,0.1-0.3,0.3
			l-0.3,1.8c-0.1-0.2-0.1-0.5-0.2-0.7c-0.2-0.7-0.6-1.1-0.6-1.1c-0.1-0.1-0.3-0.2-0.4-0.1c-0.1,0.1-0.2,0.2-0.1,0.4
			c0.3,0.7,0.2,1.1,0.2,1.5c0,0.1,0,0.2,0,0.3l-1-1.6c-0.1-0.1-0.3-0.2-0.4-0.1c-0.1,0.1-0.2,0.2-0.2,0.4l0.5,1.8
			c-0.1-0.2-0.3-0.4-0.5-0.6c-0.5-0.5-0.9-0.8-1-0.8c-0.1-0.1-0.3,0-0.4,0.1c-0.1,0.1-0.1,0.3,0,0.4c0.5,0.6,0.6,0.9,0.7,1.3
			c0,0.1,0,0.2,0.1,0.2L9.9,2.4c-0.1-0.1-0.3-0.1-0.4,0c-0.1,0.1-0.1,0.3,0,0.4l1.1,1.5C10.3,4.2,10.1,4.1,9.8,4
			C9.2,3.6,8.7,3.6,8.7,3.6c-0.2,0-0.3,0.1-0.3,0.2c0,0.2,0,0.3,0.2,0.4c0.7,0.3,0.9,0.6,1.2,0.9c0.1,0.1,0.1,0.1,0.2,0.2L8,4.9
			c-0.2,0-0.3,0-0.4,0.2c-0.1,0.2,0,0.3,0.1,0.4l1.6,0.9c-0.2,0-0.5-0.1-0.7-0.1c-0.7,0-1.2,0.1-1.2,0.1c-0.2,0-0.2,0.2-0.2,0.4
			c0,0.2,0.2,0.3,0.3,0.3c0.8,0,1.1,0.2,1.4,0.4c0.1,0,0.1,0.1,0.2,0.1L7.3,7.9C7.1,7.9,7,8,7,8.2c0,0.2,0.1,0.3,0.3,0.3l1.8,0.3
			C8.9,8.8,8.7,8.9,8.4,9C7.7,9.2,7.3,9.6,7.3,9.6C7.2,9.7,7.2,9.9,7.2,10c0.1,0.1,0.2,0.2,0.4,0.1c0.4-0.2,0.7-0.2,1-0.2
			c-0.4,0.3-0.7,0.6-0.8,0.8c-0.1,0.1-0.1,0.2-0.2,0.3c0-0.1-0.1-0.1-0.1-0.1c-0.1,0-0.2,0-0.2,0c-0.5,0.4-0.9,0.8-1.2,1.3
			c-0.1,0.1-0.2,0.3-0.2,0.4c0-0.1-0.1-0.1-0.2-0.1c-0.1,0-0.2,0-0.2,0.1c-0.4,0.5-0.8,1-1,1.5c-0.1,0.1-0.1,0.3-0.2,0.4
			c0,0-0.1-0.1-0.2-0.1c-0.1,0-0.2,0-0.2,0.1C3.4,15,3.1,15.6,3,16.1c0,0.1-0.1,0.3-0.1,0.4c-0.1-0.1-0.1-0.1-0.2-0.1
			c-0.1,0-0.2,0.1-0.2,0.1c-0.3,0.6-0.5,1.1-0.6,1.7c0,0.1,0,0.3,0,0.4c-0.1-0.1-0.1-0.1-0.2-0.1c-0.1,0-0.2,0.1-0.2,0.2
			c-0.2,0.6-0.3,1.2-0.4,1.7c0,0.1,0,0.3,0,0.4c-0.1,0-0.1,0-0.2,0c-0.1,0-0.1,0.1-0.2,0.2c-0.2,0.6-0.2,1.2-0.1,1.8
			c0,0.1,0,0.2,0,0.3c0,0-0.1,0-0.1,0c-0.1,0-0.1,0.1-0.2,0.2c-0.1,0.6-0.1,1.2-0.1,1.8c0,0.1,0.1,0.3,0.1,0.4c0,0-0.1,0-0.1,0
			c-0.1,0-0.1,0.1-0.1,0.2c-0.1,0.6-0.1,1.2,0.1,1.8c0,0.1,0.1,0.2,0.1,0.3c-0.1,0-0.1,0-0.2,0C0,27.9,0,28,0,28.1
			c0,0.7,0.1,1.2,0.2,1.8c0.1,0.2,0.1,0.3,0.2,0.4c0,0,0,0,0,0c-0.1,0-0.2,0-0.2,0.1c-0.1,0.1-0.1,0.1-0.1,0.2
			c0.1,0.6,0.3,1.2,0.5,1.7c0.1,0.1,0.1,0.2,0.2,0.3c0,0-0.1,0-0.1,0.1c-0.1,0.1-0.1,0.2-0.1,0.2C0.7,33.5,1,34,1.3,34.5
			c0.1,0.1,0.1,0.2,0.2,0.3c-0.1,0-0.1,0-0.2,0.1c-0.1,0.1-0.1,0.2,0,0.2c0.2,0.6,0.5,1.1,0.9,1.6c0.1,0.1,0.2,0.2,0.2,0.3
			c-0.1,0-0.1,0.1-0.1,0.1c0,0.1,0,0.2,0,0.2c0.3,0.6,0.6,1.1,1,1.4c0.1,0.1,0.2,0.2,0.3,0.2c-0.1,0-0.1,0.1-0.1,0.1
			c0,0.1,0,0.2,0,0.2c0.4,0.5,0.8,1,1.2,1.3C4.7,40.8,4.8,40.9,5,41c0,0,0,0-0.1,0c-0.1,0-0.1,0.1-0.2,0.2c0,0.1,0,0.2,0.1,0.2
			c0.4,0.5,0.9,0.8,1.4,1.1C6.6,42.8,7,42.9,7.3,43C7.7,43,8,43,8.3,43c0,0,0,0,0.1,0c0.8,0.6,1.7,1,2.5,1.4
			c0.7,0.3,1.5,0.5,2.2,0.7c0.2,0,0.3,0.1,0.5,0.1c-0.3-0.1-0.6-0.3-0.9-0.6c0,0-0.1-0.1-0.1-0.1c-0.5-0.1-1-0.3-1.5-0.5
			c-0.8-0.4-1.7-0.8-2.4-1.3c0,0,0,0,0,0c0-0.3,0-0.5-0.1-0.8c0.6,0.4,1,0.8,1.6,1.1c0.7,0.4,1.5,0.7,2.3,1c0,0,0-0.1,0-0.1
			c0-0.1,0.1-0.3,0.1-0.4c-0.7-0.2-1.4-0.5-2.1-0.9c-1.5-0.8-2.8-2-4-3.5c-0.4-0.5-0.8-1.1-1.1-1.7c0.9-0.4,2.8-1.3,4.6-2.2
			c0,0.1,0,0.2,0.1,0.2c0.1,0.3,0.5,0.5,0.8,0.5c0.1,0,0.2,0,0.3,0c0.1,0.3,0.4,0.5,0.7,0.6c0.1,0,0.3,0.1,0.4,0.1
			c0.1,0.2,0.2,0.3,0.3,0.4c0.3,0.2,0.8,0.2,1.1,0.2c0.2,0.2,0.3,0.3,0.6,0.3c0.1,0,0.1,0,0.2,0c0.2,0,0.4,0,0.5-0.1v3.1
			c0,0.2,0.2,0.4,0.4,0.4c0.2,0,0.4-0.2,0.4-0.4v-3.2c0.4,0.1,0.7,0,1-0.1c0.2-0.1,0.3-0.2,0.4-0.2c0.4,0.1,0.8,0,1-0.3
			c0.1-0.1,0.2-0.2,0.2-0.3c0.5,0,0.9-0.2,1.1-0.4c0.1-0.1,0.2-0.2,0.2-0.3c0.3,0,0.6-0.1,0.8-0.3c0.1-0.1,0.2-0.2,0.2-0.3
			c1.4,1.1,3.5,2,4.5,2.4c-0.3,0.5-0.7,1.1-1,1.6c-1.1,1.5-2.5,2.7-4,3.5c-0.7,0.4-1.4,0.7-2.1,0.9c0.1,0.1,0.1,0.2,0.1,0.4
			c0,0,0,0.1,0,0.1c0.8-0.2,1.5-0.5,2.3-1c0.6-0.3,1.1-0.7,1.6-1.1c-0.1,0.3-0.1,0.5-0.1,0.8c0,0,0,0,0,0c-0.2,0.2-0.9,0.6-1.8,1.1
			c-0.7,0.3-1.4,0.6-2.1,0.8c0,0-0.1,0-0.1,0c0,0-0.1,0.1-0.1,0.1c-0.2,0.3-0.6,0.5-0.9,0.6c0.4-0.1,0.8-0.1,1.2-0.3
			c0.8-0.2,1.5-0.5,2.2-0.8c1-0.5,1.6-0.9,1.9-1.1c0,0,0,0,0,0c0.3,0.1,0.6,0.1,0.9,0c0.4-0.1,0.8-0.2,1.1-0.4
			c0.5-0.3,0.9-0.6,1.4-1.1c0.1-0.1,0.1-0.2,0.1-0.2c0-0.1-0.1-0.2-0.2-0.2c0,0,0,0,0,0c0.1-0.1,0.3-0.2,0.4-0.3
			c0.4-0.3,0.8-0.8,1.2-1.3c0-0.1,0.1-0.2,0-0.2c0-0.1-0.1-0.1-0.1-0.1c0.1-0.1,0.2-0.1,0.3-0.2c0.4-0.4,0.7-0.9,1-1.4
			c0-0.1,0-0.2,0-0.2c0-0.1-0.1-0.1-0.2-0.1c0.1-0.1,0.2-0.2,0.3-0.3c0.3-0.4,0.6-0.9,0.9-1.6c0-0.1,0-0.2,0-0.2
			c0-0.1-0.1-0.1-0.2-0.1c0.1-0.1,0.1-0.2,0.2-0.3c0.3-0.5,0.5-1,0.7-1.6c0-0.1,0-0.2-0.1-0.2c-0.1-0.1-0.1-0.1-0.2-0.1
			c0.1-0.1,0.1-0.2,0.2-0.3C30,31.7,30.2,31.1,30.3,30.5 M30,28.4C30,28.4,30,28.5,30,28.4c0,0.5-0.1,0.9-0.2,1.2
			c-0.1,0.4-0.3,0.7-0.5,0.9c-0.3,0.3-0.5,0.5-0.6,0.5l0,0c0,0,0,0,0,0c-0.4-0.5-0.5-1.1-0.5-1.8c0-0.2,0-0.4,0.1-0.7c0,0,0,0,0,0
			l0,0c0.3,0.4,0.5,0.9,0.5,0.9c0,0.1,0.1,0.1,0.2,0.1c0.1,0,0.2,0,0.2-0.1C29.3,29,29.7,28.6,30,28.4L30,28.4 M29.9,26.1
			C29.9,26.1,29.9,26.1,29.9,26.1C29.9,26.1,29.9,26.1,29.9,26.1c0,0.5,0,0.9-0.1,1.2c-0.1,0.4-0.2,0.7-0.4,1
			c-0.2,0.3-0.5,0.5-0.6,0.6c0,0,0,0,0,0s0,0,0,0c-0.6-0.7-0.7-1.8-0.7-2.3c0,0,0,0,0,0c0,0,0,0,0,0c0.3,0.4,0.6,0.8,0.6,0.8
			c0,0.1,0.1,0.1,0.2,0.1c0.1,0,0.1-0.1,0.2-0.1C29.3,26.8,29.7,26.4,29.9,26.1 M29.7,23.8C29.7,23.8,29.7,23.8,29.7,23.8
			C29.7,23.8,29.7,23.8,29.7,23.8c0.1,0.4,0.1,0.9,0,1.2c-0.1,0.4-0.2,0.7-0.3,1c-0.2,0.4-0.4,0.6-0.5,0.7c0,0,0,0,0,0l0,0
			c-0.6-0.5-0.8-1.6-0.9-2.3c0,0,0,0,0,0c0,0,0,0,0,0c0.4,0.3,0.6,0.7,0.6,0.7c0,0.1,0.1,0.1,0.2,0.1c0.1,0,0.1-0.1,0.2-0.1
			C29.1,24.5,29.4,24,29.7,23.8 M29.3,21.5C29.3,21.5,29.3,21.5,29.3,21.5L29.3,21.5c0.1,0.4,0.1,0.9,0.1,1.2c0,0.4-0.1,0.7-0.3,1
			c-0.2,0.4-0.4,0.6-0.5,0.7c0,0,0,0,0,0c0,0,0,0,0,0c-0.5-0.4-0.8-1.1-0.9-1.6c-0.1-0.2-0.1-0.4-0.1-0.7c0,0,0,0,0,0c0,0,0,0,0,0
			c0.4,0.3,0.7,0.7,0.7,0.7c0,0.1,0.1,0.1,0.2,0.1c0.1,0,0.1-0.1,0.2-0.2C28.8,22.3,29.1,21.8,29.3,21.5 M11.5,21.7
			C11.5,21.7,11.5,21.6,11.5,21.7c0.3-1.6,0.9-2.7,1.4-3.3c0.3-0.5,0.6-0.7,0.8-0.9c0,0,0.1-0.1,0.1-0.1c0.1-0.1,0.2-0.3,0.1-0.5
			c-0.1-0.2-0.3-0.2-0.5-0.1c0,0-0.1,0.1-0.2,0.1c-0.3,0.2-0.5,0.2-0.6,0.1c-0.1-0.1-0.2-0.2-0.1-0.4c0.1-0.3,0.4-0.8,0.6-0.9
			c0,0,0,0,0,0c0.8-0.9,2-0.9,2-0.9c0,0,0,0,0,0c0,0,0.4,0,0.8,0.1c0.6,0.2,1.1,0.7,1.5,1.3c0.5,0.9,0.8,1.9,1.1,2.8
			c-0.7-0.2-1.2-0.7-1.2-0.7c-0.2-0.1-0.4-0.1-0.5,0c-0.1,0.1-0.1,0.2-0.1,0.3c0,0.1,0.1,0.2,0.1,0.2c0,0,0.9,0.7,1.9,0.9
			c0.1,0.3,0.1,0.7,0.2,1.1c-0.3-0.2-0.7-0.3-1-0.3c-0.2-0.1-0.4-0.1-0.6-0.2c-0.7-0.3-1.3-0.7-1.3-0.7c-0.2-0.1-0.4-0.1-0.5,0.1
			c-0.1,0.2-0.1,0.4,0.1,0.5c0,0,0.7,0.5,1.5,0.8c0.2,0.1,0.4,0.1,0.7,0.2c0.9,0.2,1.3,0.4,1.3,0.8c0,0.1-0.1,0.1-0.1,0.2
			c-0.3,0.3-0.9,0.3-1.1,0.3c0,0,0,0,0,0h-0.8c-0.2,0-1,0-1.7-0.5C13.3,21.1,12.5,21.2,11.5,21.7 M14.6,22.7h-2.5
			c-0.3,0-0.4-0.1-0.5-0.2c0,0,0-0.1-0.1-0.1C12.6,22,13.1,21.8,14.6,22.7 M15.6,27.3v-3.8h2.1c0,0,0.1,0,0.1,0c0.1,0,0.3,0,0.5,0
			c0.5-0.1,0.8-0.2,1.1-0.5c0.1-0.1,0.2-0.3,0.3-0.5c0,0,0,0,0-0.1c0-0.2,0.1-0.4,0-0.7l0-0.1c-0.2-1.5-0.5-3.4-1.7-5.7
			c-1-1.9-2.8-1.8-3-1.8c-0.2,0-1.6,0.1-2.5,1.1c-0.1,0.1-0.7,0.7-0.8,1.3c-0.1,0.5,0.1,0.9,0.5,1.1c0.1,0,0.1,0.1,0.2,0.1
			c-0.6,0.7-1.3,1.9-1.6,3.7c-0.1,0.3-0.1,0.6,0,0.8c0,0,0,0,0,0.1c0,0.3,0.1,0.5,0.3,0.7c0.2,0.2,0.5,0.4,1.1,0.4h2.7v3.8v2.3
			c-0.7,0-1.2,0.3-1.9,0.7c-1,0.6-4.2,1.3-9.5,1.9C3,30.6,2.8,29,2.8,27.3c0-2.2,0.3-4.4,1-6.4c0.6-2,1.5-3.7,2.7-5.2
			c1.1-1.5,2.5-2.7,4-3.5c1.5-0.9,3.1-1.3,4.8-1.3c1.7,0,3.3,0.4,4.8,1.3c1.5,0.8,2.8,2,4,3.5c1.1,1.5,2.1,3.3,2.7,5.2
			c0.7,2,1,4.2,1,6.4c0,1.7-0.2,3.4-0.6,5c-3.3-0.2-7.1-1.4-7.3-1.4c-0.3-0.1-0.5-0.2-0.7-0.3c-0.8-0.3-1.4-0.5-2.1-0.5
			c0,0-0.1,0-0.1,0c-0.4-0.2-0.7-0.3-1.2-0.4V27.3z M20.7,10c-0.2,0.1-0.5,0.2-0.9,0.3c-0.2,0-0.4,0.1-0.6,0.1
			c-0.5,0-0.9-0.1-1.2-0.3c0,0,0,0,0,0l0,0c0.2-0.1,0.4-0.2,0.7-0.3c0.3-0.1,0.7-0.1,1,0C20.1,9.7,20.4,9.8,20.7,10
			C20.7,10,20.7,10,20.7,10L20.7,10 M21.2,11.4L21.2,11.4L21.2,11.4c-0.1,0.1-0.4,0.1-0.6,0.1c0,0-0.1,0-0.1,0
			c-0.6,0-1.1-0.2-1.6-0.6l0,0c0,0,0,0,0,0c0.2-0.1,0.5-0.1,0.7-0.1C20.2,10.7,20.8,10.9,21.2,11.4 M18.6,9.3
			c-0.2,0.1-0.6,0.2-1.2,0.3c-0.1,0-0.1,0.1-0.2,0.1c0,0.1,0,0.2,0.1,0.2c0,0,0.4,0.3,0.8,0.7c0,0,0,0,0,0l0,0h0
			c-0.5,0-1.5-0.2-2.3-1c0,0,0,0,0,0c0.1-0.1,0.3-0.3,0.6-0.4C17,9,17.8,9,18.6,9.3C18.6,9.3,18.6,9.3,18.6,9.3
			C18.6,9.3,18.6,9.3,18.6,9.3 M16.2,8.9C16,9,15.7,9.3,15.1,9.4C15,9.5,15,9.5,15,9.6c0,0.1,0,0.2,0.1,0.2c0,0,0.5,0.2,0.9,0.5
			c0,0,0,0,0,0c0,0,0,0,0,0c-0.1,0-0.3,0-0.5,0c-0.6,0-1.3-0.1-1.9-0.5c0,0,0,0,0,0c0.1-0.1,0.3-0.3,0.5-0.5
			C14.6,9,15.3,8.8,16.2,8.9C16.2,8.9,16.2,8.9,16.2,8.9C16.2,8.9,16.2,8.9,16.2,8.9 M13.7,8.9c-0.1,0.2-0.4,0.5-1,0.8
			c-0.1,0-0.1,0.1-0.1,0.2c0,0.1,0.1,0.1,0.2,0.2c0,0,0.5,0.1,1,0.3c0,0,0,0,0,0c0,0,0,0,0,0c-0.2,0.1-0.4,0.1-0.6,0.2
			c-0.2,0-0.4,0.1-0.7,0.1c-0.4,0-0.8-0.1-1.2-0.2c0,0,0,0,0,0c0.1-0.1,0.2-0.4,0.4-0.6C12.1,9.3,12.8,9,13.7,8.9
			C13.7,8.9,13.7,8.9,13.7,8.9L13.7,8.9 M10.5,10.5c-0.1,0.1-0.1,0.1-0.1,0.2c0,0.1,0.1,0.1,0.2,0.1h0c0,0,0.2,0,0.5,0
			c0.2,0,0.4,0.1,0.5,0.1c0,0,0,0,0,0c0,0,0,0,0,0c-0.2,0.1-0.4,0.2-0.6,0.3c-0.5,0.2-0.8,0.2-1.2,0.2c-0.3,0-0.5,0-0.7-0.1
			c0,0,0,0,0,0c0.1-0.4,0.5-1.4,2.2-2c0,0,0,0,0,0c0,0,0,0,0,0C11.3,9.6,11.1,10,10.5,10.5 M28.1,20.8c0-0.7,0.3-1.2,0.5-1.5
			c0,0,0,0,0,0c0,0,0,0,0,0c0.1,0.4,0.2,0.8,0.2,1.2c0,0.4,0,0.7-0.1,1.1c-0.1,0.4-0.3,0.6-0.4,0.7l0,0c0,0,0,0,0,0
			c-0.5-0.3-0.9-0.8-1.1-1.4c-0.1-0.2-0.1-0.4-0.2-0.6c0,0,0,0,0,0l0,0c0.4,0.3,0.8,0.6,0.8,0.6c0.1,0.1,0.1,0.1,0.2,0.1
			C28.1,20.9,28.1,20.8,28.1,20.8 M27.4,18.6c0-0.7,0.2-1.2,0.3-1.5c0,0,0,0,0,0c0,0,0,0,0,0c0.2,0.4,0.3,0.8,0.4,1.2
			c0.1,0.4,0,0.7,0,1.1c-0.1,0.4-0.3,0.7-0.3,0.8l0,0c0,0,0,0,0,0c-0.5-0.3-0.9-0.7-1.3-1.3c-0.1-0.2-0.2-0.4-0.3-0.6l0,0
			c0,0,0,0,0,0c0.5,0.2,0.8,0.6,0.8,0.6c0.1,0.1,0.1,0.1,0.2,0C27.3,18.8,27.4,18.7,27.4,18.6 M26.3,16.8L26.3,16.8
			c0.1,0,0.1-0.1,0.1-0.2c-0.1-0.7,0-1.2,0.1-1.5c0,0,0,0,0,0c0,0,0,0,0,0c0.2,0.4,0.4,0.8,0.5,1.1c0.1,0.4,0.1,0.7,0.1,1.1
			c0,0.4-0.2,0.7-0.2,0.8l0,0c0,0,0,0,0,0c-0.6-0.2-1.1-0.6-1.4-1.2c-0.1-0.2-0.2-0.4-0.3-0.6l0,0c0,0,0,0,0,0
			c0.5,0.1,0.9,0.5,0.9,0.5C26.1,16.8,26.2,16.9,26.3,16.8 M24.8,15c0.1,0,0.2,0,0.2,0c0.1,0,0.1-0.1,0.1-0.2
			c-0.2-0.6-0.2-1.2-0.1-1.5c0,0,0,0,0,0c0,0,0,0,0,0c0.3,0.3,0.5,0.7,0.7,1c0.2,0.4,0.2,0.7,0.3,1.1c0,0.4,0,0.7-0.1,0.8
			c0,0,0,0,0,0h0c-0.6-0.1-1.1-0.4-1.6-0.9c-0.2-0.2-0.3-0.4-0.4-0.6c0,0,0,0,0,0c0,0,0,0,0,0C24.4,14.7,24.8,15,24.8,15 M23.4,13.3
			c0.1,0,0.2,0,0.2-0.1c0.1-0.1,0.1-0.1,0-0.2c-0.3-0.6-0.4-1.2-0.4-1.5c0,0,0,0,0,0c0,0,0,0,0,0c0.3,0.3,0.6,0.6,0.8,0.9
			c0.2,0.3,0.4,0.7,0.4,1c0.1,0.4,0.1,0.7,0.1,0.8c0,0,0,0,0,0h0c-0.6,0-1.2-0.3-1.6-0.6c-0.2-0.1-0.4-0.3-0.6-0.5c0,0,0,0,0,0
			c0,0,0,0,0,0c0,0,0,0,0.1,0C22.9,13.1,23.4,13.3,23.4,13.3 M22.8,11.8c0.2,0.4,0.2,0.8,0.2,0.9c0,0,0,0,0,0c0,0-0.1,0-0.1,0
			c-0.8,0-1.7-0.5-2.2-0.9c0,0,0,0,0,0l0,0c0.5-0.1,1,0,1,0c0.1,0,0.2,0,0.2-0.1c0-0.1,0-0.2,0-0.2c-0.3-0.4-0.5-0.8-0.6-1.2l0,0
			c0,0,0,0,0,0C22,10.7,22.6,11.2,22.8,11.8 M8.5,9.5c0,0,0.1,0,0.1,0C9,9.3,9.5,9.2,9.7,9.1c0.5-0.1,0.9-0.3,0.9-0.4
			c0,0,0.1-0.1,0.1-0.1c0-0.1-0.1-0.1-0.1-0.1L8.3,8.2l2.3-0.3c0.1,0,0.1-0.1,0.1-0.1c0-0.1,0-0.1-0.1-0.1c0,0-0.5-0.1-1-0.3
			C9.4,7.2,9.3,7.1,9.1,7.1C8.9,7,8.7,6.9,8.5,6.8c0,0,0.1,0,0.1,0c0.5,0,0.9,0.1,1.2,0.1c0.5,0.1,0.9,0,1,0c0.1,0,0.1-0.1,0.1-0.1
			c0-0.1,0-0.1-0.1-0.1l-2-1.2L11,6.1c0.1,0,0.1,0,0.2-0.1c0-0.1,0-0.1-0.1-0.2c0,0-0.4-0.3-0.8-0.7c-0.1-0.1-0.2-0.2-0.3-0.3
			C9.9,4.7,9.7,4.5,9.5,4.3c0,0,0.1,0,0.1,0.1c0.4,0.2,0.8,0.5,1,0.6c0.4,0.3,0.9,0.4,0.9,0.4c0.1,0,0.1,0,0.1-0.1c0,0,0-0.1,0-0.2
			l-1.4-1.8l1.9,1.4c0.1,0,0.1,0,0.2,0c0,0,0.1-0.1,0-0.2c0,0-0.3-0.4-0.5-0.9c-0.1-0.2-0.1-0.3-0.1-0.4c-0.1-0.2-0.1-0.4-0.3-0.7
			c0,0,0.1,0.1,0.1,0.1c0.3,0.4,0.6,0.7,0.7,0.9c0.3,0.4,0.6,0.7,0.7,0.7c0,0,0.1,0,0.2,0c0,0,0.1-0.1,0.1-0.1l-0.6-2.2l1.2,2
			c0,0.1,0.1,0.1,0.2,0.1C14,3.8,14,3.7,14,3.6c0,0-0.1-0.5-0.1-1c0-0.2,0-0.3,0-0.4c0-0.2,0-0.4,0-0.7c0,0,0,0.1,0,0.1
			c0.2,0.5,0.3,0.9,0.3,1.1c0.1,0.5,0.3,0.9,0.3,0.9c0,0,0.1,0.1,0.1,0.1c0.1,0,0.1-0.1,0.1-0.1l0.3-2.3l0.3,2.3
			c0,0.1,0.1,0.1,0.1,0.1c0.1,0,0.1,0,0.1-0.1c0,0,0.1-0.5,0.3-1c0.1-0.1,0.1-0.3,0.2-0.4c0.1-0.2,0.2-0.4,0.3-0.7c0,0,0,0.1,0,0.1
			c0,0.5-0.1,0.9-0.1,1.2c-0.1,0.5,0,0.9,0,1c0,0.1,0.1,0.1,0.1,0.1c0.1,0,0.1,0,0.1-0.1l1.2-2L17.3,4c0,0.1,0,0.1,0.1,0.2
			c0.1,0,0.1,0,0.2-0.1c0,0,0.3-0.4,0.7-0.8c0.1-0.1,0.2-0.2,0.3-0.3c0.2-0.1,0.4-0.3,0.5-0.5c0,0,0,0.1-0.1,0.1
			c-0.2,0.4-0.5,0.8-0.6,1c-0.3,0.4-0.4,0.9-0.4,0.9c0,0.1,0,0.1,0.1,0.1c0,0,0.1,0,0.2,0l1.8-1.4l-1.4,1.8c0,0.1,0,0.1,0,0.2
			c0,0,0.1,0.1,0.2,0c0,0,0.4-0.3,0.9-0.5c0.2-0.1,0.3-0.1,0.4-0.1c0.2-0.1,0.4-0.1,0.7-0.3c0,0-0.1,0.1-0.1,0.1
			c-0.4,0.3-0.7,0.6-0.9,0.7c-0.4,0.3-0.7,0.6-0.7,0.7c0,0,0,0.1,0,0.2c0,0,0.1,0.1,0.1,0.1l2.2-0.6l-2,1.2c-0.1,0-0.1,0.1-0.1,0.2
			c0,0.1,0.1,0.1,0.2,0.1c0.1,0,0.5-0.1,1-0.1c0.2,0,0.3,0,0.4,0c0.2,0,0.4,0,0.7,0c0,0-0.1,0-0.1,0c-0.5,0.2-0.9,0.3-1.1,0.3
			c-0.5,0.1-0.9,0.3-0.9,0.3c0,0-0.1,0.1-0.1,0.1c0,0.1,0.1,0.1,0.1,0.1l2.3,0.3l-2.3,0.3c-0.1,0-0.1,0.1-0.1,0.1
			c0,0.1,0,0.1,0.1,0.1c0.1,0,0.5,0.1,1,0.3c0.1,0.1,0.3,0.1,0.4,0.2c0.2,0.1,0.4,0.2,0.7,0.3c0,0-0.1,0-0.1,0
			c-0.5,0-0.9-0.1-1.2-0.1l-0.1,0c-0.4-0.2-0.8-0.3-1.3-0.3l0,0c0-0.1-0.1-0.2-0.2-0.2c-0.6-0.2-1.2-0.3-1.7-0.3c-0.2,0-0.4,0-0.6,0
			c0,0,0,0,0-0.1c0-0.1-0.1-0.1-0.2-0.1c-0.7-0.1-1.2-0.1-1.8,0c-0.2,0-0.4,0.1-0.6,0.2c0-0.1,0-0.1-0.1-0.2
			c-0.1-0.1-0.1-0.1-0.2-0.1c-0.7,0.1-1.2,0.2-1.7,0.4C12.2,8.9,12.1,8.9,12,9c0-0.1,0-0.1-0.1-0.2c-0.1-0.1-0.2-0.1-0.2-0.1
			C11,9,10.5,9.2,10,9.5l0,0c-0.1,0-0.2,0-0.4,0c-0.1,0-0.4,0-0.4,0C9,9.5,8.7,9.5,8.5,9.5 M9.1,10.1C9.1,10.1,9.1,10.1,9.1,10.1
			L9.1,10.1c0,0.4-0.1,0.9-0.5,1.5c0,0.1,0,0.1,0,0.2c0,0.1,0.1,0.1,0.2,0.1c0,0,0.5-0.1,1-0.1c0,0,0,0,0,0c0,0,0,0,0,0
			c-0.4,0.3-1.3,0.9-2.2,0.9c0,0-0.1,0-0.1,0c0,0,0,0,0,0C7.5,12.3,7.6,11.2,9.1,10.1 M5.9,13.5c0.1-0.3,0.2-0.7,0.4-1
			c0.2-0.3,0.5-0.6,0.8-0.9c0,0,0,0,0,0l0,0c0,0.3,0,0.9-0.4,1.5c0,0.1,0,0.2,0,0.2c0.1,0.1,0.1,0.1,0.2,0.1c0,0,0.5-0.2,1-0.2
			c0,0,0,0,0,0c0,0,0,0,0,0c-0.2,0.2-0.4,0.4-0.6,0.5c-0.4,0.3-1,0.7-1.5,0.7c0,0,0,0-0.1,0c0,0,0,0,0,0C5.9,14.2,5.8,13.9,5.9,13.5
			 M5.4,13.2C5.4,13.2,5.4,13.2,5.4,13.2L5.4,13.2c0.1,0.3,0.1,0.9-0.1,1.5c0,0.1,0,0.2,0.1,0.2c0.1,0,0.2,0.1,0.2,0
			c0,0,0.4-0.3,1-0.3c0,0,0,0,0,0l0,0c-0.3,0.5-1.1,1.3-2,1.5h0l0,0C4.5,15.7,4.3,14.6,5.4,13.2 M3.4,16.2c0.1-0.4,0.3-0.7,0.5-1.1
			l0,0c0,0,0,0,0,0c0.1,0.3,0.2,0.9,0.1,1.6c0,0.1,0,0.2,0.1,0.2c0.1,0,0.2,0,0.2,0c0,0,0.4-0.4,0.9-0.5c0,0,0,0,0,0c0,0,0,0,0,0
			C5.3,16.5,5.1,16.8,5,17c-0.4,0.6-0.9,0.9-1.5,1.1l0,0l0,0c-0.1-0.1-0.2-0.4-0.2-0.8C3.3,16.9,3.3,16.6,3.4,16.2 M2.3,18.3
			c0.1-0.4,0.2-0.8,0.4-1.2l0,0c0,0,0,0,0,0c0.2,0.3,0.3,0.8,0.3,1.5c0,0.1,0,0.1,0.1,0.2c0.1,0,0.2,0,0.2,0c0,0,0.4-0.4,0.9-0.6
			c0,0,0,0,0,0l0,0c-0.1,0.2-0.1,0.4-0.2,0.6c-0.3,0.6-0.8,1.1-1.4,1.4l0,0c0,0,0,0,0,0c-0.1-0.1-0.2-0.4-0.3-0.8
			C2.3,19,2.3,18.7,2.3,18.3 M1.8,19.3L1.8,19.3C1.8,19.3,1.8,19.3,1.8,19.3C2,19.6,2.2,20,2.3,20.7c0,0.1,0.1,0.1,0.1,0.2
			c0.1,0,0.2,0,0.2-0.1c0,0,0.3-0.4,0.8-0.7c0,0,0,0,0,0c0,0,0,0,0,0c0,0.2-0.1,0.4-0.1,0.6c-0.2,0.6-0.6,1.2-1.2,1.5l0,0
			c0,0,0,0,0,0c-0.1-0.1-0.3-0.3-0.4-0.7c-0.1-0.3-0.2-0.7-0.2-1.1C1.5,20.1,1.6,19.7,1.8,19.3 M1.1,21.5
			C1.1,21.5,1.1,21.5,1.1,21.5C1.1,21.5,1.1,21.5,1.1,21.5c0.3,0.3,0.6,0.7,0.7,1.4c0,0.1,0.1,0.1,0.2,0.1c0.1,0,0.2,0,0.2-0.1
			c0,0,0.3-0.4,0.7-0.8c0,0,0,0,0,0l0,0c0,0.2,0,0.4-0.1,0.6c-0.2,0.7-0.5,1.2-1,1.6l0,0l0,0c-0.1-0.1-0.3-0.3-0.5-0.7
			c-0.2-0.3-0.3-0.7-0.3-1C1,22.4,1,22,1.1,21.5 M0.7,23.8C0.7,23.8,0.7,23.8,0.7,23.8C0.8,23.8,0.8,23.8,0.7,23.8
			C1,24,1.3,24.5,1.5,25.1c0,0.1,0.1,0.1,0.2,0.1c0.1,0,0.2,0,0.2-0.1c0,0,0.2-0.4,0.6-0.8c0,0,0,0,0,0c0,0,0,0,0,0
			c0,0.2,0,0.5-0.1,0.7c-0.1,0.7-0.4,1.2-0.8,1.6l0,0c0,0,0,0,0,0c-0.1-0.1-0.3-0.3-0.5-0.6c-0.2-0.3-0.3-0.7-0.3-1
			C0.7,24.6,0.7,24.2,0.7,23.8 M0.6,26.2L0.6,26.2C0.6,26.2,0.6,26.2,0.6,26.2c0.1,0,0.1,0.1,0.2,0.1c0.2,0.2,0.5,0.6,0.7,1.2
			c0,0.1,0.1,0.1,0.2,0.1c0.1,0,0.2-0.1,0.2-0.2c0,0,0.1-0.5,0.5-0.9c0,0,0,0,0,0c0,0,0,0,0,0c0,0.3,0.1,0.7,0,1.1
			c-0.1,0.5-0.3,1-0.7,1.3l0,0c0,0,0,0,0,0C1.3,28.8,0.4,28,0.6,26.2 M0.5,28.5C0.5,28.5,0.5,28.5,0.5,28.5c0.1,0,0.1,0.1,0.2,0.1
			c0.2,0.2,0.6,0.6,0.8,1.1c0,0.1,0.1,0.1,0.2,0.1h0c0.1,0,0.1,0,0.2-0.1c0,0,0.2-0.5,0.5-0.9l0,0c0,0,0,0,0,0
			c0.1,0.5,0.2,1.5-0.5,2.4c0,0,0,0,0,0l0,0C1.4,31,0.5,30.3,0.5,28.5C0.5,28.5,0.5,28.5,0.5,28.5 M0.6,30.9
			C0.6,30.9,0.6,30.9,0.6,30.9L0.6,30.9c0.3,0.1,0.8,0.5,1.2,1C1.8,32,1.9,32,2,32c0.1,0,0.1-0.1,0.2-0.1l0,0l0,0c0,0,0.1-0.6,0.4-1
			l0,0c0,0,0,0,0,0c0.1,0.2,0.2,0.4,0.2,0.6c0.1,0.7,0,1.3-0.3,1.9c0,0,0,0,0,0l0,0c-0.1,0-0.4-0.2-0.7-0.4C1.4,32.7,1.2,32.4,1,32
			C0.8,31.7,0.7,31.3,0.6,30.9 M1.1,33.1C1.1,33.1,1.1,33.1,1.1,33.1C1.1,33.1,1.1,33.1,1.1,33.1c0.1,0,0.1,0,0.2,0.1
			c0.3,0.1,0.7,0.4,1,0.9c0,0.1,0.1,0.1,0.2,0.1c0.1,0,0.1-0.1,0.1-0.2c0,0,0.1-0.5,0.3-1c0,0,0,0,0,0h0c0,0,0,0,0,0
			c0.2,0.5,0.5,1.5,0.1,2.5c0,0,0,0,0,0l0,0C2.7,35.3,1.7,34.8,1.1,33.1 M2.5,36.4c-0.2-0.3-0.5-0.7-0.6-1.1c0,0,0,0,0,0l0,0
			c0.1,0,0.1,0,0.2,0.1c0.3,0.1,0.7,0.3,1.1,0.7c0.1,0.1,0.1,0.1,0.2,0c0.1,0,0.1-0.1,0.1-0.2c0,0,0-0.5,0.2-1c0,0,0,0,0,0
			c0,0,0,0,0,0c0.1,0.2,0.2,0.4,0.3,0.6c0.2,0.6,0.3,1.3,0.1,1.8c0,0,0,0,0,0h0c-0.1,0-0.4-0.1-0.8-0.3C3,37,2.7,36.7,2.5,36.4
			 M2.8,37.5C2.8,37.5,2.8,37.5,2.8,37.5L2.8,37.5c0.4,0,0.9,0.2,1.4,0.6c0.1,0,0.1,0.1,0.2,0c0.1,0,0.1-0.1,0.1-0.2
			c0,0-0.1-0.5,0.1-1c0,0,0,0,0,0l0,0c0.1,0.2,0.2,0.4,0.3,0.6c0.2,0.4,0.4,1.1,0.3,1.8c0,0,0,0,0,0h0c-0.1,0-0.5,0-0.8-0.2
			c-0.3-0.1-0.6-0.4-0.9-0.6C3.3,38.2,3,37.9,2.8,37.5 M7.2,41.3c0,0-0.2-0.5-0.2-1c0,0,0,0,0,0c0,0,0,0,0,0
			c0.4,0.4,1.2,1.2,1.1,2.2l0,0c-0.1,0-0.2,0-0.3,0c-0.1,0-0.3,0-0.5,0c-0.6-0.1-1.3-0.5-2-1.1c0,0,0,0,0,0l0,0c0.4,0,0.9,0,1.6,0.2
			c0.1,0,0.2,0,0.2,0C7.2,41.5,7.3,41.4,7.2,41.3 M5.5,39.9c0.1,0,0.2,0,0.2,0c0.1,0,0.1-0.1,0.1-0.2c0,0-0.1-0.5-0.1-1l0,0
			c0,0,0,0,0,0c0.4,0.4,1,1.3,0.9,2.3c0,0,0,0,0,0c0,0-0.1,0-0.1,0c-0.2,0-0.4,0-0.7-0.1c-0.3-0.1-0.7-0.3-1-0.5
			c-0.3-0.2-0.6-0.5-0.9-0.9l0,0c0,0,0,0,0,0C4.4,39.5,4.9,39.6,5.5,39.9 M13,34.9c-0.1,0-0.1,0.1-0.2,0.1c-0.4,0.3-0.7,0.6-0.8,0.9
			c-0.1,0-0.1,0-0.2,0c-0.3-0.1-0.3-0.3-0.3-0.3c0-0.2,0.1-0.3,0.3-0.5c0.3-0.3,0.5-0.4,0.7-0.4c0.1,0,0.1,0,0.2,0
			C12.9,34.7,13,34.8,13,34.9C13,34.8,13,34.9,13,34.9 M13.4,36.5c-0.1,0-0.5,0.1-0.6-0.1c0,0-0.1-0.1-0.1-0.2
			c0-0.3,0.3-0.6,0.5-0.7c0.3-0.2,0.6-0.4,0.7-0.4c0.1,0,0.2,0,0.3,0.1c0.1,0.1,0.1,0.1,0.1,0.2c0,0.1-0.1,0.2-0.2,0.3
			C13.8,35.9,13.5,36.2,13.4,36.5 M15,36.5c-0.1,0.1-0.5,0.4-0.8,0.3c0,0-0.1,0-0.2-0.1c0.1-0.3,0.4-0.5,0.7-0.6
			c0.4-0.2,0.5-0.1,0.5-0.1c0.1,0.1,0.1,0.2,0.1,0.2C15.3,36.3,15.2,36.5,15,36.5C15.1,36.5,15.1,36.5,15,36.5 M11.6,34.4
			c0,0-0.1,0.1-0.1,0.1c-0.2,0.2-0.4,0.4-0.5,0.7c0,0-0.1,0-0.1,0c-0.2,0-0.3-0.1-0.3-0.1c0,0-0.1-0.1,0.1-0.3
			c0.2-0.2,0.6-0.4,0.8-0.4c0,0,0.1,0,0.1,0c0,0,0,0,0,0C11.5,34.4,11.6,34.4,11.6,34.4 M19.9,34.8c-0.1,0.1-0.2,0.1-0.4,0.1
			c-0.3-0.4-1-1.2-1.9-1.6c-0.1,0-0.2,0-0.2,0c-0.1,0-0.1,0.1-0.2,0.2c0,0.1,0,0.2,0,0.2c0,0.1,0.1,0.1,0.2,0.2
			c0.7,0.4,1.4,1.1,1.6,1.4c0,0.1-0.1,0.1-0.1,0.1c-0.1,0.1-0.3,0.2-0.5,0.2c-0.1-0.2-0.2-0.4-0.4-0.6c-0.3-0.3-0.8-0.7-0.8-0.7
			c-0.1,0-0.2-0.1-0.2-0.1c-0.1,0-0.2,0.1-0.2,0.1c0,0.1-0.1,0.2-0.1,0.2c0,0.1,0.1,0.2,0.1,0.2c0.1,0.1,0.5,0.4,0.7,0.6
			c0.2,0.2,0.3,0.4,0.3,0.5c0,0.1-0.1,0.1-0.1,0.2c-0.1,0.1-0.3,0.2-0.4,0.1c-0.1-0.2-0.3-0.5-0.6-0.9c-0.1-0.1-0.3-0.1-0.5,0
			c-0.1,0.1-0.1,0.1-0.1,0.2c0,0.1,0,0.2,0.1,0.2c0.2,0.3,0.4,0.5,0.4,0.6c-0.1,0-0.1,0.1-0.2,0.1c-0.2,0.1-0.3,0.1-0.5,0.1
			c0.1-0.1,0.1-0.3,0.1-0.4c0-0.2,0-0.4-0.3-0.7c-0.1-0.1-0.4-0.3-0.8-0.2c0-0.2-0.1-0.4-0.3-0.5c-0.3-0.3-0.6-0.3-1-0.2h0
			c-0.1-0.1-0.2-0.3-0.5-0.5c-0.3-0.1-0.6-0.2-0.9-0.1c-0.3-0.2-0.6-0.3-0.7-0.3c-0.4-0.1-1,0.1-1.3,0.5c-1.8,1-4.2,2-5.1,2.5
			c-0.5-0.9-0.9-2-1.3-3c-0.1-0.3-0.2-0.6-0.3-0.9c2.7-0.3,4.9-0.6,6.4-0.9c1.7-0.3,2.7-0.7,3.3-1c0.6-0.4,1.1-0.7,1.7-0.6
			c0.1,0,0.3,0,0.4,0c-0.1,0-0.2,0.1-0.3,0.2c-0.3,0.2-0.4,0.3-0.5,0.4c-0.1,0.1-0.2,0.2-0.4,0.3c-0.1,0.1-0.3,0.2-0.4,0.2
			c-0.4,0.2-0.7,0.3-0.8,0.6c-0.1,0.3-0.1,0.5,0.1,0.8c0.3,0.4,0.8,0.4,1.1,0.4c0.4,0,0.9-0.2,1.3-0.4c0.1-0.1,0.3-0.2,0.4-0.2
			c0.2-0.1,0.3-0.2,0.4-0.2c0,0,0,0,0,0c0.3-0.1,0.7-0.1,1.1,0.1c0.4,0.2,0.8,0.4,1.1,0.6c0.8,0.5,1.5,1.3,1.6,1.5
			C20,34.6,20,34.7,19.9,34.8 M21,34.6c-0.3-0.2-0.5-0.4-0.6-0.5l0,0l0,0c0,0,0,0,0-0.1c-0.3-0.3-0.9-1-1.7-1.5
			c-0.6-0.4-1.7-1.1-2.8-0.8c-0.2,0-0.4,0.2-0.6,0.3c-0.1,0.1-0.2,0.1-0.3,0.2c-0.3,0.2-0.8,0.3-1,0.3c-0.3,0-0.5,0-0.6-0.1
			c-0.1-0.1-0.1-0.1-0.1-0.2c0.1-0.1,0.3-0.2,0.5-0.3c0.2-0.1,0.4-0.2,0.5-0.3c0.2-0.1,0.3-0.2,0.5-0.4c0.1-0.1,0.3-0.2,0.5-0.4
			c0.3-0.2,0.7-0.2,1.2-0.2h0c0.1,0,0.2,0,0.3,0c0.1,0,0.1,0,0.2,0c0.6,0,1.1,0.2,1.9,0.4c0.2,0.1,0.5,0.2,0.8,0.3
			c0,0,1.1,0.3,2.5,0.7c1.2,0.3,3.1,0.7,4.8,0.8c-0.1,0.3-0.2,0.6-0.2,0.8c-0.4,1.1-0.8,2.2-1.3,3.1C24.5,36.5,22.4,35.6,21,34.6
			 M25,41.4c-0.8,0.8-1.5,1-2,1.1c-0.2,0-0.3,0-0.5,0c-0.1,0-0.2,0-0.3,0c0,0,0,0,0,0c0-0.6,0.2-1.2,0.7-1.7
			c0.1-0.2,0.3-0.3,0.5-0.5l0,0c0,0,0,0,0,0c-0.1,0.5-0.2,1-0.2,1c0,0.1,0,0.2,0,0.2c0.1,0.1,0.1,0.1,0.2,0
			C24.1,41.3,24.7,41.3,25,41.4C25,41.4,25,41.4,25,41.4C25,41.4,25,41.4,25,41.4 M26.5,39.5c-0.3,0.4-0.6,0.7-0.9,0.9
			c-0.3,0.2-0.6,0.4-1,0.5C24.3,41,24.1,41,23.9,41c0,0-0.1,0-0.1,0c0,0,0,0,0,0c0-0.6,0.1-1.2,0.5-1.7c0.1-0.2,0.3-0.4,0.4-0.5
			c0,0,0,0,0,0l0,0c0,0.5-0.1,1-0.1,1c0,0.1,0,0.2,0.1,0.2c0.1,0,0.1,0,0.2,0C25.6,39.6,26.1,39.5,26.5,39.5
			C26.5,39.4,26.5,39.4,26.5,39.5L26.5,39.5 M26.9,38.5c-0.3,0.3-0.6,0.5-0.9,0.6c-0.4,0.2-0.7,0.2-0.8,0.2h0c0,0,0,0,0,0
			c-0.1-0.6,0-1.2,0.3-1.8c0.1-0.2,0.2-0.4,0.3-0.6c0,0,0,0,0,0c0,0,0,0,0,0c0.1,0.5,0.1,1,0.1,1c0,0.1,0,0.2,0.1,0.2
			c0.1,0,0.2,0,0.2,0c0.5-0.4,1.1-0.6,1.4-0.6c0,0,0,0,0,0l0,0C27.4,37.9,27.2,38.2,26.9,38.5 M28,36.4c-0.2,0.3-0.5,0.5-0.8,0.7
			c-0.3,0.2-0.6,0.3-0.8,0.3h0c0,0,0,0,0,0c-0.2-0.6-0.1-1.2,0.1-1.8c0.1-0.2,0.2-0.4,0.3-0.6l0,0c0,0,0,0,0,0c0.2,0.5,0.2,1,0.2,1
			c0,0.1,0.1,0.2,0.1,0.2c0.1,0,0.2,0,0.2-0.1c0.4-0.5,0.9-0.7,1.1-0.8c0.1,0,0.1,0,0.2-0.1c0,0,0,0,0,0c0,0,0,0,0,0
			C28.4,35.7,28.2,36.1,28,36.4 M28.8,34.2c-0.2,0.3-0.5,0.6-0.7,0.8c-0.3,0.2-0.6,0.3-0.8,0.4l0,0l0,0c-0.3-0.7-0.2-1.4-0.1-1.8
			c0.1-0.2,0.1-0.4,0.2-0.6l0,0h0c0,0,0,0,0,0c0.2,0.5,0.3,1,0.3,1c0,0.1,0.1,0.1,0.1,0.2c0.1,0,0.2,0,0.2-0.1
			c0.4-0.5,0.9-0.8,1.2-0.9c0,0,0,0,0,0c0,0,0,0,0,0C29.2,33.5,29,33.9,28.8,34.2 M29.4,32c-0.2,0.3-0.4,0.6-0.6,0.9
			c-0.3,0.3-0.6,0.4-0.7,0.5l0,0c0,0,0,0,0,0c-0.3-0.5-0.4-1.2-0.3-1.9c0-0.2,0.1-0.4,0.1-0.7c0,0,0,0,0,0c0,0,0,0,0,0
			c0.3,0.4,0.4,1,0.4,1c0,0.1,0.1,0.1,0.2,0.1c0.1,0,0.2,0,0.2-0.1c0.4-0.6,0.8-0.9,1.1-1.1c0,0,0,0,0,0l0,0
			C29.7,31.2,29.6,31.6,29.4,32"/>
		<path fill="#FFC10E" d="M19.3,9.2c0.4,0,0.8,0.1,1.3,0.3l0.1,0c0.2,0,0.7,0.1,1.2,0.1c0,0,0.1,0,0.1,0c-0.3-0.1-0.5-0.2-0.7-0.3
			c-0.1-0.1-0.3-0.1-0.4-0.2c-0.5-0.2-1-0.3-1-0.3c-0.1,0-0.1-0.1-0.1-0.1c0-0.1,0-0.1,0.1-0.1l2.3-0.3l-2.3-0.3
			c-0.1,0-0.1-0.1-0.1-0.1c0-0.1,0-0.1,0.1-0.1c0,0,0.4-0.2,0.9-0.3c0.2,0,0.7-0.2,1.1-0.3c0,0,0.1,0,0.1,0c-0.3,0-0.5,0-0.7,0
			c-0.1,0-0.3,0-0.4,0c-0.5,0-1,0.1-1,0.1c-0.1,0-0.1,0-0.2-0.1c0-0.1,0-0.1,0.1-0.2l2-1.2l-2.2,0.6c-0.1,0-0.1,0-0.1-0.1
			c0,0,0-0.1,0-0.2c0,0,0.3-0.4,0.7-0.7c0.2-0.1,0.6-0.4,0.9-0.7c0,0,0.1-0.1,0.1-0.1c-0.2,0.1-0.5,0.2-0.7,0.3
			c-0.1,0-0.3,0.1-0.4,0.1C19.4,5,19,5.3,18.9,5.3c-0.1,0-0.1,0-0.2,0c0,0-0.1-0.1,0-0.2l1.4-1.8l-1.8,1.4c0,0-0.1,0-0.2,0
			c0,0-0.1-0.1-0.1-0.1c0,0,0.1-0.4,0.4-0.9c0.1-0.2,0.4-0.6,0.6-1c0,0,0-0.1,0.1-0.1c-0.2,0.2-0.3,0.3-0.5,0.5
			c-0.1,0.1-0.2,0.2-0.3,0.3c-0.4,0.4-0.6,0.8-0.7,0.8c0,0.1-0.1,0.1-0.2,0.1c-0.1,0-0.1-0.1-0.1-0.2l0.6-2.2l-1.2,2
			c0,0-0.1,0.1-0.1,0.1c-0.1,0-0.1-0.1-0.1-0.1c0,0-0.1-0.4,0-1c0-0.2,0.1-0.7,0.1-1.2c0,0,0-0.1,0-0.1c-0.1,0.3-0.2,0.5-0.3,0.7
			c-0.1,0.1-0.1,0.3-0.2,0.4c-0.2,0.5-0.3,1-0.3,1c0,0.1-0.1,0.1-0.1,0.1c-0.1,0-0.1,0-0.1-0.1l-0.3-2.3l-0.3,2.3
			c0,0.1,0,0.1-0.1,0.1c-0.1,0-0.1,0-0.1-0.1c0,0-0.2-0.4-0.3-0.9c0-0.2-0.2-0.7-0.3-1.1c0,0,0-0.1,0-0.1c0,0.3,0,0.5,0,0.7
			c0,0.1,0,0.3,0,0.4c0,0.6,0.1,1,0.1,1c0,0.1,0,0.1-0.1,0.2c-0.1,0-0.1,0-0.2-0.1l-1.2-2L13.1,4c0,0.1,0,0.1-0.1,0.1
			c0,0-0.1,0-0.2,0c0,0-0.4-0.3-0.7-0.7c-0.1-0.2-0.4-0.6-0.7-0.9c0,0-0.1-0.1-0.1-0.1c0.1,0.2,0.2,0.5,0.3,0.7
			c0,0.1,0.1,0.3,0.1,0.4C12,4,12.3,4.4,12.3,4.5c0,0.1,0,0.1,0,0.2c0,0-0.1,0.1-0.2,0l-1.9-1.4l1.4,1.8c0,0,0,0.1,0,0.2
			c0,0-0.1,0.1-0.1,0.1c0,0-0.4-0.1-0.9-0.4c-0.2-0.1-0.6-0.4-1-0.6c0,0-0.1,0-0.1-0.1C9.7,4.5,9.9,4.7,10,4.8
			c0.1,0.1,0.2,0.2,0.3,0.3c0.4,0.4,0.8,0.7,0.8,0.7c0.1,0,0.1,0.1,0.1,0.2c0,0.1-0.1,0.1-0.2,0.1L8.8,5.5l2,1.2
			c0,0,0.1,0.1,0.1,0.1c0,0.1-0.1,0.1-0.1,0.1c0,0-0.4,0.1-1,0c-0.2,0-0.7-0.1-1.2-0.1c0,0-0.1,0-0.1,0C8.7,6.9,8.9,7,9.1,7.1
			c0.1,0.1,0.3,0.1,0.4,0.2c0.5,0.2,1,0.3,1,0.3c0.1,0,0.1,0.1,0.1,0.1c0,0.1,0,0.1-0.1,0.1L8.3,8.2l2.3,0.3c0.1,0,0.1,0.1,0.1,0.1
			c0,0.1,0,0.1-0.1,0.1c0,0-0.4,0.2-0.9,0.4C9.5,9.2,9,9.3,8.6,9.4c0,0-0.1,0-0.1,0c0.3,0,0.5,0,0.7,0c0,0,0.4,0,0.4,0
			c0.1,0,0.2,0,0.4,0l0,0c0.4-0.3,1-0.6,1.6-0.7c0.1,0,0.2,0,0.2,0C11.9,8.9,12,8.9,12,9c0.1-0.1,0.2-0.1,0.4-0.2
			c0.5-0.2,1.1-0.3,1.7-0.4c0.1,0,0.2,0,0.2,0.1c0,0,0.1,0.1,0.1,0.2c0.2-0.1,0.4-0.1,0.6-0.2c0.5-0.1,1.1-0.1,1.8,0
			c0.1,0,0.2,0.1,0.2,0.1c0,0,0,0,0,0.1c0.2,0,0.4,0,0.6,0c0.5,0,1.1,0.1,1.7,0.3C19.3,9,19.3,9.1,19.3,9.2
			C19.3,9.2,19.3,9.2,19.3,9.2"/>
		<path fill="#231F20" d="M16,6.3c2.2-0.4,2.5,0.3,2.5,0.3s0.1,0.1,0.2,0.1c0,0,0.2,0,0.1-0.2c0,0-0.2-0.7-1.4-0.9
			c0,0-0.6-0.1-1.3,0c-0.2,0-0.3,0.5-0.3,0.5C15.8,6.3,16,6.3,16,6.3"/>
		<path fill="#231F20" d="M14.1,6.7c-0.3-0.1-0.9-0.1-0.9-0.1c-1,0-1.3,0.7-1.3,0.7c-0.1,0.2,0.1,0.2,0.1,0.2
			c0.2,0.1,0.3-0.1,0.3-0.1s0.1-0.2,0.5-0.3c0,0.1,0,0.1,0,0.2c0,0.3,0.2,0.5,0.5,0.5c0.3,0,0.5-0.2,0.5-0.5c0-0.1,0-0.1,0-0.2
			c0.1,0.1,0.3,0.2,0.4,0.3c0,0.1,0.1,0.1,0.3,0.1c0.2,0,0.2-0.1,0.2-0.1C14.5,6.9,14.1,6.7,14.1,6.7"/>
		<path fill="#231F20" d="M16,7.5c0.2,0,0.3,0,0.3-0.1c0.1-0.2,0.2-0.3,0.4-0.3c0,0.1,0,0.1,0,0.2c0,0.3,0.2,0.5,0.5,0.5
			c0.3,0,0.5-0.2,0.5-0.5c0-0.1,0-0.1,0-0.2c0.4,0.1,0.5,0.3,0.5,0.3s0.1,0.2,0.3,0.1c0,0,0.2,0,0.1-0.2c0,0-0.3-0.6-1.3-0.7
			c0,0-0.6,0-0.9,0.1c0,0-0.3,0.2-0.5,0.7C15.8,7.4,15.8,7.5,16,7.5"/>
		<path fill="#231F20" d="M11.7,6.7c0.2,0,0.2-0.1,0.2-0.1s0.2-0.6,2.5-0.3c0,0,0.2,0,0.2-0.2c0,0-0.1-0.4-0.3-0.5
			c-0.7-0.1-1.3,0-1.3,0c-1.2,0.1-1.4,0.9-1.4,0.9C11.5,6.7,11.7,6.7,11.7,6.7"/>
		<path fill="#2DA34A" d="M25,41.4c-0.4,0-0.9,0-1.6,0.2c-0.1,0-0.2,0-0.2,0c-0.1-0.1-0.1-0.1,0-0.2c0,0,0.2-0.5,0.2-1c0,0,0,0,0,0
			l0,0c-0.2,0.1-0.3,0.3-0.5,0.5c-0.5,0.5-0.7,1.1-0.7,1.7c0,0,0,0,0,0c0.1,0,0.2,0,0.3,0c0.1,0,0.3,0,0.5,0
			C23.5,42.4,24.2,42.2,25,41.4C25,41.4,25,41.4,25,41.4C25,41.4,25,41.4,25,41.4"/>
		<path fill="#2DA34A" d="M7,40.3C7,40.3,7,40.3,7,40.3L7,40.3c0,0.5,0.2,1,0.2,1c0,0.1,0,0.2,0,0.2c-0.1,0.1-0.1,0.1-0.2,0
			c-0.6-0.3-1.2-0.3-1.6-0.2l0,0c0,0,0,0,0,0c0.7,0.6,1.3,1,2,1.1c0.2,0,0.3,0,0.5,0c0.1,0,0.2,0,0.3,0l0,0
			C8.2,41.5,7.5,40.7,7,40.3"/>
		<path fill="#2DA34A" d="M26.5,39.4c-0.4,0-0.9,0.1-1.5,0.5c-0.1,0-0.1,0-0.2,0c-0.1,0-0.1-0.1-0.1-0.2c0,0,0.1-0.5,0.1-1l0,0
			c0,0,0,0,0,0c-0.1,0.2-0.3,0.3-0.4,0.5c-0.4,0.6-0.5,1.2-0.5,1.7c0,0,0,0,0,0c0,0,0.1,0,0.1,0c0.2,0,0.4,0,0.7-0.1
			c0.3-0.1,0.7-0.3,1-0.5C25.9,40.1,26.2,39.8,26.5,39.4L26.5,39.4C26.5,39.4,26.5,39.4,26.5,39.4"/>
		<path fill="#2DA34A" d="M27.7,37.5c-0.4,0.1-0.9,0.2-1.4,0.6c-0.1,0-0.1,0.1-0.2,0c-0.1,0-0.1-0.1-0.1-0.2c0,0,0-0.5-0.1-1
			c0,0,0,0,0,0c0,0,0,0,0,0c-0.1,0.2-0.2,0.4-0.3,0.6c-0.3,0.6-0.4,1.2-0.3,1.8c0,0,0,0,0,0h0c0.1,0,0.4,0,0.8-0.2
			c0.3-0.1,0.6-0.4,0.9-0.6C27.2,38.2,27.4,37.9,27.7,37.5L27.7,37.5C27.7,37.5,27.7,37.5,27.7,37.5"/>
		<path fill="#2DA34A" d="M28.6,35.3c-0.1,0-0.1,0-0.2,0.1c-0.3,0.1-0.7,0.3-1.1,0.8c-0.1,0.1-0.1,0.1-0.2,0.1s-0.1-0.1-0.1-0.2
			c0,0,0-0.5-0.2-1c0,0,0,0,0,0l0,0c-0.1,0.2-0.2,0.4-0.3,0.6c-0.2,0.6-0.3,1.3-0.1,1.8c0,0,0,0,0,0l0,0c0.1,0,0.4-0.1,0.8-0.3
			c0.3-0.2,0.6-0.4,0.8-0.7C28.2,36.1,28.4,35.7,28.6,35.3C28.6,35.3,28.6,35.3,28.6,35.3C28.6,35.3,28.6,35.3,28.6,35.3"/>
		<path fill="#2DA34A" d="M29.3,33.1c-0.3,0.1-0.8,0.4-1.2,0.9c0,0.1-0.1,0.1-0.2,0.1c-0.1,0-0.1-0.1-0.1-0.2c0,0-0.1-0.6-0.3-1
			c0,0,0,0,0,0l0,0c-0.1,0.2-0.2,0.4-0.2,0.6c-0.1,0.5-0.2,1.2,0.1,1.8l0,0l0,0c0.1,0,0.4-0.1,0.8-0.4c0.3-0.2,0.5-0.5,0.7-0.8
			C29,33.9,29.2,33.5,29.3,33.1C29.3,33.1,29.3,33.1,29.3,33.1C29.3,33.1,29.3,33.1,29.3,33.1"/>
		<path fill="#2DA34A" d="M29.8,30.8c-0.3,0.2-0.8,0.5-1.1,1.1c0,0.1-0.1,0.1-0.2,0.1c-0.1,0-0.1-0.1-0.2-0.1c0,0-0.1-0.6-0.4-1
			c0,0,0,0,0,0c0,0,0,0,0,0c-0.1,0.2-0.1,0.4-0.1,0.7c-0.1,0.7,0,1.3,0.3,1.9c0,0,0,0,0,0l0,0c0.1-0.1,0.4-0.2,0.7-0.5
			c0.3-0.2,0.5-0.5,0.6-0.9C29.6,31.6,29.7,31.2,29.8,30.8L29.8,30.8C29.8,30.8,29.8,30.8,29.8,30.8"/>
		<path fill="#2DA34A" d="M29,29.6c0,0.1-0.1,0.1-0.2,0.1c-0.1,0-0.1-0.1-0.2-0.1c0,0-0.2-0.5-0.5-0.9l0,0c0,0,0,0,0,0
			c0,0.2-0.1,0.4-0.1,0.7c0,0.7,0.2,1.3,0.5,1.8c0,0,0,0,0,0l0,0c0.1-0.1,0.4-0.2,0.6-0.5c0.2-0.3,0.4-0.6,0.5-0.9
			c0.1-0.4,0.2-0.8,0.2-1.2c0,0,0,0,0,0l0,0C29.7,28.7,29.3,29,29,29.6"/>
		<path fill="#2DA34A" d="M28.9,27.5c-0.1,0-0.1,0-0.2-0.1c0,0-0.2-0.5-0.6-0.8c0,0,0,0,0,0c0,0,0,0,0,0c0,0.6,0,1.6,0.7,2.3
			c0,0,0,0,0,0s0,0,0,0c0.1-0.1,0.4-0.3,0.6-0.6c0.2-0.3,0.3-0.6,0.4-1c0.1-0.4,0.1-0.8,0.1-1.2c0,0,0,0,0,0c0,0,0,0,0,0
			c-0.3,0.2-0.6,0.6-0.9,1.3C29,27.5,29,27.5,28.9,27.5"/>
		<path fill="#2DA34A" d="M28.8,25.3c-0.1,0-0.2,0-0.2-0.1c0,0-0.3-0.4-0.6-0.7c0,0,0,0,0,0c0,0,0,0,0,0c0.1,0.6,0.2,1.7,0.9,2.3
			l0,0c0,0,0,0,0,0c0.1-0.1,0.3-0.3,0.5-0.7c0.2-0.3,0.3-0.7,0.3-1c0.1-0.4,0.1-0.8,0-1.2c0,0,0,0,0,0c0,0,0,0,0,0
			c-0.2,0.3-0.6,0.7-0.7,1.4C28.9,25.2,28.9,25.3,28.8,25.3"/>
		<path fill="#2DA34A" d="M28.5,23.1c-0.1,0-0.2,0-0.2-0.1c0,0-0.3-0.4-0.7-0.7c0,0,0,0,0,0c0,0,0,0,0,0c0,0.2,0.1,0.4,0.1,0.7
			c0.1,0.5,0.4,1.1,0.9,1.6c0,0,0,0,0,0c0,0,0,0,0,0c0.1-0.1,0.3-0.3,0.5-0.7c0.2-0.3,0.3-0.7,0.3-1c0-0.4,0-0.8-0.1-1.2l0,0
			c0,0,0,0,0,0c-0.2,0.3-0.5,0.7-0.7,1.4C28.6,23,28.6,23.1,28.5,23.1"/>
		<path fill="#2DA34A" d="M28,20.9c-0.1,0-0.2,0-0.2-0.1c0,0-0.4-0.4-0.8-0.6l0,0c0,0,0,0,0,0c0.1,0.2,0.1,0.4,0.2,0.6
			c0.3,0.7,0.6,1.1,1.1,1.4l0,0l0,0c0.1-0.1,0.3-0.3,0.4-0.7c0.1-0.3,0.2-0.7,0.1-1.1c0-0.4-0.1-0.8-0.2-1.2c0,0,0,0,0,0
			c0,0,0,0,0,0c-0.2,0.3-0.4,0.8-0.5,1.5C28.1,20.8,28.1,20.9,28,20.9"/>
		<path fill="#2DA34A" d="M27,18.8c0,0-0.4-0.3-0.9-0.6c0,0,0,0,0,0l0,0c0.1,0.2,0.2,0.4,0.3,0.6c0.3,0.6,0.7,1.1,1.3,1.3
			c0,0,0,0,0,0l0,0c0.1-0.1,0.2-0.4,0.3-0.8c0.1-0.3,0.1-0.7,0-1.1c-0.1-0.4-0.2-0.8-0.4-1.2c0,0,0,0,0,0c0,0,0,0,0,0
			c-0.2,0.3-0.3,0.8-0.3,1.5c0,0.1,0,0.1-0.1,0.2C27.2,18.8,27.1,18.8,27,18.8"/>
		<path fill="#2DA34A" d="M25.1,16.3L25.1,16.3c0.1,0.2,0.2,0.4,0.3,0.6c0.4,0.6,0.9,1,1.4,1.2l0,0l0,0c0.1-0.1,0.2-0.4,0.2-0.8
			c0-0.3,0-0.7-0.1-1.1c-0.1-0.4-0.3-0.8-0.5-1.1c0,0,0,0,0,0c0,0,0,0,0,0c-0.1,0.3-0.2,0.9-0.1,1.5c0,0.1,0,0.2-0.1,0.2
			c-0.1,0-0.2,0-0.2,0C26.1,16.8,25.6,16.5,25.1,16.3C25.1,16.3,25.1,16.3,25.1,16.3"/>
		<path fill="#2DA34A" d="M23.8,14.6C23.8,14.6,23.8,14.6,23.8,14.6c0.1,0.2,0.3,0.4,0.4,0.6c0.5,0.5,1,0.8,1.6,0.9h0c0,0,0,0,0,0
			c0-0.1,0.1-0.4,0.1-0.8c0-0.3-0.1-0.7-0.3-1.1c-0.2-0.3-0.4-0.7-0.7-1c0,0,0,0,0,0c0,0,0,0,0,0c-0.1,0.4-0.1,0.9,0.1,1.5
			c0,0.1,0,0.2-0.1,0.2c-0.1,0-0.2,0-0.2,0C24.8,15,24.4,14.7,23.8,14.6C23.9,14.6,23.8,14.6,23.8,14.6"/>
		<path fill="#2DA34A" d="M23.6,13.3c-0.1,0.1-0.1,0.1-0.2,0.1c0,0-0.5-0.2-0.9-0.2c0,0,0,0-0.1,0c0,0,0,0,0,0c0,0,0,0,0,0
			c0.2,0.2,0.4,0.4,0.6,0.5c0.4,0.3,1,0.6,1.6,0.6h0c0,0,0,0,0,0c0-0.1,0-0.4-0.1-0.8c-0.1-0.3-0.2-0.7-0.4-1
			c-0.2-0.3-0.5-0.6-0.8-0.9c0,0,0,0,0,0c0,0,0,0,0,0c0,0.4,0,0.9,0.4,1.5C23.7,13.1,23.7,13.2,23.6,13.3"/>
		<path fill="#2DA34A" d="M6.6,41C6.6,41,6.6,41,6.6,41c0.1,0,0.1,0,0.1,0c0.1-0.9-0.6-1.8-0.9-2.3c0,0,0,0,0,0l0,0
			c-0.1,0.5,0.1,1,0.1,1c0,0.1,0,0.2-0.1,0.2c-0.1,0-0.1,0-0.2,0c-0.6-0.4-1.1-0.5-1.5-0.5c0,0,0,0,0,0l0,0c0.3,0.4,0.6,0.7,0.9,0.9
			c0.3,0.2,0.6,0.4,1,0.5C6.1,41,6.4,41,6.6,41"/>
		<path fill="#2DA34A" d="M5.3,39.3L5.3,39.3C5.3,39.3,5.3,39.3,5.3,39.3c0.1-0.7-0.1-1.3-0.3-1.8c-0.1-0.2-0.2-0.4-0.3-0.6l0,0
			c0,0,0,0,0,0c-0.1,0.5-0.1,1-0.1,1c0,0.1,0,0.2-0.1,0.2c-0.1,0-0.2,0-0.2,0c-0.5-0.4-1.1-0.6-1.4-0.6c0,0,0,0,0,0c0,0,0,0,0,0
			c0.2,0.4,0.5,0.7,0.8,1c0.3,0.3,0.6,0.5,0.9,0.6C4.8,39.2,5.1,39.3,5.3,39.3"/>
		<path fill="#2DA34A" d="M4.1,37.4L4.1,37.4C4.1,37.4,4.1,37.4,4.1,37.4c0.2-0.6,0.2-1.2-0.1-1.8c-0.1-0.2-0.2-0.4-0.3-0.6
			c0,0,0,0,0,0c0,0,0,0,0,0c-0.2,0.5-0.2,1-0.2,1c0,0.1,0,0.1-0.1,0.2c-0.1,0-0.2,0-0.2,0c-0.4-0.4-0.9-0.6-1.1-0.7
			c-0.1,0-0.1,0-0.2-0.1c0,0,0,0,0,0c0,0,0,0,0,0c0.2,0.4,0.4,0.8,0.6,1.1C2.7,36.7,3,37,3.3,37.1C3.7,37.3,4,37.4,4.1,37.4"/>
		<path fill="#2DA34A" d="M3.1,35.4L3.1,35.4C3.1,35.4,3.1,35.4,3.1,35.4c0.5-1,0.2-2-0.1-2.5c0,0,0,0,0,0c0,0,0,0,0,0
			c-0.2,0.5-0.3,1-0.3,1c0,0.1-0.1,0.1-0.1,0.2c-0.1,0-0.2,0-0.2-0.1c-0.4-0.5-0.8-0.7-1-0.9c-0.1,0-0.1-0.1-0.2-0.1c0,0,0,0,0,0
			c0,0,0,0,0,0C1.7,34.8,2.7,35.3,3.1,35.4"/>
		<path fill="#2DA34A" d="M1.7,32.9c0.3,0.3,0.6,0.4,0.7,0.4l0,0c0,0,0,0,0,0c0.4-0.6,0.5-1.2,0.3-1.9c0-0.2-0.1-0.4-0.2-0.6
			c0,0,0,0,0,0l0,0c-0.3,0.4-0.4,1-0.4,1l0,0l0,0C2.1,31.9,2,32,2,32c-0.1,0-0.2,0-0.2-0.1c-0.4-0.6-0.8-0.9-1.2-1l0,0c0,0,0,0,0,0
			C0.7,31.3,0.8,31.7,1,32C1.2,32.4,1.4,32.7,1.7,32.9"/>
		<path fill="#2DA34A" d="M1.8,31.2L1.8,31.2C1.8,31.2,1.8,31.2,1.8,31.2c0.7-1,0.7-1.9,0.6-2.4c0,0,0,0,0,0l0,0
			c-0.3,0.4-0.5,0.9-0.5,0.9c0,0.1-0.1,0.1-0.2,0.1h0c-0.1,0-0.1,0-0.2-0.1c-0.2-0.5-0.6-0.9-0.8-1.1c-0.1,0-0.1-0.1-0.2-0.1
			c0,0,0,0,0,0c0,0,0,0,0,0C0.5,30.3,1.4,31,1.8,31.2"/>
		<path fill="#2DA34A" d="M1.6,29C1.6,29,1.6,29,1.6,29L1.6,29c0.4-0.3,0.6-0.8,0.7-1.3c0.1-0.4,0-0.9,0-1.1c0,0,0,0,0,0
			c0,0,0,0,0,0c-0.4,0.4-0.5,0.9-0.5,0.9c0,0.1-0.1,0.2-0.2,0.2c-0.1,0-0.2,0-0.2-0.1c-0.2-0.6-0.5-0.9-0.7-1.2
			c0-0.1-0.1-0.1-0.1-0.1c0,0,0,0,0,0c0,0,0,0,0,0C0.4,28,1.3,28.8,1.6,29"/>
		<path fill="#2DA34A" d="M1.1,26.1c0.2,0.4,0.4,0.6,0.5,0.6c0,0,0,0,0,0l0,0c0.4-0.4,0.7-0.9,0.8-1.6c0-0.2,0.1-0.4,0.1-0.7
			c0,0,0,0,0,0c0,0,0,0,0,0c-0.4,0.3-0.6,0.8-0.6,0.8c0,0.1-0.1,0.1-0.2,0.1c-0.1,0-0.1-0.1-0.2-0.1C1.3,24.5,1,24,0.8,23.8
			c0,0,0,0,0,0c0,0,0,0,0,0c-0.1,0.4-0.1,0.9,0,1.2C0.8,25.4,0.9,25.8,1.1,26.1"/>
		<path fill="#2DA34A" d="M1.3,23.8c0.2,0.3,0.4,0.6,0.5,0.7l0,0l0,0c0.5-0.4,0.8-1,1-1.6c0-0.2,0.1-0.4,0.1-0.6l0,0c0,0,0,0,0,0
			C2.4,22.5,2.1,23,2.1,23c0,0.1-0.1,0.1-0.2,0.1c-0.1,0-0.1-0.1-0.2-0.2c-0.1-0.7-0.4-1.1-0.7-1.4c0,0,0,0,0,0c0,0,0,0,0,0
			C1,22,1,22.4,1,22.8C1.1,23.1,1.2,23.5,1.3,23.8"/>
		<path fill="#2DA34A" d="M2.1,22.3C2.1,22.3,2.1,22.3,2.1,22.3L2.1,22.3c0.6-0.4,1-0.9,1.2-1.5c0.1-0.2,0.1-0.4,0.1-0.6
			c0,0,0,0,0,0c0,0,0,0,0,0c-0.5,0.3-0.8,0.7-0.8,0.7c-0.1,0.1-0.1,0.1-0.2,0.1c-0.1,0-0.1-0.1-0.1-0.2C2.2,20,2,19.6,1.8,19.3
			c0,0,0,0,0,0l0,0c-0.1,0.4-0.2,0.8-0.2,1.2c0,0.4,0,0.7,0.2,1.1C1.8,21.9,2,22.2,2.1,22.3"/>
		<path fill="#2DA34A" d="M2.7,20.1C2.7,20.1,2.7,20.1,2.7,20.1L2.7,20.1c0.6-0.3,1.1-0.8,1.4-1.4c0.1-0.2,0.2-0.4,0.2-0.6l0,0
			c0,0,0,0,0,0c-0.5,0.2-0.9,0.6-0.9,0.6c-0.1,0.1-0.1,0.1-0.2,0c-0.1,0-0.1-0.1-0.1-0.2c0-0.7-0.1-1.2-0.3-1.5c0,0,0,0,0,0l0,0
			c-0.2,0.4-0.3,0.8-0.4,1.2c-0.1,0.4,0,0.7,0,1.1C2.4,19.8,2.6,20,2.7,20.1"/>
		<path fill="#2DA34A" d="M3.5,18.1L3.5,18.1C3.5,18.1,3.5,18.1,3.5,18.1C4.1,17.9,4.5,17.6,5,17c0.2-0.2,0.3-0.5,0.4-0.6
			c0,0,0,0,0,0c0,0,0,0,0,0c-0.5,0.1-0.9,0.5-0.9,0.5c-0.1,0.1-0.2,0.1-0.2,0c-0.1,0-0.1-0.1-0.1-0.2c0.1-0.7,0-1.2-0.1-1.5
			c0,0,0,0,0,0l0,0c-0.2,0.4-0.4,0.8-0.5,1.1c-0.1,0.4-0.2,0.7-0.1,1.1C3.3,17.7,3.4,18,3.5,18.1"/>
		<path fill="#2DA34A" d="M4.6,16.1L4.6,16.1c0.9-0.2,1.7-1,2-1.5l0,0c0,0,0,0,0,0c-0.5,0-1,0.3-1,0.3c-0.1,0-0.2,0-0.2,0
			c-0.1-0.1-0.1-0.1-0.1-0.2c0.2-0.7,0.2-1.2,0.1-1.5c0,0,0,0,0,0c0,0,0,0,0,0C4.3,14.6,4.5,15.7,4.6,16.1L4.6,16.1"/>
		<path fill="#2DA34A" d="M5.9,14.3C5.9,14.3,6,14.3,5.9,14.3c0.6,0,1.2-0.4,1.6-0.7c0.2-0.1,0.4-0.3,0.6-0.5c0,0,0,0,0,0
			c0,0,0,0,0,0c-0.5,0-1,0.2-1,0.2c-0.1,0-0.2,0-0.2-0.1c-0.1-0.1-0.1-0.1,0-0.2c0.3-0.6,0.4-1.2,0.4-1.5c0,0,0,0,0,0l0,0
			c-0.3,0.3-0.6,0.6-0.8,0.9c-0.2,0.3-0.4,0.7-0.4,1C5.8,13.9,5.9,14.2,5.9,14.3C5.9,14.3,5.9,14.3,5.9,14.3"/>
		<path fill="#2DA34A" d="M9.8,11.8c-0.5,0-1,0.1-1,0.1c-0.1,0-0.2,0-0.2-0.1c0-0.1,0-0.1,0-0.2C9,11,9.1,10.5,9.1,10.2l0,0
			c0,0,0,0,0,0c-1.5,1.1-1.6,2.2-1.6,2.6c0,0,0,0,0,0c0,0,0.1,0,0.1,0C8.5,12.8,9.4,12.2,9.8,11.8C9.8,11.9,9.8,11.9,9.8,11.8
			C9.8,11.9,9.8,11.8,9.8,11.8"/>
		<path fill="#2DA34A" d="M11.7,10.9c-0.2,0-0.3-0.1-0.5-0.1c-0.3,0-0.5,0-0.5,0h0c-0.1,0-0.2-0.1-0.2-0.1c0-0.1,0-0.2,0.1-0.2
			c0.5-0.4,0.8-0.8,0.9-1.1c0,0,0,0,0,0c0,0,0,0,0,0c-1.7,0.6-2.1,1.6-2.2,2c0,0,0,0,0,0c0.2,0.1,0.4,0.1,0.7,0.1
			c0.3,0,0.7-0.1,1.2-0.2C11.3,11.2,11.5,11.1,11.7,10.9C11.7,11,11.7,11,11.7,10.9C11.7,10.9,11.7,10.9,11.7,10.9"/>
		<path fill="#2DA34A" d="M13.7,10.4c-0.4-0.2-1-0.3-1-0.3c-0.1,0-0.1-0.1-0.2-0.2c0-0.1,0-0.2,0.1-0.2c0.6-0.3,0.9-0.6,1-0.8l0,0
			c0,0,0,0,0,0c-0.9,0.1-1.6,0.4-2,0.9c-0.2,0.2-0.3,0.4-0.4,0.6c0,0,0,0,0,0c0.4,0.2,0.8,0.2,1.2,0.2c0.2,0,0.5,0,0.7-0.1
			C13.3,10.5,13.5,10.5,13.7,10.4C13.7,10.4,13.8,10.4,13.7,10.4C13.8,10.4,13.8,10.4,13.7,10.4"/>
		<path fill="#2DA34A" d="M15.1,9.8C15,9.8,15,9.7,15,9.6c0-0.1,0.1-0.2,0.1-0.2C15.7,9.3,16,9,16.2,8.9c0,0,0,0,0,0c0,0,0,0,0,0
			c-0.9-0.1-1.6,0.1-2.1,0.4c-0.3,0.2-0.4,0.4-0.5,0.5c0,0,0,0,0,0c0.6,0.4,1.3,0.5,1.9,0.5c0.2,0,0.3,0,0.5,0c0,0,0,0,0,0
			c0,0,0,0,0,0C15.6,10,15.1,9.8,15.1,9.8"/>
		<path fill="#2DA34A" d="M17.4,10c-0.1,0-0.1-0.1-0.1-0.2c0-0.1,0.1-0.1,0.2-0.1c0.6-0.1,0.9-0.2,1.2-0.3c0,0,0,0,0,0c0,0,0,0,0,0
			C17.8,9,17,9,16.5,9.3c-0.3,0.1-0.5,0.3-0.6,0.4c0,0,0,0,0,0c0.7,0.9,1.7,1,2.3,1h0l0,0c0,0,0,0,0,0C17.8,10.3,17.4,10,17.4,10"/>
		<path fill="#2DA34A" d="M23,12.8C23,12.8,23,12.8,23,12.8c0-0.2,0-0.6-0.2-1c-0.3-0.7-0.8-1.1-1.6-1.4c0,0,0,0,0,0l0,0
			c0.1,0.3,0.3,0.8,0.6,1.2c0.1,0.1,0.1,0.2,0,0.2c0,0.1-0.1,0.1-0.2,0.1c0,0-0.5-0.1-1,0l0,0c0,0,0,0,0,0c0.5,0.3,1.4,0.9,2.2,0.9
			C22.9,12.8,22.9,12.8,23,12.8"/>
		<path fill="#2DA34A" d="M21.2,11.4L21.2,11.4c-0.4-0.5-1-0.7-1.6-0.6c-0.2,0-0.5,0.1-0.7,0.1c0,0,0,0,0,0c0,0,0,0,0,0
			c0.5,0.4,1.1,0.6,1.6,0.6c0,0,0.1,0,0.1,0C20.8,11.5,21,11.4,21.2,11.4C21.2,11.4,21.2,11.4,21.2,11.4"/>
		<path fill="#2DA34A" d="M18,10C18,10,18,10,18,10c0.3,0.2,0.7,0.4,1.2,0.4c0.2,0,0.4,0,0.6-0.1c0.3-0.1,0.7-0.2,0.9-0.2l0,0
			c0,0,0,0,0,0c-0.3-0.2-0.6-0.3-1-0.3c-0.3-0.1-0.7,0-1,0C18.4,9.8,18.2,9.9,18,10L18,10"/>
		<path fill="#EE4023" d="M11.6,22.6c0.1,0.1,0.3,0.2,0.5,0.2h2.5C13.1,21.8,12.6,22,11.6,22.6C11.5,22.5,11.6,22.5,11.6,22.6"/>
		<path fill="#EE4023" d="M17.7,21.4c-0.2-0.1-0.5-0.1-0.7-0.2c-0.8-0.3-1.4-0.8-1.5-0.8c-0.2-0.1-0.2-0.4-0.1-0.5
			c0.1-0.2,0.4-0.2,0.5-0.1c0,0,0.6,0.5,1.3,0.7c0.2,0.1,0.4,0.1,0.6,0.2c0.3,0.1,0.7,0.2,1,0.3c-0.1-0.4-0.1-0.8-0.2-1.1
			c-1-0.2-1.8-0.9-1.9-0.9c-0.1-0.1-0.1-0.2-0.1-0.2c0-0.1,0-0.2,0.1-0.3c0.1-0.2,0.4-0.2,0.5,0c0,0,0.5,0.4,1.2,0.7
			c-0.3-1-0.6-1.9-1.1-2.8c-0.3-0.7-0.8-1.1-1.5-1.3c-0.5-0.2-0.8-0.1-0.8-0.1c0,0,0,0,0,0c0,0-1.2,0-2,0.9c0,0,0,0,0,0
			c-0.1,0.1-0.5,0.6-0.6,0.9c0,0.2,0,0.3,0.1,0.4c0.1,0,0.2,0.1,0.6-0.1c0.1-0.1,0.1-0.1,0.2-0.1c0.2-0.1,0.4-0.1,0.5,0.1
			c0.1,0.2,0.1,0.4-0.1,0.5c0,0-0.1,0.1-0.1,0.1c-0.2,0.1-0.5,0.4-0.8,0.9c-0.5,0.6-1.1,1.7-1.4,3.2c0,0,0,0.1,0,0.1
			c1-0.4,1.9-0.6,3.7,0.6c0.7,0.5,1.6,0.5,1.7,0.5h0.8c0,0,0,0,0,0c0.2,0,0.8,0,1.1-0.3c0-0.1,0.1-0.1,0.1-0.2
			C18.9,21.8,18.6,21.6,17.7,21.4"/>
		<path fill="#FBBB80" d="M14.1,35.7c0.1-0.1,0.2-0.2,0.2-0.3c0,0,0-0.1-0.1-0.2c-0.1-0.1-0.2-0.1-0.3-0.1c-0.2,0-0.4,0.1-0.7,0.4
			c-0.2,0.1-0.6,0.4-0.5,0.7c0,0.1,0.1,0.2,0.1,0.2c0.2,0.1,0.5,0.1,0.6,0.1C13.5,36.2,13.8,35.9,14.1,35.7"/>
		<path fill="#FBBB80" d="M15.4,36.2c0,0,0-0.1-0.1-0.2c0,0-0.2-0.1-0.5,0.1c-0.3,0.2-0.6,0.4-0.7,0.6c0.1,0.1,0.1,0.1,0.2,0.1
			c0.3,0.1,0.7-0.2,0.8-0.3c0,0,0,0,0,0C15.2,36.5,15.3,36.3,15.4,36.2"/>
		<path fill="#FBBB80" d="M11.5,34.4C11.5,34.4,11.4,34.4,11.5,34.4c-0.3,0-0.7,0.2-0.9,0.4c-0.1,0.2-0.1,0.3-0.1,0.3
			c0,0.1,0.1,0.1,0.3,0.2c0,0,0.1,0,0.1,0c0.1-0.3,0.3-0.5,0.5-0.7c0.1-0.1,0.1-0.1,0.2-0.1C11.6,34.4,11.5,34.4,11.5,34.4
			C11.5,34.4,11.5,34.4,11.5,34.4"/>
		<path fill="#FBBB80" d="M11.6,35.6c0,0.1,0,0.2,0.3,0.3c0,0,0.1,0,0.2,0c0.1-0.3,0.4-0.6,0.8-0.9c0.1,0,0.1-0.1,0.2-0.1
			c0,0,0,0,0-0.1c0-0.1-0.1-0.1-0.2-0.2c-0.1,0-0.1-0.1-0.2-0.1c-0.2,0-0.4,0.1-0.7,0.4C11.7,35.3,11.6,35.4,11.6,35.6"/>
		<path fill="#FBBB80" d="M19.5,35c0.2,0,0.3-0.1,0.4-0.1c0.1-0.1,0.1-0.2,0.1-0.3c-0.2-0.2-0.8-1-1.6-1.5c-0.4-0.2-0.7-0.5-1.1-0.6
			c-0.4-0.2-0.8-0.2-1.1-0.1l0,0c-0.1,0-0.2,0.1-0.4,0.2c-0.1,0.1-0.2,0.1-0.4,0.2c-0.4,0.2-0.9,0.4-1.3,0.4c-0.4,0-0.8,0-1.1-0.4
			c-0.2-0.3-0.2-0.5-0.1-0.8c0.1-0.3,0.4-0.4,0.8-0.6c0.2-0.1,0.3-0.2,0.4-0.2c0.2-0.1,0.3-0.2,0.4-0.3c0.1-0.1,0.3-0.2,0.5-0.4
			c0.1-0.1,0.2-0.1,0.3-0.2c-0.1,0-0.2,0-0.4,0c-0.6-0.1-1,0.2-1.7,0.6c-0.5,0.4-1.6,0.7-3.3,1c-1.6,0.3-3.7,0.6-6.4,0.9
			c0.1,0.3,0.2,0.6,0.3,0.9c0.3,1.1,0.8,2.1,1.3,3c1-0.4,3.3-1.5,5.1-2.5c0.4-0.3,0.9-0.5,1.3-0.5c0.1,0,0.4,0.1,0.7,0.3
			c0.3-0.1,0.6-0.1,0.9,0.1c0.3,0.1,0.4,0.3,0.5,0.5c0.4-0.1,0.7,0,1,0.2c0.2,0.2,0.3,0.3,0.3,0.5c0.4-0.1,0.6,0.1,0.8,0.2
			c0.3,0.3,0.3,0.5,0.3,0.7c0,0.1-0.1,0.3-0.1,0.4c0.2,0,0.4,0,0.5-0.1c0.1,0,0.1-0.1,0.2-0.1c-0.1-0.2-0.2-0.4-0.4-0.6
			C16,35.8,16,35.7,16,35.6c0-0.1,0-0.2,0.1-0.2c0.1-0.1,0.3-0.1,0.5,0c0.3,0.4,0.5,0.7,0.6,0.9c0.2,0,0.3,0,0.4-0.1
			c0.1-0.1,0.1-0.1,0.1-0.2c0-0.1-0.1-0.2-0.3-0.5c-0.2-0.2-0.6-0.5-0.7-0.6c-0.1,0-0.1-0.1-0.1-0.2c0-0.1,0-0.2,0.1-0.2
			c0-0.1,0.1-0.1,0.2-0.1c0.1,0,0.2,0,0.2,0.1c0,0,0.6,0.4,0.8,0.7c0.2,0.2,0.3,0.4,0.4,0.6c0.2,0,0.4-0.1,0.5-0.2
			c0,0,0.1-0.1,0.1-0.1c-0.2-0.3-0.9-1.1-1.6-1.4c-0.1,0-0.1-0.1-0.2-0.2c0-0.1,0-0.2,0-0.2c0-0.1,0.1-0.1,0.2-0.2
			c0.1,0,0.2,0,0.2,0C18.5,33.7,19.2,34.6,19.5,35"/>
		<path fill="#FBBB80" d="M15.4,32c0.2-0.1,0.4-0.3,0.6-0.3c1.1-0.3,2.2,0.4,2.8,0.8c0.8,0.5,1.4,1.2,1.7,1.5c0,0,0,0,0,0.1l0,0l0,0
			c0.1,0.1,0.3,0.3,0.6,0.5c1.4,1,3.4,1.9,4.3,2.3c0.5-1,1-2,1.3-3.1c0.1-0.3,0.2-0.5,0.2-0.8c-1.7-0.1-3.5-0.5-4.8-0.8
			c-1.4-0.3-2.5-0.7-2.5-0.7c-0.3-0.1-0.5-0.2-0.8-0.3c-0.8-0.3-1.3-0.5-1.9-0.4c-0.1,0-0.1,0-0.2,0c-0.1,0-0.2,0-0.3,0h0
			c-0.5,0-0.9,0-1.2,0.2c-0.2,0.2-0.4,0.3-0.5,0.4c-0.1,0.1-0.3,0.2-0.5,0.4c-0.2,0.1-0.3,0.2-0.5,0.3c-0.1,0.1-0.4,0.2-0.5,0.3
			c0,0,0,0.1,0.1,0.2c0.1,0.1,0.3,0.1,0.6,0.1c0.3,0,0.7-0.1,1-0.3C15.2,32.1,15.3,32,15.4,32"/>
	</g>
</g>
</svg>
