<?xml version="1.0" encoding="utf-8"?>
<!-- Generator: Adobe Illustrator 18.0.0, SVG Export Plug-In . SVG Version: 6.00 Build 0)  -->
<!DOCTYPE svg PUBLIC "-//W3C//DTD SVG 1.1//EN" "http://www.w3.org/Graphics/SVG/1.1/DTD/svg11.dtd">
<svg version="1.1" id="Layer_1" xmlns="http://www.w3.org/2000/svg" xmlns:xlink="http://www.w3.org/1999/xlink" x="0px" y="0px"
	 viewBox="0 0 371.4 488.8" enable-background="new 0 0 371.4 488.8" xml:space="preserve">
<g>
	<g>
		<circle fill-rule="evenodd" clip-rule="evenodd" fill="#03A9F4" cx="132.9" cy="26.6" r="1.6"/>
	</g>
	<g>
		<defs>
			<rect id="SVGID_1_" x="0" y="0" width="359.8" height="488.8"/>
		</defs>
		<clipPath id="SVGID_2_">
			<use xlink:href="#SVGID_1_"  overflow="visible"/>
		</clipPath>
		<g clip-path="url(#SVGID_2_)">
			
				<polygon fill-rule="evenodd" clip-rule="evenodd" fill="none" stroke="#4E4E5B" stroke-width="1.1173" stroke-miterlimit="10" points="
				238.8,297 238.6,295.3 237.3,297.2 236.5,299.6 236.7,302 235.7,303 235.7,305.2 236.2,306.7 236.1,310.9 234.6,311.7 
				234.4,314.6 235.6,315.1 236.8,316.3 237.1,317.3 238,317.5 239.4,318.1 241,318.2 241.3,319.4 242.8,319.5 243.8,320.4 
				245.9,320.5 248.9,320.5 251.5,320.1 251.6,318.9 253,319 253.9,318 254.2,317.2 254.5,315.6 254.4,314.2 253.7,313.3 
				253.9,312.1 254.9,311.8 255.2,309.8 254.2,309 252.8,307.6 251.6,306.3 250.2,306 249.6,304.8 248.8,304.1 248.9,303.3 
				246.3,303 245.6,302 244.7,301.9 244.7,301.2 243,301.2 243,300.2 241.9,299.9 241.7,298.5 240.7,298.1 240.7,297.1 			"/>
			
				<polygon fill-rule="evenodd" clip-rule="evenodd" fill="#2D2D43" stroke="#4E4E5B" stroke-width="1.1173" stroke-miterlimit="10" points="
				216.6,257.1 215.8,258.5 216.6,261.8 218.7,263.9 221.2,265.5 223,267.1 223.7,268.5 224.9,269.2 227.8,268.9 229.6,270.3 
				230.4,271.8 232.5,271.6 234.4,272.1 235.9,273.4 235.6,275.6 233.6,279.3 232.7,280.9 232.2,283 235.7,283 237.5,284.5 
				238.5,285.9 239.4,283.5 241,283.2 243.5,283.5 244.6,281.3 246.8,280.4 246.8,277.4 247.5,274.8 247.3,273.2 246.5,272.4 
				247,271.8 248,271.8 248.5,270.3 248.3,268.2 247.7,267.1 243.5,267.1 243.3,265.3 242.2,264.8 242.3,262.9 243.3,261 242.3,260 
				241,260 240.4,258.9 234.4,258.9 232.8,257.7 234.1,256.6 234.3,253.4 233.5,252.8 233.2,249.5 232.2,248.9 232.5,247.9 
				230.7,247.9 230.3,246.8 229.1,246.1 229,245 223.3,245.3 223.2,246.1 220.3,246 219.8,247.1 218.5,247.4 218,248.7 218,250.3 
				216.9,250.7 216.7,253.1 217.4,254.5 217.2,256.1 			"/>
			
				<polygon fill-rule="evenodd" clip-rule="evenodd" fill="#2D2D43" stroke="#4E4E5B" stroke-width="1.1173" stroke-miterlimit="10" points="
				195.3,262.3 198.4,262.7 198.4,261.6 201.9,257.6 203.5,258.4 203.7,259.7 206.7,259.5 206.9,261.4 208.7,261.6 209,258.5 
				215.8,258.5 217.2,256.1 217.4,254.5 216.7,253.1 216.9,250.7 218,250.3 218,248.7 218.5,247.4 219.8,247.1 220.3,246 
				223.2,246.1 223.3,245.3 229,245 229.1,246.1 230.3,246.8 230.7,247.9 232.5,247.9 231.9,246.3 233.2,246.1 233.2,243.7 
				234.3,243.1 234.3,240.5 233.3,240 233.3,237.3 231.4,236.5 230.4,235.2 230.6,232.3 226.4,231.8 224,232.3 223,230.9 
				223.3,228.4 221.9,227.6 222.4,226 223.5,223 221.9,221.8 221.9,219.7 216.7,219.6 215.3,217.2 212.1,216.7 210.9,215.1 
				207.4,214.6 203.4,211.4 203.2,206.7 201.9,206.1 201.8,202.5 197.9,202.2 197.7,203.8 193.7,206.1 191.8,206.5 190.8,208.1 
				189.5,208.1 187.9,206.9 186,207.3 186.8,209.8 189.2,212.8 190,215.4 189.7,219.1 188.7,219.6 188.4,221.5 189.2,223 189,225.1 
				187.7,225.7 187.9,230.4 189.7,231.5 189.8,233.6 188.4,235 186.8,235.4 186.6,238.4 188.4,239.2 189.5,241.5 189.7,243.4 
				190.6,245.3 192.3,246 191.9,249.7 191,250.7 191,252.9 192.4,253.6 194.3,254.5 193.7,257.3 194.7,258.7 			"/>
			
				<polygon fill-rule="evenodd" clip-rule="evenodd" fill="#2D2D43" stroke="#4E4E5B" stroke-width="1.1173" stroke-miterlimit="10" points="
				255.7,314.6 257.2,313.8 258.4,313 258,310.9 259.1,310.2 259.2,306.5 258.3,305.6 258.4,303.6 259.9,303 260.5,300.9 
				261.5,300.4 261.5,297 262.9,298 264.7,298 263.9,299.3 262.6,301.1 262.5,302.5 262.1,303.6 260.2,304.4 259.2,304.8 260,306.4 
				262.8,305.7 263.3,304.1 265.2,302.2 266,298.2 267.1,296.9 266.7,294.8 267.9,294 268.1,292.2 270.4,290.9 271.3,289.1 
				271.6,282.9 270.8,275.8 273.1,273.4 276.5,269 279.9,266.9 283.1,266.3 283.6,264.8 285.5,264.8 285.7,263.5 286.9,263.5 
				287.6,262.4 289.2,262.3 289.2,263.4 291.9,263.5 291.9,261.9 293.7,261.9 294.7,263.2 296.9,262.1 296.8,260.3 298.5,259.8 
				300.3,258.4 300,254.7 301.3,253.1 301.6,251 303.5,250 303.2,247.6 304.8,246.8 305,244.9 304.8,240 305.9,238.6 307.1,237.5 
				306.6,234.2 306.7,231.2 308,229.9 308,228.1 306.9,227.6 306.7,222.3 306.1,221 306.3,218.5 308,217.6 307.9,215.9 307.1,215.2 
				307.1,214.1 309.3,214.9 310.5,214.3 310.3,212.7 311.4,210.9 312.5,210.7 313.8,207.8 313.2,207 314.3,205.6 315.8,206.1 
				317.2,204.6 317.1,203.2 318.5,202.8 319.1,200.4 321.2,197.7 321.4,195.1 322.5,193.7 322.5,191.4 324,190.1 323.3,188 
				322.2,187.4 322.5,185.3 321.2,184.6 321.6,181.4 319.6,180 315.4,180.1 312.9,178.4 310.9,176.3 308.4,173.5 305.5,171.6 
				303.7,170 302.4,168.7 300.8,168.7 300.1,169.7 296.8,170 296.6,168.5 291.9,168.9 290.8,167.9 287.9,167.9 287.4,168.9 
				285.2,169.2 285.2,166.4 284,165.8 284,164.3 282.8,162.9 280.8,162.7 279.9,163.5 278.6,162.7 277.9,161 276.3,160 274.2,160.6 
				273.1,160.8 272.3,160 270.4,160 270,161.9 269.4,163.5 267.8,165 265.2,165.3 265.2,164.3 267,164 268.4,162.3 268.6,158.2 
				265.4,157.7 261.7,158.4 261.2,160 259.1,160.3 258.9,162.4 257,164 255.9,165.5 254.3,164.8 256.2,162.6 256.3,160.5 
				257.6,160.2 257.8,158.2 260.9,156.9 261.3,154.7 263.3,152.9 263.4,149.7 261.7,149.4 260.7,147.3 260.5,144.7 259.2,144.2 
				259.7,141 258.8,139.1 256.8,138.7 254.6,140 253.1,143.7 251.8,146.8 248.9,148.6 247.5,147.3 246,148.6 243.9,148.6 243.5,147 
				238.1,146.5 237.2,147.6 238.5,149.5 232.2,149.7 231.2,151 229.3,150.8 228,153.7 225.9,152.4 224.9,150.3 223.2,149.2 
				222.7,142.3 224.1,140.8 224.3,138.6 222.5,137.3 222.7,134.9 220.4,133.8 220,137.1 217.9,137.5 216.9,139.4 212.1,139.5 
				211.3,141.2 209.2,141 208.4,139.5 204.7,139.4 205.1,141.2 206.4,142 206.1,143.4 205,144.1 205.1,146.6 206.7,147 209,146.5 
				208.8,148.1 207.4,149.7 205.5,151 203.7,153.1 201.8,153.7 200.3,153.1 199.2,154.5 197.7,154.2 197.1,152.6 195.2,152.1 
				195,150.3 193.2,148.2 190.8,150.2 188.9,150 184.5,149.9 183.4,151.9 184.2,153.1 186.1,152.9 186.3,155.2 183.9,155 
				183.7,159.5 185,160.8 184.8,162.6 186,163.4 186,168.4 183.4,168.8 183.2,171.1 181.8,173.5 182.1,174.6 183.8,174.5 
				184.3,175.4 183.6,177.9 181.7,177.3 181.1,178.4 178.5,178.2 175.8,178.9 172.9,181.7 172.9,184.4 171.9,184.9 171.9,187.1 
				172.9,187.7 172.8,189 169.7,188.9 169.4,196 169.7,197.2 171.6,197.2 171.9,198.9 173.8,199.4 173.9,200.7 175.8,200.7 
				175.8,202.4 177.7,202.9 179.2,202.3 179.6,201.2 180.4,201.2 180.5,200.2 182.3,200.2 182.1,207.3 186,207.3 187.9,206.9 
				189.5,208.1 190.8,208.1 191.8,206.5 193.7,206.1 197.7,203.8 197.9,202.2 201.8,202.5 201.9,206.1 203.2,206.7 203.4,211.4 
				207.4,214.6 210.9,215.1 212.1,216.7 215.3,217.2 216.7,219.6 221.9,219.7 221.9,221.8 223.5,223 221.9,227.6 223.3,228.4 
				223,230.9 224,232.3 226.4,231.8 230.6,232.3 230.4,235.2 231.4,236.5 233.3,237.3 233.3,240 234.3,240.5 234.3,243.1 
				233.2,243.7 233.2,246.1 231.9,246.3 232.5,247.9 232.2,248.9 233.2,249.5 233.5,252.8 234.3,253.4 234.1,256.6 232.8,257.7 
				234.4,258.9 240.4,258.9 241,260 242.3,260 243.3,261 242.3,262.9 242.2,264.8 243.3,265.3 243.5,267.1 247.7,267.1 248.3,268.2 
				248.5,270.3 248,271.8 247,271.8 246.5,272.4 247.3,273.2 247.5,274.8 249.4,275 250.5,277.1 250.9,280.3 250.5,282.9 
				249.1,284.5 246.8,284.6 246.5,286.4 244.9,288 243.1,289 242,290.6 240.7,294.5 238.6,295.3 238.8,297 240.7,297.1 240.7,298.1 
				241.7,298.5 241.9,299.9 243,300.2 243,301.2 244.7,301.2 244.7,301.9 245.6,302 246.3,303 248.9,303.3 248.8,304.1 249.6,304.8 
				250.2,306 251.6,306.3 254.2,309 255.2,309.8 254.9,311.8 253.9,312.1 253.7,313.3 254.5,315.6 			"/>
			
				<polygon fill-rule="evenodd" clip-rule="evenodd" fill="#2D2D43" stroke="#4E4E5B" stroke-width="1.1173" stroke-miterlimit="10" points="
				143,172.6 146,170.9 146.4,167.9 145.2,168 143.7,169.5 141.5,167.4 142.3,163.6 141,162.6 141.9,160.3 143.3,160.4 144.1,157.3 
				145.2,155.9 144.4,152.8 148.9,151.4 151.8,153.4 153.7,156.4 156.6,157.1 158.2,155.9 161.9,157 163.2,158.9 163.3,163 
				161.9,163.7 161.6,165.4 158.8,167.5 158.2,169.4 155.7,170 156,171.3 153.9,172.3 154,173.6 151.8,175 151.3,176.7 151.6,178.4 
				149.6,179 149.7,181.3 147.8,181.4 147.7,179.1 146.5,178.9 145.8,177.2 143.8,177.5 143,176.9 143.9,176.1 144.1,174.8 
				143.8,173.6 142.9,173.3 			"/>
			
				<polygon fill-rule="evenodd" clip-rule="evenodd" fill="none" stroke="#4E4E5B" stroke-width="1.1173" stroke-miterlimit="10" points="
				177.4,104.1 180.2,104 181,101.9 180.7,100.3 177.8,99.9 175.8,101.7 175.3,104.1 172.9,106.1 169.6,104.6 168.3,105.4 
				167.6,107.5 165.4,107.5 163.3,110.1 163.1,115.4 160.2,115.2 158.9,117.5 158.3,121 155.7,117.4 155.2,122.2 153.4,123.9 
				154.3,125.5 155.2,126 155.5,130 157.5,131.2 156.3,133.9 154.6,134.1 154.9,140 157,140.5 156.3,142.6 153.3,145.2 150.1,146.8 
				148.9,151.4 151.8,153.4 153.7,156.4 156.6,157.1 158.2,155.9 161.9,157 163.2,158.9 164.4,158.4 166.5,159.9 166.9,161.6 
				168.7,162.6 169.1,163.9 170.8,164.5 171.6,165.5 171.8,167.4 175.7,167.6 179.7,167 181.9,167.4 182.2,168.6 183.4,168.8 
				186,168.4 186,163.4 184.8,162.6 185,160.8 183.7,159.5 183.9,155 186.3,155.2 186.1,152.9 184.2,153.1 183.4,151.9 184.5,149.9 
				188.9,150 190.8,150.2 193.2,148.2 193.4,146.5 192.3,145.7 192.6,144.1 194,143.6 194,141.5 192.4,140.5 192.1,135.7 
				191.8,133.6 194,133.4 193.2,130 191,129.6 189.7,131 188.6,130.9 187.9,129.6 185.3,129.9 184.7,128.1 183.7,127.5 182.1,125.9 
				176.3,125.9 174.5,124.7 174.4,122.2 176,121.5 175.7,120.1 174.4,119.6 174.5,117.5 173.3,116.5 171,117.6 170.8,116 
				172.9,115.1 173.1,112 172.4,110.6 173.4,109 175.2,108.6 175.5,106.1 			"/>
			
				<polygon fill-rule="evenodd" clip-rule="evenodd" fill="none" stroke="#4E4E5B" stroke-width="1.1173" stroke-miterlimit="10" points="
				218.8,132.1 217.1,131 217.2,128.8 221.1,127.3 220.9,125.5 220,123.9 221.9,121.4 224.1,119.4 223.8,117.5 221.6,118.1 
				219.8,118.6 219.5,117.2 221.1,115.7 220.1,113.6 215.6,112.2 215.3,110.1 213.2,108.5 207.7,108.5 207.7,110.4 205,111.9 
				202.6,111.7 200.1,109.8 199.8,108.3 195.2,108.3 193.4,110.1 191.5,108.8 191.3,105.4 189.5,104.8 186.8,104.1 186.1,101.4 
				184.8,102.2 185,104.6 186.5,105.2 183.1,107.5 179.4,108.1 177.4,104.1 175.5,106.1 175.2,108.6 173.4,109 172.4,110.6 
				173.1,112 172.9,115.1 170.8,116 171,117.6 173.3,116.5 174.5,117.5 174.4,119.6 175.7,120.1 176,121.5 174.4,122.2 174.5,124.7 
				176.3,125.9 182.1,125.9 184.7,128.1 185.3,129.9 187.9,129.6 188.6,130.9 189.7,131 191,129.6 193.2,130 194,133.4 191.8,133.6 
				192.4,140.5 194,141.5 194,143.6 192.6,144.1 192.3,145.7 193.4,146.5 193.2,148.2 195,150.3 195.2,152.1 197.1,152.6 
				197.7,154.2 199.2,154.5 200.3,153.1 201.8,153.7 203.7,153.1 205.5,151 207.4,149.7 208.8,148.1 209,146.5 206.7,147 
				205.1,146.6 205,144.1 206.1,143.4 206.4,142 205.1,141.2 204.7,139.4 208.4,139.5 209.2,141 211.3,141.2 212.1,139.5 
				216.9,139.4 217.9,137.5 220,137.1 220.4,133.8 			"/>
			
				<polygon fill-rule="evenodd" clip-rule="evenodd" fill="none" stroke="#4E4E5B" stroke-width="1.1173" stroke-miterlimit="10" points="
				224.1,119.4 226.2,119.4 228.2,122.2 229,124.9 230.7,125.1 230.4,127.3 233.8,127.3 235.7,130.7 233.2,131.5 233.2,135.4 
				231.2,136 230.6,139.7 232.4,142.6 233.6,142.9 233.6,145.3 235.1,147.3 235.1,149.5 232.2,149.7 231.2,151 229.3,150.8 
				228,153.7 225.9,152.4 224.9,150.3 223.2,149.2 222.7,142.3 224.1,140.8 224.3,138.6 222.5,137.3 222.7,134.9 220.4,133.8 
				218.8,132.1 217.1,131 217.2,128.8 221.1,127.3 220.9,125.5 220,123.9 221.9,121.4 			"/>
			
				<polygon fill-rule="evenodd" clip-rule="evenodd" fill="none" stroke="#4E4E5B" stroke-width="1.1173" stroke-miterlimit="10" points="
				243.9,146 243.9,144.1 245.7,142.9 246.4,141.3 244.6,139.9 243.9,135.5 246,133.3 245.7,130.7 241.4,130.5 240.1,132.1 
				238.1,132 235.7,130.7 233.2,131.5 233.2,135.4 231.2,136 230.6,139.7 232.4,142.6 233.6,142.9 233.6,145.3 235.1,147.3 
				235.1,149.5 238.5,149.5 237.2,147.6 238.1,146.5 243.5,147 			"/>
			
				<polygon fill-rule="evenodd" clip-rule="evenodd" fill="none" stroke="#4E4E5B" stroke-width="1.1173" stroke-miterlimit="10" points="
				245.7,130.7 248.6,130.9 250.7,132.9 254.4,133.9 256.8,138.7 254.6,140 251.8,146.8 248.9,148.6 247.5,147.3 246,148.6 
				243.9,148.6 243.5,147 243.9,146 243.9,144.1 245.7,142.9 246.4,141.3 244.6,139.9 243.9,135.5 246,133.3 			"/>
			
				<polygon fill-rule="evenodd" clip-rule="evenodd" fill="none" stroke="#4E4E5B" stroke-width="1.1173" stroke-miterlimit="10" points="
				217.3,104.3 216.8,101.9 218.4,101.7 219,103.2 			"/>
			
				<polygon fill-rule="evenodd" clip-rule="evenodd" fill="none" stroke="#4E4E5B" stroke-width="1.1173" stroke-miterlimit="10" points="
				226.2,99.3 225.6,96.9 227.3,96.7 227.8,98.2 			"/>
			
				<polygon fill-rule="evenodd" clip-rule="evenodd" fill="none" stroke="#4E4E5B" stroke-width="1.1173" stroke-miterlimit="10" points="
				220.7,95.5 220.1,94.7 220.1,92.5 220.8,92.2 220.8,91.4 220,90.6 220.5,89.2 222.3,89.5 223.4,91.7 222.3,93 222,95.4 			"/>
			
				<polygon fill-rule="evenodd" clip-rule="evenodd" fill="none" stroke="#4E4E5B" stroke-width="1.1173" stroke-miterlimit="10" points="
				219.5,85.4 216.9,84 219.3,81.9 220.3,83.5 			"/>
			
				<polygon fill-rule="evenodd" clip-rule="evenodd" fill="none" stroke="#4E4E5B" stroke-width="1.1173" stroke-miterlimit="10" points="
				215.3,79.3 213.7,78.2 216.4,76.9 219.5,78.2 218.5,79.5 216.6,78 			"/>
			
				<polygon fill-rule="evenodd" clip-rule="evenodd" fill="none" stroke="#4E4E5B" stroke-width="1.1173" stroke-miterlimit="10" points="
				207.9,76.4 206.4,75.5 207.1,74.3 208.8,74.8 			"/>
			
				<polygon fill-rule="evenodd" clip-rule="evenodd" fill="none" stroke="#4E4E5B" stroke-width="1.1173" stroke-miterlimit="10" points="
				213,74.3 212.2,72.4 214.3,72.6 214,74.2 			"/>
			
				<polygon fill-rule="evenodd" clip-rule="evenodd" fill="none" stroke="#4E4E5B" stroke-width="1.1173" stroke-miterlimit="10" points="
				201.6,76.6 198.2,75.5 197.4,72.6 204.7,72.4 204.7,74.2 			"/>
			
				<polygon fill-rule="evenodd" clip-rule="evenodd" fill="none" stroke="#4E4E5B" stroke-width="1.1173" stroke-miterlimit="10" points="
				181.1,76.9 179.2,75.5 178.7,67.2 180.2,67.2 180.2,66 184.7,66.1 185,67.4 190.2,68.1 189.8,69.5 188.6,70.9 192.3,71.4 
				192.7,73.4 189.2,74.7 187.1,73.7 185.7,75.5 182.6,73.8 182.3,75.5 			"/>
			
				<polygon fill-rule="evenodd" clip-rule="evenodd" fill="none" stroke="#4E4E5B" stroke-width="1.1173" stroke-miterlimit="10" points="
				171.3,75.8 168.7,72.6 174.9,71.8 175.3,70.5 174.7,69 173.6,68.5 173.9,66.1 175.7,65 179.1,65.3 180.2,66 180.2,67.2 
				178.7,67.2 179.2,75.5 177.3,74.3 175.7,75 175.3,75.9 173.6,74.8 172.6,76.3 			"/>
			
				<polygon fill-rule="evenodd" clip-rule="evenodd" fill="none" stroke="#4E4E5B" stroke-width="1.1173" stroke-miterlimit="10" points="
				159.6,75.8 157.8,76.9 155.9,75.1 153.8,74.5 153.6,72.2 154.9,72.6 155.2,71.1 159.9,71.4 160.2,73 162.9,73.5 163.1,76.1 			
				"/>
			
				<polygon fill-rule="evenodd" clip-rule="evenodd" fill="none" stroke="#4E4E5B" stroke-width="1.1173" stroke-miterlimit="10" points="
				129.9,57.4 131.9,55.2 131.9,53.6 136.7,51 139,51.3 139.3,49 147.3,50.3 150.2,51.9 152.2,55.2 155.4,54.5 156.7,57.1 
				159.6,56.5 163.1,60.3 165.7,60.3 166.3,62.3 168.9,62.6 171.5,64.8 168.3,66.4 157.3,66.8 158.3,64.5 159.9,63.5 158.6,61.9 
				155.7,62.6 154.1,59.7 153.8,57.4 148.6,58.1 146.4,55.5 141.5,56.1 141.5,53.9 139.6,53.2 137.7,55.2 134.1,56.8 			"/>
			
				<polygon fill-rule="evenodd" clip-rule="evenodd" fill="none" stroke="#4E4E5B" stroke-width="1.1173" stroke-miterlimit="10" points="
				109.4,92.3 109.3,89.9 110.8,89.3 110.4,88.4 113.1,86.8 113,85.5 115.2,84.8 116.9,84.7 118.9,84.6 119.1,85.9 123.6,85.7 
				123.7,83.9 130.7,83.9 130.8,85.8 132.4,85.4 133.2,87.2 135.3,87.2 135.3,88.3 131.9,89 130.3,91.6 126.1,91.4 123.7,94.9 
				120.6,94.9 117.2,98.3 115.4,97.7 116,96.3 115.3,94.8 113.2,95.1 112.5,93.5 110.9,93.7 110.7,92.5 			"/>
			
				<polygon fill-rule="evenodd" clip-rule="evenodd" fill="none" stroke="#4E4E5B" stroke-width="1.1173" stroke-miterlimit="10" points="
				106.2,95.1 110.4,96.3 112.9,97.9 115.4,97.7 116,96.3 115.3,94.8 113.2,95.1 112.5,93.5 110.9,93.7 110.7,92.5 109.4,92.3 
				107.9,93.7 106.4,93.9 			"/>
			
				<polygon fill-rule="evenodd" clip-rule="evenodd" fill="none" stroke="#4E4E5B" stroke-width="1.1173" stroke-miterlimit="10" points="
				103.1,94.1 100.9,93.2 100.7,91.5 98.7,91.4 98.1,89 99.8,87.3 100,85.4 101.2,84.4 106.1,84.6 106.1,83 104.9,82.4 104.7,81 
				103.1,80.5 102.3,79.1 103.8,78 103.8,76.6 108.6,76.3 111.3,77.1 111.3,80 109.8,81.6 109.9,84.9 111.9,85.3 113,85.5 
				113.1,86.8 110.4,88.4 110.8,89.3 109.3,89.9 109.4,92.3 107.9,93.7 106.4,93.9 106.2,95.1 104.6,95 			"/>
			
				<polygon fill-rule="evenodd" clip-rule="evenodd" fill="none" stroke="#4E4E5B" stroke-width="1.1173" stroke-miterlimit="10" points="
				114.2,83.2 115.6,83 115.5,81.7 116.6,81.4 116.8,75.8 117.8,74.4 118.9,74.3 118.5,72.7 116.9,71.3 115.9,72.3 115.5,73.9 
				112.5,75.5 111.3,77.1 111.3,80 109.8,81.6 109.9,84.9 113,85.5 115.2,84.8 114.1,84 			"/>
			
				<polygon fill-rule="evenodd" clip-rule="evenodd" fill="none" stroke="#4E4E5B" stroke-width="1.1173" stroke-miterlimit="10" points="
				98.3,71.9 99.9,70.8 102.1,70.8 102.1,72.5 103.9,73.3 103.8,70.6 105.7,69.5 106.2,67.5 107.7,66.7 107.7,62 109.4,59.8 
				113,59.5 113.6,58.3 117.3,58.3 118.4,57.5 121.4,58.1 122.5,59.5 123.7,59.8 123.5,62.4 120.9,64.8 120.7,70.6 119,71.2 
				118.5,72.7 116.9,71.3 115.9,72.3 115.5,73.9 112.5,75.5 111.3,77.1 108.6,76.3 103.8,76.6 103.8,78 102.3,79.1 103.1,80.5 
				104.7,81 104.9,82.4 106.1,83 106.1,84.6 101.2,84.4 100,85.4 99.8,87.3 98.1,89 96.7,88.3 96.1,87.3 94.8,85.3 91.4,84.4 
				89.9,83.2 88.3,83.2 87.2,84.9 84.6,86.8 81.4,86 78.9,84.3 75.9,83.6 74.8,81.5 71.1,81.2 67.6,78.7 64.5,76.6 62.5,75.1 
				59.5,74.7 57.4,72.6 56.4,71.1 53.7,70.1 52.5,68.2 48.9,65.8 48.6,63.2 50.8,61.1 50.5,57.5 49.4,55.2 48.8,53 47.1,50.1 
				44.6,47.1 42,44.4 41.7,41.4 39.4,40.7 38.8,39.6 36.9,39.1 36.6,36.6 38.4,35.6 37.9,34.2 36,32.8 33.8,32.1 31.9,28.5 29,26.3 
				28.5,24.4 27.2,23.2 26.9,19.6 25.6,18.5 25.3,16.5 24.6,16.2 24.2,12.7 23,11.4 20.3,10.9 18.8,11.7 19,14.9 19.5,19.2 22.9,22 
				25.4,26.6 25.1,28.9 27.4,30.2 27.8,33.1 28.5,34.7 30.2,34.8 30.4,39.5 31.5,39.7 31.9,42.2 32.8,43.5 32.8,45.6 34.6,45.7 
				35.1,48.3 37,49.6 36,51.5 32.5,51.9 32.9,49.5 30.9,47.3 28.5,45.6 26.1,43.3 26,40.4 25.9,36.7 23.1,34.1 20.3,34 18.5,31.3 
				17.1,31.4 16.8,29.6 15.4,29.6 15.4,27.8 18.5,27.3 18.1,26.4 19.8,25.2 18.2,23.3 16.5,21.8 15.8,19.7 13.9,19.3 13.6,14.5 
				11.7,11.1 11.5,7.4 10.8,5.9 19,5.8 30.5,12.6 42.6,12.8 42.8,9.7 50.7,9.5 50.9,12.9 55.7,16 55.8,21.3 61.8,24.2 63.9,20.5 
				63.8,18.8 69,18.6 69,20.7 71.3,22.7 71.3,27.2 74.9,31.4 74.3,35.1 80.2,38.2 80.8,41.7 81.3,46 79.7,47.6 81.4,49.3 81.2,50.8 
				80.3,52.1 80,55.6 81.3,55.8 81.8,57.8 82.8,58.5 82.6,60.1 81.5,60.5 81.5,62.5 83.7,64.3 84,67.1 86.3,69.3 86.4,71.3 
				89.8,71.1 91.3,73.9 93.4,73.4 93.3,72 			"/>
			
				<polyline fill-rule="evenodd" clip-rule="evenodd" fill="#2D2D43" stroke="#4E4E5B" stroke-width="1.1173" stroke-miterlimit="10" points="
				-1.1,-6.8 0,-5.9 -0.2,-3.4 2.9,-3.1 4,-1.5 7.1,-1.7 8,0.3 9.5,0.4 11.7,2.7 10.8,5.9 19,5.8 30.5,12.6 42.6,12.8 42.8,9.7 
				50.7,9.5 50.9,12.9 55.7,16 55.8,21.3 61.8,24.2 63.9,20.5 63.8,18.8 69,18.6 69,20.7 71.3,22.7 71.3,27.2 74.9,31.4 74.3,35.1 
				80.2,38.2 80.8,41.7 82.5,41.6 82.5,40.5 83.5,39.7 84.4,38.8 84.4,36.3 83.3,35.8 82.8,31.4 84.3,30.9 84.1,29.1 85.6,29 
				85.8,27.6 87.9,27.7 87.8,26.6 90.2,26.5 91.9,24.9 93.2,23.4 94.1,21.7 96.1,21.6 96.5,20.1 98.1,20.2 98.7,19.3 101.9,19 
				102.9,21 104.8,21.3 105.5,19.7 108.5,21 108.4,22.4 110.2,23.7 112.9,23 114,20.9 114.9,21.8 115.1,23.8 117.4,23.9 117.5,21.5 
				115.5,20.9 115.7,19.3 114.3,18.3 112.6,17.7 112.8,16.3 114.3,17 116.3,17.7 119.1,17.2 121,15.9 122.4,16.4 122.6,17.3 
				128.4,17.6 128.8,18.8 130.4,19.2 130.2,20.6 134.6,20.8 134.6,19.1 136,17.9 137.1,19.5 137.1,21.4 138.9,22.6 140.6,23 
				140.8,26.1 139.4,26.9 139.4,30.2 140.4,31.7 140.6,33.5 141.8,34.7 141.7,36.4 143,37.8 143.1,39.7 144.8,39.9 144.9,42.4 
				148.5,42.3 148.9,39.6 150.1,38.9 150.6,36.8 150.6,32.3 149.7,31 149.7,29.2 148.7,27.9 149.1,23.7 147.4,22.7 147.4,20.9 
				146.3,20.2 146.4,14.9 148,13.9 148.6,10.9 148.6,9.1 150.1,7.7 150.4,6.7 153.4,6.7 156,3.9 156.6,1.7 158.8,0.1 161.9,0.1 
				165.3,-3.7 168,-4.1 168.7,-6 			"/>
			
				<polygon fill-rule="evenodd" clip-rule="evenodd" fill="none" stroke="#4E4E5B" stroke-width="1.1173" stroke-miterlimit="10" points="
				158.3,35 156.9,34.6 154.3,35.4 153.8,34.2 156.1,32.8 159.2,33.2 161.4,32.8 162.7,35.6 161.6,37.5 161.2,39.5 159.8,39.3 
				159.2,37.7 159.8,35.8 			"/>
			
				<polygon fill-rule="evenodd" clip-rule="evenodd" fill="none" stroke="#4E4E5B" stroke-width="1.1173" stroke-miterlimit="10" points="
				156.3,45.3 155.7,44.3 156.5,41.9 158.5,42.3 158.3,45.1 159.6,46.6 159.2,49.2 157.3,48.8 157.3,46.8 			"/>
			
				<polygon fill-rule="evenodd" clip-rule="evenodd" fill="none" stroke="#4E4E5B" stroke-width="1.1173" stroke-miterlimit="10" points="
				164.6,43.7 163.5,43.5 163.7,41.9 162.5,41 163.1,39.9 165,40.9 			"/>
			
				<polygon fill-rule="evenodd" clip-rule="evenodd" fill="none" stroke="#4E4E5B" stroke-width="1.1173" stroke-miterlimit="10" points="
				175.1,62.3 172.7,61.6 173,60.1 174.5,59.9 175.1,58.5 176.5,58.5 176.9,61.2 			"/>
			
				<polygon fill-rule="evenodd" clip-rule="evenodd" fill="none" stroke="#4E4E5B" stroke-width="1.1173" stroke-miterlimit="10" points="
				167.6,46.4 166.4,44.9 166.6,43.3 168.4,44.1 			"/>
			
				<polygon fill-rule="evenodd" clip-rule="evenodd" fill="none" stroke="#4E4E5B" stroke-width="1.1173" stroke-miterlimit="10" points="
				171.6,54 170.8,56.2 172.2,56.3 172.7,55.1 174,55 173,51.9 170.6,51.8 170.6,53.1 			"/>
			
				<polygon fill-rule="evenodd" clip-rule="evenodd" fill="none" stroke="#4E4E5B" stroke-width="1.1173" stroke-miterlimit="10" points="
				168.9,51.7 167.6,51.2 167,49.6 167.2,48.7 168.6,48.4 169.4,50.3 			"/>
			
				<polygon fill-rule="evenodd" clip-rule="evenodd" fill="none" stroke="#4E4E5B" stroke-width="1.1173" stroke-miterlimit="10" points="
				178.4,55.5 177.8,54.6 175.5,54.7 175.5,53.1 177.2,52.3 178.9,53.5 179,54.9 			"/>
			
				<polygon fill-rule="evenodd" clip-rule="evenodd" fill="none" stroke="#4E4E5B" stroke-width="1.1173" stroke-miterlimit="10" points="
				181.6,58.1 180.7,57.7 180.7,56.3 182.1,56.1 182.8,57.5 			"/>
			<g>
				
					<polygon fill-rule="evenodd" clip-rule="evenodd" fill="none" stroke="#4E4E5B" stroke-width="1.1173" stroke-miterlimit="10" points="
					213.2,430.2 213.2,427.9 210.9,427.1 208.8,426.8 208.8,424.6 208.8,410.7 206.1,411.2 204.7,412.8 202.5,414.2 201.1,414.7 
					201.1,416.4 202.6,416.5 203.1,415.7 205.8,415.8 205.7,417.5 204.5,418.8 205.3,420.1 206.4,420.6 206.7,421.8 207.5,422.6 
					207.5,423.8 207.4,425.1 204.5,425.3 204.4,427.3 207.2,427.7 207.2,429.1 210.4,428.4 211.6,429 211.7,430.1 				"/>
				
					<polygon fill-rule="evenodd" clip-rule="evenodd" fill="none" stroke="#4E4E5B" stroke-width="1.1173" stroke-miterlimit="10" points="
					200.9,417.8 201.1,416.4 201.1,414.7 201,413 202.9,412.6 203.2,411.5 204.7,410.7 206.8,410.2 208.9,409.3 194.5,409.3 
					194.4,410.6 195.4,411.5 195.9,412.3 198,412.2 198.5,413.5 198.2,414.4 196.8,415.1 195.9,415.9 196.3,417.4 198.5,417.3 
					199.4,418.2 				"/>
				
					<polygon fill-rule="evenodd" clip-rule="evenodd" fill="none" stroke="#4E4E5B" stroke-width="1.1173" stroke-miterlimit="10" points="
					202,419.1 202.3,417.9 203.6,417.9 203.7,420.1 205.3,420.1 206.4,420.6 206.7,421.8 207.5,422.6 207.5,423.8 202,423.9 
					201.6,421.7 203.1,421.2 202.4,420.1 				"/>
				
					<polygon fill-rule="evenodd" clip-rule="evenodd" fill="none" stroke="#4E4E5B" stroke-width="1.1173" stroke-miterlimit="10" points="
					200.5,423.2 200.2,421.4 198.9,420.9 199,419.4 196.8,418.7 195.6,417.8 194.9,419.2 197,420.9 197,422.9 198.7,423.9 				"/>
				
					<polygon fill-rule="evenodd" clip-rule="evenodd" fill="none" stroke="#4E4E5B" stroke-width="1.1173" stroke-miterlimit="10" points="
					194.9,412.8 196.4,413.5 195.6,414.9 194.4,416.5 190.6,416.2 190.8,414.3 193.3,413.9 				"/>
				
					<polygon fill-rule="evenodd" clip-rule="evenodd" fill="none" stroke="#4E4E5B" stroke-width="1.1173" stroke-miterlimit="10" points="
					191,417.2 193.7,417.6 193.4,419.4 192.8,420.3 191.6,418.9 				"/>
				
					<polygon fill-rule="evenodd" clip-rule="evenodd" fill="none" stroke="#4E4E5B" stroke-width="1.1173" stroke-miterlimit="10" points="
					185.9,412 189.1,414.3 190.5,413.4 193,412.8 195.4,411.5 194.4,410.6 194.5,409.3 194.5,406.2 192.6,406.2 192.3,408.1 
					190.4,408.6 189.7,409.8 189.9,412 188.3,412.2 186.5,411.3 				"/>
				
					<polygon fill-rule="evenodd" clip-rule="evenodd" fill="none" stroke="#4E4E5B" stroke-width="1.1173" stroke-miterlimit="10" points="
					189.5,407.5 191.2,407.2 192.6,406.2 192.3,402 188.7,401.7 188.4,403.4 188.5,404.8 186.2,405.2 186.2,406.7 188,406.6 
					188,407.6 				"/>
				
					<polygon fill-rule="evenodd" clip-rule="evenodd" fill="#2D2D43" stroke="#4E4E5B" stroke-width="1.1173" stroke-miterlimit="10" points="
					186.6,238.4 186.8,235.4 188.4,235 189.8,233.6 189.7,231.5 187.9,230.4 187.7,225.7 189,225.1 189.2,223 188.4,221.5 
					188.7,219.6 189.7,219.1 190,215.4 189.2,212.8 186.8,209.8 186,207.3 182.1,207.3 182.3,200.2 180.5,200.2 180.4,201.2 
					179.6,201.2 179.2,202.3 177.7,202.9 175.8,202.4 175.8,200.7 173.9,200.7 173.8,199.4 171.9,198.9 171.6,197.2 169.7,197.2 
					169.4,196 169.7,188.9 172.8,189 172.9,187.7 171.9,187.1 171.9,184.9 172.9,184.4 172.9,181.7 174.6,179.9 175.8,178.9 
					178.5,178.2 181.1,178.4 181.7,177.3 183.6,177.9 184.3,175.4 183.8,174.5 182.1,174.6 181.8,173.5 182.5,172.5 183.2,171.1 
					183.4,169.7 183.4,168.8 182.2,168.6 181.9,167.4 179.7,167 175.7,167.6 171.8,167.4 171.6,165.5 170.8,164.5 169.1,163.9 
					168.7,162.6 166.9,161.6 166.5,159.9 164.4,158.4 163.2,158.9 163.4,160.7 163.3,163 161.9,163.7 161.6,165.4 160,166.6 
					158.8,167.5 158.2,169.4 155.7,170 156,171.3 153.9,172.3 154,173.6 151.8,175 151.3,176.7 151.6,178.4 149.6,179 149.7,181.3 
					147.8,181.4 147.7,179.1 146.5,178.9 145.8,177.2 143.8,177.5 143,176.9 143.9,176.1 144.1,174.8 143.8,173.6 142.9,173.3 
					141.9,173.6 141.8,174.9 140.5,176 140.5,180.5 141.4,181 141.3,185.4 143.5,185.4 143.6,186.7 145.4,186.9 146.1,188 
					147.5,188.2 148.6,189.6 149,192.8 150.1,193.4 151,194.7 151.2,200.1 151.9,200.3 152.3,201.2 154.3,203.5 154.8,206.6 
					156.8,208.7 157.5,212.9 158.9,213.3 159.3,215.1 160.6,216.1 160.7,217.5 162.2,217.7 162.1,219.3 160.7,219.3 160.9,222.1 
					162.8,222.2 162.9,223.8 166.7,227.8 168.6,228.3 173.1,232 177.6,233.3 182.7,239.6 184.7,239.2 				"/>
				
					<polygon fill-rule="evenodd" clip-rule="evenodd" fill="#2D2D43" stroke="#4E4E5B" stroke-width="1.1173" stroke-miterlimit="10" points="
					184.7,239.2 185.7,240 184.8,241.4 184.8,246.2 185.8,246.7 185.8,252 187.1,252.6 186.9,256 186.1,256.4 186.3,263 
					184.9,263.4 184.9,269.8 186.2,270.2 186.3,272.3 185.6,272.9 185.3,274 186.3,275.3 186.3,280.5 185.2,280.7 185.4,284.9 
					184.4,285.5 184.5,288.4 183.4,288.9 183.2,291.9 184.4,293 184.5,296.7 183.2,297.4 183.4,301.1 184.2,302 184,306.6 
					185.4,306.9 185.4,309.1 184.3,309.5 184.5,316.3 183.5,316.6 183.4,320.8 182.2,321.2 182.7,327.6 180.6,327.8 180.8,330.9 
					179.6,331 179.4,334.2 180.6,334.8 180.4,339.6 181.8,339.8 182,344 181.5,344.8 179.7,345.8 180,350.8 180.9,352.3 
					181.8,352.5 182.6,353.1 184.9,353 185.1,354.9 185.7,355.3 185.6,356.6 185.1,356.9 185.1,358.4 185.7,358.8 185.6,360.9 
					184.9,362.4 185.1,366.8 186.4,368 186.5,370 185.1,371.8 185.3,376.7 183.2,375.1 183.2,371.6 181,371.5 181.3,374.6 
					179.2,374.8 179.1,377 177.9,377.4 178,381.4 179.8,381.7 179.9,380.3 181.2,380.3 183.2,380.5 183.9,381.7 182.3,382.6 
					181.7,384.8 182.9,386 182.9,388.3 181.4,388.6 180.8,386.2 178.9,386.4 179.7,390.3 181.6,390.8 181.7,392.3 180,392.8 
					180.1,394.9 181.4,395.7 181.2,396.7 183,397.5 184.3,398.9 184.4,400.2 182.9,400.5 182.7,401.8 183.6,402.4 183.5,403.7 
					182.2,404.6 182.4,405.9 183.5,406.5 184,409.4 185.2,409.3 185.3,405.8 184.3,405.4 184.6,404.5 185.6,404.3 185.6,402.9 
					187.4,403 187.5,402 188.7,401.7 188.2,393.7 190.8,391.7 191.5,389.5 189.4,387.9 188.9,385.8 191.1,383.5 191.3,380.1 
					193.1,379 190.6,377.7 190.5,375 192.3,373.8 191.6,371.6 189.7,370.9 189.7,368.9 190.6,366.8 189,362.7 187.6,362.1 
					187.6,359.5 187.9,357.7 188.5,356.1 188.6,352.7 187.6,351.3 186.8,347.8 186.8,344.4 188.4,344.5 187.7,340.5 190.6,340.3 
					190,338.1 188.6,337.8 188.9,335.4 187.6,334.1 187.7,329.4 189.4,328.6 189.8,325.9 188.4,322.8 189.5,321.2 189.8,318.9 
					191.6,318 191.6,313.6 190.6,312.2 190.2,310.2 188.7,309.4 188.4,306.7 187.1,304.6 187.6,302.3 189.2,301.9 189.4,299.1 
					189.4,295.4 189.7,292.5 191.1,291.7 191,288.7 192.6,286.4 192.6,284.2 194.8,283.5 194.7,281.6 193.2,280.3 193.2,277.7 
					193.9,276.4 192.7,274.3 194.3,273.7 194.3,271.4 193.2,271.3 193.2,269.8 195.2,269.7 196.6,268.4 197.2,266.4 198.9,265.8 
					198.4,262.7 195.3,262.3 194.7,258.7 193.7,257.3 194.3,254.5 191,252.9 191,250.7 191.9,249.7 192.3,246 190.6,245.3 
					189.7,243.4 189.5,241.5 188.4,239.2 186.6,238.4 				"/>
				
					<polygon fill-rule="evenodd" clip-rule="evenodd" fill="none" stroke="#4E4E5B" stroke-width="1.1173" stroke-miterlimit="10" points="
					180.3,358.6 179.6,357.4 179.7,355.9 181.1,355.3 181,354 182.7,354 183.4,355.2 184.3,355.9 184,357.9 182.3,358.1 182.4,359 
					184.2,359 183.9,362.1 182.7,362.3 182.7,364 180.1,363.7 180.1,362.5 179,362.5 178.8,360.9 180.1,360.6 				"/>
				
					<polygon fill-rule="evenodd" clip-rule="evenodd" fill="none" stroke="#4E4E5B" stroke-width="1.1173" stroke-miterlimit="10" points="
					180.5,367.8 180.7,370 183.4,369.9 183.5,366.9 181.8,366.7 				"/>
			</g>
			<g>
				
					<polygon fill-rule="evenodd" clip-rule="evenodd" fill="#2D2D43" stroke="#4E4E5B" stroke-width="1.1173" stroke-miterlimit="10" points="
					208,409.3 194.5,409.3 194.5,406.2 192.6,406.2 192.3,402 188.7,401.7 188.2,393.7 190.8,391.7 191.5,389.5 189.4,387.9 
					188.9,385.8 191.1,383.5 191.3,380.1 193.1,379 190.6,377.7 190.5,375 192.3,373.8 191.6,371.6 189.7,370.9 189.7,368.9 
					190.6,366.8 189.8,364.5 189,362.7 187.6,362.1 187.6,359.5 187.9,357.7 188.6,356.3 188.6,352.7 187.6,351.3 186.8,347.8 
					186.8,344.4 188.4,344.5 187.7,340.5 190.6,340.3 190,338.1 188.6,337.8 188.9,335.4 187.6,334.1 187.7,329.4 189.4,328.6 
					189.8,325.9 188.4,322.8 189.5,321.2 189.8,318.9 191.6,318 191.6,313.6 190.6,312.2 190.2,310.2 188.7,309.4 188.4,306.7 
					187.1,304.6 187.6,302.3 189.2,301.9 189.4,299.1 189.4,295.4 189.7,292.5 191.1,291.7 191,288.7 192.6,286.4 192.6,284.2 
					194.8,283.5 194.7,281.6 193.2,280.3 193.2,277.7 193.9,276.4 192.7,274.3 194.3,273.7 194.3,271.4 193.2,271.3 193.2,269.8 
					195.2,269.7 196.6,268.4 197.2,266.4 198.9,265.8 198.4,261.6 201.9,257.6 203.5,258.4 203.7,259.7 206.7,259.5 206.9,261.4 
					208.7,261.6 209,258.5 215.8,258.5 216.6,261.8 218.7,263.9 221.2,265.5 223,267.1 223.7,268.5 224.9,269.2 227.8,268.9 
					229.6,270.3 230.4,271.8 232.5,271.6 234.4,272.1 235.9,273.4 235.6,275.6 234.6,277.7 233.6,279.3 232.7,280.9 232.2,283 
					235.7,283 237.5,284.5 238.5,285.9 239.4,283.5 241,283.2 243.5,283.5 244.6,281.3 246.8,280.4 246.8,277.4 247.5,274.8 
					249.4,275 250.5,277.1 250.9,280.3 250.5,282.9 249.1,284.5 246.8,284.6 246.5,286.4 244.9,288 243.1,289 242,290.6 241.2,293 
					240.7,294.5 238.6,295.3 237.3,297.2 236.5,299.6 236.7,302 235.7,303 235.7,305.2 236.2,306.7 236.1,310.9 234.6,311.7 
					234.4,314.6 235.6,315.1 236.1,317.8 235.7,318.9 237.3,318.6 239.4,320.1 241.9,322.5 240.9,324.1 240.9,325.9 242,327 
					243.3,327.3 243.6,329.2 243.3,331.5 242.3,332.6 241.5,334.6 240.2,336.6 237.8,338.3 235.9,339.1 234.4,339.7 233.3,340.3 
					229.9,340.2 229,341.3 226.7,341.2 225.4,339.9 224,339.7 223,340.5 223.3,341.6 224.3,342.4 225.4,343.2 224.5,344.4 
					223.8,345.2 224.3,347 224.3,349 223.8,350.2 222.9,351 221.6,351.3 220.1,350.7 217.9,351.1 217.5,350 215.3,350 215,348.7 
					214,348.9 213.7,349.9 213,350.2 213,351.3 214.5,351.5 214.3,353.6 214.3,355.2 215.6,355.5 215.6,356.3 216.4,357.1 
					217.4,357.1 218.2,356.1 219.7,356.2 220.3,358.1 219.9,359.8 218.3,359.9 217.1,359.2 216.2,359.9 217.3,361.6 216.4,362.5 
					214.7,362.6 214.7,364.2 214.1,365.7 215.3,366.1 215.3,368.9 214.1,370 214.1,371.3 212.1,371.5 211.2,371.3 211,372.5 
					209.5,373.5 208.6,374.4 208.4,375.4 207.4,376.2 207.4,378 208.6,378.7 209.2,379.8 209.7,381.1 211.1,381.2 211.1,382 
					212.8,381.6 214,381.7 214.1,382.4 215,382.4 214.8,385 215.2,387.6 214,387.6 213.1,389 212.1,389.8 211.4,390.9 210.9,391.6 
					210.2,391.6 209.7,393.2 209.5,396.9 208.7,397.3 208.6,398.4 206.7,398.4 206.7,399.7 205.7,399.8 205.7,402.1 205.7,404 
					207.1,404.2 207,405.8 207.3,407.3 208.7,407.7 208.9,409.3 				"/>
				
					<polygon fill-rule="evenodd" clip-rule="evenodd" fill="none" stroke="#4E4E5B" stroke-width="1.1173" stroke-miterlimit="10" points="
					224.1,424.6 224.2,423.3 225.3,422.6 227.1,422.7 227.6,423.7 227.2,424.5 225.8,424.3 224.9,424.6 				"/>
				<path fill-rule="evenodd" clip-rule="evenodd" fill="none" stroke="#4E4E5B" stroke-width="1.1173" stroke-miterlimit="10" d="
					M209.4,410.9l0.2,0.8l0.4,0.6l0.2,2.8l1.3,0.7l0.8,1.6l1.8,1.5l1.5,1l1.5,1.7l1.4,0.4l1.3,0.1h1.6l0.7,0.9l-0.5,0.8l-1.9,1.9
					l-4.7-1l-0.8,1.6l-3.9-0.5l-0.5-1.6l-1.1,0.3v-12.4c0,0-0.1-1.5,0-1.5L209.4,410.9z"/>
			</g>
			
				<polygon fill-rule="evenodd" clip-rule="evenodd" fill="none" stroke="#4E4E5B" stroke-width="1.1173" stroke-miterlimit="10" points="
				237.4,407.2 237.4,406.1 236.4,405.8 236.4,404.5 237.5,404.2 237.6,405.1 240,404.9 241.2,405.7 241,407.1 239.9,407.9 
				239.2,408.8 237.4,409 237.4,410.3 236.3,410.4 235.6,409.6 234.6,409.2 234.5,408.6 236.2,408.7 			"/>
			
				<polygon fill-rule="evenodd" clip-rule="evenodd" fill="none" stroke="#4E4E5B" stroke-width="1.1173" stroke-miterlimit="10" points="
				242,407.2 242.1,405.6 242.7,404.4 244,405.7 245.7,405.8 245.8,407.4 244.4,408.4 243.4,408.2 242.8,409.7 241.3,409.8 
				241,410.7 239.4,410.1 239.4,409.6 240.7,409.1 			"/>
			
				<polygon fill-rule="evenodd" clip-rule="evenodd" fill="none" stroke="#4E4E5B" stroke-width="1.1173" stroke-miterlimit="10" points="
				133,121.4 138.6,121.2 140.1,122.9 142.1,123.2 143.1,124.9 145.5,123.5 145.2,121.4 143.8,120 146,118.5 147.5,119.3 
				148.3,116.3 150.5,116.6 152,118 153.7,119.3 151.8,120.4 152,121.9 153.4,124 155.2,122.2 155.7,117.4 152.5,114.6 147.6,113.5 
				143.1,116.6 138,116.1 135.9,113.5 134.2,115.3 134,118.3 			"/>
			
				<polygon fill-rule="evenodd" clip-rule="evenodd" fill="none" stroke="#4E4E5B" stroke-width="1.1173" stroke-miterlimit="10" points="
				132.3,105.8 132.3,100.5 133.5,99.2 132.8,94 135.4,91.3 135.2,88.4 131.8,89 130.2,91.6 126,91.5 123.6,95 120.6,95 117.2,98.4 
				119.3,102.2 123.5,106.4 125.3,106.8 127.9,107.5 129.6,109.9 131.3,109.7 131.6,108.5 133,108.3 			"/>
			
				<polygon fill-rule="evenodd" clip-rule="evenodd" fill="none" stroke="#4E4E5B" stroke-width="1.1173" stroke-miterlimit="10" points="
				135.9,113.5 133.5,110.5 133,108.3 131.6,108.5 131.3,109.7 129.6,109.9 127.9,107.5 125.3,106.8 123.5,106.4 124,109.5 
				123.1,111.6 125.6,114.5 127.3,112.9 129.4,115.6 132,116.3 132.2,119.3 133,121.4 134,118.3 134.2,115.3 			"/>
			
				<polygon fill-rule="evenodd" clip-rule="evenodd" fill="none" stroke="#4E4E5B" stroke-width="1.1173" stroke-miterlimit="10" points="
				100.9,160.2 99.6,160 99.4,158.4 100.6,158.2 100.3,156.2 101.9,156.2 102.3,157.7 103.3,158 103.1,159.6 104.1,160 103.9,162.1 
				101.5,162.6 100.3,161.2 			"/>
			
				<polygon fill-rule="evenodd" clip-rule="evenodd" fill="none" stroke="#4E4E5B" stroke-width="1.1173" stroke-miterlimit="10" points="
				104.9,159 105.2,160.9 106.6,160 			"/>
			
				<polygon fill-rule="evenodd" clip-rule="evenodd" fill="none" stroke="#4E4E5B" stroke-width="1.1173" stroke-miterlimit="10" points="
				108.2,160 108.4,161.3 109.7,161.5 110.9,160.9 110.6,159.1 109.4,159 109.4,160 			"/>
		</g>
	</g>
	<linearGradient id="SVGID_3_" gradientUnits="userSpaceOnUse" x1="189.0065" y1="304.5977" x2="286.4153" y2="304.5977">
		<stop  offset="0" style="stop-color:#009DDA"/>
		<stop  offset="0.4137" style="stop-color:#019BD9;stop-opacity:0.7518"/>
		<stop  offset="0.5627" style="stop-color:#0396D2;stop-opacity:0.6624"/>
		<stop  offset="0.669" style="stop-color:#068EC6;stop-opacity:0.5986"/>
		<stop  offset="0.7549" style="stop-color:#0B81B5;stop-opacity:0.547"/>
		<stop  offset="0.8285" style="stop-color:#12719F;stop-opacity:0.5029"/>
		<stop  offset="0.8936" style="stop-color:#1A5D84;stop-opacity:0.4638"/>
		<stop  offset="0.9511" style="stop-color:#234664;stop-opacity:0.4294"/>
		<stop  offset="1" style="stop-color:#2D2D43;stop-opacity:0.4"/>
	</linearGradient>
	
		<path fill-rule="evenodd" clip-rule="evenodd" fill="none" stroke="url(#SVGID_3_)" stroke-width="2.2346" stroke-miterlimit="10" d="
		M189.7,348.9c0,0,82-59.8,95.7-89"/>
	
		<linearGradient id="SVGID_4_" gradientUnits="userSpaceOnUse" x1="11294.4375" y1="4623.7109" x2="11309.0244" y2="4623.7109" gradientTransform="matrix(-1 0 0 -1 11493.7461 4961.1968)">
		<stop  offset="0" style="stop-color:#009DDA"/>
		<stop  offset="0.1985" style="stop-color:#019BD8;stop-opacity:0.8684"/>
		<stop  offset="0.345" style="stop-color:#0494CE;stop-opacity:0.7713"/>
		<stop  offset="0.4748" style="stop-color:#0888BE;stop-opacity:0.6853"/>
		<stop  offset="0.5949" style="stop-color:#0F77A7;stop-opacity:0.6057"/>
		<stop  offset="0.7083" style="stop-color:#18628A;stop-opacity:0.5305"/>
		<stop  offset="0.8152" style="stop-color:#224867;stop-opacity:0.4597"/>
		<stop  offset="0.9053" style="stop-color:#2D2D43;stop-opacity:0.4"/>
	</linearGradient>
	
		<line fill-rule="evenodd" clip-rule="evenodd" fill="none" stroke="url(#SVGID_4_)" stroke-width="2.2346" stroke-miterlimit="10" x1="185.3" y1="333.5" x2="198.7" y2="341.5"/>
	
		<linearGradient id="SVGID_5_" gradientUnits="userSpaceOnUse" x1="11298.6709" y1="4619.082" x2="11304.666" y2="4619.082" gradientTransform="matrix(-1 0 0 -1 11491.123 4952.0981)">
		<stop  offset="0" style="stop-color:#009DDA"/>
		<stop  offset="0.1985" style="stop-color:#019BD8;stop-opacity:0.8684"/>
		<stop  offset="0.345" style="stop-color:#0494CE;stop-opacity:0.7713"/>
		<stop  offset="0.4748" style="stop-color:#0888BE;stop-opacity:0.6853"/>
		<stop  offset="0.5949" style="stop-color:#0F77A7;stop-opacity:0.6057"/>
		<stop  offset="0.7083" style="stop-color:#18628A;stop-opacity:0.5305"/>
		<stop  offset="0.8152" style="stop-color:#224867;stop-opacity:0.4597"/>
		<stop  offset="0.9053" style="stop-color:#2D2D43;stop-opacity:0.4"/>
	</linearGradient>
	
		<line fill-rule="evenodd" clip-rule="evenodd" fill="none" stroke="url(#SVGID_5_)" stroke-width="2.2346" stroke-miterlimit="10" x1="187.6" y1="315.8" x2="191.3" y2="350.3"/>
	
		<linearGradient id="SVGID_6_" gradientUnits="userSpaceOnUse" x1="11296.4092" y1="4615.6499" x2="11309.2246" y2="4615.6499" gradientTransform="matrix(-1 0 0 -1 11496.1816 4944.1968)">
		<stop  offset="0" style="stop-color:#009DDA"/>
		<stop  offset="0.1985" style="stop-color:#019BD8;stop-opacity:0.8684"/>
		<stop  offset="0.345" style="stop-color:#0494CE;stop-opacity:0.7713"/>
		<stop  offset="0.4748" style="stop-color:#0888BE;stop-opacity:0.6853"/>
		<stop  offset="0.5949" style="stop-color:#0F77A7;stop-opacity:0.6057"/>
		<stop  offset="0.7083" style="stop-color:#18628A;stop-opacity:0.5305"/>
		<stop  offset="0.8152" style="stop-color:#224867;stop-opacity:0.4597"/>
		<stop  offset="0.9053" style="stop-color:#2D2D43;stop-opacity:0.4"/>
	</linearGradient>
	
		<line fill-rule="evenodd" clip-rule="evenodd" fill="none" stroke="url(#SVGID_6_)" stroke-width="2.2346" stroke-miterlimit="10" x1="198.7" y1="341.5" x2="188" y2="315.6"/>
	<linearGradient id="SVGID_7_" gradientUnits="userSpaceOnUse" x1="192.8872" y1="192.1632" x2="131.5307" y2="192.1632">
		<stop  offset="0" style="stop-color:#009DDA"/>
		<stop  offset="0.4137" style="stop-color:#019BD9;stop-opacity:0.7518"/>
		<stop  offset="0.5627" style="stop-color:#0396D2;stop-opacity:0.6624"/>
		<stop  offset="0.669" style="stop-color:#068EC6;stop-opacity:0.5986"/>
		<stop  offset="0.7549" style="stop-color:#0B81B5;stop-opacity:0.547"/>
		<stop  offset="0.8285" style="stop-color:#12719F;stop-opacity:0.5029"/>
		<stop  offset="0.8936" style="stop-color:#1A5D84;stop-opacity:0.4638"/>
		<stop  offset="0.9511" style="stop-color:#234664;stop-opacity:0.4294"/>
		<stop  offset="1" style="stop-color:#2D2D43;stop-opacity:0.4"/>
	</linearGradient>
	
		<path fill-rule="evenodd" clip-rule="evenodd" fill="none" stroke="url(#SVGID_7_)" stroke-width="2.2346" stroke-miterlimit="10" d="
		M148.6,34.6c0,0-56.6,197.4,43.4,314.6"/>
	<g>
		<path fill="#FFFFFF" d="M140.2,273.3h-3.5v9.9h-1.9v-9.9h-3.5v-1.5h8.9V273.3z"/>
		<path fill="#FFFFFF" d="M146.2,281.9c-0.3,0.5-0.6,0.8-1,1s-0.9,0.4-1.4,0.4c-0.9,0-1.6-0.3-2.1-0.9s-0.8-1.5-0.8-2.8v-4.9h1.9v5
			c0,0.8,0.1,1.4,0.4,1.7s0.6,0.4,1.1,0.4c0.5,0,0.8-0.1,1.2-0.2s0.6-0.4,0.7-0.7v-6.1h1.9v8.5h-1.6L146.2,281.9z"/>
		<path fill="#FFFFFF" d="M153.4,281.8c0.4,0,0.8-0.1,1.1-0.4s0.4-0.6,0.4-1h1.7l0,0c0,0.8-0.3,1.5-0.9,2s-1.4,0.9-2.3,0.9
			c-1.2,0-2.2-0.4-2.8-1.2s-1-1.8-1-3v-0.3c0-1.2,0.3-2.2,1-3s1.6-1.2,2.8-1.2c1,0,1.8,0.3,2.4,0.9s0.9,1.3,0.9,2.3l0,0H155
			c0-0.5-0.1-0.9-0.4-1.2s-0.7-0.5-1.1-0.5c-0.7,0-1.2,0.3-1.5,0.8s-0.4,1.2-0.4,1.9v0.3c0,0.8,0.1,1.4,0.4,2
			S152.7,281.8,153.4,281.8z"/>
		<path fill="#FFFFFF" d="M163.6,281.9c-0.3,0.5-0.6,0.8-1,1s-0.9,0.4-1.4,0.4c-0.9,0-1.6-0.3-2.1-0.9s-0.8-1.5-0.8-2.8v-4.9h1.9v5
			c0,0.8,0.1,1.4,0.4,1.7s0.6,0.4,1.1,0.4c0.5,0,0.8-0.1,1.2-0.2s0.6-0.4,0.7-0.7v-6.1h1.9v8.5h-1.6L163.6,281.9z"/>
		<path fill="#FFFFFF" d="M169.1,274.7l0.1,1.1c0.3-0.4,0.6-0.7,1-0.9s0.9-0.3,1.4-0.3c0.6,0,1,0.1,1.4,0.4s0.7,0.6,0.9,1.1
			c0.3-0.5,0.6-0.8,1-1.1s0.9-0.4,1.5-0.4c0.8,0,1.5,0.3,2,0.9s0.7,1.5,0.7,2.7v5h-1.9v-5c0-0.7-0.1-1.3-0.4-1.6s-0.6-0.4-1.1-0.4
			c-0.4,0-0.8,0.1-1,0.3s-0.5,0.5-0.6,0.9c0,0.1,0,0.1,0,0.2s0,0.1,0,0.2v5.5h-1.9v-5c0-0.7-0.1-1.2-0.4-1.5s-0.6-0.5-1.1-0.5
			c-0.4,0-0.7,0.1-1,0.2s-0.5,0.4-0.6,0.6v6.2h-1.9v-8.5H169.1z"/>
		<path fill="#FFFFFF" d="M186.4,283.1c-0.1-0.2-0.1-0.4-0.2-0.6s-0.1-0.4-0.1-0.6c-0.3,0.4-0.6,0.7-1,1s-0.9,0.4-1.4,0.4
			c-0.9,0-1.6-0.2-2-0.7s-0.7-1.1-0.7-1.9c0-0.8,0.3-1.5,1-1.9s1.6-0.7,2.7-0.7h1.5v-0.7c0-0.4-0.1-0.8-0.4-1s-0.6-0.4-1.1-0.4
			c-0.4,0-0.8,0.1-1,0.3s-0.4,0.5-0.4,0.8l-1.8,0l0,0c0-0.7,0.3-1.3,0.9-1.8s1.5-0.8,2.5-0.8c1,0,1.8,0.2,2.4,0.8s0.9,1.2,0.9,2.2
			v3.8c0,0.3,0,0.7,0.1,1s0.1,0.6,0.2,0.9H186.4z M184,281.8c0.5,0,0.9-0.1,1.3-0.4s0.6-0.5,0.8-0.8v-1.2h-1.5c-0.6,0-1,0.1-1.3,0.4
			s-0.5,0.6-0.5,1c0,0.3,0.1,0.6,0.3,0.8S183.6,281.8,184,281.8z M185.2,271.1h2.1l0,0l-2.1,2h-1.5L185.2,271.1z"/>
		<path fill="#FFFFFF" d="M191.7,274.7l0.1,1.2c0.3-0.4,0.6-0.8,1-1s0.9-0.4,1.4-0.4c0.9,0,1.6,0.3,2.1,0.8s0.7,1.4,0.7,2.5v5.3
			h-1.9v-5.2c0-0.7-0.1-1.1-0.4-1.4s-0.6-0.4-1.2-0.4c-0.4,0-0.8,0.1-1.1,0.2s-0.5,0.4-0.7,0.6v6.2H190v-8.5H191.7z"/>
	</g>
	<g>
		<circle fill-rule="evenodd" clip-rule="evenodd" fill="#03A9F4" cx="185.3" cy="333.6" r="1.7"/>
	</g>
	<linearGradient id="SVGID_8_" gradientUnits="userSpaceOnUse" x1="206.3759" y1="226.4518" x2="171.9746" y2="226.4518">
		<stop  offset="0" style="stop-color:#009DDA"/>
		<stop  offset="0.1985" style="stop-color:#019BD8;stop-opacity:0.8684"/>
		<stop  offset="0.345" style="stop-color:#0494CE;stop-opacity:0.7713"/>
		<stop  offset="0.4748" style="stop-color:#0888BE;stop-opacity:0.6853"/>
		<stop  offset="0.5949" style="stop-color:#0F77A7;stop-opacity:0.6057"/>
		<stop  offset="0.7083" style="stop-color:#18628A;stop-opacity:0.5305"/>
		<stop  offset="0.8152" style="stop-color:#224867;stop-opacity:0.4597"/>
		<stop  offset="0.9053" style="stop-color:#2D2D43;stop-opacity:0.4"/>
	</linearGradient>
	
		<line fill-rule="evenodd" clip-rule="evenodd" fill="none" stroke="url(#SVGID_8_)" stroke-width="2.2346" stroke-miterlimit="10" x1="205.3" y1="279.1" x2="173" y2="173.9"/>
	<linearGradient id="SVGID_9_" gradientUnits="userSpaceOnUse" x1="208.8267" y1="219.3289" x2="147.4567" y2="219.3289">
		<stop  offset="0" style="stop-color:#009DDA"/>
		<stop  offset="0.1985" style="stop-color:#019BD8;stop-opacity:0.8684"/>
		<stop  offset="0.345" style="stop-color:#0494CE;stop-opacity:0.7713"/>
		<stop  offset="0.4748" style="stop-color:#0888BE;stop-opacity:0.6853"/>
		<stop  offset="0.5949" style="stop-color:#0F77A7;stop-opacity:0.6057"/>
		<stop  offset="0.7083" style="stop-color:#18628A;stop-opacity:0.5305"/>
		<stop  offset="0.8152" style="stop-color:#224867;stop-opacity:0.4597"/>
		<stop  offset="0.9053" style="stop-color:#2D2D43;stop-opacity:0.4"/>
	</linearGradient>
	
		<line fill-rule="evenodd" clip-rule="evenodd" fill="none" stroke="url(#SVGID_9_)" stroke-width="2.2346" stroke-miterlimit="10" x1="207.8" y1="280.4" x2="148.5" y2="158.2"/>
	<linearGradient id="SVGID_10_" gradientUnits="userSpaceOnUse" x1="207.3467" y1="245.1669" x2="159.8306" y2="245.1669">
		<stop  offset="0" style="stop-color:#009DDA"/>
		<stop  offset="0.1985" style="stop-color:#019BD8;stop-opacity:0.8684"/>
		<stop  offset="0.345" style="stop-color:#0494CE;stop-opacity:0.7713"/>
		<stop  offset="0.4748" style="stop-color:#0888BE;stop-opacity:0.6853"/>
		<stop  offset="0.5949" style="stop-color:#0F77A7;stop-opacity:0.6057"/>
		<stop  offset="0.7083" style="stop-color:#18628A;stop-opacity:0.5305"/>
		<stop  offset="0.8152" style="stop-color:#224867;stop-opacity:0.4597"/>
		<stop  offset="0.9053" style="stop-color:#2D2D43;stop-opacity:0.4"/>
	</linearGradient>
	
		<line fill-rule="evenodd" clip-rule="evenodd" fill="none" stroke="url(#SVGID_10_)" stroke-width="2.2346" stroke-miterlimit="10" x1="160.8" y1="211.8" x2="206.4" y2="278.5"/>
	<g>
		<circle fill-rule="evenodd" clip-rule="evenodd" fill="#03A9F4" cx="148.5" cy="158.2" r="1.7"/>
	</g>
	<g>
		<circle fill-rule="evenodd" clip-rule="evenodd" fill="#03A9F4" cx="173" cy="173.9" r="1.7"/>
	</g>
	<g>
		<circle fill-rule="evenodd" clip-rule="evenodd" fill="#03A9F4" cx="160.8" cy="211.8" r="1.7"/>
	</g>
	<linearGradient id="SVGID_11_" gradientUnits="userSpaceOnUse" x1="206.0076" y1="296.8743" x2="186.4547" y2="296.8743">
		<stop  offset="0" style="stop-color:#009DDA"/>
		<stop  offset="0.4137" style="stop-color:#019BD9;stop-opacity:0.7518"/>
		<stop  offset="0.5627" style="stop-color:#0396D2;stop-opacity:0.6624"/>
		<stop  offset="0.669" style="stop-color:#068EC6;stop-opacity:0.5986"/>
		<stop  offset="0.7549" style="stop-color:#0B81B5;stop-opacity:0.547"/>
		<stop  offset="0.8285" style="stop-color:#12719F;stop-opacity:0.5029"/>
		<stop  offset="0.8936" style="stop-color:#1A5D84;stop-opacity:0.4638"/>
		<stop  offset="0.9511" style="stop-color:#234664;stop-opacity:0.4294"/>
		<stop  offset="1" style="stop-color:#2D2D43;stop-opacity:0.4"/>
	</linearGradient>
	
		<path fill-rule="evenodd" clip-rule="evenodd" fill="none" stroke="url(#SVGID_11_)" stroke-width="2.2346" stroke-miterlimit="10" d="
		M205.3,278.8c-15.6,12.6-17.7,37-17.7,37"/>
	<linearGradient id="SVGID_12_" gradientUnits="userSpaceOnUse" x1="241.3657" y1="342.4758" x2="241.3657" y2="259.0848">
		<stop  offset="0" style="stop-color:#009DDA"/>
		<stop  offset="0.4137" style="stop-color:#019BD9;stop-opacity:0.7518"/>
		<stop  offset="0.5627" style="stop-color:#0396D2;stop-opacity:0.6624"/>
		<stop  offset="0.669" style="stop-color:#068EC6;stop-opacity:0.5986"/>
		<stop  offset="0.7549" style="stop-color:#0B81B5;stop-opacity:0.547"/>
		<stop  offset="0.8285" style="stop-color:#12719F;stop-opacity:0.5029"/>
		<stop  offset="0.8936" style="stop-color:#1A5D84;stop-opacity:0.4638"/>
		<stop  offset="0.9511" style="stop-color:#234664;stop-opacity:0.4294"/>
		<stop  offset="1" style="stop-color:#2D2D43;stop-opacity:0.4"/>
	</linearGradient>
	
		<path fill-rule="evenodd" clip-rule="evenodd" fill="none" stroke="url(#SVGID_12_)" stroke-width="2.2346" stroke-miterlimit="10" d="
		M198.7,341.5c1.5-0.7,84.9-81.6,84.9-81.6"/>
	<linearGradient id="SVGID_13_" gradientUnits="userSpaceOnUse" x1="246.3603" y1="344.5285" x2="246.3603" y2="258.2463">
		<stop  offset="0" style="stop-color:#009DDA"/>
		<stop  offset="0.4137" style="stop-color:#019BD9;stop-opacity:0.7518"/>
		<stop  offset="0.5627" style="stop-color:#0396D2;stop-opacity:0.6624"/>
		<stop  offset="0.669" style="stop-color:#068EC6;stop-opacity:0.5986"/>
		<stop  offset="0.7549" style="stop-color:#0B81B5;stop-opacity:0.547"/>
		<stop  offset="0.8285" style="stop-color:#12719F;stop-opacity:0.5029"/>
		<stop  offset="0.8936" style="stop-color:#1A5D84;stop-opacity:0.4638"/>
		<stop  offset="0.9511" style="stop-color:#234664;stop-opacity:0.4294"/>
		<stop  offset="1" style="stop-color:#2D2D43;stop-opacity:0.4"/>
	</linearGradient>
	
		<path fill-rule="evenodd" clip-rule="evenodd" fill="none" stroke="url(#SVGID_13_)" stroke-width="2.2346" stroke-miterlimit="10" d="
		M198.6,343.6c0,0,74.3-45.5,95.1-84.8"/>
	<linearGradient id="SVGID_14_" gradientUnits="userSpaceOnUse" x1="243.1135" y1="350.2941" x2="243.1135" y2="259.162">
		<stop  offset="0" style="stop-color:#009DDA"/>
		<stop  offset="0.4137" style="stop-color:#019BD9;stop-opacity:0.7518"/>
		<stop  offset="0.5627" style="stop-color:#0396D2;stop-opacity:0.6624"/>
		<stop  offset="0.669" style="stop-color:#068EC6;stop-opacity:0.5986"/>
		<stop  offset="0.7549" style="stop-color:#0B81B5;stop-opacity:0.547"/>
		<stop  offset="0.8285" style="stop-color:#12719F;stop-opacity:0.5029"/>
		<stop  offset="0.8936" style="stop-color:#1A5D84;stop-opacity:0.4638"/>
		<stop  offset="0.9511" style="stop-color:#234664;stop-opacity:0.4294"/>
		<stop  offset="1" style="stop-color:#2D2D43;stop-opacity:0.4"/>
	</linearGradient>
	
		<path fill-rule="evenodd" clip-rule="evenodd" fill="none" stroke="url(#SVGID_14_)" stroke-width="2.2346" stroke-miterlimit="10" d="
		M192,349.3c0,0,85.1-37.6,101.5-89.8"/>
	<g>
		<circle fill-rule="evenodd" clip-rule="evenodd" fill="#03A9F4" cx="293.7" cy="258.8" r="1.7"/>
	</g>
	<g>
		<circle fill-rule="evenodd" clip-rule="evenodd" fill="#03A9F4" cx="187.6" cy="315.8" r="1.7"/>
	</g>
	<g>
		<path fill="#FFFFFF" d="M220.7,264.9h1.9v8c0,1.1-0.3,2-1,2.6s-1.5,1-2.6,1c-1.1,0-2-0.3-2.7-0.9s-1-1.4-0.9-2.5l0,0h1.8
			c0,0.6,0.2,1.1,0.5,1.4s0.7,0.5,1.3,0.5c0.5,0,0.9-0.2,1.2-0.6s0.5-0.9,0.5-1.5V264.9z"/>
		<path fill="#FFFFFF" d="M230.1,275c-0.3,0.5-0.6,0.8-1,1s-0.9,0.4-1.4,0.4c-0.9,0-1.6-0.3-2.1-0.9s-0.8-1.5-0.8-2.8v-4.9h1.9v5
			c0,0.8,0.1,1.4,0.4,1.7s0.6,0.4,1.1,0.4c0.5,0,0.8-0.1,1.2-0.2s0.6-0.4,0.7-0.7v-6.1h1.9v8.5h-1.6L230.1,275z"/>
		<path fill="#FFFFFF" d="M236,267.8v8.9c0,0.9-0.2,1.7-0.7,2.2s-1.2,0.8-2,0.8c-0.2,0-0.4,0-0.5,0s-0.3-0.1-0.5-0.1l0.1-1.5
			c0.1,0,0.2,0,0.3,0.1s0.2,0,0.4,0c0.3,0,0.6-0.1,0.8-0.3s0.3-0.6,0.3-1v-8.9H236z M235.9,265.7H234V264h1.9V265.7z"/>
		<path fill="#FFFFFF" d="M243.3,275c-0.3,0.5-0.6,0.8-1,1s-0.9,0.4-1.4,0.4c-0.9,0-1.6-0.3-2.1-0.9s-0.8-1.5-0.8-2.8v-4.9h1.9v5
			c0,0.8,0.1,1.4,0.4,1.7s0.6,0.4,1.1,0.4c0.5,0,0.8-0.1,1.2-0.2s0.6-0.4,0.7-0.7v-6.1h1.9v8.5h-1.6L243.3,275z"/>
		<path fill="#FFFFFF" d="M249.9,272.8l0.2,0.8h0l1.9-5.9h2.1l-3.5,9.7c-0.2,0.6-0.5,1.1-0.9,1.5s-1,0.6-1.7,0.6c-0.2,0-0.3,0-0.5,0
			s-0.4-0.1-0.5-0.1l0.2-1.5c0.1,0,0.2,0,0.3,0s0.2,0,0.3,0c0.3,0,0.6-0.1,0.8-0.4s0.4-0.5,0.5-0.8l0.3-0.8l-3.1-8.4h2.1
			L249.9,272.8z"/>
	</g>
	<linearGradient id="SVGID_15_" gradientUnits="userSpaceOnUse" x1="221.6462" y1="350.2678" x2="221.6462" y2="318.109">
		<stop  offset="0" style="stop-color:#009DDA"/>
		<stop  offset="0.4137" style="stop-color:#019BD9;stop-opacity:0.7518"/>
		<stop  offset="0.5627" style="stop-color:#0396D2;stop-opacity:0.6624"/>
		<stop  offset="0.669" style="stop-color:#068EC6;stop-opacity:0.5986"/>
		<stop  offset="0.7549" style="stop-color:#0B81B5;stop-opacity:0.547"/>
		<stop  offset="0.8285" style="stop-color:#12719F;stop-opacity:0.5029"/>
		<stop  offset="0.8936" style="stop-color:#1A5D84;stop-opacity:0.4638"/>
		<stop  offset="0.9511" style="stop-color:#234664;stop-opacity:0.4294"/>
		<stop  offset="1" style="stop-color:#2D2D43;stop-opacity:0.4"/>
	</linearGradient>
	
		<line fill-rule="evenodd" clip-rule="evenodd" fill="none" stroke="url(#SVGID_15_)" stroke-width="2.2346" stroke-miterlimit="10" x1="192" y1="349.3" x2="251.3" y2="319.1"/>
	<g>
		<circle fill-rule="evenodd" clip-rule="evenodd" fill="#03A9F4" cx="251.3" cy="319.1" r="1.7"/>
	</g>
	<g>
		<path fill-rule="evenodd" clip-rule="evenodd" fill="#222232" d="M192,353.1c-2.1,0-3.8-1.7-3.8-3.8s1.7-3.8,3.8-3.8
			s3.8,1.7,3.8,3.8S194.1,353.1,192,353.1z"/>
		<path fill="#FFFFFF" d="M192,346.3c1.6,0,2.9,1.3,2.9,2.9c0,1.6-1.3,2.9-2.9,2.9c-1.6,0-2.9-1.3-2.9-2.9
			C189.1,347.7,190.4,346.3,192,346.3 M192,344.6c-2.6,0-4.7,2.1-4.7,4.7s2.1,4.7,4.7,4.7s4.7-2.1,4.7-4.7S194.6,344.6,192,344.6
			L192,344.6z"/>
	</g>
	<g>
		<path fill="#FFFFFF" d="M218,347.9h-1.9l-5-8.2l0,0v8.2h-1.9v-11.4h1.9l5,8.2l0,0v-8.2h1.9V347.9z"/>
		<path fill="#FFFFFF" d="M223.8,348.1c-1.2,0-2.2-0.4-2.9-1.2s-1-1.8-1-3v-0.3c0-1.2,0.3-2.3,1-3.1s1.6-1.2,2.7-1.2
			c1.1,0,2,0.4,2.6,1.1s0.9,1.6,0.9,2.8v1h-5.2l0,0c0,0.7,0.2,1.3,0.5,1.7s0.9,0.6,1.6,0.6c0.5,0,1-0.1,1.3-0.2s0.7-0.3,1.1-0.5
			l0.6,1.2c-0.3,0.3-0.8,0.5-1.3,0.7S224.5,348.1,223.8,348.1z M223.6,340.8c-0.5,0-0.9,0.2-1.2,0.5s-0.5,0.8-0.6,1.4l0,0h3.3v-0.1
			c0-0.5-0.1-1-0.4-1.3S224.1,340.8,223.6,340.8z"/>
		<path fill="#FFFFFF" d="M233.8,346.7c-0.3,0.5-0.6,0.8-1,1s-0.9,0.4-1.4,0.4c-0.9,0-1.6-0.3-2.1-0.9s-0.8-1.5-0.8-2.8v-4.9h1.9v5
			c0,0.8,0.1,1.4,0.4,1.7s0.6,0.4,1.1,0.4c0.5,0,0.8-0.1,1.2-0.2s0.6-0.4,0.7-0.7v-6.1h1.9v8.5H234L233.8,346.7z"/>
		<path fill="#FFFFFF" d="M237.3,343.8c0-1.3,0.3-2.4,0.9-3.3s1.4-1.2,2.4-1.2c0.5,0,0.9,0.1,1.3,0.3s0.7,0.5,1,0.9l0.2-1h1.5v11.7
			h-1.9v-4c-0.3,0.3-0.6,0.6-0.9,0.7s-0.8,0.2-1.2,0.2c-1,0-1.8-0.4-2.4-1.1s-0.9-1.7-0.9-3V343.8z M239.2,344
			c0,0.8,0.1,1.4,0.4,1.9s0.8,0.7,1.4,0.7c0.4,0,0.7-0.1,1-0.2s0.5-0.4,0.7-0.7v-3.9c-0.2-0.3-0.4-0.5-0.7-0.7s-0.6-0.2-1-0.2
			c-0.6,0-1.1,0.3-1.4,0.8s-0.5,1.3-0.5,2.1V344z"/>
		<path fill="#FFFFFF" d="M251.9,346.7c-0.3,0.5-0.6,0.8-1,1s-0.9,0.4-1.4,0.4c-0.9,0-1.6-0.3-2.1-0.9s-0.8-1.5-0.8-2.8v-4.9h1.9v5
			c0,0.8,0.1,1.4,0.4,1.7s0.6,0.4,1.1,0.4c0.5,0,0.8-0.1,1.2-0.2s0.6-0.4,0.7-0.7v-6.1h1.9v8.5h-1.6L251.9,346.7z"/>
		<path fill="#FFFFFF" d="M259.3,348.1c-1.2,0-2.2-0.4-2.9-1.2s-1-1.8-1-3v-0.3c0-1.2,0.3-2.3,1-3.1s1.6-1.2,2.7-1.2
			c1.1,0,2,0.4,2.6,1.1s0.9,1.6,0.9,2.8v1h-5.2l0,0c0,0.7,0.2,1.3,0.5,1.7s0.9,0.6,1.6,0.6c0.5,0,1-0.1,1.3-0.2s0.7-0.3,1.1-0.5
			l0.6,1.2c-0.3,0.3-0.8,0.5-1.3,0.7S260,348.1,259.3,348.1z M259.1,340.8c-0.5,0-0.9,0.2-1.2,0.5s-0.5,0.8-0.6,1.4l0,0h3.3v-0.1
			c0-0.5-0.1-1-0.4-1.3S259.7,340.8,259.1,340.8z M259.5,335.9h2.1l0,0l-2.1,2h-1.5L259.5,335.9z"/>
		<path fill="#FFFFFF" d="M265.8,339.5l0.1,1.2c0.3-0.4,0.6-0.8,1-1s0.9-0.4,1.4-0.4c0.9,0,1.6,0.3,2.1,0.8s0.7,1.4,0.7,2.5v5.3
			h-1.9v-5.2c0-0.7-0.1-1.1-0.4-1.4s-0.6-0.4-1.2-0.4c-0.4,0-0.8,0.1-1.1,0.2s-0.5,0.4-0.7,0.6v6.2h-1.9v-8.5H265.8z"/>
	</g>
	<g>
		<path fill-rule="evenodd" clip-rule="evenodd" fill="#222232" d="M198.7,345.2c-2.1,0-3.8-1.7-3.8-3.8s1.7-3.8,3.8-3.8
			c2.1,0,3.8,1.7,3.8,3.8S200.8,345.2,198.7,345.2z"/>
		<path fill="#FFFFFF" d="M198.7,338.5c1.6,0,2.9,1.3,2.9,2.9s-1.3,2.9-2.9,2.9c-1.6,0-2.9-1.3-2.9-2.9S197.1,338.5,198.7,338.5
			 M198.7,336.8c-2.6,0-4.7,2.1-4.7,4.7s2.1,4.7,4.7,4.7s4.7-2.1,4.7-4.7S201.3,336.8,198.7,336.8L198.7,336.8z"/>
	</g>
	<linearGradient id="SVGID_16_" gradientUnits="userSpaceOnUse" x1="203.0876" y1="256.2986" x2="211.8704" y2="256.2986">
		<stop  offset="0" style="stop-color:#009DDA"/>
		<stop  offset="0.1219" style="stop-color:#0494CE;stop-opacity:0.9192"/>
		<stop  offset="0.3453" style="stop-color:#0E7BAD;stop-opacity:0.7712"/>
		<stop  offset="0.6425" style="stop-color:#1D5478;stop-opacity:0.5742"/>
		<stop  offset="0.9053" style="stop-color:#2D2D43;stop-opacity:0.4"/>
	</linearGradient>
	
		<path fill-rule="evenodd" clip-rule="evenodd" fill="none" stroke="url(#SVGID_16_)" stroke-width="2.2346" stroke-miterlimit="10" d="
		M206.6,278.9c0,0-7.6-31,4.5-44.7"/>
	<g>
		<circle fill-rule="evenodd" clip-rule="evenodd" fill="#03A9F4" cx="211" cy="234.2" r="1.7"/>
	</g>
	<g>
		<path fill-rule="evenodd" clip-rule="evenodd" fill="#222232" d="M206.6,282.7c-2.1,0-3.8-1.7-3.8-3.8c0-2.1,1.7-3.8,3.8-3.8
			c2.1,0,3.8,1.7,3.8,3.8C210.4,281,208.7,282.7,206.6,282.7z"/>
		<path fill="#FFFFFF" d="M206.6,275.9c1.6,0,2.9,1.3,2.9,2.9c0,1.6-1.3,2.9-2.9,2.9s-2.9-1.3-2.9-2.9
			C203.6,277.3,204.9,275.9,206.6,275.9 M206.6,274.2c-2.6,0-4.7,2.1-4.7,4.7s2.1,4.7,4.7,4.7s4.7-2.1,4.7-4.7
			S209.1,274.2,206.6,274.2L206.6,274.2z"/>
	</g>
	<linearGradient id="SVGID_17_" gradientUnits="userSpaceOnUse" x1="207.9841" y1="264.7158" x2="283.7642" y2="264.7158">
		<stop  offset="0" style="stop-color:#009DDA"/>
		<stop  offset="0.1219" style="stop-color:#0494CE;stop-opacity:0.9192"/>
		<stop  offset="0.3453" style="stop-color:#0E7BAD;stop-opacity:0.7712"/>
		<stop  offset="0.6425" style="stop-color:#1D5478;stop-opacity:0.5742"/>
		<stop  offset="0.9053" style="stop-color:#2D2D43;stop-opacity:0.4"/>
	</linearGradient>
	
		<path fill-rule="evenodd" clip-rule="evenodd" fill="none" stroke="url(#SVGID_17_)" stroke-width="2.2346" stroke-miterlimit="10" d="
		M208.8,271.1c0,0,15.9-16.8,74.9-11.2"/>
	<g>
		<path fill-rule="evenodd" clip-rule="evenodd" fill="#222232" d="M208.8,274.9c-2.1,0-3.8-1.7-3.8-3.8c0-2.1,1.7-3.8,3.8-3.8
			s3.8,1.7,3.8,3.8C212.6,273.2,210.9,274.9,208.8,274.9z"/>
		<path fill="#FFFFFF" d="M208.8,268.1c1.6,0,2.9,1.3,2.9,2.9c0,1.6-1.3,2.9-2.9,2.9c-1.6,0-2.9-1.3-2.9-2.9
			C205.9,269.4,207.2,268.1,208.8,268.1 M208.8,266.4c-2.6,0-4.7,2.1-4.7,4.7s2.1,4.7,4.7,4.7s4.7-2.1,4.7-4.7
			S211.4,266.4,208.8,266.4L208.8,266.4z"/>
	</g>
	<g>
		<circle fill-rule="evenodd" clip-rule="evenodd" fill="#03A9F4" cx="283.7" cy="259.9" r="1.7"/>
	</g>
</g>
</svg>
