<?xml version="1.0" encoding="utf-8"?>
<!-- Generator: Adobe Illustrator 18.0.0, SVG Export Plug-In . SVG Version: 6.00 Build 0)  -->
<!DOCTYPE svg PUBLIC "-//W3C//DTD SVG 1.1//EN" "http://www.w3.org/Graphics/SVG/1.1/DTD/svg11.dtd">
<svg version="1.1" id="Layer_1" xmlns="http://www.w3.org/2000/svg" xmlns:xlink="http://www.w3.org/1999/xlink" x="0px" y="0px"
	 viewBox="0 0 389.8 436.5" enable-background="new 0 0 389.8 436.5" xml:space="preserve">
<g>
	<g opacity="0.32">
		<g>
			<g>
				
					<polygon fill-rule="evenodd" clip-rule="evenodd" fill="none" stroke="#FFFFFF" stroke-width="1.1355" stroke-miterlimit="10" points="
					279.8,82.1 282.6,86.8 282.9,88.8 285.2,91.1 294.8,85.5 298,85.1 303.5,81.2 305.9,70.5 304.5,67.7 302.8,61.7 295.2,63 
					293.8,71.9 287.4,77.5 				"/>
				
					<polygon fill-rule="evenodd" clip-rule="evenodd" fill="none" stroke="#FFFFFF" stroke-width="1.1355" stroke-miterlimit="10" points="
					278.5,95.3 271.5,103.7 265.4,111.1 258,117.5 254.5,125.3 248.4,119.8 233,121.3 233.2,116.4 238.1,102.6 239.4,92 242.5,88.6 
					244.1,82.5 255.7,83.7 275.1,84.3 279.8,82.1 282.8,86.8 282.9,88.8 285.2,91.1 				"/>
				
					<polygon fill-rule="evenodd" clip-rule="evenodd" fill="none" stroke="#FFFFFF" stroke-width="1.1355" stroke-miterlimit="10" points="
					202.8,21.4 204.3,23.4 207.1,24.7 218,34.4 225.8,41.2 232.8,42.1 246,50.7 248.4,53.3 252.4,53.6 258.3,56.9 258.9,59.5 
					252.4,68.2 249.9,76.6 235.4,67.7 233,63.1 222.2,53.6 212.1,47.5 210.8,45.6 202.8,42.5 				"/>
				
					<polygon fill-rule="evenodd" clip-rule="evenodd" fill="none" stroke="#FFFFFF" stroke-width="1.1355" stroke-miterlimit="10" points="
					166.4,120.4 161.7,109.4 154.1,103.5 153.2,99.8 148.2,96.4 145,98.1 139.4,97.5 129.1,91.6 121.2,90.2 117.4,97 123,100.1 
					126.8,104 127.4,112.5 135.6,116.4 140.3,120.7 146.2,128 147.9,134.8 150.6,142.1 156.4,142.7 160.8,141.8 160.8,127.1 				"/>
				
					<polyline fill-rule="evenodd" clip-rule="evenodd" fill="none" stroke="#FFFFFF" stroke-width="1.1355" stroke-miterlimit="10" points="
					171.1,84 170.8,89.4 168.2,90.2 163.5,91.6 159.4,87.4 159.4,83.4 157.6,81.5 158.5,76.4 155.5,73.6 155.5,70.7 160.8,70.5 
					162.9,67.7 175.8,69.9 				"/>
				
					<polygon fill-rule="evenodd" clip-rule="evenodd" fill="none" stroke="#FFFFFF" stroke-width="1.1355" stroke-miterlimit="10" points="
					145.6,142.4 145.3,148.6 140.9,146.6 135.3,145.8 132.4,148.9 128.2,149.7 128.2,146.3 121.2,147.2 120,150.5 113,152 
					111.2,148.3 111.8,145.8 108.9,143.5 108.3,135.9 110.9,129.4 113.6,122.1 111.2,109.9 114.1,107.7 117.4,97 123,100.1 
					126.8,104 127.4,112.5 135.6,116.4 140.3,120.7 146.2,128 147.9,134.8 150.6,142.1 				"/>
				
					<polygon fill-rule="evenodd" clip-rule="evenodd" fill="none" stroke="#FFFFFF" stroke-width="1.1355" stroke-miterlimit="10" points="
					202.8,121.2 209.6,95 209.5,92 239.4,92 238.1,102.6 233.2,116.4 233,121.3 231.3,126.6 226.9,132.5 223.4,137.9 221,141.5 
					220.7,149.4 225.7,159.8 222.8,163.2 218.4,163 209.3,173.1 190.2,173.1 207.2,153.1 204.6,146.9 203.1,141.8 206.6,127.7 				
					"/>
				
					<polygon fill-rule="evenodd" clip-rule="evenodd" fill="none" stroke="#FFFFFF" stroke-width="1.1355" stroke-miterlimit="10" points="
					254.5,125.3 248.4,119.8 233,121.3 231.3,126.6 226.9,132.5 223.4,137.9 221,141.5 220.7,149.4 225.7,159.8 233.9,163.8 
					239.5,167.7 246.3,169.7 246,163.2 246,158.4 248.9,155.3 248.9,141 252.7,131.9 				"/>
				
					<polygon fill-rule="evenodd" clip-rule="evenodd" fill="none" stroke="#FFFFFF" stroke-width="1.1355" stroke-miterlimit="10" points="
					145.6,142.4 145.3,148.6 145.9,154.5 147.9,160.7 154.4,172.3 156.4,178.5 155.3,191.1 170.5,191.1 170.5,158.4 172.6,152.2 
					172.3,147.2 169.3,146.6 167.6,144.1 160.8,141.8 156.4,142.7 150.6,142.1 				"/>
				
					<polygon fill-rule="evenodd" clip-rule="evenodd" fill="none" stroke="#FFFFFF" stroke-width="1.1355" stroke-miterlimit="10" points="
					170.5,181.3 170.5,158.4 172.6,152.2 172.3,147.2 169.3,146.6 167.6,144.1 160.8,141.8 160.8,127.1 166.4,120.4 169.9,119.2 
					173.5,116.1 174,111.9 178.7,110.2 186.1,111.6 195.8,112.8 199.6,120.4 202.8,121.2 206.6,127.7 203.1,141.8 204.6,146.9 
					207.2,153.1 190.2,173.1 190.2,181.3 				"/>
				
					<polygon fill-rule="evenodd" clip-rule="evenodd" fill="none" stroke="#FFFFFF" stroke-width="1.1355" stroke-miterlimit="10" points="
					113,152 120,150.5 121.2,147.2 128.2,146.3 128.2,149.7 132.4,148.9 135.3,145.8 140.9,146.6 145.3,148.6 145.9,154.5 
					147.9,160.7 154.4,172.3 156.4,178.5 155.3,191.1 140.3,191.1 140.3,216 130,211.7 124.1,210.3 121.2,206.4 116.2,204.4 
					113,199.3 113,189.2 111.2,186.9 113.3,184.4 116.2,174.2 117.7,172 117.7,161.5 114.7,159.3 				"/>
				
					<polygon fill-rule="evenodd" clip-rule="evenodd" fill="none" stroke="#FFFFFF" stroke-width="1.1355" stroke-miterlimit="10" points="
					136.5,237.1 141.5,234.6 140.3,231.2 140.3,216 130,211.7 124.1,210.3 121.2,206.4 116.2,204.4 113,199.3 109.4,201.3 
					106.8,210 107.7,215.1 106.8,220.5 112.1,230.1 106.5,235.7 105.9,244.2 103,245.8 104.7,254.3 103.6,257.7 104.7,263.3 
					112.4,262.8 113.9,257.4 120.3,254.9 124.1,248.7 125.3,245.6 				"/>
				
					<polygon fill-rule="evenodd" clip-rule="evenodd" fill="none" stroke="#FFFFFF" stroke-width="1.1355" stroke-miterlimit="10" points="
					140.3,216 140.3,191.1 155.3,191.1 170.5,191.1 170.5,181.3 190.2,181.3 190.2,237.7 179.3,231.7 167.6,231.5 159.7,230.3 
					152.3,226.4 147,225.3 145.3,219.3 142.9,216.8 				"/>
				
					<polygon fill-rule="evenodd" clip-rule="evenodd" fill="none" stroke="#FFFFFF" stroke-width="1.1355" stroke-miterlimit="10" points="
					246.2,169.7 239.5,167.8 233.9,163.8 225.7,159.9 222.8,163.3 218.4,163 209.2,173.1 190.2,173.1 190.2,237.7 190.2,254 
					194.3,256 196.9,259.1 202.2,254 201,248.4 202.2,241.1 204.5,239.9 202.2,234.3 201,229 202.2,227.5 206.6,229.8 216.3,230.9 
					225.4,230.4 235.1,228.1 246.8,223.6 255.1,216.3 262.4,205.5 262.4,198.2 258,198.2 255.9,192.3 257.1,187.2 256.5,183.8 
					250.1,178.8 246,174.5 				"/>
				
					<polygon fill-rule="evenodd" clip-rule="evenodd" fill="none" stroke="#FFFFFF" stroke-width="1.1355" stroke-miterlimit="10" points="
					196.9,259.1 194.3,256 190.2,254 190.2,237.7 179.3,231.7 167.6,231.5 159.7,230.3 152.3,226.4 147,225.3 145.3,219.3 
					142.9,216.8 140.3,216 140.3,231.2 141.5,234.6 136.5,237.1 125.3,245.6 124.1,248.7 120.3,254.9 113.9,257.4 112.4,262.8 
					104.7,263.3 106.5,272.1 175.5,272.1 176.4,265.3 173.8,259.7 173.8,256.3 176.7,256 184,259.1 189.3,260.2 194.9,260.8 				"/>
				
					<polygon fill-rule="evenodd" clip-rule="evenodd" fill="none" stroke="#FFFFFF" stroke-width="1.1355" stroke-miterlimit="10" points="
					176.1,274.3 179.6,274.3 180.8,276.6 183.7,275.2 182,272.9 187.8,272.9 189.9,279.7 184.9,281.9 184.9,279.4 180.8,278.3 
					177.9,279.7 177.9,281.9 182.3,283.3 182.6,284.8 176.7,288.7 174.3,293.8 174.6,300.8 172.3,303.1 171.7,305.9 173.5,308.2 
					171.4,310.1 165.2,310.7 163.2,312.7 159.4,313.8 155.3,318.9 153.5,323.7 114.4,323.7 116.5,319.1 115.9,315.8 111.5,314.9 
					109.2,312.4 109.4,310.4 117.4,310.1 116.8,306.5 111.8,305.6 110,300.3 110.9,297.4 110.6,294.6 108.6,293.5 106.5,285.6 
					104.2,283.9 104.2,278.3 107.1,274.9 106.5,272.1 175.5,272.1 				"/>
				
					<polygon fill-rule="evenodd" clip-rule="evenodd" fill="none" stroke="#FFFFFF" stroke-width="1.1355" stroke-miterlimit="10" points="
					113.9,326.2 115.9,335.5 113.6,340.3 111.5,350.2 112.7,356.4 113,367.6 109.2,375 109.4,385.7 111.2,388.5 113.6,393.6 
					117.4,391.3 121.8,392.5 121.5,397.8 125,404.3 141.7,404.3 146.4,405.1 150.6,406 152,404.9 147,397.2 144.4,388.8 
					145.9,380.3 154.7,372.2 155.5,367.1 157.6,360 165.8,352.1 168.8,351.9 169.1,348.8 171.7,341.7 171.1,338 168.8,335.8 
					162.3,334.7 157.6,331.3 154.1,327.6 153.5,323.7 114.4,323.7 				"/>
				
					<polygon fill-rule="evenodd" clip-rule="evenodd" fill="none" stroke="#FFFFFF" stroke-width="1.1355" stroke-miterlimit="10" points="
					150.8,409.4 150.8,429.7 158.5,430 163.2,431.1 162,432.8 150.6,431.6 150.6,435.9 159.7,435.3 166.1,435 171.4,435.6 
					177.3,434.7 178.7,432.5 171.1,431.1 166.4,427.7 161.7,423.7 158.2,420.6 155.8,417.5 152.3,416.7 153.8,413.6 				"/>
				
					<polygon fill-rule="evenodd" clip-rule="evenodd" fill="none" stroke="#FFFFFF" stroke-width="1.1355" stroke-miterlimit="10" points="
					245.5,377.3 244.5,379 242.9,379.2 243.2,380.4 240.4,383.7 238.2,386.2 236.3,385.7 234.9,386.6 233.8,388.5 232.1,389.6 
					231.3,388.2 229.5,387.9 228,385.9 230.5,385.4 232.3,384.8 233,382.8 232.3,380.9 234.9,380.9 236.7,381.6 234.1,379 
					232.7,377.6 231,376.1 232.4,375.1 234.5,377.5 237.6,376.8 240.1,377.1 242.6,377.6 243.6,375.6 245.5,375.4 				"/>
				
					<polygon fill-rule="evenodd" clip-rule="evenodd" fill="none" stroke="#FFFFFF" stroke-width="1.1355" stroke-miterlimit="10" points="
					246.2,383.4 244.9,381.7 242.9,383 241,385.2 239.8,387.2 240.4,389.2 241.8,391 242.3,392.1 244,391.7 243,389.6 245.5,389.3 
					246.5,387.9 247.9,389.3 248.7,387.5 246.8,385.2 247.6,384.4 250.1,385.1 252.4,385.4 255.3,383.1 257,380.9 259.2,380.6 
					259.2,379 257.7,376.8 255.2,376.6 255.3,379.2 252.8,378 250.9,377.8 250.9,376.5 253.1,376.5 253.3,374.9 251.1,374.7 
					248.4,374.9 248.9,377.2 246.5,378.7 245.9,380.4 247,382.4 				"/>
				
					<polygon fill-rule="evenodd" clip-rule="evenodd" fill="none" stroke="#FFFFFF" stroke-width="1.1355" stroke-miterlimit="10" points="
					187.7,62.6 202.8,44.4 202.8,42.5 202.8,21.4 195.9,14.5 180.2,14.5 176.4,22.4 172.9,18.6 169.3,17.5 165.6,17.4 165.2,26.5 
					168,28.2 169.8,33.5 174.6,33 179.2,34.5 179.2,45.1 175.9,47.4 170.5,48.8 162.9,47.1 157.3,41.2 157.3,35.8 152.3,34.4 
					151.7,41.4 148.2,43.4 141.5,39.5 139.7,43.1 127.9,49.3 126.2,52.7 126.8,55.8 137.3,57.5 151.7,58.3 152,63.4 149.1,64.6 
					153.5,70.8 160.8,70.5 162.9,67.7 175.8,69.9 179.3,64 186.4,63.7 187.6,62.6 				"/>
				
					<polygon fill-rule="evenodd" clip-rule="evenodd" fill="none" stroke="#FFFFFF" stroke-width="1.1355" stroke-miterlimit="10" points="
					155.5,73.6 158.5,76.4 157.6,81.5 159.4,83.4 159.4,87.4 163.5,91.6 168.2,90.2 168.8,97 169.3,103.7 173.5,107.4 174,111.9 
					173.5,116.1 169.9,119.2 166.4,120.4 161.7,109.4 154.1,103.5 153.2,99.8 148.2,96.4 145,98.1 139.4,97.5 129.1,91.6 
					121.2,90.2 123.2,81.5 128.2,80.6 128.8,78.1 125.6,72.7 127.4,68.5 126.8,55.8 137.3,57.5 151.7,58.3 152,63.4 149.1,64.6 
					153.5,70.8 155.5,70.7 				"/>
				
					<polygon fill-rule="evenodd" clip-rule="evenodd" fill="none" stroke="#FFFFFF" stroke-width="1.1355" stroke-miterlimit="10" points="
					242.5,88.6 244.1,82.5 249.9,76.6 235.4,67.7 233,63.1 222.2,53.6 212.1,47.5 210.8,45.6 202.8,42.5 202.8,44.4 187.7,62.6 
					209.5,62.6 209.5,92 239.4,92 				"/>
				
					<polygon fill-rule="evenodd" clip-rule="evenodd" fill="none" stroke="#FFFFFF" stroke-width="1.1355" stroke-miterlimit="10" points="
					187.7,62.6 209.5,62.6 209.5,92 209.6,95 202.8,121.2 199.6,120.4 195.8,112.8 186.1,111.6 178.7,110.2 174,111.9 173.5,107.4 
					169.3,103.7 168.8,97 168.2,90.2 170.8,89.4 171.1,84 176.1,75 175.8,69.9 179.3,64 186.4,63.7 				"/>
				
					<polygon fill-rule="evenodd" clip-rule="evenodd" fill="none" stroke="#FFFFFF" stroke-width="1.1355" stroke-miterlimit="10" points="
					143.2,28.2 141.7,25.4 145.6,21.4 150.6,18.6 151.4,14.6 153.5,13.2 161.1,17.2 165.6,17.4 165.2,26.5 168,28.2 169.8,33.5 
					174.6,33 179.2,34.5 179.2,45.1 175.9,47.4 170.5,48.8 162.9,47.1 157.3,41.2 157.3,35.8 152.3,34.4 151.7,41.4 148.2,43.4 
					141.5,39.5 				"/>
			</g>
		</g>
		<path id="stroke_p01_1_" fill="none" stroke="#FFFFFF" stroke-width="1.1355" stroke-miterlimit="10" d="M267,184.6L267,184.6"/>
	</g>
	<g>
		<path opacity="0.3" fill="#03A9F4" d="M165.1,78V40c21,0,38,17,38,38s-17,38-38,38s-38-17-38-38s17-38,38-38l0,0V78z"/>
		<circle fill="#FFFFFF" cx="165.1" cy="78" r="4.2"/>
	</g>
	<path opacity="0.3" fill="#03A9F4" d="M116.1,242v-34.6c19.1,0,34.6,15.5,34.6,34.6s-15.5,34.6-34.6,34.6S81.5,261.1,81.5,242
		s15.5-34.6,34.6-34.6l0,0V242z"/>
	<circle fill="#FFFFFF" cx="116.1" cy="242" r="4.2"/>
	<path opacity="0.3" fill="#03A9F4" d="M243.1,219v-38.7c21.4,0,38.7,17.3,38.7,38.7s-17.3,38.7-38.7,38.7s-38.7-17.3-38.7-38.7
		s17.3-38.7,38.7-38.7l0,0V219z"/>
	<circle fill="#FFFFFF" cx="243.1" cy="219" r="4.2"/>
	<path opacity="0.3" fill="#03A9F4" d="M162.1,34V0c18.8,0,34,15.2,34,34s-15.2,34-34,34s-34-15.2-34-34s15.2-34,34-34l0,0V34z"/>
	<circle fill="#FFFFFF" cx="162.1" cy="34" r="4.2"/>
	<path opacity="0.3" fill="#03A9F4" d="M231.1,103V63.2c22,0,39.9,17.8,39.9,39.9s-17.8,39.9-39.9,39.9S191.2,125,191.2,103
		s17.8-39.9,39.9-39.9l0,0V103z"/>
	<circle fill="#FFFFFF" cx="231.1" cy="103" r="4.2"/>
	<g>
		<path fill="#FFFFFF" d="M62.6,75h-3.2v9.6h-2.3V75h-3.2v-1.8h8.7V75z"/>
		<path fill="#FFFFFF" d="M68.4,83.4c-0.3,0.5-0.6,0.8-1,1s-0.9,0.4-1.4,0.4c-0.9,0-1.6-0.3-2.1-0.9c-0.5-0.6-0.8-1.5-0.8-2.8v-4.9
			h2.3v4.9c0,0.7,0.1,1.2,0.3,1.5s0.5,0.4,0.9,0.4c0.4,0,0.7-0.1,0.9-0.2s0.5-0.3,0.6-0.5v-6.1h2.3v8.5h-1.9L68.4,83.4z"/>
		<path fill="#FFFFFF" d="M75.7,83c0.4,0,0.7-0.1,0.9-0.4c0.2-0.2,0.4-0.6,0.4-0.9h2.1l0,0c0,0.9-0.3,1.6-1,2.1
			c-0.7,0.6-1.5,0.9-2.4,0.9c-1.2,0-2.2-0.4-2.9-1.2c-0.7-0.8-1-1.8-1-3.1v-0.2c0-1.2,0.3-2.3,1-3.1s1.6-1.2,2.9-1.2
			c1,0,1.9,0.3,2.5,0.9s0.9,1.4,0.9,2.3l0,0H77c0-0.4-0.1-0.8-0.3-1.1s-0.6-0.4-1-0.4c-0.6,0-1,0.2-1.3,0.7
			c-0.2,0.5-0.4,1.1-0.4,1.8v0.2c0,0.8,0.1,1.4,0.4,1.8C74.7,82.8,75.1,83,75.7,83z"/>
		<path fill="#FFFFFF" d="M85.6,83.4c-0.3,0.5-0.6,0.8-1,1s-0.9,0.4-1.4,0.4c-0.9,0-1.6-0.3-2.1-0.9c-0.5-0.6-0.8-1.5-0.8-2.8v-4.9
			h2.3v4.9c0,0.7,0.1,1.2,0.3,1.5s0.5,0.4,0.9,0.4c0.4,0,0.7-0.1,0.9-0.2s0.5-0.3,0.6-0.5v-6.1h2.3v8.5h-1.9L85.6,83.4z"/>
		<path fill="#FFFFFF" d="M91.6,76.2l0.1,1.1c0.3-0.4,0.6-0.7,1-0.9c0.4-0.2,0.9-0.3,1.4-0.3c0.5,0,1,0.1,1.4,0.4
			c0.4,0.2,0.7,0.6,0.9,1.1c0.3-0.5,0.6-0.8,1-1.1c0.4-0.3,0.9-0.4,1.5-0.4c0.8,0,1.5,0.3,2,0.9c0.5,0.6,0.7,1.5,0.7,2.7v5h-2.3v-5
			c0-0.7-0.1-1.1-0.3-1.4s-0.5-0.4-0.9-0.4c-0.3,0-0.6,0.1-0.8,0.2c-0.2,0.1-0.4,0.3-0.6,0.6c0,0.1,0,0.2,0,0.3s0,0.1,0,0.2v5.6
			h-2.3v-5c0-0.7-0.1-1.1-0.3-1.4s-0.5-0.4-0.9-0.4c-0.3,0-0.6,0.1-0.8,0.2s-0.4,0.3-0.6,0.5v6.2h-2.3v-8.5H91.6z"/>
		<path fill="#FFFFFF" d="M108.3,84.6c-0.1-0.2-0.2-0.4-0.2-0.6c-0.1-0.2-0.1-0.4-0.1-0.7c-0.2,0.4-0.5,0.8-0.9,1s-0.8,0.4-1.4,0.4
			c-0.9,0-1.6-0.2-2-0.7c-0.5-0.5-0.7-1.1-0.7-1.9c0-0.8,0.3-1.5,1-1.9c0.6-0.5,1.6-0.7,2.8-0.7h1.3v-0.7c0-0.4-0.1-0.7-0.3-0.9
			c-0.2-0.2-0.5-0.3-1-0.3c-0.4,0-0.7,0.1-0.9,0.3s-0.3,0.4-0.3,0.7h-2.2l0,0c0-0.7,0.3-1.3,0.9-1.8c0.7-0.5,1.5-0.8,2.6-0.8
			c1,0,1.8,0.3,2.5,0.8c0.6,0.5,0.9,1.2,0.9,2.2v3.5c0,0.4,0,0.8,0.1,1.1c0.1,0.3,0.2,0.7,0.3,1H108.3z M106.2,83.1
			c0.4,0,0.8-0.1,1.1-0.3c0.3-0.2,0.5-0.4,0.6-0.7v-1.2h-1.3c-0.5,0-0.9,0.1-1.1,0.4c-0.2,0.2-0.4,0.5-0.4,0.9
			c0,0.3,0.1,0.5,0.3,0.7C105.7,83,105.9,83.1,106.2,83.1z M107.2,72.5h2.5l0,0l-2.2,2h-1.9L107.2,72.5z"/>
		<path fill="#FFFFFF" d="M114,76.2l0.1,1.2c0.3-0.4,0.6-0.8,1-1c0.4-0.2,0.9-0.4,1.4-0.4c0.9,0,1.5,0.3,2,0.8
			c0.5,0.5,0.7,1.4,0.7,2.6v5.2H117v-5.2c0-0.6-0.1-1-0.3-1.3c-0.2-0.3-0.5-0.4-0.9-0.4c-0.3,0-0.6,0.1-0.9,0.2
			c-0.3,0.1-0.5,0.3-0.6,0.5v6.1h-2.3v-8.5H114z"/>
		<path fill="#FFFFFF" d="M132.6,75c-1.3,1.5-2.2,2.9-2.6,4.1c-0.5,1.2-0.7,2.6-0.7,4.1v1.4H127v-1.4c0-1.6,0.3-3,0.9-4.3
			s1.4-2.6,2.5-3.9h-5.8v-1.8h8V75z"/>
		<path fill="#FFFFFF" d="M139.5,84.6h-2.3v-9.4h-2.4v-1.7l4.6-0.4V84.6z"/>
		<path fill="#FFFFFF" d="M143.2,75.4c0-0.7,0.2-1.2,0.7-1.7c0.4-0.4,1-0.7,1.8-0.7c0.8,0,1.4,0.2,1.8,0.7s0.6,1,0.6,1.7V76
			c0,0.7-0.2,1.2-0.6,1.7c-0.4,0.4-1,0.7-1.8,0.7c-0.8,0-1.4-0.2-1.8-0.7c-0.4-0.4-0.7-1-0.7-1.7V75.4z M144.7,76
			c0,0.3,0.1,0.6,0.2,0.8c0.2,0.2,0.4,0.3,0.7,0.3c0.3,0,0.5-0.1,0.7-0.3c0.2-0.2,0.2-0.5,0.2-0.8v-0.6c0-0.3-0.1-0.6-0.2-0.8
			s-0.4-0.3-0.7-0.3s-0.5,0.1-0.7,0.3s-0.2,0.5-0.2,0.8V76z M146,83.8l-1.1-0.6l5.6-8.9l1.1,0.6L146,83.8z M148.6,81.8
			c0-0.7,0.2-1.2,0.7-1.7c0.4-0.4,1-0.7,1.8-0.7c0.8,0,1.4,0.2,1.8,0.7s0.7,1,0.7,1.7v0.6c0,0.7-0.2,1.2-0.6,1.7
			c-0.4,0.4-1,0.7-1.8,0.7c-0.8,0-1.4-0.2-1.8-0.7s-0.7-1-0.7-1.7V81.8z M150.1,82.4c0,0.3,0.1,0.6,0.3,0.8s0.4,0.3,0.7,0.3
			c0.3,0,0.6-0.1,0.7-0.3s0.2-0.5,0.2-0.8v-0.6c0-0.3-0.1-0.6-0.2-0.8s-0.4-0.3-0.7-0.3c-0.3,0-0.6,0.1-0.7,0.3s-0.2,0.5-0.2,0.8
			V82.4z"/>
	</g>
	<g>
		<path fill="#FFFFFF" d="M246.9,105.4v4.5h-2.3V98.6h3.9c1.3,0,2.3,0.3,3,0.9c0.7,0.6,1.1,1.4,1.1,2.5c0,0.6-0.2,1.1-0.5,1.5
			c-0.3,0.4-0.8,0.8-1.4,1c0.7,0.2,1.2,0.5,1.4,1c0.3,0.5,0.4,1,0.4,1.7v0.8c0,0.3,0,0.6,0.1,1c0.1,0.3,0.2,0.6,0.4,0.8v0.2H251
			c-0.2-0.2-0.3-0.4-0.4-0.8c-0.1-0.4-0.1-0.8-0.1-1.1v-0.8c0-0.6-0.2-1-0.5-1.3c-0.3-0.3-0.8-0.5-1.3-0.5H246.9z M246.9,103.6h1.6
			c0.6,0,1.1-0.1,1.4-0.4c0.3-0.3,0.5-0.7,0.5-1.2c0-0.5-0.2-0.9-0.5-1.2c-0.3-0.3-0.8-0.5-1.4-0.5h-1.7V103.6z"/>
		<path fill="#FFFFFF" d="M258.3,110.1c-1.3,0-2.2-0.4-3-1.2c-0.7-0.8-1.1-1.8-1.1-3v-0.3c0-1.3,0.3-2.3,1-3.1
			c0.7-0.8,1.6-1.2,2.8-1.2c1.1,0,2,0.3,2.6,1c0.6,0.7,0.9,1.6,0.9,2.8v1.2h-5l0,0c0,0.6,0.2,1,0.5,1.4c0.3,0.4,0.8,0.5,1.4,0.5
			c0.5,0,0.9-0.1,1.3-0.2c0.4-0.1,0.7-0.3,1.1-0.5l0.6,1.4c-0.3,0.3-0.8,0.5-1.4,0.7S259,110.1,258.3,110.1z M258.2,103.1
			c-0.5,0-0.8,0.2-1.1,0.5c-0.2,0.3-0.4,0.7-0.4,1.3l0,0h2.8v-0.2c0-0.5-0.1-0.9-0.3-1.2C259,103.2,258.6,103.1,258.2,103.1z"/>
		<path fill="#FFFFFF" d="M266.6,108.4c0.4,0,0.7-0.1,0.9-0.4c0.2-0.2,0.4-0.6,0.4-0.9h2.1l0,0c0,0.9-0.3,1.6-1,2.1
			c-0.7,0.6-1.5,0.9-2.4,0.9c-1.2,0-2.2-0.4-2.9-1.2c-0.7-0.8-1-1.8-1-3.1v-0.2c0-1.2,0.3-2.3,1-3.1s1.6-1.2,2.9-1.2
			c1,0,1.9,0.3,2.5,0.9c0.6,0.6,0.9,1.4,0.9,2.3l0,0h-2.1c0-0.4-0.1-0.8-0.3-1.1c-0.2-0.3-0.6-0.4-1-0.4c-0.6,0-1,0.2-1.3,0.7
			c-0.2,0.5-0.4,1.1-0.4,1.8v0.2c0,0.8,0.1,1.4,0.4,1.8C265.5,108.1,266,108.4,266.6,108.4z"/>
		<path fill="#FFFFFF" d="M270.9,105.6c0-1.3,0.4-2.3,1.1-3.1s1.7-1.2,2.9-1.2c1.2,0,2.2,0.4,2.9,1.2c0.7,0.8,1.1,1.8,1.1,3.1v0.2
			c0,1.3-0.4,2.3-1.1,3.1c-0.7,0.8-1.7,1.2-2.9,1.2c-1.2,0-2.2-0.4-2.9-1.2c-0.7-0.8-1.1-1.8-1.1-3.1V105.6z M273.2,105.8
			c0,0.8,0.1,1.4,0.4,1.9c0.3,0.5,0.7,0.7,1.3,0.7c0.6,0,1-0.2,1.3-0.7s0.4-1.1,0.4-1.9v-0.2c0-0.8-0.1-1.4-0.4-1.8
			c-0.3-0.5-0.7-0.7-1.3-0.7c-0.6,0-1,0.2-1.3,0.7s-0.4,1.1-0.4,1.8V105.8z"/>
		<path fill="#FFFFFF" d="M282.4,101.5l0.1,1.2c0.3-0.4,0.6-0.8,1-1c0.4-0.2,0.9-0.4,1.4-0.4c0.9,0,1.5,0.3,2,0.8
			c0.5,0.5,0.7,1.4,0.7,2.6v5.2h-2.3v-5.2c0-0.6-0.1-1-0.3-1.3c-0.2-0.3-0.5-0.4-0.9-0.4c-0.3,0-0.6,0.1-0.9,0.2
			c-0.3,0.1-0.5,0.3-0.6,0.5v6.1h-2.3v-8.5H282.4z"/>
		<path fill="#FFFFFF" d="M289,105.8c0-1.3,0.3-2.4,0.9-3.2c0.6-0.8,1.4-1.2,2.4-1.2c0.5,0,0.9,0.1,1.2,0.3c0.4,0.2,0.7,0.5,0.9,0.9
			l0.2-1h1.9v11.7h-2.3v-4c-0.2,0.3-0.5,0.5-0.9,0.7s-0.7,0.2-1.2,0.2c-1,0-1.8-0.4-2.4-1.1c-0.6-0.8-0.9-1.8-0.9-3V105.8z
			 M291.3,105.9c0,0.7,0.1,1.3,0.4,1.8c0.2,0.4,0.7,0.6,1.2,0.6c0.3,0,0.6-0.1,0.9-0.2c0.2-0.1,0.4-0.3,0.6-0.5v-3.8
			c-0.2-0.2-0.3-0.4-0.6-0.6c-0.2-0.1-0.5-0.2-0.8-0.2c-0.6,0-1,0.2-1.2,0.8s-0.4,1.1-0.4,1.9V105.9z"/>
		<path fill="#FFFFFF" d="M303.5,108.7c-0.3,0.5-0.6,0.8-1,1c-0.4,0.2-0.9,0.4-1.4,0.4c-0.9,0-1.6-0.3-2.1-0.9
			c-0.5-0.6-0.8-1.5-0.8-2.8v-4.9h2.3v4.9c0,0.7,0.1,1.2,0.3,1.5c0.2,0.3,0.5,0.4,0.9,0.4c0.4,0,0.7-0.1,0.9-0.2
			c0.3-0.1,0.5-0.3,0.6-0.5v-6.1h2.3v8.5h-1.9L303.5,108.7z"/>
		<path fill="#FFFFFF" d="M309.8,99.5h-2.3v-1.7h2.3V99.5z M309.8,109.9h-2.3v-8.5h2.3V109.9z"/>
		<path fill="#FFFFFF" d="M316.2,107.6c0-0.2-0.1-0.5-0.4-0.6s-0.7-0.3-1.3-0.5c-1-0.2-1.7-0.5-2.3-0.9c-0.5-0.4-0.8-0.9-0.8-1.6
			c0-0.7,0.3-1.3,0.9-1.9c0.6-0.5,1.4-0.8,2.5-0.8c1.1,0,1.9,0.3,2.6,0.8c0.6,0.5,1,1.1,0.9,1.9l0,0h-2.2c0-0.3-0.1-0.6-0.3-0.8
			c-0.2-0.2-0.5-0.3-0.9-0.3c-0.4,0-0.7,0.1-0.9,0.3c-0.2,0.2-0.3,0.4-0.3,0.7c0,0.3,0.1,0.5,0.3,0.6c0.2,0.2,0.7,0.3,1.3,0.4
			c1,0.2,1.8,0.5,2.3,0.9c0.5,0.4,0.8,1,0.8,1.7c0,0.8-0.3,1.4-1,1.9c-0.7,0.5-1.5,0.7-2.6,0.7c-1.1,0-2-0.3-2.7-0.9
			c-0.7-0.6-1-1.2-0.9-1.9l0,0h2.1c0,0.5,0.2,0.8,0.4,1s0.6,0.3,1.1,0.3c0.4,0,0.7-0.1,1-0.3C316.1,108.1,316.2,107.9,316.2,107.6z"
			/>
		<path fill="#FFFFFF" d="M322.7,99.4v2.1h1.4v1.6h-1.4v4.3c0,0.3,0.1,0.6,0.2,0.7c0.1,0.1,0.3,0.2,0.5,0.2c0.1,0,0.2,0,0.3,0
			c0.1,0,0.2,0,0.3-0.1l0.2,1.6c-0.2,0.1-0.5,0.1-0.7,0.2c-0.2,0-0.5,0.1-0.7,0.1c-0.8,0-1.4-0.2-1.8-0.6c-0.4-0.4-0.6-1.1-0.6-2.1
			v-4.3h-1.2v-1.6h1.2v-2.1H322.7z"/>
		<path fill="#FFFFFF" d="M330.5,109.9c-0.1-0.2-0.2-0.4-0.2-0.6c-0.1-0.2-0.1-0.4-0.1-0.7c-0.2,0.4-0.5,0.8-0.9,1
			c-0.4,0.3-0.8,0.4-1.4,0.4c-0.9,0-1.6-0.2-2-0.7c-0.5-0.5-0.7-1.1-0.7-1.9c0-0.8,0.3-1.5,1-1.9c0.6-0.5,1.6-0.7,2.8-0.7h1.3v-0.7
			c0-0.4-0.1-0.7-0.3-0.9c-0.2-0.2-0.5-0.3-1-0.3c-0.4,0-0.7,0.1-0.9,0.3c-0.2,0.2-0.3,0.4-0.3,0.7h-2.2l0,0c0-0.7,0.3-1.3,0.9-1.8
			c0.7-0.5,1.5-0.8,2.6-0.8c1,0,1.8,0.3,2.5,0.8c0.6,0.5,0.9,1.2,0.9,2.2v3.5c0,0.4,0,0.8,0.1,1.1c0.1,0.3,0.2,0.7,0.3,1H330.5z
			 M328.4,108.4c0.4,0,0.8-0.1,1.1-0.3c0.3-0.2,0.5-0.4,0.6-0.7v-1.2h-1.3c-0.5,0-0.9,0.1-1.1,0.4c-0.2,0.2-0.4,0.5-0.4,0.9
			c0,0.3,0.1,0.5,0.3,0.7C327.8,108.3,328.1,108.4,328.4,108.4z"/>
		<path fill="#FFFFFF" d="M342.4,98.4c0.4,0,0.9,0,1.2,0.1c0.4,0.1,0.8,0.2,1.1,0.4l-0.4,1.7c-0.4-0.1-0.7-0.2-1-0.3
			c-0.3-0.1-0.6-0.1-1-0.1c-0.7,0-1.2,0.3-1.6,0.8c-0.4,0.5-0.6,1.2-0.6,2.1v0.4c0.3-0.3,0.7-0.5,1.1-0.7c0.4-0.2,0.9-0.2,1.4-0.2
			c1,0,1.7,0.3,2.3,1c0.5,0.7,0.8,1.6,0.8,2.7c0,1.1-0.4,2.1-1.1,2.8c-0.7,0.7-1.6,1.1-2.8,1.1c-1.2,0-2.2-0.4-2.9-1.2
			c-0.7-0.8-1.1-1.9-1.1-3.3v-2.4c0-1.4,0.4-2.6,1.3-3.5C340.1,98.8,341.1,98.4,342.4,98.4z M341.9,104.2c-0.4,0-0.8,0.1-1.1,0.2
			s-0.5,0.3-0.7,0.6v0.6c0,0.9,0.2,1.6,0.5,2c0.3,0.5,0.7,0.7,1.3,0.7c0.5,0,0.9-0.2,1.1-0.6s0.4-0.9,0.4-1.5c0-0.6-0.1-1.1-0.4-1.5
			C342.8,104.4,342.4,104.2,341.9,104.2z"/>
		<path fill="#FFFFFF" d="M354.6,101.5c0,0.6-0.1,1.1-0.4,1.5c-0.3,0.4-0.7,0.8-1.2,1c0.6,0.3,1.1,0.6,1.5,1.1
			c0.4,0.5,0.5,1,0.5,1.6c0,1.1-0.4,1.9-1.1,2.5c-0.7,0.6-1.7,0.9-2.8,0.9c-1.2,0-2.2-0.3-2.9-0.9s-1.1-1.4-1.1-2.5
			c0-0.6,0.2-1.2,0.6-1.6c0.4-0.5,0.9-0.8,1.5-1.1c-0.5-0.2-1-0.6-1.3-1c-0.3-0.4-0.5-0.9-0.5-1.5c0-1,0.3-1.8,1-2.3
			c0.7-0.5,1.6-0.8,2.7-0.8c1,0,1.9,0.3,2.6,0.8S354.6,100.5,354.6,101.5z M352.7,106.7c0-0.5-0.2-0.9-0.5-1.2
			c-0.3-0.3-0.7-0.5-1.2-0.5c-0.5,0-0.9,0.2-1.3,0.5c-0.3,0.3-0.5,0.7-0.5,1.2c0,0.5,0.2,0.9,0.5,1.2c0.3,0.3,0.8,0.5,1.3,0.5
			c0.5,0,0.9-0.2,1.2-0.5C352.6,107.6,352.7,107.2,352.7,106.7z M352.3,101.6c0-0.4-0.1-0.8-0.4-1.1c-0.2-0.3-0.5-0.4-0.9-0.4
			c-0.4,0-0.8,0.1-1,0.4c-0.3,0.3-0.4,0.6-0.4,1.1c0,0.5,0.1,0.8,0.4,1.1c0.3,0.3,0.6,0.4,1,0.4c0.4,0,0.7-0.1,0.9-0.4
			C352.2,102.5,352.3,102.1,352.3,101.6z"/>
		<path fill="#FFFFFF" d="M356.3,100.8c0-0.7,0.2-1.2,0.7-1.7c0.4-0.4,1-0.7,1.8-0.7c0.8,0,1.4,0.2,1.8,0.7c0.4,0.4,0.6,1,0.6,1.7
			v0.6c0,0.7-0.2,1.2-0.6,1.7c-0.4,0.4-1,0.7-1.8,0.7c-0.8,0-1.4-0.2-1.8-0.7c-0.4-0.4-0.7-1-0.7-1.7V100.8z M357.8,101.4
			c0,0.3,0.1,0.6,0.2,0.8c0.2,0.2,0.4,0.3,0.7,0.3c0.3,0,0.5-0.1,0.7-0.3c0.2-0.2,0.2-0.5,0.2-0.8v-0.6c0-0.3-0.1-0.6-0.2-0.8
			c-0.2-0.2-0.4-0.3-0.7-0.3c-0.3,0-0.5,0.1-0.7,0.3s-0.2,0.5-0.2,0.8V101.4z M359.2,109.1l-1.1-0.6l5.6-8.9l1.1,0.6L359.2,109.1z
			 M361.7,107.1c0-0.7,0.2-1.2,0.7-1.7c0.4-0.4,1-0.7,1.8-0.7c0.8,0,1.4,0.2,1.8,0.7c0.4,0.4,0.7,1,0.7,1.7v0.6
			c0,0.7-0.2,1.2-0.6,1.7c-0.4,0.4-1,0.7-1.8,0.7c-0.8,0-1.4-0.2-1.8-0.7c-0.4-0.4-0.7-1-0.7-1.7V107.1z M363.2,107.8
			c0,0.3,0.1,0.6,0.3,0.8s0.4,0.3,0.7,0.3c0.3,0,0.6-0.1,0.7-0.3c0.1-0.2,0.2-0.5,0.2-0.8v-0.6c0-0.3-0.1-0.6-0.2-0.8
			c-0.2-0.2-0.4-0.3-0.7-0.3c-0.3,0-0.6,0.1-0.7,0.3s-0.2,0.5-0.2,0.8V107.8z"/>
	</g>
	<g>
		<path fill="#FFFFFF" d="M13.2,245.2L13.2,245.2c0,1.3-0.3,2.2-1.1,2.9s-1.8,1-3.1,1c-1.4,0-2.5-0.4-3.3-1.3
			c-0.8-0.9-1.3-2-1.3-3.4v-2.3c0-1.4,0.4-2.5,1.2-3.4s1.9-1.3,3.2-1.3c1.4,0,2.5,0.3,3.2,1c0.8,0.7,1.2,1.6,1.1,2.9l0,0H11
			c0-0.7-0.2-1.3-0.5-1.6c-0.4-0.4-0.9-0.5-1.6-0.5c-0.7,0-1.2,0.3-1.6,0.8c-0.4,0.5-0.6,1.3-0.6,2.1v2.3c0,0.9,0.2,1.6,0.6,2.1
			c0.4,0.6,1,0.8,1.7,0.8c0.7,0,1.2-0.2,1.5-0.5c0.3-0.4,0.5-0.9,0.5-1.6H13.2z"/>
		<path fill="#FFFFFF" d="M16.9,241.6c0.3-0.4,0.6-0.7,1-0.9c0.4-0.2,0.8-0.3,1.3-0.3c0.9,0,1.6,0.3,2.1,0.9s0.8,1.5,0.8,2.7v5h-2.3
			v-5c0-0.7-0.1-1.1-0.3-1.4s-0.5-0.4-0.9-0.4c-0.3,0-0.7,0.1-0.9,0.2c-0.3,0.1-0.5,0.3-0.6,0.5v6.2h-2.3v-12.2h2.3V241.6z"/>
		<path fill="#FFFFFF" d="M28.7,248.9c-0.1-0.2-0.2-0.4-0.2-0.6c-0.1-0.2-0.1-0.4-0.1-0.7c-0.2,0.4-0.5,0.8-0.9,1
			c-0.4,0.3-0.8,0.4-1.4,0.4c-0.9,0-1.6-0.2-2-0.7c-0.5-0.5-0.7-1.1-0.7-1.9c0-0.8,0.3-1.5,1-1.9c0.6-0.5,1.6-0.7,2.8-0.7h1.3v-0.7
			c0-0.4-0.1-0.7-0.3-0.9c-0.2-0.2-0.5-0.3-1-0.3c-0.4,0-0.7,0.1-0.9,0.3s-0.3,0.4-0.3,0.7h-2.2l0,0c0-0.7,0.3-1.3,0.9-1.8
			c0.7-0.5,1.5-0.8,2.6-0.8c1,0,1.8,0.3,2.5,0.8c0.6,0.5,0.9,1.2,0.9,2.2v3.5c0,0.4,0,0.8,0.1,1.1c0.1,0.3,0.2,0.7,0.3,1H28.7z
			 M26.7,247.4c0.4,0,0.8-0.1,1.1-0.3c0.3-0.2,0.5-0.4,0.6-0.7v-1.2h-1.3c-0.5,0-0.9,0.1-1.1,0.4c-0.2,0.2-0.4,0.5-0.4,0.9
			c0,0.3,0.1,0.5,0.3,0.7C26.1,247.3,26.3,247.4,26.7,247.4z"/>
		<path fill="#FFFFFF" d="M40,244.9c0,1.2-0.3,2.3-0.9,3c-0.6,0.8-1.4,1.1-2.4,1.1c-0.4,0-0.8-0.1-1.2-0.2s-0.6-0.4-0.9-0.7v4.1
			h-2.3v-11.7h2.1l0.1,1c0.2-0.4,0.6-0.7,0.9-0.9c0.4-0.2,0.8-0.3,1.2-0.3c1,0,1.9,0.4,2.4,1.2c0.6,0.8,0.9,1.9,0.9,3.2V244.9z
			 M37.7,244.8c0-0.8-0.1-1.4-0.4-1.9c-0.3-0.5-0.7-0.7-1.2-0.7c-0.3,0-0.6,0.1-0.9,0.2s-0.4,0.3-0.6,0.6v3.7
			c0.1,0.2,0.3,0.4,0.6,0.5s0.5,0.2,0.9,0.2c0.6,0,1-0.2,1.2-0.6c0.3-0.4,0.4-1,0.4-1.8V244.8z"/>
		<path fill="#FFFFFF" d="M45,249.1c-1.3,0-2.2-0.4-3-1.2s-1.1-1.8-1.1-3v-0.3c0-1.3,0.3-2.3,1-3.1c0.7-0.8,1.6-1.2,2.8-1.2
			c1.1,0,2,0.3,2.6,1s0.9,1.6,0.9,2.8v1.2h-5l0,0c0,0.6,0.2,1,0.5,1.4s0.8,0.5,1.4,0.5c0.5,0,0.9-0.1,1.3-0.2
			c0.4-0.1,0.7-0.3,1.1-0.5l0.6,1.4c-0.3,0.3-0.8,0.5-1.4,0.7S45.7,249.1,45,249.1z M44.9,242.1c-0.5,0-0.8,0.2-1.1,0.5
			c-0.2,0.3-0.4,0.7-0.4,1.3l0,0h2.8v-0.2c0-0.5-0.1-0.9-0.3-1.2C45.7,242.2,45.3,242.1,44.9,242.1z"/>
		<path fill="#FFFFFF" d="M52.1,248.9h-2.3v-12.2h2.3V248.9z"/>
		<path fill="#FFFFFF" d="M57.6,247.4c0.4,0,0.7-0.1,0.9-0.4c0.2-0.2,0.4-0.6,0.4-0.9h2.1l0,0c0,0.9-0.3,1.6-1,2.1
			c-0.7,0.6-1.5,0.9-2.4,0.9c-1.2,0-2.2-0.4-2.9-1.2c-0.7-0.8-1-1.8-1-3.1v-0.2c0-1.2,0.3-2.3,1-3.1s1.6-1.2,2.9-1.2
			c1,0,1.9,0.3,2.5,0.9s0.9,1.4,0.9,2.3l0,0h-2.1c0-0.4-0.1-0.8-0.3-1.1s-0.6-0.4-1-0.4c-0.6,0-1,0.2-1.3,0.7
			c-0.2,0.5-0.4,1.1-0.4,1.8v0.2c0,0.8,0.1,1.4,0.4,1.8C56.5,247.1,57,247.4,57.6,247.4z"/>
		<path fill="#FFFFFF" d="M61.9,244.6c0-1.3,0.4-2.3,1.1-3.1s1.7-1.2,2.9-1.2c1.2,0,2.2,0.4,2.9,1.2c0.7,0.8,1.1,1.8,1.1,3.1v0.2
			c0,1.3-0.4,2.3-1.1,3.1c-0.7,0.8-1.7,1.2-2.9,1.2c-1.2,0-2.2-0.4-2.9-1.2c-0.7-0.8-1.1-1.8-1.1-3.1V244.6z M64.2,244.8
			c0,0.8,0.1,1.4,0.4,1.9c0.3,0.5,0.7,0.7,1.3,0.7c0.6,0,1-0.2,1.3-0.7s0.4-1.1,0.4-1.9v-0.2c0-0.8-0.1-1.4-0.4-1.8
			c-0.3-0.5-0.7-0.7-1.3-0.7c-0.6,0-1,0.2-1.3,0.7s-0.4,1.1-0.4,1.8V244.8z"/>
		<path fill="#FFFFFF" d="M81.9,244.7h1.3v1.8h-1.3v2.5h-2.3v-2.5H75l-0.1-1.4l4.7-7.5h2.3V244.7z M76.9,244.7h2.7v-4.1l0,0
			l-0.2,0.5L76.9,244.7z"/>
		<path fill="#FFFFFF" d="M91.8,240.5c0,0.6-0.1,1.1-0.4,1.5c-0.3,0.4-0.7,0.8-1.2,1c0.6,0.3,1.1,0.6,1.5,1.1s0.5,1,0.5,1.6
			c0,1.1-0.4,1.9-1.1,2.5s-1.7,0.9-2.8,0.9c-1.2,0-2.2-0.3-2.9-0.9s-1.1-1.4-1.1-2.5c0-0.6,0.2-1.2,0.6-1.6s0.9-0.8,1.5-1.1
			c-0.5-0.2-1-0.6-1.3-1c-0.3-0.4-0.5-0.9-0.5-1.5c0-1,0.3-1.8,1-2.3s1.6-0.8,2.7-0.8c1,0,1.9,0.3,2.6,0.8S91.8,239.5,91.8,240.5z
			 M89.9,245.7c0-0.5-0.2-0.9-0.5-1.2c-0.3-0.3-0.7-0.5-1.2-0.5c-0.5,0-0.9,0.2-1.3,0.5c-0.3,0.3-0.5,0.7-0.5,1.2
			c0,0.5,0.2,0.9,0.5,1.2c0.3,0.3,0.8,0.5,1.3,0.5c0.5,0,0.9-0.2,1.2-0.5C89.8,246.6,89.9,246.2,89.9,245.7z M89.6,240.6
			c0-0.4-0.1-0.8-0.4-1.1c-0.2-0.3-0.5-0.4-0.9-0.4c-0.4,0-0.8,0.1-1,0.4s-0.4,0.6-0.4,1.1c0,0.5,0.1,0.8,0.4,1.1
			c0.3,0.3,0.6,0.4,1,0.4c0.4,0,0.7-0.1,0.9-0.4S89.6,241.1,89.6,240.6z"/>
		<path fill="#FFFFFF" d="M93.5,239.8c0-0.7,0.2-1.2,0.7-1.7c0.4-0.4,1-0.7,1.8-0.7c0.8,0,1.4,0.2,1.8,0.7s0.6,1,0.6,1.7v0.6
			c0,0.7-0.2,1.2-0.6,1.7c-0.4,0.4-1,0.7-1.8,0.7c-0.8,0-1.4-0.2-1.8-0.7c-0.4-0.4-0.7-1-0.7-1.7V239.8z M95,240.4
			c0,0.3,0.1,0.6,0.2,0.8c0.2,0.2,0.4,0.3,0.7,0.3c0.3,0,0.5-0.1,0.7-0.3c0.2-0.2,0.2-0.5,0.2-0.8v-0.6c0-0.3-0.1-0.6-0.2-0.8
			s-0.4-0.3-0.7-0.3s-0.5,0.1-0.7,0.3s-0.2,0.5-0.2,0.8V240.4z M96.4,248.1l-1.1-0.6l5.6-8.9l1.1,0.6L96.4,248.1z M98.9,246.1
			c0-0.7,0.2-1.2,0.7-1.7c0.4-0.4,1-0.7,1.8-0.7c0.8,0,1.4,0.2,1.8,0.7s0.7,1,0.7,1.7v0.6c0,0.7-0.2,1.2-0.6,1.7
			c-0.4,0.4-1,0.7-1.8,0.7c-0.8,0-1.4-0.2-1.8-0.7s-0.7-1-0.7-1.7V246.1z M100.5,246.8c0,0.3,0.1,0.6,0.3,0.8s0.4,0.3,0.7,0.3
			c0.3,0,0.6-0.1,0.7-0.3s0.2-0.5,0.2-0.8v-0.6c0-0.3-0.1-0.6-0.2-0.8s-0.4-0.3-0.7-0.3c-0.3,0-0.6,0.1-0.7,0.3s-0.2,0.5-0.2,0.8
			V246.8z"/>
	</g>
	<g>
		<path fill="#FFFFFF" d="M260.8,222.3L260.8,222.3l3-8.4h3v11.4h-2.3v-7.8l0,0l-2.8,7.8h-1.5l-2.8-7.8l0,0v7.8H255v-11.4h3
			L260.8,222.3z"/>
		<path fill="#FFFFFF" d="M273.7,225.3c-0.1-0.2-0.2-0.4-0.2-0.6s-0.1-0.4-0.1-0.7c-0.2,0.4-0.5,0.8-0.9,1s-0.8,0.4-1.4,0.4
			c-0.9,0-1.6-0.2-2-0.7s-0.7-1.1-0.7-1.9c0-0.8,0.3-1.5,1-1.9s1.6-0.7,2.8-0.7h1.3v-0.7c0-0.4-0.1-0.7-0.3-0.9s-0.5-0.3-1-0.3
			c-0.4,0-0.7,0.1-0.9,0.3s-0.3,0.4-0.3,0.7h-2.2l0,0c0-0.7,0.3-1.3,0.9-1.8s1.5-0.8,2.6-0.8c1,0,1.8,0.3,2.5,0.8s0.9,1.2,0.9,2.2
			v3.5c0,0.4,0,0.8,0.1,1.1s0.2,0.7,0.3,1H273.7z M271.6,223.7c0.4,0,0.8-0.1,1.1-0.3s0.5-0.4,0.6-0.7v-1.2H272
			c-0.5,0-0.9,0.1-1.1,0.4s-0.4,0.5-0.4,0.9c0,0.3,0.1,0.5,0.3,0.7S271.3,223.7,271.6,223.7z"/>
		<path fill="#FFFFFF" d="M281.8,218.8l-0.8,0c-0.3,0-0.6,0.1-0.8,0.2s-0.4,0.3-0.5,0.6v5.7h-2.3v-8.5h2.1l0.1,1.2
			c0.2-0.4,0.5-0.8,0.8-1s0.7-0.4,1.1-0.4c0.1,0,0.2,0,0.3,0s0.2,0,0.3,0.1L281.8,218.8z"/>
		<path fill="#FFFFFF" d="M286.6,221.1c0-1.3,0.3-2.4,0.9-3.2s1.4-1.2,2.4-1.2c0.4,0,0.8,0.1,1.1,0.3s0.6,0.4,0.9,0.8v-4.6h2.3v12.2
			h-1.9l-0.2-1c-0.3,0.4-0.6,0.7-0.9,0.9c-0.4,0.2-0.8,0.3-1.2,0.3c-1,0-1.8-0.4-2.4-1.1s-0.9-1.8-0.9-3V221.1z M288.8,221.3
			c0,0.7,0.1,1.3,0.4,1.7s0.7,0.6,1.2,0.6c0.3,0,0.6-0.1,0.9-0.2s0.4-0.3,0.6-0.6v-3.6c-0.2-0.3-0.4-0.5-0.6-0.6s-0.5-0.2-0.8-0.2
			c-0.6,0-1,0.2-1.2,0.7s-0.4,1.1-0.4,1.9V221.3z"/>
		<path fill="#FFFFFF" d="M299.6,225.4c-1.3,0-2.2-0.4-3-1.2s-1.1-1.8-1.1-3V221c0-1.3,0.3-2.3,1-3.1s1.6-1.2,2.8-1.2
			c1.1,0,2,0.3,2.6,1s0.9,1.6,0.9,2.8v1.2h-5l0,0c0,0.6,0.2,1,0.5,1.4s0.8,0.5,1.4,0.5c0.5,0,0.9-0.1,1.3-0.2s0.7-0.3,1.1-0.5
			l0.6,1.4c-0.3,0.3-0.8,0.5-1.4,0.7S300.3,225.4,299.6,225.4z M299.5,218.4c-0.5,0-0.8,0.2-1.1,0.5s-0.4,0.7-0.4,1.3l0,0h2.8V220
			c0-0.5-0.1-0.9-0.3-1.2S299.9,218.4,299.5,218.4z"/>
		<path fill="#FFFFFF" d="M306.7,225.3h-2.3v-12.2h2.3V225.3z"/>
		<path fill="#FFFFFF" d="M315,221.1v4.1h-2.3v-11.4h4.4c1.3,0,2.3,0.3,3.1,1s1.1,1.5,1.1,2.6s-0.4,2-1.1,2.6s-1.8,1-3.1,1H315z
			 M315,219.4h2.1c0.6,0,1.1-0.2,1.4-0.5s0.5-0.8,0.5-1.3c0-0.5-0.2-1-0.5-1.4s-0.8-0.5-1.4-0.5H315V219.4z"/>
		<path fill="#FFFFFF" d="M325.2,225.3h-2.3v-12.2h2.3V225.3z"/>
		<path fill="#FFFFFF" d="M332,225.3c-0.1-0.2-0.2-0.4-0.2-0.6s-0.1-0.4-0.1-0.7c-0.2,0.4-0.5,0.8-0.9,1s-0.8,0.4-1.4,0.4
			c-0.9,0-1.6-0.2-2-0.7s-0.7-1.1-0.7-1.9c0-0.8,0.3-1.5,1-1.9s1.6-0.7,2.8-0.7h1.3v-0.7c0-0.4-0.1-0.7-0.3-0.9s-0.5-0.3-1-0.3
			c-0.4,0-0.7,0.1-0.9,0.3s-0.3,0.4-0.3,0.7H327l0,0c0-0.7,0.3-1.3,0.9-1.8s1.5-0.8,2.6-0.8c1,0,1.8,0.3,2.5,0.8s0.9,1.2,0.9,2.2
			v3.5c0,0.4,0,0.8,0.1,1.1s0.2,0.7,0.3,1H332z M329.9,223.7c0.4,0,0.8-0.1,1.1-0.3s0.5-0.4,0.6-0.7v-1.2h-1.3
			c-0.5,0-0.9,0.1-1.1,0.4s-0.4,0.5-0.4,0.9c0,0.3,0.1,0.5,0.3,0.7S329.6,223.7,329.9,223.7z"/>
		<path fill="#FFFFFF" d="M338.4,214.7v2.1h1.4v1.6h-1.4v4.3c0,0.3,0.1,0.6,0.2,0.7s0.3,0.2,0.5,0.2c0.1,0,0.2,0,0.3,0
			s0.2,0,0.3-0.1l0.2,1.6c-0.2,0.1-0.5,0.1-0.7,0.2s-0.5,0.1-0.7,0.1c-0.8,0-1.4-0.2-1.8-0.6s-0.6-1.1-0.6-2.1v-4.3h-1.2v-1.6h1.2
			v-2.1H338.4z"/>
		<path fill="#FFFFFF" d="M346.2,225.3c-0.1-0.2-0.2-0.4-0.2-0.6s-0.1-0.4-0.1-0.7c-0.2,0.4-0.5,0.8-0.9,1s-0.8,0.4-1.4,0.4
			c-0.9,0-1.6-0.2-2-0.7s-0.7-1.1-0.7-1.9c0-0.8,0.3-1.5,1-1.9s1.6-0.7,2.8-0.7h1.3v-0.7c0-0.4-0.1-0.7-0.3-0.9s-0.5-0.3-1-0.3
			c-0.4,0-0.7,0.1-0.9,0.3s-0.3,0.4-0.3,0.7h-2.2l0,0c0-0.7,0.3-1.3,0.9-1.8s1.5-0.8,2.6-0.8c1,0,1.8,0.3,2.5,0.8s0.9,1.2,0.9,2.2
			v3.5c0,0.4,0,0.8,0.1,1.1s0.2,0.7,0.3,1H346.2z M344.1,223.7c0.4,0,0.8-0.1,1.1-0.3s0.5-0.4,0.6-0.7v-1.2h-1.3
			c-0.5,0-0.9,0.1-1.1,0.4s-0.4,0.5-0.4,0.9c0,0.3,0.1,0.5,0.3,0.7S343.8,223.7,344.1,223.7z"/>
		<path fill="#FFFFFF" d="M358.1,213.7c0.4,0,0.9,0,1.2,0.1s0.8,0.2,1.1,0.4l-0.4,1.7c-0.4-0.1-0.7-0.2-1-0.3s-0.6-0.1-1-0.1
			c-0.7,0-1.2,0.3-1.6,0.8s-0.6,1.2-0.6,2.1v0.4c0.3-0.3,0.7-0.5,1.1-0.7s0.9-0.2,1.4-0.2c1,0,1.7,0.3,2.3,1s0.8,1.6,0.8,2.7
			c0,1.1-0.4,2.1-1.1,2.8s-1.6,1.1-2.8,1.1c-1.2,0-2.2-0.4-2.9-1.2s-1.1-1.9-1.1-3.3v-2.4c0-1.4,0.4-2.6,1.3-3.5
			S356.8,213.7,358.1,213.7z M357.7,219.6c-0.4,0-0.8,0.1-1.1,0.2s-0.5,0.3-0.7,0.6v0.6c0,0.9,0.2,1.6,0.5,2s0.7,0.7,1.3,0.7
			c0.5,0,0.9-0.2,1.1-0.6s0.4-0.9,0.4-1.5c0-0.6-0.1-1.1-0.4-1.5S358.1,219.6,357.7,219.6z"/>
		<path fill="#FFFFFF" d="M370.3,216.8c0,0.6-0.1,1.1-0.4,1.5s-0.7,0.8-1.2,1c0.6,0.3,1.1,0.6,1.5,1.1s0.5,1,0.5,1.6
			c0,1.1-0.4,1.9-1.1,2.5s-1.7,0.9-2.8,0.9c-1.2,0-2.2-0.3-2.9-0.9s-1.1-1.4-1.1-2.5c0-0.6,0.2-1.2,0.6-1.6s0.9-0.8,1.5-1.1
			c-0.5-0.2-1-0.6-1.3-1s-0.5-0.9-0.5-1.5c0-1,0.3-1.8,1-2.3s1.6-0.8,2.7-0.8c1,0,1.9,0.3,2.6,0.8S370.3,215.8,370.3,216.8z
			 M368.4,222c0-0.5-0.2-0.9-0.5-1.2s-0.7-0.5-1.2-0.5c-0.5,0-0.9,0.2-1.3,0.5s-0.5,0.7-0.5,1.2c0,0.5,0.2,0.9,0.5,1.2
			s0.8,0.5,1.3,0.5c0.5,0,0.9-0.2,1.2-0.5S368.4,222.5,368.4,222z M368.1,217c0-0.4-0.1-0.8-0.4-1.1s-0.5-0.4-0.9-0.4
			c-0.4,0-0.8,0.1-1,0.4s-0.4,0.6-0.4,1.1c0,0.5,0.1,0.8,0.4,1.1s0.6,0.4,1,0.4c0.4,0,0.7-0.1,0.9-0.4S368.1,217.4,368.1,217z"/>
		<path fill="#FFFFFF" d="M372,216.1c0-0.7,0.2-1.2,0.7-1.7s1-0.7,1.8-0.7c0.8,0,1.4,0.2,1.8,0.7s0.6,1,0.6,1.7v0.6
			c0,0.7-0.2,1.2-0.6,1.7s-1,0.7-1.8,0.7c-0.8,0-1.4-0.2-1.8-0.7s-0.7-1-0.7-1.7V216.1z M373.5,216.7c0,0.3,0.1,0.6,0.2,0.8
			s0.4,0.3,0.7,0.3c0.3,0,0.5-0.1,0.7-0.3s0.2-0.5,0.2-0.8v-0.6c0-0.3-0.1-0.6-0.2-0.8s-0.4-0.3-0.7-0.3s-0.5,0.1-0.7,0.3
			s-0.2,0.5-0.2,0.8V216.7z M374.9,224.4l-1.1-0.6l5.6-8.9l1.1,0.6L374.9,224.4z M377.5,222.5c0-0.7,0.2-1.2,0.7-1.7s1-0.7,1.8-0.7
			c0.8,0,1.4,0.2,1.8,0.7s0.7,1,0.7,1.7v0.6c0,0.7-0.2,1.2-0.6,1.7s-1,0.7-1.8,0.7c-0.8,0-1.4-0.2-1.8-0.7s-0.7-1-0.7-1.7V222.5z
			 M379,223.1c0,0.3,0.1,0.6,0.3,0.8s0.4,0.3,0.7,0.3c0.3,0,0.6-0.1,0.7-0.3s0.2-0.5,0.2-0.8v-0.6c0-0.3-0.1-0.6-0.2-0.8
			s-0.4-0.3-0.7-0.3c-0.3,0-0.6,0.1-0.7,0.3s-0.2,0.5-0.2,0.8V223.1z"/>
	</g>
	<g>
		<path fill="#FFFFFF" d="M88.9,40h1.3v1.8h-1.3v2.5h-2.3v-2.5h-4.6l-0.1-1.4l4.7-7.5h2.3V40z M83.9,40h2.7v-4.1l0,0l-0.2,0.5
			L83.9,40z"/>
		<path fill="#FFFFFF" d="M99.1,34.7c-1.3,1.5-2.2,2.9-2.6,4.1s-0.7,2.6-0.7,4.1v1.4h-2.3v-1.4c0-1.6,0.3-3,0.9-4.3s1.4-2.6,2.5-3.9
			h-5.8v-1.8h8V34.7z"/>
		<path fill="#FFFFFF" d="M100.5,35.1c0-0.7,0.2-1.2,0.7-1.7s1-0.7,1.8-0.7c0.8,0,1.4,0.2,1.8,0.7s0.6,1,0.6,1.7v0.6
			c0,0.7-0.2,1.2-0.6,1.7s-1,0.7-1.8,0.7c-0.8,0-1.4-0.2-1.8-0.7s-0.7-1-0.7-1.7V35.1z M102,35.7c0,0.3,0.1,0.6,0.2,0.8
			s0.4,0.3,0.7,0.3c0.3,0,0.5-0.1,0.7-0.3s0.2-0.5,0.2-0.8v-0.6c0-0.3-0.1-0.6-0.2-0.8S103.3,34,103,34s-0.5,0.1-0.7,0.3
			s-0.2,0.5-0.2,0.8V35.7z M103.4,43.4l-1.1-0.6l5.6-8.9l1.1,0.6L103.4,43.4z M105.9,41.5c0-0.7,0.2-1.2,0.7-1.7s1-0.7,1.8-0.7
			c0.8,0,1.4,0.2,1.8,0.7s0.7,1,0.7,1.7v0.6c0,0.7-0.2,1.2-0.6,1.7s-1,0.7-1.8,0.7c-0.8,0-1.4-0.2-1.8-0.7s-0.7-1-0.7-1.7V41.5z
			 M107.5,42.1c0,0.3,0.1,0.6,0.3,0.8s0.4,0.3,0.7,0.3c0.3,0,0.6-0.1,0.7-0.3s0.2-0.5,0.2-0.8v-0.6c0-0.3-0.1-0.6-0.2-0.8
			s-0.4-0.3-0.7-0.3c-0.3,0-0.6,0.1-0.7,0.3s-0.2,0.5-0.2,0.8V42.1z"/>
		<path fill="#FFFFFF" d="M121.1,32.9h2.3v7.9c0,1.1-0.3,2-1,2.7s-1.6,1-2.7,1c-1.2,0-2.2-0.3-2.9-0.9s-1-1.5-1-2.6l0,0h2.2
			c0,0.6,0.1,1.1,0.4,1.3s0.7,0.4,1.2,0.4c0.4,0,0.8-0.2,1-0.5s0.4-0.8,0.4-1.4V32.9z"/>
		<path fill="#FFFFFF" d="M130.5,43c-0.3,0.5-0.6,0.8-1,1c-0.4,0.2-0.9,0.4-1.4,0.4c-0.9,0-1.6-0.3-2.1-0.9s-0.8-1.5-0.8-2.8v-4.9
			h2.3v4.9c0,0.7,0.1,1.2,0.3,1.5s0.5,0.4,0.9,0.4c0.4,0,0.7-0.1,0.9-0.2s0.5-0.3,0.6-0.5v-6.1h2.3v8.5h-1.9L130.5,43z"/>
		<path fill="#FFFFFF" d="M136.8,35.8v8.8c0,1-0.3,1.8-0.8,2.3s-1.3,0.8-2.2,0.8c-0.2,0-0.4,0-0.6,0c-0.2,0-0.4-0.1-0.5-0.1l0.1-1.7
			c0.1,0,0.2,0.1,0.4,0.1s0.2,0,0.4,0c0.3,0,0.5-0.1,0.7-0.3c0.2-0.2,0.2-0.5,0.2-1v-8.8H136.8z M136.8,33.8h-2.3v-1.7h2.3V33.8z"/>
		<path fill="#FFFFFF" d="M143.8,43c-0.3,0.5-0.6,0.8-1,1c-0.4,0.2-0.9,0.4-1.4,0.4c-0.9,0-1.6-0.3-2.1-0.9s-0.8-1.5-0.8-2.8v-4.9
			h2.3v4.9c0,0.7,0.1,1.2,0.3,1.5s0.5,0.4,0.9,0.4c0.4,0,0.7-0.1,0.9-0.2s0.5-0.3,0.6-0.5v-6.1h2.3v8.5H144L143.8,43z"/>
		<path fill="#FFFFFF" d="M150.7,40.7l0.1,0.5h0l1.6-5.4h2.5l-3.4,9.7c-0.2,0.6-0.6,1.1-1,1.5s-1,0.6-1.9,0.6c-0.2,0-0.4,0-0.5,0
			s-0.4-0.1-0.6-0.1l0.3-1.7c0.1,0,0.1,0,0.2,0c0.1,0,0.1,0,0.2,0c0.4,0,0.7-0.1,0.9-0.3c0.2-0.2,0.4-0.4,0.5-0.7l0.3-0.7l-3-8.4
			h2.5L150.7,40.7z"/>
	</g>
</g>
</svg>
